<svg xmlns="http://www.w3.org/2000/svg" xmlns:xlink="http://www.w3.org/1999/xlink" x="0" y="0" width="661.433349609375" height="571.5333251953125" style="
        width:661.433349609375px;
        height:571.5333251953125px;
        background: transparent;
        fill: none;
">
        
        
        <svg xmlns="http://www.w3.org/2000/svg" class="role-diagram-draw-area"><g class="shapes-region" style="stroke: black; fill: none;"><g class="arrow-line"><path class="connection real" stroke-dasharray="" d="  M282.28,157.15 L282.28,227.15" style="stroke: rgb(80, 227, 194); stroke-opacity: 1; stroke-width: 1px; fill: none; fill-opacity: 1;"/><g stroke="rgb(80,227,194)" stroke-opacity="1" transform="matrix(-1.8369701987210297e-16,-1,1,-1.8369701987210297e-16,282.2833251953125,229.14999389648438)" style="stroke: rgb(80, 227, 194); stroke-width: 1px;"><path d=" M10.93,-3.29 Q4.96,-0.45 0,0 Q4.96,0.45 10.93,3.29"/></g></g><g class="arrow-line"><path class="connection real" stroke-dasharray="" d="  M372.28,157.15 L372.28,227.15" style="stroke: rgb(144, 19, 254); stroke-opacity: 1; stroke-width: 1px; fill: none; fill-opacity: 1;"/><g stroke="rgb(144,19,254)" stroke-opacity="1" transform="matrix(-1.8369701987210297e-16,-1,1,-1.8369701987210297e-16,372.2833251953125,229.14999389648432)" style="stroke: rgb(144, 19, 254); stroke-width: 1px;"><path d=" M10.93,-3.29 Q4.96,-0.45 0,0 Q4.96,0.45 10.93,3.29"/></g></g><g/></g><g><g class="connection-group"><g class="arrow-line"><path class="connection real" stroke-dasharray="" d="  M329.23,50.2 L329.23,115.2" style="stroke: rgb(126, 211, 33); stroke-opacity: 1; stroke-width: 1px; fill: none; fill-opacity: 1;"/><g stroke="rgb(126,211,33)" stroke-opacity="1" transform="matrix(-1.8369701987210297e-16,-1,1,-1.8369701987210297e-16,329.225,117.19999999999999)" style="stroke: rgb(126, 211, 33); stroke-width: 1px;"><path d=" M10.93,-3.29 Q4.96,-0.45 0,0 Q4.96,0.45 10.93,3.29"/></g></g></g><g class="connection-group"><g class="arrow-line"><path class="connection real" stroke-dasharray="" d="  M284.14,186.92 L364.14,186.92 M284.14,189.92 L364.14,189.92" style="stroke: rgb(74, 144, 226); stroke-opacity: 1; stroke-width: 1px; fill: none; fill-opacity: 1;"/><g stroke="rgb(74,144,226)" stroke-opacity="1" transform="matrix(-1,1.2246467991473532e-16,-1.2246467991473532e-16,-1,371.13891056191335,188.42141002645388)" style="stroke: rgb(74, 144, 226); stroke-width: 1px;"><path d=" M10.93,-4.9 Q4.96,-1 0,0 Q4.96,1 10.93,4.9"/></g></g></g><g class="connection-group"><g class="arrow-line"><path class="connection real" stroke-dasharray="" d="  M275.26,300.17 L381.26,300.17" style="stroke: rgb(74, 144, 226); stroke-opacity: 1; stroke-width: 1px; fill: none; fill-opacity: 1;"/><g stroke="rgb(74,144,226)" stroke-opacity="1" transform="matrix(-1,1.2246467991473532e-16,-1.2246467991473532e-16,-1,383.26301059396934,300.16667175292974)" style="stroke: rgb(74, 144, 226); stroke-width: 1px;"><path d=" M10.93,-3.29 Q4.96,-0.45 0,0 Q4.96,0.45 10.93,3.29"/></g></g></g><g class="connection-group"><g class="arrow-line"><path class="connection real" stroke-dasharray="" d="  M428.5,343.67 L429.02,441.67" style="stroke: rgb(144, 19, 254); stroke-opacity: 1; stroke-width: 1px; fill: none; fill-opacity: 1;"/><g stroke="rgb(144,19,254)" stroke-opacity="1" transform="matrix(-0.00541049428353122,-0.9999853631686855,0.9999853631686855,-0.00541049428353122,429.03039027311377,443.6666717529297)" style="stroke: rgb(144, 19, 254); stroke-width: 1px;"><path d=" M10.93,-3.29 Q4.96,-0.45 0,0 Q4.96,0.45 10.93,3.29"/></g></g></g><g class="connection-group"><g class="arrow-line"><path class="connection real" stroke-dasharray="" d="  M229.79,344.67 L228.75,442.67" style="stroke: rgb(80, 227, 194); stroke-opacity: 1; stroke-width: 1px; fill: none; fill-opacity: 1;"/><g stroke="rgb(80,227,194)" stroke-opacity="1" transform="matrix(0.0106463073113138,-0.9999433264643717,0.9999433264643717,0.0106463073113138,228.7257765514162,444.6666717529297)" style="stroke: rgb(80, 227, 194); stroke-width: 1px;"><path d=" M10.93,-3.29 Q4.96,-0.45 0,0 Q4.96,0.45 10.93,3.29"/></g></g></g><g class="connection-group"><g class="arrow-line"><path class="connection real" stroke-dasharray="" d="  M273.76,487.94 L381.76,487.4" style="stroke: rgb(74, 144, 226); stroke-opacity: 1; stroke-width: 1px; fill: none; fill-opacity: 1;"/><g stroke="rgb(74,144,226)" stroke-opacity="1" transform="matrix(-0.9999871908648438,0.00506143321981126,-0.00506143321981126,-0.9999871908648438,383.7630105939694,487.3930399121337)" style="stroke: rgb(74, 144, 226); stroke-width: 1px;"><path d=" M10.93,-3.29 Q4.96,-0.45 0,0 Q4.96,0.45 10.93,3.29"/></g></g></g><g class="connection-group"><g class="arrow-line"><path class="connection real" stroke-dasharray="" d="  M275.26,342.45 L382.31,443.04" style="stroke: rgb(74, 144, 226); stroke-opacity: 1; stroke-width: 1px; fill: none; fill-opacity: 1;"/><g stroke="rgb(74,144,226)" stroke-opacity="1" transform="matrix(-0.7287296309972873,-0.6848015222723716,0.6848015222723716,-0.7287296309972873,383.7630105939694,444.4103903458945)" style="stroke: rgb(74, 144, 226); stroke-width: 1px;"><path d=" M10.93,-3.29 Q4.96,-0.45 0,0 Q4.96,0.45 10.93,3.29"/></g></g></g></g><g><g><rect rx="0" ry="0" x="119.22500000000002" y="229.79998779296875" width="422" height="330" style="stroke: rgb(155, 155, 155); stroke-opacity: 1; stroke-width: 1px; fill: none; fill-opacity: 1;"/></g><g><rect rx="0" ry="0" x="219.72500000000002" y="10.79998779296875" width="219" height="146" style="stroke: rgb(155, 155, 155); stroke-opacity: 1; stroke-width: 1px; fill: none; fill-opacity: 1;"/></g><g><rect rx="0" ry="0" x="185.2630105939694" y="255.6666717529297" width="90" height="89" style="stroke: rgb(80, 227, 194); stroke-opacity: 1; stroke-width: 1px; fill: none; fill-opacity: 1;"/></g><g><rect rx="0" ry="0" x="182.7630105939694" y="444.6666717529297" width="91" height="87" style="stroke: rgb(80, 227, 194); stroke-opacity: 1; stroke-width: 1px; fill: none; fill-opacity: 1;"/></g><g><rect rx="0" ry="0" x="383.2630105939694" y="256.6666717529297" width="90" height="87" style="stroke: rgb(144, 19, 254); stroke-opacity: 1; stroke-width: 1px; fill: none; fill-opacity: 1;"/></g><g><rect rx="0" ry="0" x="383.7630105939694" y="443.6666717529297" width="91" height="87" style="stroke: rgb(144, 19, 254); stroke-opacity: 1; stroke-width: 1px; fill: none; fill-opacity: 1;"/></g></g><g/></svg>
        <svg xmlns="http://www.w3.org/2000/svg" xmlns:xlink="http://www.w3.org/1999/xlink" width="660" height="570.0999755859375" style="width:660px;height:570.0999755859375px;font-family:Asana-Math, Asana;background:transparent;"><g><g><g><g transform="matrix(1,0,0,1,324.01666259765625,44.81666564941406)"><path transform="matrix(0.017,0,0,-0.017,0,0)" d="M271 204L242 77C238 60 236 42 236 26C236 4 245 -9 260 -9C283 -9 324 17 406 85L399 106C375 86 346 59 324 59C315 59 309 68 309 82C309 87 309 90 310 93L402 472L392 481L359 463C318 478 301 482 274 482C246 482 226 477 199 464C137 433 104 403 79 354C35 265 4 145 4 67C4 23 19 -11 38 -11C75 -11 155 41 271 204ZM319 414C297 305 278 253 244 201C187 117 126 59 94 59C82 59 76 72 76 99C76 163 104 280 139 360C163 415 186 433 234 433C257 433 275 429 319 414Z" stroke="rgb(80,227,194)" stroke-opacity="1" stroke-width="8" fill="rgb(80,227,194)" fill-opacity="1"></path></g></g></g></g><g><g><g><g transform="matrix(1,0,0,1,324.01666259765625,135.81666564941406)"><path transform="matrix(0.017,0,0,-0.017,0,0)" d="M9 1C24 -7 40 -11 52 -11C85 -11 124 18 155 65L231 182L242 113C255 28 278 -11 314 -11C336 -11 368 6 400 35L449 79L440 98C404 68 379 53 363 53C348 53 335 63 325 83C316 102 305 139 300 168L282 269L317 318C364 383 391 406 422 406C438 406 450 398 455 383L469 387L484 472C472 479 463 482 454 482C414 482 374 446 312 354L275 299L269 347C257 446 230 482 171 482C145 482 123 474 114 461L56 378L73 368C103 402 123 416 142 416C175 416 197 375 214 277L225 215L185 153C142 86 108 54 80 54C65 54 54 58 52 63L41 91L21 88C21 53 13 27 9 1Z" stroke="rgb(248,231,28)" stroke-opacity="1" stroke-width="8" fill="rgb(248,231,28)" fill-opacity="1"></path></g></g></g></g><g><g><g><g transform="matrix(1,0,0,1,333.01666259765625,86.81666564941406)"><path transform="matrix(0.017,0,0,-0.017,0,0)" d="M345 437L329 437L350 549C366 635 394 673 440 673C470 673 497 658 512 634L522 638C527 654 537 685 545 705L550 720C534 727 503 733 480 733C469 733 453 730 445 726C421 715 339 654 316 630C294 608 282 578 271 521L256 442C215 422 195 414 170 405L165 383L246 383L237 327C207 132 170 -54 148 -123C130 -182 100 -213 64 -213C41 -213 30 -206 12 -184L-2 -188C-6 -211 -20 -259 -25 -268C-16 -273 -1 -276 10 -276C51 -276 105 -245 144 -198C215 -114 235 -18 319 383L423 383C427 402 434 425 440 439L436 446C407 439 408 437 345 437Z" stroke="rgb(126,211,33)" stroke-opacity="1" stroke-width="8" fill="rgb(126,211,33)" fill-opacity="1"></path></g></g></g></g><g><g><g><g transform="matrix(1,0,0,1,122.79998779296875,248.4166717529297)"><path transform="matrix(0.017,0,0,-0.017,0,0)" d="M72 202C72 127 68 86 57 29C130 -4 190 -17 265 -17C444 -17 559 76 559 220C559 309 507 370 408 396L294 426C220 445 188 476 188 527C188 596 243 644 322 644C375 644 420 626 458 589L464 507L505 507C505 572 510 620 519 649L514 661C447 685 395 695 329 695C163 695 64 615 64 481C64 395 116 332 210 304L350 262C406 245 433 214 433 166C433 92 369 37 283 37C215 37 150 67 119 114L112 202ZM1071 295C1071 402 996 471 882 471C847 471 821 464 794 448L747 420C681 381 652 321 652 226C652 67 732 -17 881 -17C938 -17 975 -7 1039 26L1061 74L1049 89C1002 63 972 54 932 54C880 54 831 82 806 125C790 153 784 176 782 223L913 223C970 223 1015 229 1071 243ZM860 273L856 273C850 273 823 274 808 275L776 276C779 375 803 415 861 415C918 415 942 375 944 276ZM1433 60L1425 79C1405 69 1395 66 1379 66C1332 66 1317 82 1317 131L1317 369L1423 369L1431 434L1317 428L1317 486C1317 539 1320 572 1329 622L1315 632C1275 613 1244 601 1193 582C1196 530 1197 511 1197 490L1197 430L1131 387L1131 365L1195 369L1195 110C1195 21 1232 -17 1319 -17C1350 -17 1375 -10 1384 1Z" stroke="rgb(155,155,155)" stroke-opacity="1" stroke-width="8" fill="rgb(155,155,155)" fill-opacity="1"></path></g></g></g><g></g><g></g><g></g><g></g><g></g><g></g><g></g><g></g><g></g><g></g><g></g><g></g><g></g><g></g><g><g><g transform="matrix(1,0,0,1,122.79998779296875,554.4166717529297)"><path transform="matrix(0.017,0,0,-0.017,0,0)" d="" stroke="rgb(155,155,155)" stroke-opacity="1" stroke-width="8" fill="rgb(155,155,155)" fill-opacity="1"></path></g></g></g></g><g><g><g><g transform="matrix(1,0,0,1,194.933349609375,194.0500030517578)"><path transform="matrix(0.017,0,0,-0.017,0,0)" d="M221 385L263 613C270 652 277 658 314 661L356 664L359 692L335 692L245 689C229 689 211 689 168 690L104 692L101 664L148 662C172 661 183 653 183 635C183 621 179 590 174 559L100 125C83 33 82 32 42 28L1 25L-3 -3L39 -2C87 -1 110 0 129 0L226 -3L252 -3L255 25L206 28C179 30 170 37 170 58C170 67 171 74 174 93L216 340L277 341C339 342 381 343 400 343C419 343 460 342 523 341L584 340L544 125C535 76 528 48 523 42C519 34 508 30 486 28L436 25L432 -3L488 -2C532 -1 562 0 573 0C589 0 620 -1 663 -2L705 -3L708 25L650 28C624 29 614 37 614 58C614 67 615 76 618 93L710 613C717 652 723 657 761 661L797 664L800 692L784 692L693 689C678 689 657 689 613 690L550 692L547 664L595 662C619 661 630 653 630 635C630 621 626 589 621 559L591 385ZM794 152C794 46 839 -11 922 -11C977 -11 1037 15 1082 57C1144 116 1188 230 1188 331C1188 425 1138 482 1055 482C951 482 794 382 794 152ZM1018 444C1079 444 1112 399 1112 315C1112 219 1081 113 1037 60C1019 39 993 27 962 27C904 27 870 72 870 151C870 264 909 387 958 427C971 438 994 444 1018 444ZM1950 103L1924 86C1895 67 1873 56 1863 56C1856 56 1850 65 1850 76C1850 86 1852 95 1857 116L1932 413C1936 430 1939 446 1939 454C1939 471 1929 482 1913 482C1884 482 1846 464 1785 421C1722 376 1687 341 1638 272L1668 409C1672 429 1675 444 1675 451C1675 470 1665 482 1649 482C1619 482 1573 460 1518 418C1474 384 1454 363 1389 275L1422 408C1426 424 1428 439 1428 451C1428 470 1419 482 1405 482C1384 482 1346 461 1272 408L1244 388L1251 368C1288 391 1323 414 1330 414C1341 414 1348 404 1348 389C1348 338 1307 145 1266 2L1269 -9L1337 6L1359 108C1383 219 1410 278 1465 338C1507 384 1552 414 1580 414C1587 414 1591 406 1591 393C1591 358 1569 244 1528 69L1512 2L1517 -9L1586 6L1607 113C1623 194 1657 269 1701 318C1756 379 1806 414 1838 414C1846 414 1851 405 1851 389C1851 365 1848 351 1826 264C1786 105 1770 84 1770 31C1770 6 1781 -9 1800 -9C1826 -9 1862 12 1960 85Z" stroke="rgb(80,227,194)" stroke-opacity="1" stroke-width="8" fill="rgb(80,227,194)" fill-opacity="1"></path></g></g><g><g><g><g><g transform="matrix(1,0,0,1,229.4166259765625,197.20000305175782)"><path transform="matrix(0.0119,0,0,-0.0119,0,0)" d="M791 693C823 693 848 684 848 648C848 625 828 594 789 557C693 462 476 384 323 380L323 379C534 615 696 693 791 693ZM218 361C124 239 110 171 110 122C110 66 130 -15 277 -15C425 -15 598 105 598 208C598 266 554 296 493 296C384 296 278 209 218 66L237 61C290 171 391 274 495 274C557 274 574 235 574 210C574 116 406 5 272 5C204 5 152 33 152 93C152 179 230 278 301 355C659 374 874 564 874 656C874 701 828 713 789 713C639 713 418 567 241 383C144 390 70 434 70 510C70 607 194 722 390 722C446 722 505 710 533 705L539 721C495 733 435 744 377 744C279 744 200 722 138 677C76 633 45 578 45 513C45 482 50 388 218 361Z" stroke="rgb(80,227,194)" stroke-opacity="1" stroke-width="8" fill="rgb(80,227,194)" fill-opacity="1"></path></g></g></g></g></g><g><g transform="matrix(1,0,0,1,239.36663818359375,194.23333740234375)"><path transform="matrix(0.017,0,0,-0.017,0,0)" d="M146 266C146 526 243 632 301 700L282 726C225 675 60 542 60 266C60 159 85 58 133 -32C168 -99 200 -138 282 -215L301 -194C255 -137 146 -15 146 266Z" stroke="rgb(80,227,194)" stroke-opacity="1" stroke-width="8" fill="rgb(80,227,194)" fill-opacity="1"></path></g></g><g><g transform="matrix(1,0,0,1,245.01666259765625,194.0500030517578)"><path transform="matrix(0.017,0,0,-0.017,0,0)" d="M271 204L242 77C238 60 236 42 236 26C236 4 245 -9 260 -9C283 -9 324 17 406 85L399 106C375 86 346 59 324 59C315 59 309 68 309 82C309 87 309 90 310 93L402 472L392 481L359 463C318 478 301 482 274 482C246 482 226 477 199 464C137 433 104 403 79 354C35 265 4 145 4 67C4 23 19 -11 38 -11C75 -11 155 41 271 204ZM319 414C297 305 278 253 244 201C187 117 126 59 94 59C82 59 76 72 76 99C76 163 104 280 139 360C163 415 186 433 234 433C257 433 275 429 319 414Z" stroke="rgb(80,227,194)" stroke-opacity="1" stroke-width="8" fill="rgb(80,227,194)" fill-opacity="1"></path></g></g><g><g transform="matrix(1,0,0,1,252.54998779296875,194.0500030517578)"><path transform="matrix(0.017,0,0,-0.017,0,0)" d="M204 123C177 114 159 108 106 93C99 17 74 -48 16 -144L30 -155L71 -136C152 -31 190 32 218 109Z" stroke="rgb(80,227,194)" stroke-opacity="1" stroke-width="8" fill="rgb(80,227,194)" fill-opacity="1"></path></g></g><g><g transform="matrix(1,0,0,1,260.183349609375,194.0500030517578)"><path transform="matrix(0.017,0,0,-0.017,0,0)" d="" stroke="rgb(80,227,194)" stroke-opacity="1" stroke-width="8" fill="rgb(80,227,194)" fill-opacity="1"></path></g></g><g><g transform="matrix(1,0,0,1,264.4000244140625,194.0500030517578)"><path transform="matrix(0.017,0,0,-0.017,0,0)" d="M555 243L555 299L51 299L51 243Z" stroke="rgb(80,227,194)" stroke-opacity="1" stroke-width="8" fill="rgb(80,227,194)" fill-opacity="1"></path></g></g><g><g transform="matrix(1,0,0,1,274.70001220703125,194.23333740234375)"><path transform="matrix(0.017,0,0,-0.017,0,0)" d="M51 726L32 700C87 636 187 526 187 266C187 -10 83 -131 32 -194L51 -215C104 -165 273 -23 273 265C273 542 108 675 51 726Z" stroke="rgb(80,227,194)" stroke-opacity="1" stroke-width="8" fill="rgb(80,227,194)" fill-opacity="1"></path></g></g></g></g><g><g><g><g transform="matrix(1,0,0,1,374.76666259765625,194.0500030517578)"><path transform="matrix(0.017,0,0,-0.017,0,0)" d="M221 385L263 613C270 652 277 658 314 661L356 664L359 692L335 692L245 689C229 689 211 689 168 690L104 692L101 664L148 662C172 661 183 653 183 635C183 621 179 590 174 559L100 125C83 33 82 32 42 28L1 25L-3 -3L39 -2C87 -1 110 0 129 0L226 -3L252 -3L255 25L206 28C179 30 170 37 170 58C170 67 171 74 174 93L216 340L277 341C339 342 381 343 400 343C419 343 460 342 523 341L584 340L544 125C535 76 528 48 523 42C519 34 508 30 486 28L436 25L432 -3L488 -2C532 -1 562 0 573 0C589 0 620 -1 663 -2L705 -3L708 25L650 28C624 29 614 37 614 58C614 67 615 76 618 93L710 613C717 652 723 657 761 661L797 664L800 692L784 692L693 689C678 689 657 689 613 690L550 692L547 664L595 662C619 661 630 653 630 635C630 621 626 589 621 559L591 385ZM794 152C794 46 839 -11 922 -11C977 -11 1037 15 1082 57C1144 116 1188 230 1188 331C1188 425 1138 482 1055 482C951 482 794 382 794 152ZM1018 444C1079 444 1112 399 1112 315C1112 219 1081 113 1037 60C1019 39 993 27 962 27C904 27 870 72 870 151C870 264 909 387 958 427C971 438 994 444 1018 444ZM1950 103L1924 86C1895 67 1873 56 1863 56C1856 56 1850 65 1850 76C1850 86 1852 95 1857 116L1932 413C1936 430 1939 446 1939 454C1939 471 1929 482 1913 482C1884 482 1846 464 1785 421C1722 376 1687 341 1638 272L1668 409C1672 429 1675 444 1675 451C1675 470 1665 482 1649 482C1619 482 1573 460 1518 418C1474 384 1454 363 1389 275L1422 408C1426 424 1428 439 1428 451C1428 470 1419 482 1405 482C1384 482 1346 461 1272 408L1244 388L1251 368C1288 391 1323 414 1330 414C1341 414 1348 404 1348 389C1348 338 1307 145 1266 2L1269 -9L1337 6L1359 108C1383 219 1410 278 1465 338C1507 384 1552 414 1580 414C1587 414 1591 406 1591 393C1591 358 1569 244 1528 69L1512 2L1517 -9L1586 6L1607 113C1623 194 1657 269 1701 318C1756 379 1806 414 1838 414C1846 414 1851 405 1851 389C1851 365 1848 351 1826 264C1786 105 1770 84 1770 31C1770 6 1781 -9 1800 -9C1826 -9 1862 12 1960 85Z" stroke="rgb(144,19,254)" stroke-opacity="1" stroke-width="8" fill="rgb(144,19,254)" fill-opacity="1"></path></g></g><g><g><g><g><g transform="matrix(1,0,0,1,409.25,197.20000305175782)"><path transform="matrix(0.0119,0,0,-0.0119,0,0)" d="M791 693C823 693 848 684 848 648C848 625 828 594 789 557C693 462 476 384 323 380L323 379C534 615 696 693 791 693ZM218 361C124 239 110 171 110 122C110 66 130 -15 277 -15C425 -15 598 105 598 208C598 266 554 296 493 296C384 296 278 209 218 66L237 61C290 171 391 274 495 274C557 274 574 235 574 210C574 116 406 5 272 5C204 5 152 33 152 93C152 179 230 278 301 355C659 374 874 564 874 656C874 701 828 713 789 713C639 713 418 567 241 383C144 390 70 434 70 510C70 607 194 722 390 722C446 722 505 710 533 705L539 721C495 733 435 744 377 744C279 744 200 722 138 677C76 633 45 578 45 513C45 482 50 388 218 361Z" stroke="rgb(144,19,254)" stroke-opacity="1" stroke-width="8" fill="rgb(144,19,254)" fill-opacity="1"></path></g></g></g></g></g><g><g transform="matrix(1,0,0,1,419.20001220703125,194.23333740234375)"><path transform="matrix(0.017,0,0,-0.017,0,0)" d="M146 266C146 526 243 632 301 700L282 726C225 675 60 542 60 266C60 159 85 58 133 -32C168 -99 200 -138 282 -215L301 -194C255 -137 146 -15 146 266Z" stroke="rgb(144,19,254)" stroke-opacity="1" stroke-width="8" fill="rgb(144,19,254)" fill-opacity="1"></path></g></g><g><g transform="matrix(1,0,0,1,424.8499755859375,194.0500030517578)"><path transform="matrix(0.017,0,0,-0.017,0,0)" d="M235 722L223 733C171 707 135 698 63 691L59 670L107 670C131 670 141 663 141 646C141 639 140 628 139 622L38 71C37 68 37 64 37 61C37 22 85 -11 140 -11C177 -11 228 8 271 39C367 107 433 244 433 376C433 414 424 453 412 468C405 477 392 482 377 482C353 482 323 474 295 460C244 433 211 403 149 324ZM322 424C348 424 361 401 361 352C361 288 340 202 310 137C277 68 237 36 183 36C137 36 112 59 112 101C112 135 127 276 208 361C241 395 293 424 322 424Z" stroke="rgb(144,19,254)" stroke-opacity="1" stroke-width="8" fill="rgb(144,19,254)" fill-opacity="1"></path></g></g><g><g transform="matrix(1,0,0,1,432.70001220703125,194.0500030517578)"><path transform="matrix(0.017,0,0,-0.017,0,0)" d="M204 123C177 114 159 108 106 93C99 17 74 -48 16 -144L30 -155L71 -136C152 -31 190 32 218 109Z" stroke="rgb(144,19,254)" stroke-opacity="1" stroke-width="8" fill="rgb(144,19,254)" fill-opacity="1"></path></g></g><g><g transform="matrix(1,0,0,1,440.33331298828125,194.0500030517578)"><path transform="matrix(0.017,0,0,-0.017,0,0)" d="" stroke="rgb(144,19,254)" stroke-opacity="1" stroke-width="8" fill="rgb(144,19,254)" fill-opacity="1"></path></g></g><g><g transform="matrix(1,0,0,1,444.566650390625,194.0500030517578)"><path transform="matrix(0.017,0,0,-0.017,0,0)" d="M555 243L555 299L51 299L51 243Z" stroke="rgb(144,19,254)" stroke-opacity="1" stroke-width="8" fill="rgb(144,19,254)" fill-opacity="1"></path></g></g><g><g transform="matrix(1,0,0,1,454.8499755859375,194.23333740234375)"><path transform="matrix(0.017,0,0,-0.017,0,0)" d="M51 726L32 700C87 636 187 526 187 266C187 -10 83 -131 32 -194L51 -215C104 -165 273 -23 273 265C273 542 108 675 51 726Z" stroke="rgb(144,19,254)" stroke-opacity="1" stroke-width="8" fill="rgb(144,19,254)" fill-opacity="1"></path></g></g></g></g><g><g><g><g transform="matrix(1,0,0,1,223.4000244140625,29.2166748046875)"><path transform="matrix(0.017,0,0,-0.017,0,0)" d="M791 693C823 693 848 684 848 648C848 625 828 594 789 557C693 462 476 384 323 380L323 379C534 615 696 693 791 693ZM218 361C124 239 110 171 110 122C110 66 130 -15 277 -15C425 -15 598 105 598 208C598 266 554 296 493 296C384 296 278 209 218 66L237 61C290 171 391 274 495 274C557 274 574 235 574 210C574 116 406 5 272 5C204 5 152 33 152 93C152 179 230 278 301 355C659 374 874 564 874 656C874 701 828 713 789 713C639 713 418 567 241 383C144 390 70 434 70 510C70 607 194 722 390 722C446 722 505 710 533 705L539 721C495 733 435 744 377 744C279 744 200 722 138 677C76 633 45 578 45 513C45 482 50 388 218 361Z" stroke="rgb(155,155,155)" stroke-opacity="1" stroke-width="8" fill="rgb(155,155,155)" fill-opacity="1"></path></g></g></g><g></g><g></g><g></g><g></g><g></g><g><g><g transform="matrix(1,0,0,1,223.4000244140625,151.61666870117188)"><path transform="matrix(0.017,0,0,-0.017,0,0)" d="" stroke="rgb(155,155,155)" stroke-opacity="1" stroke-width="8" fill="rgb(155,155,155)" fill-opacity="1"></path></g></g></g></g><g><g><g><g transform="matrix(1,0,0,1,286.33331298828125,180.0500030517578)"><path transform="matrix(0.017,0,0,-0.017,0,0)" d="M221 385L263 613C270 652 277 658 314 661L356 664L359 692L335 692L245 689C229 689 211 689 168 690L104 692L101 664L148 662C172 661 183 653 183 635C183 621 179 590 174 559L100 125C83 33 82 32 42 28L1 25L-3 -3L39 -2C87 -1 110 0 129 0L226 -3L252 -3L255 25L206 28C179 30 170 37 170 58C170 67 171 74 174 93L216 340L277 341C339 342 381 343 400 343C419 343 460 342 523 341L584 340L544 125C535 76 528 48 523 42C519 34 508 30 486 28L436 25L432 -3L488 -2C532 -1 562 0 573 0C589 0 620 -1 663 -2L705 -3L708 25L650 28C624 29 614 37 614 58C614 67 615 76 618 93L710 613C717 652 723 657 761 661L797 664L800 692L784 692L693 689C678 689 657 689 613 690L550 692L547 664L595 662C619 661 630 653 630 635C630 621 626 589 621 559L591 385ZM794 152C794 46 839 -11 922 -11C977 -11 1037 15 1082 57C1144 116 1188 230 1188 331C1188 425 1138 482 1055 482C951 482 794 382 794 152ZM1018 444C1079 444 1112 399 1112 315C1112 219 1081 113 1037 60C1019 39 993 27 962 27C904 27 870 72 870 151C870 264 909 387 958 427C971 438 994 444 1018 444ZM1950 103L1924 86C1895 67 1873 56 1863 56C1856 56 1850 65 1850 76C1850 86 1852 95 1857 116L1932 413C1936 430 1939 446 1939 454C1939 471 1929 482 1913 482C1884 482 1846 464 1785 421C1722 376 1687 341 1638 272L1668 409C1672 429 1675 444 1675 451C1675 470 1665 482 1649 482C1619 482 1573 460 1518 418C1474 384 1454 363 1389 275L1422 408C1426 424 1428 439 1428 451C1428 470 1419 482 1405 482C1384 482 1346 461 1272 408L1244 388L1251 368C1288 391 1323 414 1330 414C1341 414 1348 404 1348 389C1348 338 1307 145 1266 2L1269 -9L1337 6L1359 108C1383 219 1410 278 1465 338C1507 384 1552 414 1580 414C1587 414 1591 406 1591 393C1591 358 1569 244 1528 69L1512 2L1517 -9L1586 6L1607 113C1623 194 1657 269 1701 318C1756 379 1806 414 1838 414C1846 414 1851 405 1851 389C1851 365 1848 351 1826 264C1786 105 1770 84 1770 31C1770 6 1781 -9 1800 -9C1826 -9 1862 12 1960 85Z" stroke="rgb(74,144,226)" stroke-opacity="1" stroke-width="8" fill="rgb(74,144,226)" fill-opacity="1"></path></g></g><g><g><g><g><g transform="matrix(1,0,0,1,320.816650390625,183.21666564941407)"><path transform="matrix(0.0119,0,0,-0.0119,0,0)" d="M791 693C823 693 848 684 848 648C848 625 828 594 789 557C693 462 476 384 323 380L323 379C534 615 696 693 791 693ZM218 361C124 239 110 171 110 122C110 66 130 -15 277 -15C425 -15 598 105 598 208C598 266 554 296 493 296C384 296 278 209 218 66L237 61C290 171 391 274 495 274C557 274 574 235 574 210C574 116 406 5 272 5C204 5 152 33 152 93C152 179 230 278 301 355C659 374 874 564 874 656C874 701 828 713 789 713C639 713 418 567 241 383C144 390 70 434 70 510C70 607 194 722 390 722C446 722 505 710 533 705L539 721C495 733 435 744 377 744C279 744 200 722 138 677C76 633 45 578 45 513C45 482 50 388 218 361Z" stroke="rgb(74,144,226)" stroke-opacity="1" stroke-width="8" fill="rgb(74,144,226)" fill-opacity="1"></path></g></g></g></g></g><g><g transform="matrix(1,0,0,1,330.76666259765625,180.2166748046875)"><path transform="matrix(0.017,0,0,-0.017,0,0)" d="M146 266C146 526 243 632 301 700L282 726C225 675 60 542 60 266C60 159 85 58 133 -32C168 -99 200 -138 282 -215L301 -194C255 -137 146 -15 146 266Z" stroke="rgb(74,144,226)" stroke-opacity="1" stroke-width="8" fill="rgb(74,144,226)" fill-opacity="1"></path></g></g><g><g transform="matrix(1,0,0,1,336.4166259765625,180.0500030517578)"><path transform="matrix(0.017,0,0,-0.017,0,0)" d="M34 388L41 368L73 389C110 412 113 414 120 414C130 414 138 404 138 391C138 384 134 361 130 347L64 107C56 76 51 49 51 30C51 6 62 -9 81 -9C107 -9 143 12 241 85L231 103L205 86C176 67 153 56 144 56C137 56 131 66 131 76C131 86 133 95 138 116L215 420C219 437 221 448 221 456C221 473 212 482 196 482C174 482 137 461 62 408ZM228 712C199 712 170 679 170 645C170 620 185 604 209 604C240 604 264 633 264 671C264 695 249 712 228 712Z" stroke="rgb(74,144,226)" stroke-opacity="1" stroke-width="8" fill="rgb(74,144,226)" fill-opacity="1"></path></g></g><g><g transform="matrix(1,0,0,1,341.13330078125,180.0500030517578)"><path transform="matrix(0.017,0,0,-0.017,0,0)" d="M204 123C177 114 159 108 106 93C99 17 74 -48 16 -144L30 -155L71 -136C152 -31 190 32 218 109Z" stroke="rgb(74,144,226)" stroke-opacity="1" stroke-width="8" fill="rgb(74,144,226)" fill-opacity="1"></path></g></g><g><g transform="matrix(1,0,0,1,348.76666259765625,180.0500030517578)"><path transform="matrix(0.017,0,0,-0.017,0,0)" d="" stroke="rgb(74,144,226)" stroke-opacity="1" stroke-width="8" fill="rgb(74,144,226)" fill-opacity="1"></path></g></g><g><g transform="matrix(1,0,0,1,353,180.0500030517578)"><path transform="matrix(0.017,0,0,-0.017,0,0)" d="M555 243L555 299L51 299L51 243Z" stroke="rgb(74,144,226)" stroke-opacity="1" stroke-width="8" fill="rgb(74,144,226)" fill-opacity="1"></path></g></g><g><g transform="matrix(1,0,0,1,363.2833251953125,180.2166748046875)"><path transform="matrix(0.017,0,0,-0.017,0,0)" d="M51 726L32 700C87 636 187 526 187 266C187 -10 83 -131 32 -194L51 -215C104 -165 273 -23 273 265C273 542 108 675 51 726Z" stroke="rgb(74,144,226)" stroke-opacity="1" stroke-width="8" fill="rgb(74,144,226)" fill-opacity="1"></path></g></g></g></g><g><g><g><g transform="matrix(1,0,0,1,188.933349609375,274.20001220703125)"><path transform="matrix(0.017,0,0,-0.017,0,0)" d="M221 385L263 613C270 652 277 658 314 661L356 664L359 692L335 692L245 689C229 689 211 689 168 690L104 692L101 664L148 662C172 661 183 653 183 635C183 621 179 590 174 559L100 125C83 33 82 32 42 28L1 25L-3 -3L39 -2C87 -1 110 0 129 0L226 -3L252 -3L255 25L206 28C179 30 170 37 170 58C170 67 171 74 174 93L216 340L277 341C339 342 381 343 400 343C419 343 460 342 523 341L584 340L544 125C535 76 528 48 523 42C519 34 508 30 486 28L436 25L432 -3L488 -2C532 -1 562 0 573 0C589 0 620 -1 663 -2L705 -3L708 25L650 28C624 29 614 37 614 58C614 67 615 76 618 93L710 613C717 652 723 657 761 661L797 664L800 692L784 692L693 689C678 689 657 689 613 690L550 692L547 664L595 662C619 661 630 653 630 635C630 621 626 589 621 559L591 385ZM794 152C794 46 839 -11 922 -11C977 -11 1037 15 1082 57C1144 116 1188 230 1188 331C1188 425 1138 482 1055 482C951 482 794 382 794 152ZM1018 444C1079 444 1112 399 1112 315C1112 219 1081 113 1037 60C1019 39 993 27 962 27C904 27 870 72 870 151C870 264 909 387 958 427C971 438 994 444 1018 444ZM1950 103L1924 86C1895 67 1873 56 1863 56C1856 56 1850 65 1850 76C1850 86 1852 95 1857 116L1932 413C1936 430 1939 446 1939 454C1939 471 1929 482 1913 482C1884 482 1846 464 1785 421C1722 376 1687 341 1638 272L1668 409C1672 429 1675 444 1675 451C1675 470 1665 482 1649 482C1619 482 1573 460 1518 418C1474 384 1454 363 1389 275L1422 408C1426 424 1428 439 1428 451C1428 470 1419 482 1405 482C1384 482 1346 461 1272 408L1244 388L1251 368C1288 391 1323 414 1330 414C1341 414 1348 404 1348 389C1348 338 1307 145 1266 2L1269 -9L1337 6L1359 108C1383 219 1410 278 1465 338C1507 384 1552 414 1580 414C1587 414 1591 406 1591 393C1591 358 1569 244 1528 69L1512 2L1517 -9L1586 6L1607 113C1623 194 1657 269 1701 318C1756 379 1806 414 1838 414C1846 414 1851 405 1851 389C1851 365 1848 351 1826 264C1786 105 1770 84 1770 31C1770 6 1781 -9 1800 -9C1826 -9 1862 12 1960 85Z" stroke="rgb(80,227,194)" stroke-opacity="1" stroke-width="8" fill="rgb(80,227,194)" fill-opacity="1"></path></g></g><g><g><g><g><g transform="matrix(1,0,0,1,223.4166259765625,277.3666748046875)"><path transform="matrix(0.0119,0,0,-0.0119,0,0)" d="M791 693C823 693 848 684 848 648C848 625 828 594 789 557C693 462 476 384 323 380L323 379C534 615 696 693 791 693ZM218 361C124 239 110 171 110 122C110 66 130 -15 277 -15C425 -15 598 105 598 208C598 266 554 296 493 296C384 296 278 209 218 66L237 61C290 171 391 274 495 274C557 274 574 235 574 210C574 116 406 5 272 5C204 5 152 33 152 93C152 179 230 278 301 355C659 374 874 564 874 656C874 701 828 713 789 713C639 713 418 567 241 383C144 390 70 434 70 510C70 607 194 722 390 722C446 722 505 710 533 705L539 721C495 733 435 744 377 744C279 744 200 722 138 677C76 633 45 578 45 513C45 482 50 388 218 361Z" stroke="rgb(80,227,194)" stroke-opacity="1" stroke-width="8" fill="rgb(80,227,194)" fill-opacity="1"></path></g></g></g></g></g><g><g transform="matrix(1,0,0,1,233.36663818359375,274.3833312988281)"><path transform="matrix(0.017,0,0,-0.017,0,0)" d="M146 266C146 526 243 632 301 700L282 726C225 675 60 542 60 266C60 159 85 58 133 -32C168 -99 200 -138 282 -215L301 -194C255 -137 146 -15 146 266Z" stroke="rgb(80,227,194)" stroke-opacity="1" stroke-width="8" fill="rgb(80,227,194)" fill-opacity="1"></path></g></g><g><g transform="matrix(1,0,0,1,239.01666259765625,274.20001220703125)"><path transform="matrix(0.017,0,0,-0.017,0,0)" d="M271 204L242 77C238 60 236 42 236 26C236 4 245 -9 260 -9C283 -9 324 17 406 85L399 106C375 86 346 59 324 59C315 59 309 68 309 82C309 87 309 90 310 93L402 472L392 481L359 463C318 478 301 482 274 482C246 482 226 477 199 464C137 433 104 403 79 354C35 265 4 145 4 67C4 23 19 -11 38 -11C75 -11 155 41 271 204ZM319 414C297 305 278 253 244 201C187 117 126 59 94 59C82 59 76 72 76 99C76 163 104 280 139 360C163 415 186 433 234 433C257 433 275 429 319 414Z" stroke="rgb(80,227,194)" stroke-opacity="1" stroke-width="8" fill="rgb(80,227,194)" fill-opacity="1"></path></g></g><g><g transform="matrix(1,0,0,1,246.54998779296875,274.20001220703125)"><path transform="matrix(0.017,0,0,-0.017,0,0)" d="M204 123C177 114 159 108 106 93C99 17 74 -48 16 -144L30 -155L71 -136C152 -31 190 32 218 109Z" stroke="rgb(80,227,194)" stroke-opacity="1" stroke-width="8" fill="rgb(80,227,194)" fill-opacity="1"></path></g></g><g><g transform="matrix(1,0,0,1,254.183349609375,274.20001220703125)"><path transform="matrix(0.017,0,0,-0.017,0,0)" d="M520 204L491 77C487 60 485 42 485 26C485 4 494 -9 509 -9C532 -9 573 17 655 85L648 106C624 86 595 59 573 59C564 59 558 68 558 82C558 87 558 90 559 93L651 472L641 481L608 463C567 478 550 482 523 482C495 482 475 477 448 464C386 433 353 403 328 354C284 265 253 145 253 67C253 23 268 -11 287 -11C324 -11 404 41 520 204ZM568 414C546 305 527 253 493 201C436 117 375 59 343 59C331 59 325 72 325 99C325 163 353 280 388 360C412 415 435 433 483 433C506 433 524 429 568 414Z" stroke="rgb(80,227,194)" stroke-opacity="1" stroke-width="8" fill="rgb(80,227,194)" fill-opacity="1"></path></g></g><g><g transform="matrix(1,0,0,1,265.95001220703125,274.3833312988281)"><path transform="matrix(0.017,0,0,-0.017,0,0)" d="M51 726L32 700C87 636 187 526 187 266C187 -10 83 -131 32 -194L51 -215C104 -165 273 -23 273 265C273 542 108 675 51 726Z" stroke="rgb(80,227,194)" stroke-opacity="1" stroke-width="8" fill="rgb(80,227,194)" fill-opacity="1"></path></g></g></g><g></g><g><g><g transform="matrix(1,0,0,1,188.933349609375,316.98333740234375)"><path transform="matrix(0.017,0,0,-0.017,0,0)" d="M2026 388L2033 368L2065 389C2102 412 2105 414 2112 414C2122 414 2130 404 2130 391C2130 384 2126 361 2122 347L2056 107C2048 76 2043 49 2043 30C2043 6 2054 -9 2073 -9C2099 -9 2135 12 2233 85L2223 103L2197 86C2168 67 2145 56 2136 56C2129 56 2123 66 2123 76C2123 86 2125 95 2130 116L2207 420C2211 437 2213 448 2213 456C2213 473 2204 482 2188 482C2166 482 2129 461 2054 408ZM2220 712C2191 712 2162 679 2162 645C2162 620 2177 604 2201 604C2232 604 2256 633 2256 671C2256 695 2241 712 2220 712ZM2752 722L2740 733C2688 707 2652 698 2580 691L2576 670L2624 670C2648 670 2658 663 2658 646C2658 638 2657 629 2656 622L2628 468C2598 477 2571 482 2546 482C2477 482 2383 410 2337 323C2306 265 2286 170 2286 86C2286 21 2301 -11 2330 -11C2357 -11 2394 6 2428 33C2482 77 2515 116 2582 217L2559 126C2548 82 2543 50 2543 24C2543 3 2552 -9 2569 -9C2586 -9 2610 3 2644 28L2725 88L2715 107L2671 76C2657 66 2641 59 2632 59C2624 59 2618 68 2618 82C2618 90 2619 99 2626 128ZM2383 59C2367 59 2358 73 2358 98C2358 224 2404 380 2453 418C2466 428 2485 433 2512 433C2556 433 2585 427 2618 410L2606 351C2569 171 2428 59 2383 59Z" stroke="rgb(80,227,194)" stroke-opacity="1" stroke-width="8" fill="rgb(80,227,194)" fill-opacity="1"></path></g></g><g><g><g><g><g transform="matrix(1,0,0,1,236.51666259765625,320.1666778564453)"><path transform="matrix(0.0119,0,0,-0.0119,0,0)" d="M271 204L242 77C238 60 236 42 236 26C236 4 245 -9 260 -9C283 -9 324 17 406 85L399 106C375 86 346 59 324 59C315 59 309 68 309 82C309 87 309 90 310 93L402 472L392 481L359 463C318 478 301 482 274 482C246 482 226 477 199 464C137 433 104 403 79 354C35 265 4 145 4 67C4 23 19 -11 38 -11C75 -11 155 41 271 204ZM319 414C297 305 278 253 244 201C187 117 126 59 94 59C82 59 76 72 76 99C76 163 104 280 139 360C163 415 186 433 234 433C257 433 275 429 319 414Z" stroke="rgb(80,227,194)" stroke-opacity="1" stroke-width="8" fill="rgb(80,227,194)" fill-opacity="1"></path></g></g></g></g></g></g><g></g></g><g><g><g><g transform="matrix(1,0,0,1,186.4666748046875,463.1999969482422)"><path transform="matrix(0.017,0,0,-0.017,0,0)" d="M221 385L263 613C270 652 277 658 314 661L356 664L359 692L335 692L245 689C229 689 211 689 168 690L104 692L101 664L148 662C172 661 183 653 183 635C183 621 179 590 174 559L100 125C83 33 82 32 42 28L1 25L-3 -3L39 -2C87 -1 110 0 129 0L226 -3L252 -3L255 25L206 28C179 30 170 37 170 58C170 67 171 74 174 93L216 340L277 341C339 342 381 343 400 343C419 343 460 342 523 341L584 340L544 125C535 76 528 48 523 42C519 34 508 30 486 28L436 25L432 -3L488 -2C532 -1 562 0 573 0C589 0 620 -1 663 -2L705 -3L708 25L650 28C624 29 614 37 614 58C614 67 615 76 618 93L710 613C717 652 723 657 761 661L797 664L800 692L784 692L693 689C678 689 657 689 613 690L550 692L547 664L595 662C619 661 630 653 630 635C630 621 626 589 621 559L591 385ZM794 152C794 46 839 -11 922 -11C977 -11 1037 15 1082 57C1144 116 1188 230 1188 331C1188 425 1138 482 1055 482C951 482 794 382 794 152ZM1018 444C1079 444 1112 399 1112 315C1112 219 1081 113 1037 60C1019 39 993 27 962 27C904 27 870 72 870 151C870 264 909 387 958 427C971 438 994 444 1018 444ZM1950 103L1924 86C1895 67 1873 56 1863 56C1856 56 1850 65 1850 76C1850 86 1852 95 1857 116L1932 413C1936 430 1939 446 1939 454C1939 471 1929 482 1913 482C1884 482 1846 464 1785 421C1722 376 1687 341 1638 272L1668 409C1672 429 1675 444 1675 451C1675 470 1665 482 1649 482C1619 482 1573 460 1518 418C1474 384 1454 363 1389 275L1422 408C1426 424 1428 439 1428 451C1428 470 1419 482 1405 482C1384 482 1346 461 1272 408L1244 388L1251 368C1288 391 1323 414 1330 414C1341 414 1348 404 1348 389C1348 338 1307 145 1266 2L1269 -9L1337 6L1359 108C1383 219 1410 278 1465 338C1507 384 1552 414 1580 414C1587 414 1591 406 1591 393C1591 358 1569 244 1528 69L1512 2L1517 -9L1586 6L1607 113C1623 194 1657 269 1701 318C1756 379 1806 414 1838 414C1846 414 1851 405 1851 389C1851 365 1848 351 1826 264C1786 105 1770 84 1770 31C1770 6 1781 -9 1800 -9C1826 -9 1862 12 1960 85Z" stroke="rgb(80,227,194)" stroke-opacity="1" stroke-width="8" fill="rgb(80,227,194)" fill-opacity="1"></path></g></g><g><g><g><g><g transform="matrix(1,0,0,1,220.95001220703125,466.3666595458984)"><path transform="matrix(0.0119,0,0,-0.0119,0,0)" d="M791 693C823 693 848 684 848 648C848 625 828 594 789 557C693 462 476 384 323 380L323 379C534 615 696 693 791 693ZM218 361C124 239 110 171 110 122C110 66 130 -15 277 -15C425 -15 598 105 598 208C598 266 554 296 493 296C384 296 278 209 218 66L237 61C290 171 391 274 495 274C557 274 574 235 574 210C574 116 406 5 272 5C204 5 152 33 152 93C152 179 230 278 301 355C659 374 874 564 874 656C874 701 828 713 789 713C639 713 418 567 241 383C144 390 70 434 70 510C70 607 194 722 390 722C446 722 505 710 533 705L539 721C495 733 435 744 377 744C279 744 200 722 138 677C76 633 45 578 45 513C45 482 50 388 218 361Z" stroke="rgb(80,227,194)" stroke-opacity="1" stroke-width="8" fill="rgb(80,227,194)" fill-opacity="1"></path></g></g></g></g></g><g><g transform="matrix(1,0,0,1,230.9000244140625,463.3833465576172)"><path transform="matrix(0.017,0,0,-0.017,0,0)" d="M146 266C146 526 243 632 301 700L282 726C225 675 60 542 60 266C60 159 85 58 133 -32C168 -99 200 -138 282 -215L301 -194C255 -137 146 -15 146 266Z" stroke="rgb(80,227,194)" stroke-opacity="1" stroke-width="8" fill="rgb(80,227,194)" fill-opacity="1"></path></g></g><g><g transform="matrix(1,0,0,1,236.54998779296875,463.1999969482422)"><path transform="matrix(0.017,0,0,-0.017,0,0)" d="M271 204L242 77C238 60 236 42 236 26C236 4 245 -9 260 -9C283 -9 324 17 406 85L399 106C375 86 346 59 324 59C315 59 309 68 309 82C309 87 309 90 310 93L402 472L392 481L359 463C318 478 301 482 274 482C246 482 226 477 199 464C137 433 104 403 79 354C35 265 4 145 4 67C4 23 19 -11 38 -11C75 -11 155 41 271 204ZM319 414C297 305 278 253 244 201C187 117 126 59 94 59C82 59 76 72 76 99C76 163 104 280 139 360C163 415 186 433 234 433C257 433 275 429 319 414Z" stroke="rgb(80,227,194)" stroke-opacity="1" stroke-width="8" fill="rgb(80,227,194)" fill-opacity="1"></path></g></g><g><g transform="matrix(1,0,0,1,244.066650390625,463.1999969482422)"><path transform="matrix(0.017,0,0,-0.017,0,0)" d="M204 123C177 114 159 108 106 93C99 17 74 -48 16 -144L30 -155L71 -136C152 -31 190 32 218 109Z" stroke="rgb(80,227,194)" stroke-opacity="1" stroke-width="8" fill="rgb(80,227,194)" fill-opacity="1"></path></g></g><g><g transform="matrix(1,0,0,1,251.7166748046875,463.1999969482422)"><path transform="matrix(0.017,0,0,-0.017,0,0)" d="M258 1C273 -7 289 -11 301 -11C334 -11 373 18 404 65L480 182L491 113C504 28 527 -11 563 -11C585 -11 617 6 649 35L698 79L689 98C653 68 628 53 612 53C597 53 584 63 574 83C565 102 554 139 549 168L531 269L566 318C613 383 640 406 671 406C687 406 699 398 704 383L718 387L733 472C721 479 712 482 703 482C663 482 623 446 561 354L524 299L518 347C506 446 479 482 420 482C394 482 372 474 363 461L305 378L322 368C352 402 372 416 391 416C424 416 446 375 463 277L474 215L434 153C391 86 357 54 329 54C314 54 303 58 301 63L290 91L270 88C270 53 262 27 258 1Z" stroke="rgb(80,227,194)" stroke-opacity="1" stroke-width="8" fill="rgb(80,227,194)" fill-opacity="1"></path></g></g><g><g transform="matrix(1,0,0,1,264.433349609375,463.3833465576172)"><path transform="matrix(0.017,0,0,-0.017,0,0)" d="M51 726L32 700C87 636 187 526 187 266C187 -10 83 -131 32 -194L51 -215C104 -165 273 -23 273 265C273 542 108 675 51 726Z" stroke="rgb(80,227,194)" stroke-opacity="1" stroke-width="8" fill="rgb(80,227,194)" fill-opacity="1"></path></g></g></g><g></g><g><g><g transform="matrix(1,0,0,1,186.4666748046875,505.9833221435547)"><path transform="matrix(0.017,0,0,-0.017,0,0)" d="M2586 437L2570 437L2591 549C2607 635 2635 673 2681 673C2711 673 2738 658 2753 634L2763 638C2768 654 2778 685 2786 705L2791 720C2775 727 2744 733 2721 733C2710 733 2694 730 2686 726C2662 715 2580 654 2557 630C2535 608 2523 578 2512 521L2497 442C2456 422 2436 414 2411 405L2406 383L2487 383L2478 327C2448 132 2411 -54 2389 -123C2371 -182 2341 -213 2305 -213C2282 -213 2271 -206 2253 -184L2239 -188C2235 -211 2221 -259 2216 -268C2225 -273 2240 -276 2251 -276C2292 -276 2346 -245 2385 -198C2456 -114 2476 -18 2560 383L2664 383C2668 402 2675 425 2681 439L2677 446C2648 439 2649 437 2586 437Z" stroke="rgb(80,227,194)" stroke-opacity="1" stroke-width="8" fill="rgb(80,227,194)" fill-opacity="1"></path></g></g></g><g></g></g><g><g><g><g transform="matrix(1,0,0,1,386.7833251953125,275.20001220703125)"><path transform="matrix(0.017,0,0,-0.017,0,0)" d="M221 385L263 613C270 652 277 658 314 661L356 664L359 692L335 692L245 689C229 689 211 689 168 690L104 692L101 664L148 662C172 661 183 653 183 635C183 621 179 590 174 559L100 125C83 33 82 32 42 28L1 25L-3 -3L39 -2C87 -1 110 0 129 0L226 -3L252 -3L255 25L206 28C179 30 170 37 170 58C170 67 171 74 174 93L216 340L277 341C339 342 381 343 400 343C419 343 460 342 523 341L584 340L544 125C535 76 528 48 523 42C519 34 508 30 486 28L436 25L432 -3L488 -2C532 -1 562 0 573 0C589 0 620 -1 663 -2L705 -3L708 25L650 28C624 29 614 37 614 58C614 67 615 76 618 93L710 613C717 652 723 657 761 661L797 664L800 692L784 692L693 689C678 689 657 689 613 690L550 692L547 664L595 662C619 661 630 653 630 635C630 621 626 589 621 559L591 385ZM794 152C794 46 839 -11 922 -11C977 -11 1037 15 1082 57C1144 116 1188 230 1188 331C1188 425 1138 482 1055 482C951 482 794 382 794 152ZM1018 444C1079 444 1112 399 1112 315C1112 219 1081 113 1037 60C1019 39 993 27 962 27C904 27 870 72 870 151C870 264 909 387 958 427C971 438 994 444 1018 444ZM1950 103L1924 86C1895 67 1873 56 1863 56C1856 56 1850 65 1850 76C1850 86 1852 95 1857 116L1932 413C1936 430 1939 446 1939 454C1939 471 1929 482 1913 482C1884 482 1846 464 1785 421C1722 376 1687 341 1638 272L1668 409C1672 429 1675 444 1675 451C1675 470 1665 482 1649 482C1619 482 1573 460 1518 418C1474 384 1454 363 1389 275L1422 408C1426 424 1428 439 1428 451C1428 470 1419 482 1405 482C1384 482 1346 461 1272 408L1244 388L1251 368C1288 391 1323 414 1330 414C1341 414 1348 404 1348 389C1348 338 1307 145 1266 2L1269 -9L1337 6L1359 108C1383 219 1410 278 1465 338C1507 384 1552 414 1580 414C1587 414 1591 406 1591 393C1591 358 1569 244 1528 69L1512 2L1517 -9L1586 6L1607 113C1623 194 1657 269 1701 318C1756 379 1806 414 1838 414C1846 414 1851 405 1851 389C1851 365 1848 351 1826 264C1786 105 1770 84 1770 31C1770 6 1781 -9 1800 -9C1826 -9 1862 12 1960 85Z" stroke="rgb(144,19,254)" stroke-opacity="1" stroke-width="8" fill="rgb(144,19,254)" fill-opacity="1"></path></g></g><g><g><g><g><g transform="matrix(1,0,0,1,421.26666259765625,278.3666748046875)"><path transform="matrix(0.0119,0,0,-0.0119,0,0)" d="M791 693C823 693 848 684 848 648C848 625 828 594 789 557C693 462 476 384 323 380L323 379C534 615 696 693 791 693ZM218 361C124 239 110 171 110 122C110 66 130 -15 277 -15C425 -15 598 105 598 208C598 266 554 296 493 296C384 296 278 209 218 66L237 61C290 171 391 274 495 274C557 274 574 235 574 210C574 116 406 5 272 5C204 5 152 33 152 93C152 179 230 278 301 355C659 374 874 564 874 656C874 701 828 713 789 713C639 713 418 567 241 383C144 390 70 434 70 510C70 607 194 722 390 722C446 722 505 710 533 705L539 721C495 733 435 744 377 744C279 744 200 722 138 677C76 633 45 578 45 513C45 482 50 388 218 361Z" stroke="rgb(144,19,254)" stroke-opacity="1" stroke-width="8" fill="rgb(144,19,254)" fill-opacity="1"></path></g></g></g></g></g><g><g transform="matrix(1,0,0,1,431.2166748046875,275.3833312988281)"><path transform="matrix(0.017,0,0,-0.017,0,0)" d="M146 266C146 526 243 632 301 700L282 726C225 675 60 542 60 266C60 159 85 58 133 -32C168 -99 200 -138 282 -215L301 -194C255 -137 146 -15 146 266Z" stroke="rgb(144,19,254)" stroke-opacity="1" stroke-width="8" fill="rgb(144,19,254)" fill-opacity="1"></path></g></g><g><g transform="matrix(1,0,0,1,436.86663818359375,275.20001220703125)"><path transform="matrix(0.017,0,0,-0.017,0,0)" d="M235 722L223 733C171 707 135 698 63 691L59 670L107 670C131 670 141 663 141 646C141 639 140 628 139 622L38 71C37 68 37 64 37 61C37 22 85 -11 140 -11C177 -11 228 8 271 39C367 107 433 244 433 376C433 414 424 453 412 468C405 477 392 482 377 482C353 482 323 474 295 460C244 433 211 403 149 324ZM322 424C348 424 361 401 361 352C361 288 340 202 310 137C277 68 237 36 183 36C137 36 112 59 112 101C112 135 127 276 208 361C241 395 293 424 322 424Z" stroke="rgb(144,19,254)" stroke-opacity="1" stroke-width="8" fill="rgb(144,19,254)" fill-opacity="1"></path></g></g><g><g transform="matrix(1,0,0,1,444.7166748046875,275.20001220703125)"><path transform="matrix(0.017,0,0,-0.017,0,0)" d="M204 123C177 114 159 108 106 93C99 17 74 -48 16 -144L30 -155L71 -136C152 -31 190 32 218 109Z" stroke="rgb(144,19,254)" stroke-opacity="1" stroke-width="8" fill="rgb(144,19,254)" fill-opacity="1"></path></g></g><g><g transform="matrix(1,0,0,1,452.3499755859375,275.20001220703125)"><path transform="matrix(0.017,0,0,-0.017,0,0)" d="M520 204L491 77C487 60 485 42 485 26C485 4 494 -9 509 -9C532 -9 573 17 655 85L648 106C624 86 595 59 573 59C564 59 558 68 558 82C558 87 558 90 559 93L651 472L641 481L608 463C567 478 550 482 523 482C495 482 475 477 448 464C386 433 353 403 328 354C284 265 253 145 253 67C253 23 268 -11 287 -11C324 -11 404 41 520 204ZM568 414C546 305 527 253 493 201C436 117 375 59 343 59C331 59 325 72 325 99C325 163 353 280 388 360C412 415 435 433 483 433C506 433 524 429 568 414Z" stroke="rgb(144,19,254)" stroke-opacity="1" stroke-width="8" fill="rgb(144,19,254)" fill-opacity="1"></path></g></g><g><g transform="matrix(1,0,0,1,464.11663818359375,275.3833312988281)"><path transform="matrix(0.017,0,0,-0.017,0,0)" d="M51 726L32 700C87 636 187 526 187 266C187 -10 83 -131 32 -194L51 -215C104 -165 273 -23 273 265C273 542 108 675 51 726Z" stroke="rgb(144,19,254)" stroke-opacity="1" stroke-width="8" fill="rgb(144,19,254)" fill-opacity="1"></path></g></g></g><g></g><g><g><g transform="matrix(1,0,0,1,386.7833251953125,317.98333740234375)"><path transform="matrix(0.017,0,0,-0.017,0,0)" d="M2275 388L2282 368L2314 389C2351 412 2354 414 2361 414C2371 414 2379 404 2379 391C2379 384 2375 361 2371 347L2305 107C2297 76 2292 49 2292 30C2292 6 2303 -9 2322 -9C2348 -9 2384 12 2482 85L2472 103L2446 86C2417 67 2394 56 2385 56C2378 56 2372 66 2372 76C2372 86 2374 95 2379 116L2456 420C2460 437 2462 448 2462 456C2462 473 2453 482 2437 482C2415 482 2378 461 2303 408ZM2469 712C2440 712 2411 679 2411 645C2411 620 2426 604 2450 604C2481 604 2505 633 2505 671C2505 695 2490 712 2469 712Z" stroke="rgb(144,19,254)" stroke-opacity="1" stroke-width="8" fill="rgb(144,19,254)" fill-opacity="1"></path></g></g></g><g></g></g><g><g><g><g transform="matrix(1,0,0,1,387.29998779296875,462.1999969482422)"><path transform="matrix(0.017,0,0,-0.017,0,0)" d="M221 385L263 613C270 652 277 658 314 661L356 664L359 692L335 692L245 689C229 689 211 689 168 690L104 692L101 664L148 662C172 661 183 653 183 635C183 621 179 590 174 559L100 125C83 33 82 32 42 28L1 25L-3 -3L39 -2C87 -1 110 0 129 0L226 -3L252 -3L255 25L206 28C179 30 170 37 170 58C170 67 171 74 174 93L216 340L277 341C339 342 381 343 400 343C419 343 460 342 523 341L584 340L544 125C535 76 528 48 523 42C519 34 508 30 486 28L436 25L432 -3L488 -2C532 -1 562 0 573 0C589 0 620 -1 663 -2L705 -3L708 25L650 28C624 29 614 37 614 58C614 67 615 76 618 93L710 613C717 652 723 657 761 661L797 664L800 692L784 692L693 689C678 689 657 689 613 690L550 692L547 664L595 662C619 661 630 653 630 635C630 621 626 589 621 559L591 385ZM794 152C794 46 839 -11 922 -11C977 -11 1037 15 1082 57C1144 116 1188 230 1188 331C1188 425 1138 482 1055 482C951 482 794 382 794 152ZM1018 444C1079 444 1112 399 1112 315C1112 219 1081 113 1037 60C1019 39 993 27 962 27C904 27 870 72 870 151C870 264 909 387 958 427C971 438 994 444 1018 444ZM1950 103L1924 86C1895 67 1873 56 1863 56C1856 56 1850 65 1850 76C1850 86 1852 95 1857 116L1932 413C1936 430 1939 446 1939 454C1939 471 1929 482 1913 482C1884 482 1846 464 1785 421C1722 376 1687 341 1638 272L1668 409C1672 429 1675 444 1675 451C1675 470 1665 482 1649 482C1619 482 1573 460 1518 418C1474 384 1454 363 1389 275L1422 408C1426 424 1428 439 1428 451C1428 470 1419 482 1405 482C1384 482 1346 461 1272 408L1244 388L1251 368C1288 391 1323 414 1330 414C1341 414 1348 404 1348 389C1348 338 1307 145 1266 2L1269 -9L1337 6L1359 108C1383 219 1410 278 1465 338C1507 384 1552 414 1580 414C1587 414 1591 406 1591 393C1591 358 1569 244 1528 69L1512 2L1517 -9L1586 6L1607 113C1623 194 1657 269 1701 318C1756 379 1806 414 1838 414C1846 414 1851 405 1851 389C1851 365 1848 351 1826 264C1786 105 1770 84 1770 31C1770 6 1781 -9 1800 -9C1826 -9 1862 12 1960 85Z" stroke="rgb(144,19,254)" stroke-opacity="1" stroke-width="8" fill="rgb(144,19,254)" fill-opacity="1"></path></g></g><g><g><g><g><g transform="matrix(1,0,0,1,421.7833251953125,465.3666595458984)"><path transform="matrix(0.0119,0,0,-0.0119,0,0)" d="M791 693C823 693 848 684 848 648C848 625 828 594 789 557C693 462 476 384 323 380L323 379C534 615 696 693 791 693ZM218 361C124 239 110 171 110 122C110 66 130 -15 277 -15C425 -15 598 105 598 208C598 266 554 296 493 296C384 296 278 209 218 66L237 61C290 171 391 274 495 274C557 274 574 235 574 210C574 116 406 5 272 5C204 5 152 33 152 93C152 179 230 278 301 355C659 374 874 564 874 656C874 701 828 713 789 713C639 713 418 567 241 383C144 390 70 434 70 510C70 607 194 722 390 722C446 722 505 710 533 705L539 721C495 733 435 744 377 744C279 744 200 722 138 677C76 633 45 578 45 513C45 482 50 388 218 361Z" stroke="rgb(144,19,254)" stroke-opacity="1" stroke-width="8" fill="rgb(144,19,254)" fill-opacity="1"></path></g></g></g></g></g><g><g transform="matrix(1,0,0,1,431.73333740234375,462.3833465576172)"><path transform="matrix(0.017,0,0,-0.017,0,0)" d="M146 266C146 526 243 632 301 700L282 726C225 675 60 542 60 266C60 159 85 58 133 -32C168 -99 200 -138 282 -215L301 -194C255 -137 146 -15 146 266Z" stroke="rgb(144,19,254)" stroke-opacity="1" stroke-width="8" fill="rgb(144,19,254)" fill-opacity="1"></path></g></g><g><g transform="matrix(1,0,0,1,437.38330078125,462.1999969482422)"><path transform="matrix(0.017,0,0,-0.017,0,0)" d="M235 722L223 733C171 707 135 698 63 691L59 670L107 670C131 670 141 663 141 646C141 639 140 628 139 622L38 71C37 68 37 64 37 61C37 22 85 -11 140 -11C177 -11 228 8 271 39C367 107 433 244 433 376C433 414 424 453 412 468C405 477 392 482 377 482C353 482 323 474 295 460C244 433 211 403 149 324ZM322 424C348 424 361 401 361 352C361 288 340 202 310 137C277 68 237 36 183 36C137 36 112 59 112 101C112 135 127 276 208 361C241 395 293 424 322 424Z" stroke="rgb(144,19,254)" stroke-opacity="1" stroke-width="8" fill="rgb(144,19,254)" fill-opacity="1"></path></g></g><g><g transform="matrix(1,0,0,1,445.23333740234375,462.1999969482422)"><path transform="matrix(0.017,0,0,-0.017,0,0)" d="M204 123C177 114 159 108 106 93C99 17 74 -48 16 -144L30 -155L71 -136C152 -31 190 32 218 109Z" stroke="rgb(144,19,254)" stroke-opacity="1" stroke-width="8" fill="rgb(144,19,254)" fill-opacity="1"></path></g></g><g><g transform="matrix(1,0,0,1,452.86663818359375,462.1999969482422)"><path transform="matrix(0.017,0,0,-0.017,0,0)" d="M258 1C273 -7 289 -11 301 -11C334 -11 373 18 404 65L480 182L491 113C504 28 527 -11 563 -11C585 -11 617 6 649 35L698 79L689 98C653 68 628 53 612 53C597 53 584 63 574 83C565 102 554 139 549 168L531 269L566 318C613 383 640 406 671 406C687 406 699 398 704 383L718 387L733 472C721 479 712 482 703 482C663 482 623 446 561 354L524 299L518 347C506 446 479 482 420 482C394 482 372 474 363 461L305 378L322 368C352 402 372 416 391 416C424 416 446 375 463 277L474 215L434 153C391 86 357 54 329 54C314 54 303 58 301 63L290 91L270 88C270 53 262 27 258 1Z" stroke="rgb(144,19,254)" stroke-opacity="1" stroke-width="8" fill="rgb(144,19,254)" fill-opacity="1"></path></g></g><g><g transform="matrix(1,0,0,1,465.58331298828125,462.3833465576172)"><path transform="matrix(0.017,0,0,-0.017,0,0)" d="M51 726L32 700C87 636 187 526 187 266C187 -10 83 -131 32 -194L51 -215C104 -165 273 -23 273 265C273 542 108 675 51 726Z" stroke="rgb(144,19,254)" stroke-opacity="1" stroke-width="8" fill="rgb(144,19,254)" fill-opacity="1"></path></g></g></g><g></g><g><g><g transform="matrix(1,0,0,1,387.29998779296875,504.9833221435547)"><path transform="matrix(0.017,0,0,-0.017,0,0)" d="M1839 437L1823 437L1844 549C1860 635 1888 673 1934 673C1964 673 1991 658 2006 634L2016 638C2021 654 2031 685 2039 705L2044 720C2028 727 1997 733 1974 733C1963 733 1947 730 1939 726C1915 715 1833 654 1810 630C1788 608 1776 578 1765 521L1750 442C1709 422 1689 414 1664 405L1659 383L1740 383L1731 327C1701 132 1664 -54 1642 -123C1624 -182 1594 -213 1558 -213C1535 -213 1524 -206 1506 -184L1492 -188C1488 -211 1474 -259 1469 -268C1478 -273 1493 -276 1504 -276C1545 -276 1599 -245 1638 -198C1709 -114 1729 -18 1813 383L1917 383C1921 402 1928 425 1934 439L1930 446C1901 439 1902 437 1839 437Z" stroke="rgb(144,19,254)" stroke-opacity="1" stroke-width="8" fill="rgb(144,19,254)" fill-opacity="1"></path></g></g><g><g transform="matrix(1,0,0,1,425.45001220703125,504.9833221435547)"><path transform="matrix(0.017,0,0,-0.017,0,0)" d="M342 271C342 352 277 417 195 417C112 417 47 352 47 271C47 188 112 124 195 124C277 124 342 188 342 271ZM304 271C304 209 254 161 195 161C133 161 85 209 85 271C85 331 133 380 195 380C254 380 304 331 304 271Z" stroke="rgb(144,19,254)" stroke-opacity="1" stroke-width="8" fill="rgb(144,19,254)" fill-opacity="1"></path></g></g><g><g transform="matrix(1,0,0,1,435.45001220703125,504.9833221435547)"><path transform="matrix(0.017,0,0,-0.017,0,0)" d="M34 388L41 368L73 389C110 412 113 414 120 414C130 414 138 404 138 391C138 384 134 361 130 347L64 107C56 76 51 49 51 30C51 6 62 -9 81 -9C107 -9 143 12 241 85L231 103L205 86C176 67 153 56 144 56C137 56 131 66 131 76C131 86 133 95 138 116L215 420C219 437 221 448 221 456C221 473 212 482 196 482C174 482 137 461 62 408ZM228 712C199 712 170 679 170 645C170 620 185 604 209 604C240 604 264 633 264 671C264 695 249 712 228 712Z" stroke="rgb(144,19,254)" stroke-opacity="1" stroke-width="8" fill="rgb(144,19,254)" fill-opacity="1"></path></g></g></g><g></g></g><g><g><g><g transform="matrix(1,0,0,1,142.4000244140625,399.0500030517578)"><path transform="matrix(0.017,0,0,-0.017,0,0)" d="M221 385L263 613C270 652 277 658 314 661L356 664L359 692L335 692L245 689C229 689 211 689 168 690L104 692L101 664L148 662C172 661 183 653 183 635C183 621 179 590 174 559L100 125C83 33 82 32 42 28L1 25L-3 -3L39 -2C87 -1 110 0 129 0L226 -3L252 -3L255 25L206 28C179 30 170 37 170 58C170 67 171 74 174 93L216 340L277 341C339 342 381 343 400 343C419 343 460 342 523 341L584 340L544 125C535 76 528 48 523 42C519 34 508 30 486 28L436 25L432 -3L488 -2C532 -1 562 0 573 0C589 0 620 -1 663 -2L705 -3L708 25L650 28C624 29 614 37 614 58C614 67 615 76 618 93L710 613C717 652 723 657 761 661L797 664L800 692L784 692L693 689C678 689 657 689 613 690L550 692L547 664L595 662C619 661 630 653 630 635C630 621 626 589 621 559L591 385ZM794 152C794 46 839 -11 922 -11C977 -11 1037 15 1082 57C1144 116 1188 230 1188 331C1188 425 1138 482 1055 482C951 482 794 382 794 152ZM1018 444C1079 444 1112 399 1112 315C1112 219 1081 113 1037 60C1019 39 993 27 962 27C904 27 870 72 870 151C870 264 909 387 958 427C971 438 994 444 1018 444ZM1950 103L1924 86C1895 67 1873 56 1863 56C1856 56 1850 65 1850 76C1850 86 1852 95 1857 116L1932 413C1936 430 1939 446 1939 454C1939 471 1929 482 1913 482C1884 482 1846 464 1785 421C1722 376 1687 341 1638 272L1668 409C1672 429 1675 444 1675 451C1675 470 1665 482 1649 482C1619 482 1573 460 1518 418C1474 384 1454 363 1389 275L1422 408C1426 424 1428 439 1428 451C1428 470 1419 482 1405 482C1384 482 1346 461 1272 408L1244 388L1251 368C1288 391 1323 414 1330 414C1341 414 1348 404 1348 389C1348 338 1307 145 1266 2L1269 -9L1337 6L1359 108C1383 219 1410 278 1465 338C1507 384 1552 414 1580 414C1587 414 1591 406 1591 393C1591 358 1569 244 1528 69L1512 2L1517 -9L1586 6L1607 113C1623 194 1657 269 1701 318C1756 379 1806 414 1838 414C1846 414 1851 405 1851 389C1851 365 1848 351 1826 264C1786 105 1770 84 1770 31C1770 6 1781 -9 1800 -9C1826 -9 1862 12 1960 85Z" stroke="rgb(80,227,194)" stroke-opacity="1" stroke-width="8" fill="rgb(80,227,194)" fill-opacity="1"></path></g></g><g><g><g><g><g transform="matrix(1,0,0,1,176.88330078125,402.21666564941404)"><path transform="matrix(0.0119,0,0,-0.0119,0,0)" d="M791 693C823 693 848 684 848 648C848 625 828 594 789 557C693 462 476 384 323 380L323 379C534 615 696 693 791 693ZM218 361C124 239 110 171 110 122C110 66 130 -15 277 -15C425 -15 598 105 598 208C598 266 554 296 493 296C384 296 278 209 218 66L237 61C290 171 391 274 495 274C557 274 574 235 574 210C574 116 406 5 272 5C204 5 152 33 152 93C152 179 230 278 301 355C659 374 874 564 874 656C874 701 828 713 789 713C639 713 418 567 241 383C144 390 70 434 70 510C70 607 194 722 390 722C446 722 505 710 533 705L539 721C495 733 435 744 377 744C279 744 200 722 138 677C76 633 45 578 45 513C45 482 50 388 218 361Z" stroke="rgb(80,227,194)" stroke-opacity="1" stroke-width="8" fill="rgb(80,227,194)" fill-opacity="1"></path></g></g></g></g></g><g><g transform="matrix(1,0,0,1,186.83331298828125,399.23333740234375)"><path transform="matrix(0.017,0,0,-0.017,0,0)" d="M146 266C146 526 243 632 301 700L282 726C225 675 60 542 60 266C60 159 85 58 133 -32C168 -99 200 -138 282 -215L301 -194C255 -137 146 -15 146 266Z" stroke="rgb(80,227,194)" stroke-opacity="1" stroke-width="8" fill="rgb(80,227,194)" fill-opacity="1"></path></g></g><g><g transform="matrix(1,0,0,1,192.4666748046875,399.0500030517578)"><path transform="matrix(0.017,0,0,-0.017,0,0)" d="M271 204L242 77C238 60 236 42 236 26C236 4 245 -9 260 -9C283 -9 324 17 406 85L399 106C375 86 346 59 324 59C315 59 309 68 309 82C309 87 309 90 310 93L402 472L392 481L359 463C318 478 301 482 274 482C246 482 226 477 199 464C137 433 104 403 79 354C35 265 4 145 4 67C4 23 19 -11 38 -11C75 -11 155 41 271 204ZM319 414C297 305 278 253 244 201C187 117 126 59 94 59C82 59 76 72 76 99C76 163 104 280 139 360C163 415 186 433 234 433C257 433 275 429 319 414Z" stroke="rgb(80,227,194)" stroke-opacity="1" stroke-width="8" fill="rgb(80,227,194)" fill-opacity="1"></path></g></g><g><g transform="matrix(1,0,0,1,200.01666259765625,399.0500030517578)"><path transform="matrix(0.017,0,0,-0.017,0,0)" d="M204 123C177 114 159 108 106 93C99 17 74 -48 16 -144L30 -155L71 -136C152 -31 190 32 218 109Z" stroke="rgb(80,227,194)" stroke-opacity="1" stroke-width="8" fill="rgb(80,227,194)" fill-opacity="1"></path></g></g><g><g transform="matrix(1,0,0,1,207.6500244140625,399.0500030517578)"><path transform="matrix(0.017,0,0,-0.017,0,0)" d="M594 437L578 437L599 549C615 635 643 673 689 673C719 673 746 658 761 634L771 638C776 654 786 685 794 705L799 720C783 727 752 733 729 733C718 733 702 730 694 726C670 715 588 654 565 630C543 608 531 578 520 521L505 442C464 422 444 414 419 405L414 383L495 383L486 327C456 132 419 -54 397 -123C379 -182 349 -213 313 -213C290 -213 279 -206 261 -184L247 -188C243 -211 229 -259 224 -268C233 -273 248 -276 259 -276C300 -276 354 -245 393 -198C464 -114 484 -18 568 383L672 383C676 402 683 425 689 439L685 446C656 439 657 437 594 437Z" stroke="rgb(80,227,194)" stroke-opacity="1" stroke-width="8" fill="rgb(80,227,194)" fill-opacity="1"></path></g></g><g><g transform="matrix(1,0,0,1,221.23333740234375,399.23333740234375)"><path transform="matrix(0.017,0,0,-0.017,0,0)" d="M51 726L32 700C87 636 187 526 187 266C187 -10 83 -131 32 -194L51 -215C104 -165 273 -23 273 265C273 542 108 675 51 726Z" stroke="rgb(80,227,194)" stroke-opacity="1" stroke-width="8" fill="rgb(80,227,194)" fill-opacity="1"></path></g></g></g></g><g><g><g><g transform="matrix(1,0,0,1,431.23333740234375,399.0500030517578)"><path transform="matrix(0.017,0,0,-0.017,0,0)" d="M221 385L263 613C270 652 277 658 314 661L356 664L359 692L335 692L245 689C229 689 211 689 168 690L104 692L101 664L148 662C172 661 183 653 183 635C183 621 179 590 174 559L100 125C83 33 82 32 42 28L1 25L-3 -3L39 -2C87 -1 110 0 129 0L226 -3L252 -3L255 25L206 28C179 30 170 37 170 58C170 67 171 74 174 93L216 340L277 341C339 342 381 343 400 343C419 343 460 342 523 341L584 340L544 125C535 76 528 48 523 42C519 34 508 30 486 28L436 25L432 -3L488 -2C532 -1 562 0 573 0C589 0 620 -1 663 -2L705 -3L708 25L650 28C624 29 614 37 614 58C614 67 615 76 618 93L710 613C717 652 723 657 761 661L797 664L800 692L784 692L693 689C678 689 657 689 613 690L550 692L547 664L595 662C619 661 630 653 630 635C630 621 626 589 621 559L591 385ZM794 152C794 46 839 -11 922 -11C977 -11 1037 15 1082 57C1144 116 1188 230 1188 331C1188 425 1138 482 1055 482C951 482 794 382 794 152ZM1018 444C1079 444 1112 399 1112 315C1112 219 1081 113 1037 60C1019 39 993 27 962 27C904 27 870 72 870 151C870 264 909 387 958 427C971 438 994 444 1018 444ZM1950 103L1924 86C1895 67 1873 56 1863 56C1856 56 1850 65 1850 76C1850 86 1852 95 1857 116L1932 413C1936 430 1939 446 1939 454C1939 471 1929 482 1913 482C1884 482 1846 464 1785 421C1722 376 1687 341 1638 272L1668 409C1672 429 1675 444 1675 451C1675 470 1665 482 1649 482C1619 482 1573 460 1518 418C1474 384 1454 363 1389 275L1422 408C1426 424 1428 439 1428 451C1428 470 1419 482 1405 482C1384 482 1346 461 1272 408L1244 388L1251 368C1288 391 1323 414 1330 414C1341 414 1348 404 1348 389C1348 338 1307 145 1266 2L1269 -9L1337 6L1359 108C1383 219 1410 278 1465 338C1507 384 1552 414 1580 414C1587 414 1591 406 1591 393C1591 358 1569 244 1528 69L1512 2L1517 -9L1586 6L1607 113C1623 194 1657 269 1701 318C1756 379 1806 414 1838 414C1846 414 1851 405 1851 389C1851 365 1848 351 1826 264C1786 105 1770 84 1770 31C1770 6 1781 -9 1800 -9C1826 -9 1862 12 1960 85Z" stroke="rgb(144,19,254)" stroke-opacity="1" stroke-width="8" fill="rgb(144,19,254)" fill-opacity="1"></path></g></g><g><g><g><g><g transform="matrix(1,0,0,1,465.7166748046875,402.21666564941404)"><path transform="matrix(0.0119,0,0,-0.0119,0,0)" d="M791 693C823 693 848 684 848 648C848 625 828 594 789 557C693 462 476 384 323 380L323 379C534 615 696 693 791 693ZM218 361C124 239 110 171 110 122C110 66 130 -15 277 -15C425 -15 598 105 598 208C598 266 554 296 493 296C384 296 278 209 218 66L237 61C290 171 391 274 495 274C557 274 574 235 574 210C574 116 406 5 272 5C204 5 152 33 152 93C152 179 230 278 301 355C659 374 874 564 874 656C874 701 828 713 789 713C639 713 418 567 241 383C144 390 70 434 70 510C70 607 194 722 390 722C446 722 505 710 533 705L539 721C495 733 435 744 377 744C279 744 200 722 138 677C76 633 45 578 45 513C45 482 50 388 218 361Z" stroke="rgb(144,19,254)" stroke-opacity="1" stroke-width="8" fill="rgb(144,19,254)" fill-opacity="1"></path></g></g></g></g></g><g><g transform="matrix(1,0,0,1,475.6666259765625,399.23333740234375)"><path transform="matrix(0.017,0,0,-0.017,0,0)" d="M146 266C146 526 243 632 301 700L282 726C225 675 60 542 60 266C60 159 85 58 133 -32C168 -99 200 -138 282 -215L301 -194C255 -137 146 -15 146 266Z" stroke="rgb(144,19,254)" stroke-opacity="1" stroke-width="8" fill="rgb(144,19,254)" fill-opacity="1"></path></g></g><g><g transform="matrix(1,0,0,1,481.316650390625,399.0500030517578)"><path transform="matrix(0.017,0,0,-0.017,0,0)" d="M235 722L223 733C171 707 135 698 63 691L59 670L107 670C131 670 141 663 141 646C141 639 140 628 139 622L38 71C37 68 37 64 37 61C37 22 85 -11 140 -11C177 -11 228 8 271 39C367 107 433 244 433 376C433 414 424 453 412 468C405 477 392 482 377 482C353 482 323 474 295 460C244 433 211 403 149 324ZM322 424C348 424 361 401 361 352C361 288 340 202 310 137C277 68 237 36 183 36C137 36 112 59 112 101C112 135 127 276 208 361C241 395 293 424 322 424Z" stroke="rgb(144,19,254)" stroke-opacity="1" stroke-width="8" fill="rgb(144,19,254)" fill-opacity="1"></path></g></g><g><g transform="matrix(1,0,0,1,489.1666259765625,399.0500030517578)"><path transform="matrix(0.017,0,0,-0.017,0,0)" d="M204 123C177 114 159 108 106 93C99 17 74 -48 16 -144L30 -155L71 -136C152 -31 190 32 218 109Z" stroke="rgb(144,19,254)" stroke-opacity="1" stroke-width="8" fill="rgb(144,19,254)" fill-opacity="1"></path></g></g><g><g transform="matrix(1,0,0,1,496.79998779296875,399.0500030517578)"><path transform="matrix(0.017,0,0,-0.017,0,0)" d="M594 437L578 437L599 549C615 635 643 673 689 673C719 673 746 658 761 634L771 638C776 654 786 685 794 705L799 720C783 727 752 733 729 733C718 733 702 730 694 726C670 715 588 654 565 630C543 608 531 578 520 521L505 442C464 422 444 414 419 405L414 383L495 383L486 327C456 132 419 -54 397 -123C379 -182 349 -213 313 -213C290 -213 279 -206 261 -184L247 -188C243 -211 229 -259 224 -268C233 -273 248 -276 259 -276C300 -276 354 -245 393 -198C464 -114 484 -18 568 383L672 383C676 402 683 425 689 439L685 446C656 439 657 437 594 437Z" stroke="rgb(144,19,254)" stroke-opacity="1" stroke-width="8" fill="rgb(144,19,254)" fill-opacity="1"></path></g></g><g><g transform="matrix(1,0,0,1,510.38330078125,399.23333740234375)"><path transform="matrix(0.017,0,0,-0.017,0,0)" d="M51 726L32 700C87 636 187 526 187 266C187 -10 83 -131 32 -194L51 -215C104 -165 273 -23 273 265C273 542 108 675 51 726Z" stroke="rgb(144,19,254)" stroke-opacity="1" stroke-width="8" fill="rgb(144,19,254)" fill-opacity="1"></path></g></g></g></g><g><g><g><g transform="matrix(1,0,0,1,338.79998779296875,399.0500030517578)"><path transform="matrix(0.017,0,0,-0.017,0,0)" d="M221 385L263 613C270 652 277 658 314 661L356 664L359 692L335 692L245 689C229 689 211 689 168 690L104 692L101 664L148 662C172 661 183 653 183 635C183 621 179 590 174 559L100 125C83 33 82 32 42 28L1 25L-3 -3L39 -2C87 -1 110 0 129 0L226 -3L252 -3L255 25L206 28C179 30 170 37 170 58C170 67 171 74 174 93L216 340L277 341C339 342 381 343 400 343C419 343 460 342 523 341L584 340L544 125C535 76 528 48 523 42C519 34 508 30 486 28L436 25L432 -3L488 -2C532 -1 562 0 573 0C589 0 620 -1 663 -2L705 -3L708 25L650 28C624 29 614 37 614 58C614 67 615 76 618 93L710 613C717 652 723 657 761 661L797 664L800 692L784 692L693 689C678 689 657 689 613 690L550 692L547 664L595 662C619 661 630 653 630 635C630 621 626 589 621 559L591 385ZM794 152C794 46 839 -11 922 -11C977 -11 1037 15 1082 57C1144 116 1188 230 1188 331C1188 425 1138 482 1055 482C951 482 794 382 794 152ZM1018 444C1079 444 1112 399 1112 315C1112 219 1081 113 1037 60C1019 39 993 27 962 27C904 27 870 72 870 151C870 264 909 387 958 427C971 438 994 444 1018 444ZM1950 103L1924 86C1895 67 1873 56 1863 56C1856 56 1850 65 1850 76C1850 86 1852 95 1857 116L1932 413C1936 430 1939 446 1939 454C1939 471 1929 482 1913 482C1884 482 1846 464 1785 421C1722 376 1687 341 1638 272L1668 409C1672 429 1675 444 1675 451C1675 470 1665 482 1649 482C1619 482 1573 460 1518 418C1474 384 1454 363 1389 275L1422 408C1426 424 1428 439 1428 451C1428 470 1419 482 1405 482C1384 482 1346 461 1272 408L1244 388L1251 368C1288 391 1323 414 1330 414C1341 414 1348 404 1348 389C1348 338 1307 145 1266 2L1269 -9L1337 6L1359 108C1383 219 1410 278 1465 338C1507 384 1552 414 1580 414C1587 414 1591 406 1591 393C1591 358 1569 244 1528 69L1512 2L1517 -9L1586 6L1607 113C1623 194 1657 269 1701 318C1756 379 1806 414 1838 414C1846 414 1851 405 1851 389C1851 365 1848 351 1826 264C1786 105 1770 84 1770 31C1770 6 1781 -9 1800 -9C1826 -9 1862 12 1960 85Z" stroke="rgb(74,144,226)" stroke-opacity="1" stroke-width="8" fill="rgb(74,144,226)" fill-opacity="1"></path></g></g><g><g><g><g><g transform="matrix(1,0,0,1,373.2833251953125,402.21666564941404)"><path transform="matrix(0.0119,0,0,-0.0119,0,0)" d="M791 693C823 693 848 684 848 648C848 625 828 594 789 557C693 462 476 384 323 380L323 379C534 615 696 693 791 693ZM218 361C124 239 110 171 110 122C110 66 130 -15 277 -15C425 -15 598 105 598 208C598 266 554 296 493 296C384 296 278 209 218 66L237 61C290 171 391 274 495 274C557 274 574 235 574 210C574 116 406 5 272 5C204 5 152 33 152 93C152 179 230 278 301 355C659 374 874 564 874 656C874 701 828 713 789 713C639 713 418 567 241 383C144 390 70 434 70 510C70 607 194 722 390 722C446 722 505 710 533 705L539 721C495 733 435 744 377 744C279 744 200 722 138 677C76 633 45 578 45 513C45 482 50 388 218 361Z" stroke="rgb(74,144,226)" stroke-opacity="1" stroke-width="8" fill="rgb(74,144,226)" fill-opacity="1"></path></g></g></g></g></g><g><g transform="matrix(1,0,0,1,383.23333740234375,399.23333740234375)"><path transform="matrix(0.017,0,0,-0.017,0,0)" d="M146 266C146 526 243 632 301 700L282 726C225 675 60 542 60 266C60 159 85 58 133 -32C168 -99 200 -138 282 -215L301 -194C255 -137 146 -15 146 266Z" stroke="rgb(74,144,226)" stroke-opacity="1" stroke-width="8" fill="rgb(74,144,226)" fill-opacity="1"></path></g></g><g><g transform="matrix(1,0,0,1,388.88330078125,399.0500030517578)"><path transform="matrix(0.017,0,0,-0.017,0,0)" d="M34 388L41 368L73 389C110 412 113 414 120 414C130 414 138 404 138 391C138 384 134 361 130 347L64 107C56 76 51 49 51 30C51 6 62 -9 81 -9C107 -9 143 12 241 85L231 103L205 86C176 67 153 56 144 56C137 56 131 66 131 76C131 86 133 95 138 116L215 420C219 437 221 448 221 456C221 473 212 482 196 482C174 482 137 461 62 408ZM228 712C199 712 170 679 170 645C170 620 185 604 209 604C240 604 264 633 264 671C264 695 249 712 228 712Z" stroke="rgb(74,144,226)" stroke-opacity="1" stroke-width="8" fill="rgb(74,144,226)" fill-opacity="1"></path></g></g><g><g transform="matrix(1,0,0,1,393.5999755859375,399.0500030517578)"><path transform="matrix(0.017,0,0,-0.017,0,0)" d="M204 123C177 114 159 108 106 93C99 17 74 -48 16 -144L30 -155L71 -136C152 -31 190 32 218 109Z" stroke="rgb(74,144,226)" stroke-opacity="1" stroke-width="8" fill="rgb(74,144,226)" fill-opacity="1"></path></g></g><g><g transform="matrix(1,0,0,1,401.23333740234375,399.0500030517578)"><path transform="matrix(0.017,0,0,-0.017,0,0)" d="M594 437L578 437L599 549C615 635 643 673 689 673C719 673 746 658 761 634L771 638C776 654 786 685 794 705L799 720C783 727 752 733 729 733C718 733 702 730 694 726C670 715 588 654 565 630C543 608 531 578 520 521L505 442C464 422 444 414 419 405L414 383L495 383L486 327C456 132 419 -54 397 -123C379 -182 349 -213 313 -213C290 -213 279 -206 261 -184L247 -188C243 -211 229 -259 224 -268C233 -273 248 -276 259 -276C300 -276 354 -245 393 -198C464 -114 484 -18 568 383L672 383C676 402 683 425 689 439L685 446C656 439 657 437 594 437Z" stroke="rgb(74,144,226)" stroke-opacity="1" stroke-width="8" fill="rgb(74,144,226)" fill-opacity="1"></path></g></g><g><g transform="matrix(1,0,0,1,414.816650390625,399.23333740234375)"><path transform="matrix(0.017,0,0,-0.017,0,0)" d="M51 726L32 700C87 636 187 526 187 266C187 -10 83 -131 32 -194L51 -215C104 -165 273 -23 273 265C273 542 108 675 51 726Z" stroke="rgb(74,144,226)" stroke-opacity="1" stroke-width="8" fill="rgb(74,144,226)" fill-opacity="1"></path></g></g></g></g><g><g><g><g transform="matrix(1,0,0,1,284.70001220703125,293.0500030517578)"><path transform="matrix(0.017,0,0,-0.017,0,0)" d="M221 385L263 613C270 652 277 658 314 661L356 664L359 692L335 692L245 689C229 689 211 689 168 690L104 692L101 664L148 662C172 661 183 653 183 635C183 621 179 590 174 559L100 125C83 33 82 32 42 28L1 25L-3 -3L39 -2C87 -1 110 0 129 0L226 -3L252 -3L255 25L206 28C179 30 170 37 170 58C170 67 171 74 174 93L216 340L277 341C339 342 381 343 400 343C419 343 460 342 523 341L584 340L544 125C535 76 528 48 523 42C519 34 508 30 486 28L436 25L432 -3L488 -2C532 -1 562 0 573 0C589 0 620 -1 663 -2L705 -3L708 25L650 28C624 29 614 37 614 58C614 67 615 76 618 93L710 613C717 652 723 657 761 661L797 664L800 692L784 692L693 689C678 689 657 689 613 690L550 692L547 664L595 662C619 661 630 653 630 635C630 621 626 589 621 559L591 385ZM794 152C794 46 839 -11 922 -11C977 -11 1037 15 1082 57C1144 116 1188 230 1188 331C1188 425 1138 482 1055 482C951 482 794 382 794 152ZM1018 444C1079 444 1112 399 1112 315C1112 219 1081 113 1037 60C1019 39 993 27 962 27C904 27 870 72 870 151C870 264 909 387 958 427C971 438 994 444 1018 444ZM1950 103L1924 86C1895 67 1873 56 1863 56C1856 56 1850 65 1850 76C1850 86 1852 95 1857 116L1932 413C1936 430 1939 446 1939 454C1939 471 1929 482 1913 482C1884 482 1846 464 1785 421C1722 376 1687 341 1638 272L1668 409C1672 429 1675 444 1675 451C1675 470 1665 482 1649 482C1619 482 1573 460 1518 418C1474 384 1454 363 1389 275L1422 408C1426 424 1428 439 1428 451C1428 470 1419 482 1405 482C1384 482 1346 461 1272 408L1244 388L1251 368C1288 391 1323 414 1330 414C1341 414 1348 404 1348 389C1348 338 1307 145 1266 2L1269 -9L1337 6L1359 108C1383 219 1410 278 1465 338C1507 384 1552 414 1580 414C1587 414 1591 406 1591 393C1591 358 1569 244 1528 69L1512 2L1517 -9L1586 6L1607 113C1623 194 1657 269 1701 318C1756 379 1806 414 1838 414C1846 414 1851 405 1851 389C1851 365 1848 351 1826 264C1786 105 1770 84 1770 31C1770 6 1781 -9 1800 -9C1826 -9 1862 12 1960 85Z" stroke="rgb(74,144,226)" stroke-opacity="1" stroke-width="8" fill="rgb(74,144,226)" fill-opacity="1"></path></g></g><g><g><g><g><g transform="matrix(1,0,0,1,319.20001220703125,296.21666564941404)"><path transform="matrix(0.0119,0,0,-0.0119,0,0)" d="M791 693C823 693 848 684 848 648C848 625 828 594 789 557C693 462 476 384 323 380L323 379C534 615 696 693 791 693ZM218 361C124 239 110 171 110 122C110 66 130 -15 277 -15C425 -15 598 105 598 208C598 266 554 296 493 296C384 296 278 209 218 66L237 61C290 171 391 274 495 274C557 274 574 235 574 210C574 116 406 5 272 5C204 5 152 33 152 93C152 179 230 278 301 355C659 374 874 564 874 656C874 701 828 713 789 713C639 713 418 567 241 383C144 390 70 434 70 510C70 607 194 722 390 722C446 722 505 710 533 705L539 721C495 733 435 744 377 744C279 744 200 722 138 677C76 633 45 578 45 513C45 482 50 388 218 361Z" stroke="rgb(74,144,226)" stroke-opacity="1" stroke-width="8" fill="rgb(74,144,226)" fill-opacity="1"></path></g></g></g></g></g><g><g transform="matrix(1,0,0,1,329.13330078125,293.23333740234375)"><path transform="matrix(0.017,0,0,-0.017,0,0)" d="M146 266C146 526 243 632 301 700L282 726C225 675 60 542 60 266C60 159 85 58 133 -32C168 -99 200 -138 282 -215L301 -194C255 -137 146 -15 146 266Z" stroke="rgb(74,144,226)" stroke-opacity="1" stroke-width="8" fill="rgb(74,144,226)" fill-opacity="1"></path></g></g><g><g transform="matrix(1,0,0,1,334.79998779296875,293.0500030517578)"><path transform="matrix(0.017,0,0,-0.017,0,0)" d="M34 388L41 368L73 389C110 412 113 414 120 414C130 414 138 404 138 391C138 384 134 361 130 347L64 107C56 76 51 49 51 30C51 6 62 -9 81 -9C107 -9 143 12 241 85L231 103L205 86C176 67 153 56 144 56C137 56 131 66 131 76C131 86 133 95 138 116L215 420C219 437 221 448 221 456C221 473 212 482 196 482C174 482 137 461 62 408ZM228 712C199 712 170 679 170 645C170 620 185 604 209 604C240 604 264 633 264 671C264 695 249 712 228 712Z" stroke="rgb(74,144,226)" stroke-opacity="1" stroke-width="8" fill="rgb(74,144,226)" fill-opacity="1"></path></g></g><g><g transform="matrix(1,0,0,1,339.51666259765625,293.0500030517578)"><path transform="matrix(0.017,0,0,-0.017,0,0)" d="M204 123C177 114 159 108 106 93C99 17 74 -48 16 -144L30 -155L71 -136C152 -31 190 32 218 109Z" stroke="rgb(74,144,226)" stroke-opacity="1" stroke-width="8" fill="rgb(74,144,226)" fill-opacity="1"></path></g></g><g><g transform="matrix(1,0,0,1,347.1500244140625,293.0500030517578)"><path transform="matrix(0.017,0,0,-0.017,0,0)" d="M520 204L491 77C487 60 485 42 485 26C485 4 494 -9 509 -9C532 -9 573 17 655 85L648 106C624 86 595 59 573 59C564 59 558 68 558 82C558 87 558 90 559 93L651 472L641 481L608 463C567 478 550 482 523 482C495 482 475 477 448 464C386 433 353 403 328 354C284 265 253 145 253 67C253 23 268 -11 287 -11C324 -11 404 41 520 204ZM568 414C546 305 527 253 493 201C436 117 375 59 343 59C331 59 325 72 325 99C325 163 353 280 388 360C412 415 435 433 483 433C506 433 524 429 568 414Z" stroke="rgb(74,144,226)" stroke-opacity="1" stroke-width="8" fill="rgb(74,144,226)" fill-opacity="1"></path></g></g><g><g transform="matrix(1,0,0,1,358.9000244140625,293.23333740234375)"><path transform="matrix(0.017,0,0,-0.017,0,0)" d="M51 726L32 700C87 636 187 526 187 266C187 -10 83 -131 32 -194L51 -215C104 -165 273 -23 273 265C273 542 108 675 51 726Z" stroke="rgb(74,144,226)" stroke-opacity="1" stroke-width="8" fill="rgb(74,144,226)" fill-opacity="1"></path></g></g></g></g><g><g><g><g transform="matrix(1,0,0,1,284.23333740234375,504.0500030517578)"><path transform="matrix(0.017,0,0,-0.017,0,0)" d="M221 385L263 613C270 652 277 658 314 661L356 664L359 692L335 692L245 689C229 689 211 689 168 690L104 692L101 664L148 662C172 661 183 653 183 635C183 621 179 590 174 559L100 125C83 33 82 32 42 28L1 25L-3 -3L39 -2C87 -1 110 0 129 0L226 -3L252 -3L255 25L206 28C179 30 170 37 170 58C170 67 171 74 174 93L216 340L277 341C339 342 381 343 400 343C419 343 460 342 523 341L584 340L544 125C535 76 528 48 523 42C519 34 508 30 486 28L436 25L432 -3L488 -2C532 -1 562 0 573 0C589 0 620 -1 663 -2L705 -3L708 25L650 28C624 29 614 37 614 58C614 67 615 76 618 93L710 613C717 652 723 657 761 661L797 664L800 692L784 692L693 689C678 689 657 689 613 690L550 692L547 664L595 662C619 661 630 653 630 635C630 621 626 589 621 559L591 385ZM794 152C794 46 839 -11 922 -11C977 -11 1037 15 1082 57C1144 116 1188 230 1188 331C1188 425 1138 482 1055 482C951 482 794 382 794 152ZM1018 444C1079 444 1112 399 1112 315C1112 219 1081 113 1037 60C1019 39 993 27 962 27C904 27 870 72 870 151C870 264 909 387 958 427C971 438 994 444 1018 444ZM1950 103L1924 86C1895 67 1873 56 1863 56C1856 56 1850 65 1850 76C1850 86 1852 95 1857 116L1932 413C1936 430 1939 446 1939 454C1939 471 1929 482 1913 482C1884 482 1846 464 1785 421C1722 376 1687 341 1638 272L1668 409C1672 429 1675 444 1675 451C1675 470 1665 482 1649 482C1619 482 1573 460 1518 418C1474 384 1454 363 1389 275L1422 408C1426 424 1428 439 1428 451C1428 470 1419 482 1405 482C1384 482 1346 461 1272 408L1244 388L1251 368C1288 391 1323 414 1330 414C1341 414 1348 404 1348 389C1348 338 1307 145 1266 2L1269 -9L1337 6L1359 108C1383 219 1410 278 1465 338C1507 384 1552 414 1580 414C1587 414 1591 406 1591 393C1591 358 1569 244 1528 69L1512 2L1517 -9L1586 6L1607 113C1623 194 1657 269 1701 318C1756 379 1806 414 1838 414C1846 414 1851 405 1851 389C1851 365 1848 351 1826 264C1786 105 1770 84 1770 31C1770 6 1781 -9 1800 -9C1826 -9 1862 12 1960 85Z" stroke="rgb(74,144,226)" stroke-opacity="1" stroke-width="8" fill="rgb(74,144,226)" fill-opacity="1"></path></g></g><g><g><g><g><g transform="matrix(1,0,0,1,318.7166748046875,507.21666564941404)"><path transform="matrix(0.0119,0,0,-0.0119,0,0)" d="M791 693C823 693 848 684 848 648C848 625 828 594 789 557C693 462 476 384 323 380L323 379C534 615 696 693 791 693ZM218 361C124 239 110 171 110 122C110 66 130 -15 277 -15C425 -15 598 105 598 208C598 266 554 296 493 296C384 296 278 209 218 66L237 61C290 171 391 274 495 274C557 274 574 235 574 210C574 116 406 5 272 5C204 5 152 33 152 93C152 179 230 278 301 355C659 374 874 564 874 656C874 701 828 713 789 713C639 713 418 567 241 383C144 390 70 434 70 510C70 607 194 722 390 722C446 722 505 710 533 705L539 721C495 733 435 744 377 744C279 744 200 722 138 677C76 633 45 578 45 513C45 482 50 388 218 361Z" stroke="rgb(74,144,226)" stroke-opacity="1" stroke-width="8" fill="rgb(74,144,226)" fill-opacity="1"></path></g></g></g></g></g><g><g transform="matrix(1,0,0,1,328.6666259765625,504.2333221435547)"><path transform="matrix(0.017,0,0,-0.017,0,0)" d="M146 266C146 526 243 632 301 700L282 726C225 675 60 542 60 266C60 159 85 58 133 -32C168 -99 200 -138 282 -215L301 -194C255 -137 146 -15 146 266Z" stroke="rgb(74,144,226)" stroke-opacity="1" stroke-width="8" fill="rgb(74,144,226)" fill-opacity="1"></path></g></g><g><g transform="matrix(1,0,0,1,334.316650390625,504.0500030517578)"><path transform="matrix(0.017,0,0,-0.017,0,0)" d="M34 388L41 368L73 389C110 412 113 414 120 414C130 414 138 404 138 391C138 384 134 361 130 347L64 107C56 76 51 49 51 30C51 6 62 -9 81 -9C107 -9 143 12 241 85L231 103L205 86C176 67 153 56 144 56C137 56 131 66 131 76C131 86 133 95 138 116L215 420C219 437 221 448 221 456C221 473 212 482 196 482C174 482 137 461 62 408ZM228 712C199 712 170 679 170 645C170 620 185 604 209 604C240 604 264 633 264 671C264 695 249 712 228 712Z" stroke="rgb(74,144,226)" stroke-opacity="1" stroke-width="8" fill="rgb(74,144,226)" fill-opacity="1"></path></g></g><g><g transform="matrix(1,0,0,1,339.0333251953125,504.0500030517578)"><path transform="matrix(0.017,0,0,-0.017,0,0)" d="M204 123C177 114 159 108 106 93C99 17 74 -48 16 -144L30 -155L71 -136C152 -31 190 32 218 109Z" stroke="rgb(74,144,226)" stroke-opacity="1" stroke-width="8" fill="rgb(74,144,226)" fill-opacity="1"></path></g></g><g><g transform="matrix(1,0,0,1,346.6666259765625,504.0500030517578)"><path transform="matrix(0.017,0,0,-0.017,0,0)" d="M258 1C273 -7 289 -11 301 -11C334 -11 373 18 404 65L480 182L491 113C504 28 527 -11 563 -11C585 -11 617 6 649 35L698 79L689 98C653 68 628 53 612 53C597 53 584 63 574 83C565 102 554 139 549 168L531 269L566 318C613 383 640 406 671 406C687 406 699 398 704 383L718 387L733 472C721 479 712 482 703 482C663 482 623 446 561 354L524 299L518 347C506 446 479 482 420 482C394 482 372 474 363 461L305 378L322 368C352 402 372 416 391 416C424 416 446 375 463 277L474 215L434 153C391 86 357 54 329 54C314 54 303 58 301 63L290 91L270 88C270 53 262 27 258 1Z" stroke="rgb(74,144,226)" stroke-opacity="1" stroke-width="8" fill="rgb(74,144,226)" fill-opacity="1"></path></g></g><g><g transform="matrix(1,0,0,1,359.38330078125,504.2333221435547)"><path transform="matrix(0.017,0,0,-0.017,0,0)" d="M51 726L32 700C87 636 187 526 187 266C187 -10 83 -131 32 -194L51 -215C104 -165 273 -23 273 265C273 542 108 675 51 726Z" stroke="rgb(74,144,226)" stroke-opacity="1" stroke-width="8" fill="rgb(74,144,226)" fill-opacity="1"></path></g></g></g></g></svg>
</svg>
