<svg xmlns="http://www.w3.org/2000/svg" xmlns:xlink="http://www.w3.org/1999/xlink" x="0" y="0" width="661.5333251953125" height="213.86666870117188" style="
        width:661.5333251953125px;
        height:213.86666870117188px;
        background: transparent;
        fill: none;
">
        
        
        <svg xmlns="http://www.w3.org/2000/svg" class="role-diagram-draw-area"><g class="shapes-region" style="stroke: black; fill: none;"><g/></g><g><g class="connection-group"><g class="arrow-line"><path class="connection real" stroke-dasharray="" d="  M281.78,13.73 L337.14,13.73" style="stroke: rgb(189, 16, 224); stroke-opacity: 1; stroke-width: 1px; fill: none; fill-opacity: 1;"/><g stroke="rgb(189,16,224)" stroke-opacity="1" transform="matrix(-1,1.2246467991473532e-16,-1.2246467991473532e-16,-1,339.13891056191335,13.73335266113281)" style="stroke: rgb(189, 16, 224); stroke-width: 1px;"><path d=" M10.93,-3.29 Q4.96,-0.45 0,0 Q4.96,0.45 10.93,3.29"/></g></g></g><g class="connection-group"><g class="arrow-line"><path class="connection real" stroke-dasharray="" d="  M315.46,193.48 L365.82,192.99" style="stroke: rgb(189, 16, 224); stroke-opacity: 1; stroke-width: 1px; fill: none; fill-opacity: 1;"/><g stroke="rgb(189,16,224)" stroke-opacity="1" transform="matrix(-0.999953926969049,0.009599163462399021,-0.009599163462399021,-0.999953926969049,367.8188853680861,192.97522584406067)" style="stroke: rgb(189, 16, 224); stroke-width: 1px;"><path d=" M10.93,-3.29 Q4.96,-0.45 0,0 Q4.96,0.45 10.93,3.29"/></g></g></g><g class="connection-group"><g class="arrow-line"><path class="connection real" stroke-dasharray="" d="  M257.28,25.73 L257.28,111.73" style="stroke: rgb(80, 227, 194); stroke-opacity: 1; stroke-width: 1px; fill: none; fill-opacity: 1;"/><g stroke="rgb(80,227,194)" stroke-opacity="1" transform="matrix(-1.8369701987210297e-16,-1,1,-1.8369701987210297e-16,257.2789609495678,113.73335266113281)" style="stroke: rgb(80, 227, 194); stroke-width: 1px;"><path d=" M10.93,-3.29 Q4.96,-0.45 0,0 Q4.96,0.45 10.93,3.29"/></g></g></g><g class="connection-group"><g class="arrow-line"><path class="connection real" stroke-dasharray="" d="  M393.72,83.73 L392.93,178.73" style="stroke: rgb(248, 231, 28); stroke-opacity: 1; stroke-width: 1px; fill: none; fill-opacity: 1;"/><g stroke="rgb(248,231,28)" stroke-opacity="1" transform="matrix(0.008202955487521894,-0.9999663551946484,0.9999663551946484,0.008202955487521894,392.9180589218051,180.73335266113276)" style="stroke: rgb(248, 231, 28); stroke-width: 1px;"><path d=" M10.93,-3.29 Q4.96,-0.45 0,0 Q4.96,0.45 10.93,3.29"/></g></g></g><g class="connection-group"><g class="arrow-line"><path class="connection real" stroke-dasharray="" d="  M263.73,25.73 L281.06,57.97" style="stroke: rgb(80, 227, 194); stroke-opacity: 1; stroke-width: 1px; fill: none; fill-opacity: 1;"/><g stroke="rgb(80,227,194)" stroke-opacity="1" transform="matrix(-0.47347340441231184,-0.8808081149230037,0.8808081149230037,-0.47347340441231184,282.00790648549787,59.73335266113281)" style="stroke: rgb(80, 227, 194); stroke-width: 1px;"><path d=" M10.93,-3.29 Q4.96,-0.45 0,0 Q4.96,0.45 10.93,3.29"/></g></g></g><g class="connection-group"><g class="arrow-line"><path class="connection real" stroke-dasharray="" d="  M368.04,137.73 L386.59,178.91" style="stroke: rgb(248, 231, 28); stroke-opacity: 1; stroke-width: 1px; fill: none; fill-opacity: 1;"/><g stroke="rgb(248,231,28)" stroke-opacity="1" transform="matrix(-0.4107188526134769,-0.9117620435770887,0.9117620435770887,-0.4107188526134769,387.41351674608495,180.73335266113287)" style="stroke: rgb(248, 231, 28); stroke-width: 1px;"><path d=" M10.93,-3.29 Q4.96,-0.45 0,0 Q4.96,0.45 10.93,3.29"/></g></g></g><g class="connection-group"><g class="arrow-line"><path class="connection real" stroke-dasharray="" d="  M281.78,24.14 L366.98,60.33" style="stroke: rgb(189, 16, 224); stroke-opacity: 1; stroke-width: 1px; fill: none; fill-opacity: 1;"/><g stroke="rgb(189,16,224)" stroke-opacity="1" transform="matrix(-0.9203684064812045,-0.39105242148751396,0.39105242148751396,-0.9203684064812045,368.818885368086,61.11374813025944)" style="stroke: rgb(189, 16, 224); stroke-width: 1px;"><path d=" M10.93,-3.29 Q4.96,-0.45 0,0 Q4.96,0.45 10.93,3.29"/></g></g></g><g class="connection-group"><g class="arrow-line"><path class="connection real" stroke-dasharray="" d="  M281.55,137.73 L366.75,179.85" style="stroke: rgb(189, 16, 224); stroke-opacity: 1; stroke-width: 1px; fill: none; fill-opacity: 1;"/><g stroke="rgb(189,16,224)" stroke-opacity="1" transform="matrix(-0.8964864303834404,-0.44307119082417984,0.44307119082417984,-0.8964864303834404,368.5430780095455,180.7333526611328)" style="stroke: rgb(189, 16, 224); stroke-width: 1px;"><path d=" M10.93,-3.29 Q4.96,-0.45 0,0 Q4.96,0.45 10.93,3.29"/></g></g></g><g class="connection-group"><g class="arrow-line"><path class="connection real" stroke-dasharray="" d="  M259.42,25.73 L286.96,179.76" style="stroke: rgb(80, 227, 194); stroke-opacity: 1; stroke-width: 1px; fill: none; fill-opacity: 1;"/><g stroke="rgb(80,227,194)" stroke-opacity="1" transform="matrix(-0.17605399617982598,-0.9843805109961868,0.9843805109961868,-0.17605399617982598,287.3136041019957,181.7333526611328)" style="stroke: rgb(80, 227, 194); stroke-width: 1px;"><path d=" M10.93,-3.29 Q4.96,-0.45 0,0 Q4.96,0.45 10.93,3.29"/></g></g></g><g class="connection-group"><g class="arrow-line"><path class="connection real" stroke-dasharray="" d="  M364.66,25.73 L390.46,178.76" style="stroke: rgb(248, 231, 28); stroke-opacity: 1; stroke-width: 1px; fill: none; fill-opacity: 1;"/><g stroke="rgb(248,231,28)" stroke-opacity="1" transform="matrix(-0.16625245756163762,-0.9860832218199009,0.9860832218199009,-0.16625245756163762,390.79564683359405,180.73335266113287)" style="stroke: rgb(248, 231, 28); stroke-width: 1px;"><path d=" M10.93,-3.29 Q4.96,-0.45 0,0 Q4.96,0.45 10.93,3.29"/></g></g></g><g class="connection-group"><g class="arrow-line"><path class="connection real" stroke-dasharray="6 6" d="  M266.37,25.73 L382.53,179.14" style="stroke: rgb(189, 16, 224); stroke-opacity: 1; stroke-width: 1px; fill: none; fill-opacity: 1;"/><g stroke="rgb(189,16,224)" stroke-opacity="1" transform="matrix(-0.6036255190083247,-0.7972679805447668,0.7972679805447668,-0.6036255190083247,383.73240998807364,180.7333526611328)" style="stroke: rgb(189, 16, 224); stroke-width: 1px;"><path d=" M10.93,-3.29 Q4.96,-0.45 0,0 Q4.96,0.45 10.93,3.29"/></g></g></g><g class="connection-group"><g class="arrow-line"><path class="connection real" stroke-dasharray="" d="  M268.57,25.73 L349.98,112.28" style="stroke: rgb(189, 16, 224); stroke-opacity: 1; stroke-width: 1px; fill: none; fill-opacity: 1;"/><g stroke="rgb(189,16,224)" stroke-opacity="1" transform="matrix(-0.6851829903263593,-0.7283709698824001,0.7283709698824001,-0.6851829903263593,351.3503445320192,113.73335266113281)" style="stroke: rgb(189, 16, 224); stroke-width: 1px;"><path d=" M10.93,-3.29 Q4.96,-0.45 0,0 Q4.96,0.45 10.93,3.29"/></g></g></g><g class="connection-group"><g class="arrow-line"><path class="connection real" stroke-dasharray="" d="  M298.81,83.73 L381.16,179.22" style="stroke: rgb(189, 16, 224); stroke-opacity: 1; stroke-width: 1px; fill: none; fill-opacity: 1;"/><g stroke="rgb(189,16,224)" stroke-opacity="1" transform="matrix(-0.6531563230639638,-0.7572230963471486,0.7572230963471486,-0.6531563230639638,382.4691382990931,180.7333526611328)" style="stroke: rgb(189, 16, 224); stroke-width: 1px;"><path d=" M10.93,-3.29 Q4.96,-0.45 0,0 Q4.96,0.45 10.93,3.29"/></g></g></g></g><g/><g/></svg>
        <svg xmlns="http://www.w3.org/2000/svg" xmlns:xlink="http://www.w3.org/1999/xlink" width="660" height="212.3333282470703" style="width:660px;height:212.3333282470703px;font-family:Asana-Math, Asana;background:transparent;"><g><g><g><g transform="matrix(1,0,0,1,236.54998779296875,20.76666259765625)"><path transform="matrix(0.017,0,0,-0.017,0,0)" d="M221 385L263 613C270 652 277 658 314 661L356 664L359 692L335 692L245 689C229 689 211 689 168 690L104 692L101 664L148 662C172 661 183 653 183 635C183 621 179 590 174 559L100 125C83 33 82 32 42 28L1 25L-3 -3L39 -2C87 -1 110 0 129 0L226 -3L252 -3L255 25L206 28C179 30 170 37 170 58C170 67 171 74 174 93L216 340L277 341C339 342 381 343 400 343C419 343 460 342 523 341L584 340L544 125C535 76 528 48 523 42C519 34 508 30 486 28L436 25L432 -3L488 -2C532 -1 562 0 573 0C589 0 620 -1 663 -2L705 -3L708 25L650 28C624 29 614 37 614 58C614 67 615 76 618 93L710 613C717 652 723 657 761 661L797 664L800 692L784 692L693 689C678 689 657 689 613 690L550 692L547 664L595 662C619 661 630 653 630 635C630 621 626 589 621 559L591 385ZM1063 646L1169 650C1231 650 1271 641 1272 626L1280 537L1304 537C1307 600 1314 651 1325 689C1303 691 1275 692 1258 692L1217 691L1052 689L1023 689C998 689 958 690 920 691L871 692L868 664L924 662C948 661 959 652 959 635C959 621 955 589 950 559L875 125C858 33 858 32 817 28L781 25L777 -3L811 -2C851 -1 883 0 904 0C922 0 951 -1 990 -2L1042 -3L1045 25L981 28C954 29 945 37 945 57C945 63 946 74 947 78L983 301L1100 301C1127 301 1158 300 1206 298L1232 297L1251 342L1247 349C1166 345 1106 343 1028 343L991 343L1037 614C1040 630 1041 635 1046 646Z" stroke="rgb(80,227,194)" stroke-opacity="1" stroke-width="8" fill="rgb(80,227,194)" fill-opacity="1"></path></g></g><g><g transform="matrix(1,0,0,1,259.20001220703125,20.5333251953125)"><path transform="matrix(0.017,0,0,-0.017,0,0)" d="M146 266C146 526 243 632 301 700L282 726C225 675 60 542 60 266C60 159 85 58 133 -32C168 -99 200 -138 282 -215L301 -194C255 -137 146 -15 146 266Z" stroke="rgb(80,227,194)" stroke-opacity="1" stroke-width="8" fill="rgb(80,227,194)" fill-opacity="1"></path></g></g><g><g transform="matrix(1,0,0,1,264.85003662109375,20.76666259765625)"><path transform="matrix(0.017,0,0,-0.017,0,0)" d="M271 204L242 77C238 60 236 42 236 26C236 4 245 -9 260 -9C283 -9 324 17 406 85L399 106C375 86 346 59 324 59C315 59 309 68 309 82C309 87 309 90 310 93L402 472L392 481L359 463C318 478 301 482 274 482C246 482 226 477 199 464C137 433 104 403 79 354C35 265 4 145 4 67C4 23 19 -11 38 -11C75 -11 155 41 271 204ZM319 414C297 305 278 253 244 201C187 117 126 59 94 59C82 59 76 72 76 99C76 163 104 280 139 360C163 415 186 433 234 433C257 433 275 429 319 414Z" stroke="rgb(80,227,194)" stroke-opacity="1" stroke-width="8" fill="rgb(80,227,194)" fill-opacity="1"></path></g></g><g><g transform="matrix(1,0,0,1,272.38336181640625,20.5333251953125)"><path transform="matrix(0.017,0,0,-0.017,0,0)" d="M51 726L32 700C87 636 187 526 187 266C187 -10 83 -131 32 -194L51 -215C104 -165 273 -23 273 265C273 542 108 675 51 726Z" stroke="rgb(80,227,194)" stroke-opacity="1" stroke-width="8" fill="rgb(80,227,194)" fill-opacity="1"></path></g></g></g></g><g><g><g><g transform="matrix(1,0,0,1,342.85003662109375,20.76666259765625)"><path transform="matrix(0.017,0,0,-0.017,0,0)" d="M371 664L374 692L350 692L260 689C244 689 226 689 183 690L119 692L116 664L163 662C187 661 198 653 198 635C198 621 195 592 189 559L116 125C99 33 98 32 58 28L17 25L13 -3L55 -2C103 -1 126 0 145 0L242 -3L268 -3L271 25L222 28C195 30 186 37 186 57C186 63 187 74 188 78L231 340C381 169 404 140 509 -3L578 0C614 -1 620 -2 646 -3L646 27L626 27C603 27 583 39 562 65L316 367L608 640C624 655 645 665 662 665L683 665L683 692L660 691C639 690 623 689 615 689C605 689 589 690 568 691L548 692L548 663C548 655 538 642 510 614C466 569 297 403 233 353L278 613C285 651 292 658 329 661ZM952 646L1058 650C1120 650 1160 641 1161 626L1169 537L1193 537C1196 600 1203 651 1214 689C1192 691 1164 692 1147 692L1106 691L941 689L912 689C887 689 847 690 809 691L760 692L757 664L813 662C837 661 848 652 848 635C848 621 844 589 839 559L764 125C747 33 747 32 706 28L670 25L666 -3L700 -2C740 -1 772 0 793 0C811 0 840 -1 879 -2L931 -3L934 25L870 28C843 29 834 37 834 57C834 63 835 74 836 78L872 301L989 301C1016 301 1047 300 1095 298L1121 297L1140 342L1136 349C1055 345 995 343 917 343L880 343L926 614C929 630 930 635 935 646Z" stroke="rgb(248,231,28)" stroke-opacity="1" stroke-width="8" fill="rgb(248,231,28)" fill-opacity="1"></path></g></g><g><g transform="matrix(1,0,0,1,363.60003662109375,20.5333251953125)"><path transform="matrix(0.017,0,0,-0.017,0,0)" d="M146 266C146 526 243 632 301 700L282 726C225 675 60 542 60 266C60 159 85 58 133 -32C168 -99 200 -138 282 -215L301 -194C255 -137 146 -15 146 266Z" stroke="rgb(248,231,28)" stroke-opacity="1" stroke-width="8" fill="rgb(248,231,28)" fill-opacity="1"></path></g></g><g><g transform="matrix(1,0,0,1,369.25,20.76666259765625)"><path transform="matrix(0.017,0,0,-0.017,0,0)" d="M271 204L242 77C238 60 236 42 236 26C236 4 245 -9 260 -9C283 -9 324 17 406 85L399 106C375 86 346 59 324 59C315 59 309 68 309 82C309 87 309 90 310 93L402 472L392 481L359 463C318 478 301 482 274 482C246 482 226 477 199 464C137 433 104 403 79 354C35 265 4 145 4 67C4 23 19 -11 38 -11C75 -11 155 41 271 204ZM319 414C297 305 278 253 244 201C187 117 126 59 94 59C82 59 76 72 76 99C76 163 104 280 139 360C163 415 186 433 234 433C257 433 275 429 319 414Z" stroke="rgb(248,231,28)" stroke-opacity="1" stroke-width="8" fill="rgb(248,231,28)" fill-opacity="1"></path></g></g><g><g transform="matrix(1,0,0,1,376.7833251953125,20.5333251953125)"><path transform="matrix(0.017,0,0,-0.017,0,0)" d="M51 726L32 700C87 636 187 526 187 266C187 -10 83 -131 32 -194L51 -215C104 -165 273 -23 273 265C273 542 108 675 51 726Z" stroke="rgb(248,231,28)" stroke-opacity="1" stroke-width="8" fill="rgb(248,231,28)" fill-opacity="1"></path></g></g></g></g><g><g><g><g transform="matrix(1,0,0,1,266.316650390625,78.76666259765625)"><path transform="matrix(0.017,0,0,-0.017,0,0)" d="M221 385L263 613C270 652 277 658 314 661L356 664L359 692L335 692L245 689C229 689 211 689 168 690L104 692L101 664L148 662C172 661 183 653 183 635C183 621 179 590 174 559L100 125C83 33 82 32 42 28L1 25L-3 -3L39 -2C87 -1 110 0 129 0L226 -3L252 -3L255 25L206 28C179 30 170 37 170 58C170 67 171 74 174 93L216 340L277 341C339 342 381 343 400 343C419 343 460 342 523 341L584 340L544 125C535 76 528 48 523 42C519 34 508 30 486 28L436 25L432 -3L488 -2C532 -1 562 0 573 0C589 0 620 -1 663 -2L705 -3L708 25L650 28C624 29 614 37 614 58C614 67 615 76 618 93L710 613C717 652 723 657 761 661L797 664L800 692L784 692L693 689C678 689 657 689 613 690L550 692L547 664L595 662C619 661 630 653 630 635C630 621 626 589 621 559L591 385ZM1211 653C1288 653 1342 639 1398 603L1398 519L1425 519C1430 576 1438 619 1452 665C1369 695 1312 706 1243 706C1151 706 1078 683 1006 632C889 548 827 424 827 274C827 87 936 -18 1132 -18C1189 -21 1336 6 1385 37C1405 193 1409 216 1410 219C1412 228 1424 238 1437 240L1469 246L1471 274C1432 270 1397 269 1346 269C1295 269 1259 270 1217 274L1212 246L1246 244C1321 240 1330 236 1330 212C1330 197 1310 84 1305 60C1260 36 1221 27 1167 27C1001 27 915 120 915 297C915 443 974 653 1211 653Z" stroke="rgb(80,227,194)" stroke-opacity="1" stroke-width="8" fill="rgb(80,227,194)" fill-opacity="1"></path></g></g><g><g transform="matrix(1,0,0,1,291.7833251953125,78.5333251953125)"><path transform="matrix(0.017,0,0,-0.017,0,0)" d="M146 266C146 526 243 632 301 700L282 726C225 675 60 542 60 266C60 159 85 58 133 -32C168 -99 200 -138 282 -215L301 -194C255 -137 146 -15 146 266Z" stroke="rgb(80,227,194)" stroke-opacity="1" stroke-width="8" fill="rgb(80,227,194)" fill-opacity="1"></path></g></g><g><g transform="matrix(1,0,0,1,297.433349609375,78.76666259765625)"><path transform="matrix(0.017,0,0,-0.017,0,0)" d="M271 204L242 77C238 60 236 42 236 26C236 4 245 -9 260 -9C283 -9 324 17 406 85L399 106C375 86 346 59 324 59C315 59 309 68 309 82C309 87 309 90 310 93L402 472L392 481L359 463C318 478 301 482 274 482C246 482 226 477 199 464C137 433 104 403 79 354C35 265 4 145 4 67C4 23 19 -11 38 -11C75 -11 155 41 271 204ZM319 414C297 305 278 253 244 201C187 117 126 59 94 59C82 59 76 72 76 99C76 163 104 280 139 360C163 415 186 433 234 433C257 433 275 429 319 414Z" stroke="rgb(80,227,194)" stroke-opacity="1" stroke-width="8" fill="rgb(80,227,194)" fill-opacity="1"></path></g></g><g><g transform="matrix(1,0,0,1,304.9666748046875,78.5333251953125)"><path transform="matrix(0.017,0,0,-0.017,0,0)" d="M51 726L32 700C87 636 187 526 187 266C187 -10 83 -131 32 -194L51 -215C104 -165 273 -23 273 265C273 542 108 675 51 726Z" stroke="rgb(80,227,194)" stroke-opacity="1" stroke-width="8" fill="rgb(80,227,194)" fill-opacity="1"></path></g></g></g></g><g><g><g><g transform="matrix(1,0,0,1,372.61663818359375,78.76666259765625)"><path transform="matrix(0.017,0,0,-0.017,0,0)" d="M371 664L374 692L350 692L260 689C244 689 226 689 183 690L119 692L116 664L163 662C187 661 198 653 198 635C198 621 195 592 189 559L116 125C99 33 98 32 58 28L17 25L13 -3L55 -2C103 -1 126 0 145 0L242 -3L268 -3L271 25L222 28C195 30 186 37 186 57C186 63 187 74 188 78L231 340C381 169 404 140 509 -3L578 0C614 -1 620 -2 646 -3L646 27L626 27C603 27 583 39 562 65L316 367L608 640C624 655 645 665 662 665L683 665L683 692L660 691C639 690 623 689 615 689C605 689 589 690 568 691L548 692L548 663C548 655 538 642 510 614C466 569 297 403 233 353L278 613C285 651 292 658 329 661ZM1100 653C1177 653 1231 639 1287 603L1287 519L1314 519C1319 576 1327 619 1341 665C1258 695 1201 706 1132 706C1040 706 967 683 895 632C778 548 716 424 716 274C716 87 825 -18 1021 -18C1078 -21 1225 6 1274 37C1294 193 1298 216 1299 219C1301 228 1313 238 1326 240L1358 246L1360 274C1321 270 1286 269 1235 269C1184 269 1148 270 1106 274L1101 246L1135 244C1210 240 1219 236 1219 212C1219 197 1199 84 1194 60C1149 36 1110 27 1056 27C890 27 804 120 804 297C804 443 863 653 1100 653Z" stroke="rgb(248,231,28)" stroke-opacity="1" stroke-width="8" fill="rgb(248,231,28)" fill-opacity="1"></path></g></g><g><g transform="matrix(1,0,0,1,396.183349609375,78.5333251953125)"><path transform="matrix(0.017,0,0,-0.017,0,0)" d="M146 266C146 526 243 632 301 700L282 726C225 675 60 542 60 266C60 159 85 58 133 -32C168 -99 200 -138 282 -215L301 -194C255 -137 146 -15 146 266Z" stroke="rgb(248,231,28)" stroke-opacity="1" stroke-width="8" fill="rgb(248,231,28)" fill-opacity="1"></path></g></g><g><g transform="matrix(1,0,0,1,401.83331298828125,78.76666259765625)"><path transform="matrix(0.017,0,0,-0.017,0,0)" d="M271 204L242 77C238 60 236 42 236 26C236 4 245 -9 260 -9C283 -9 324 17 406 85L399 106C375 86 346 59 324 59C315 59 309 68 309 82C309 87 309 90 310 93L402 472L392 481L359 463C318 478 301 482 274 482C246 482 226 477 199 464C137 433 104 403 79 354C35 265 4 145 4 67C4 23 19 -11 38 -11C75 -11 155 41 271 204ZM319 414C297 305 278 253 244 201C187 117 126 59 94 59C82 59 76 72 76 99C76 163 104 280 139 360C163 415 186 433 234 433C257 433 275 429 319 414Z" stroke="rgb(248,231,28)" stroke-opacity="1" stroke-width="8" fill="rgb(248,231,28)" fill-opacity="1"></path></g></g><g><g transform="matrix(1,0,0,1,409.36663818359375,78.5333251953125)"><path transform="matrix(0.017,0,0,-0.017,0,0)" d="M51 726L32 700C87 636 187 526 187 266C187 -10 83 -131 32 -194L51 -215C104 -165 273 -23 273 265C273 542 108 675 51 726Z" stroke="rgb(248,231,28)" stroke-opacity="1" stroke-width="8" fill="rgb(248,231,28)" fill-opacity="1"></path></g></g></g></g><g><g><g><g transform="matrix(1,0,0,1,236.38336181640625,132.76666259765625)"><path transform="matrix(0.017,0,0,-0.017,0,0)" d="M221 385L263 613C270 652 277 658 314 661L356 664L359 692L335 692L245 689C229 689 211 689 168 690L104 692L101 664L148 662C172 661 183 653 183 635C183 621 179 590 174 559L100 125C83 33 82 32 42 28L1 25L-3 -3L39 -2C87 -1 110 0 129 0L226 -3L252 -3L255 25L206 28C179 30 170 37 170 58C170 67 171 74 174 93L216 340L277 341C339 342 381 343 400 343C419 343 460 342 523 341L584 340L544 125C535 76 528 48 523 42C519 34 508 30 486 28L436 25L432 -3L488 -2C532 -1 562 0 573 0C589 0 620 -1 663 -2L705 -3L708 25L650 28C624 29 614 37 614 58C614 67 615 76 618 93L710 613C717 652 723 657 761 661L797 664L800 692L784 692L693 689C678 689 657 689 613 690L550 692L547 664L595 662C619 661 630 653 630 635C630 621 626 589 621 559L591 385ZM1063 646L1169 650C1231 650 1271 641 1272 626L1280 537L1304 537C1307 600 1314 651 1325 689C1303 691 1275 692 1258 692L1217 691L1052 689L1023 689C998 689 958 690 920 691L871 692L868 664L924 662C948 661 959 652 959 635C959 621 955 589 950 559L875 125C858 33 858 32 817 28L781 25L777 -3L811 -2C851 -1 883 0 904 0C922 0 951 -1 990 -2L1042 -3L1045 25L981 28C954 29 945 37 945 57C945 63 946 74 947 78L983 301L1100 301C1127 301 1158 300 1206 298L1232 297L1251 342L1247 349C1166 345 1106 343 1028 343L991 343L1037 614C1040 630 1041 635 1046 646Z" stroke="rgb(80,227,194)" stroke-opacity="1" stroke-width="8" fill="rgb(80,227,194)" fill-opacity="1"></path></g></g><g><g transform="matrix(1,0,0,1,259.0333251953125,132.5333251953125)"><path transform="matrix(0.017,0,0,-0.017,0,0)" d="M146 266C146 526 243 632 301 700L282 726C225 675 60 542 60 266C60 159 85 58 133 -32C168 -99 200 -138 282 -215L301 -194C255 -137 146 -15 146 266Z" stroke="rgb(80,227,194)" stroke-opacity="1" stroke-width="8" fill="rgb(80,227,194)" fill-opacity="1"></path></g></g><g><g transform="matrix(1,0,0,1,264.683349609375,132.76666259765625)"><path transform="matrix(0.017,0,0,-0.017,0,0)" d="M235 722L223 733C171 707 135 698 63 691L59 670L107 670C131 670 141 663 141 646C141 639 140 628 139 622L38 71C37 68 37 64 37 61C37 22 85 -11 140 -11C177 -11 228 8 271 39C367 107 433 244 433 376C433 414 424 453 412 468C405 477 392 482 377 482C353 482 323 474 295 460C244 433 211 403 149 324ZM322 424C348 424 361 401 361 352C361 288 340 202 310 137C277 68 237 36 183 36C137 36 112 59 112 101C112 135 127 276 208 361C241 395 293 424 322 424Z" stroke="rgb(80,227,194)" stroke-opacity="1" stroke-width="8" fill="rgb(80,227,194)" fill-opacity="1"></path></g></g><g><g transform="matrix(1,0,0,1,272.5333251953125,132.5333251953125)"><path transform="matrix(0.017,0,0,-0.017,0,0)" d="M51 726L32 700C87 636 187 526 187 266C187 -10 83 -131 32 -194L51 -215C104 -165 273 -23 273 265C273 542 108 675 51 726Z" stroke="rgb(80,227,194)" stroke-opacity="1" stroke-width="8" fill="rgb(80,227,194)" fill-opacity="1"></path></g></g></g></g><g><g><g><g transform="matrix(1,0,0,1,342.683349609375,132.76666259765625)"><path transform="matrix(0.017,0,0,-0.017,0,0)" d="M371 664L374 692L350 692L260 689C244 689 226 689 183 690L119 692L116 664L163 662C187 661 198 653 198 635C198 621 195 592 189 559L116 125C99 33 98 32 58 28L17 25L13 -3L55 -2C103 -1 126 0 145 0L242 -3L268 -3L271 25L222 28C195 30 186 37 186 57C186 63 187 74 188 78L231 340C381 169 404 140 509 -3L578 0C614 -1 620 -2 646 -3L646 27L626 27C603 27 583 39 562 65L316 367L608 640C624 655 645 665 662 665L683 665L683 692L660 691C639 690 623 689 615 689C605 689 589 690 568 691L548 692L548 663C548 655 538 642 510 614C466 569 297 403 233 353L278 613C285 651 292 658 329 661ZM952 646L1058 650C1120 650 1160 641 1161 626L1169 537L1193 537C1196 600 1203 651 1214 689C1192 691 1164 692 1147 692L1106 691L941 689L912 689C887 689 847 690 809 691L760 692L757 664L813 662C837 661 848 652 848 635C848 621 844 589 839 559L764 125C747 33 747 32 706 28L670 25L666 -3L700 -2C740 -1 772 0 793 0C811 0 840 -1 879 -2L931 -3L934 25L870 28C843 29 834 37 834 57C834 63 835 74 836 78L872 301L989 301C1016 301 1047 300 1095 298L1121 297L1140 342L1136 349C1055 345 995 343 917 343L880 343L926 614C929 630 930 635 935 646Z" stroke="rgb(248,231,28)" stroke-opacity="1" stroke-width="8" fill="rgb(248,231,28)" fill-opacity="1"></path></g></g><g><g transform="matrix(1,0,0,1,363.433349609375,132.5333251953125)"><path transform="matrix(0.017,0,0,-0.017,0,0)" d="M146 266C146 526 243 632 301 700L282 726C225 675 60 542 60 266C60 159 85 58 133 -32C168 -99 200 -138 282 -215L301 -194C255 -137 146 -15 146 266Z" stroke="rgb(248,231,28)" stroke-opacity="1" stroke-width="8" fill="rgb(248,231,28)" fill-opacity="1"></path></g></g><g><g transform="matrix(1,0,0,1,369.08331298828125,132.76666259765625)"><path transform="matrix(0.017,0,0,-0.017,0,0)" d="M235 722L223 733C171 707 135 698 63 691L59 670L107 670C131 670 141 663 141 646C141 639 140 628 139 622L38 71C37 68 37 64 37 61C37 22 85 -11 140 -11C177 -11 228 8 271 39C367 107 433 244 433 376C433 414 424 453 412 468C405 477 392 482 377 482C353 482 323 474 295 460C244 433 211 403 149 324ZM322 424C348 424 361 401 361 352C361 288 340 202 310 137C277 68 237 36 183 36C137 36 112 59 112 101C112 135 127 276 208 361C241 395 293 424 322 424Z" stroke="rgb(248,231,28)" stroke-opacity="1" stroke-width="8" fill="rgb(248,231,28)" fill-opacity="1"></path></g></g><g><g transform="matrix(1,0,0,1,376.933349609375,132.5333251953125)"><path transform="matrix(0.017,0,0,-0.017,0,0)" d="M51 726L32 700C87 636 187 526 187 266C187 -10 83 -131 32 -194L51 -215C104 -165 273 -23 273 265C273 542 108 675 51 726Z" stroke="rgb(248,231,28)" stroke-opacity="1" stroke-width="8" fill="rgb(248,231,28)" fill-opacity="1"></path></g></g></g></g><g><g><g><g transform="matrix(1,0,0,1,267.16668701171875,200.76666259765625)"><path transform="matrix(0.017,0,0,-0.017,0,0)" d="M221 385L263 613C270 652 277 658 314 661L356 664L359 692L335 692L245 689C229 689 211 689 168 690L104 692L101 664L148 662C172 661 183 653 183 635C183 621 179 590 174 559L100 125C83 33 82 32 42 28L1 25L-3 -3L39 -2C87 -1 110 0 129 0L226 -3L252 -3L255 25L206 28C179 30 170 37 170 58C170 67 171 74 174 93L216 340L277 341C339 342 381 343 400 343C419 343 460 342 523 341L584 340L544 125C535 76 528 48 523 42C519 34 508 30 486 28L436 25L432 -3L488 -2C532 -1 562 0 573 0C589 0 620 -1 663 -2L705 -3L708 25L650 28C624 29 614 37 614 58C614 67 615 76 618 93L710 613C717 652 723 657 761 661L797 664L800 692L784 692L693 689C678 689 657 689 613 690L550 692L547 664L595 662C619 661 630 653 630 635C630 621 626 589 621 559L591 385ZM1211 653C1288 653 1342 639 1398 603L1398 519L1425 519C1430 576 1438 619 1452 665C1369 695 1312 706 1243 706C1151 706 1078 683 1006 632C889 548 827 424 827 274C827 87 936 -18 1132 -18C1189 -21 1336 6 1385 37C1405 193 1409 216 1410 219C1412 228 1424 238 1437 240L1469 246L1471 274C1432 270 1397 269 1346 269C1295 269 1259 270 1217 274L1212 246L1246 244C1321 240 1330 236 1330 212C1330 197 1310 84 1305 60C1260 36 1221 27 1167 27C1001 27 915 120 915 297C915 443 974 653 1211 653Z" stroke="rgb(80,227,194)" stroke-opacity="1" stroke-width="8" fill="rgb(80,227,194)" fill-opacity="1"></path></g></g><g><g transform="matrix(1,0,0,1,292.63336181640625,200.5333251953125)"><path transform="matrix(0.017,0,0,-0.017,0,0)" d="M146 266C146 526 243 632 301 700L282 726C225 675 60 542 60 266C60 159 85 58 133 -32C168 -99 200 -138 282 -215L301 -194C255 -137 146 -15 146 266Z" stroke="rgb(80,227,194)" stroke-opacity="1" stroke-width="8" fill="rgb(80,227,194)" fill-opacity="1"></path></g></g><g><g transform="matrix(1,0,0,1,298.2833251953125,200.76666259765625)"><path transform="matrix(0.017,0,0,-0.017,0,0)" d="M235 722L223 733C171 707 135 698 63 691L59 670L107 670C131 670 141 663 141 646C141 639 140 628 139 622L38 71C37 68 37 64 37 61C37 22 85 -11 140 -11C177 -11 228 8 271 39C367 107 433 244 433 376C433 414 424 453 412 468C405 477 392 482 377 482C353 482 323 474 295 460C244 433 211 403 149 324ZM322 424C348 424 361 401 361 352C361 288 340 202 310 137C277 68 237 36 183 36C137 36 112 59 112 101C112 135 127 276 208 361C241 395 293 424 322 424Z" stroke="rgb(80,227,194)" stroke-opacity="1" stroke-width="8" fill="rgb(80,227,194)" fill-opacity="1"></path></g></g><g><g transform="matrix(1,0,0,1,306.13336181640625,200.5333251953125)"><path transform="matrix(0.017,0,0,-0.017,0,0)" d="M51 726L32 700C87 636 187 526 187 266C187 -10 83 -131 32 -194L51 -215C104 -165 273 -23 273 265C273 542 108 675 51 726Z" stroke="rgb(80,227,194)" stroke-opacity="1" stroke-width="8" fill="rgb(80,227,194)" fill-opacity="1"></path></g></g></g></g><g><g><g><g transform="matrix(1,0,0,1,371.4666748046875,199.76666259765625)"><path transform="matrix(0.017,0,0,-0.017,0,0)" d="M371 664L374 692L350 692L260 689C244 689 226 689 183 690L119 692L116 664L163 662C187 661 198 653 198 635C198 621 195 592 189 559L116 125C99 33 98 32 58 28L17 25L13 -3L55 -2C103 -1 126 0 145 0L242 -3L268 -3L271 25L222 28C195 30 186 37 186 57C186 63 187 74 188 78L231 340C381 169 404 140 509 -3L578 0C614 -1 620 -2 646 -3L646 27L626 27C603 27 583 39 562 65L316 367L608 640C624 655 645 665 662 665L683 665L683 692L660 691C639 690 623 689 615 689C605 689 589 690 568 691L548 692L548 663C548 655 538 642 510 614C466 569 297 403 233 353L278 613C285 651 292 658 329 661ZM1100 653C1177 653 1231 639 1287 603L1287 519L1314 519C1319 576 1327 619 1341 665C1258 695 1201 706 1132 706C1040 706 967 683 895 632C778 548 716 424 716 274C716 87 825 -18 1021 -18C1078 -21 1225 6 1274 37C1294 193 1298 216 1299 219C1301 228 1313 238 1326 240L1358 246L1360 274C1321 270 1286 269 1235 269C1184 269 1148 270 1106 274L1101 246L1135 244C1210 240 1219 236 1219 212C1219 197 1199 84 1194 60C1149 36 1110 27 1056 27C890 27 804 120 804 297C804 443 863 653 1100 653Z" stroke="rgb(248,231,28)" stroke-opacity="1" stroke-width="8" fill="rgb(248,231,28)" fill-opacity="1"></path></g></g><g><g transform="matrix(1,0,0,1,395.0333251953125,199.5333251953125)"><path transform="matrix(0.017,0,0,-0.017,0,0)" d="M146 266C146 526 243 632 301 700L282 726C225 675 60 542 60 266C60 159 85 58 133 -32C168 -99 200 -138 282 -215L301 -194C255 -137 146 -15 146 266Z" stroke="rgb(248,231,28)" stroke-opacity="1" stroke-width="8" fill="rgb(248,231,28)" fill-opacity="1"></path></g></g><g><g transform="matrix(1,0,0,1,400.683349609375,199.76666259765625)"><path transform="matrix(0.017,0,0,-0.017,0,0)" d="M235 722L223 733C171 707 135 698 63 691L59 670L107 670C131 670 141 663 141 646C141 639 140 628 139 622L38 71C37 68 37 64 37 61C37 22 85 -11 140 -11C177 -11 228 8 271 39C367 107 433 244 433 376C433 414 424 453 412 468C405 477 392 482 377 482C353 482 323 474 295 460C244 433 211 403 149 324ZM322 424C348 424 361 401 361 352C361 288 340 202 310 137C277 68 237 36 183 36C137 36 112 59 112 101C112 135 127 276 208 361C241 395 293 424 322 424Z" stroke="rgb(248,231,28)" stroke-opacity="1" stroke-width="8" fill="rgb(248,231,28)" fill-opacity="1"></path></g></g><g><g transform="matrix(1,0,0,1,408.5333251953125,199.5333251953125)"><path transform="matrix(0.017,0,0,-0.017,0,0)" d="M51 726L32 700C87 636 187 526 187 266C187 -10 83 -131 32 -194L51 -215C104 -165 273 -23 273 265C273 542 108 675 51 726Z" stroke="rgb(248,231,28)" stroke-opacity="1" stroke-width="8" fill="rgb(248,231,28)" fill-opacity="1"></path></g></g></g></g></svg>
</svg>
