<svg xmlns="http://www.w3.org/2000/svg" xmlns:xlink="http://www.w3.org/1999/xlink" x="0" y="0" width="661.5333251953125" height="53.33332824707031" style="
        width:661.5333251953125px;
        height:53.33332824707031px;
        background: transparent;
        fill: none;
">
        
        
        <svg xmlns="http://www.w3.org/2000/svg" class="role-diagram-draw-area"><g class="shapes-region" style="stroke: black; fill: none;"><g/></g><g><g class="connection-group"><g class="arrow-line"><path class="connection real" stroke-dasharray="" d="  M122.23,26.2 L242.23,26.2" style="stroke: rgb(144, 19, 254); stroke-opacity: 1; stroke-width: 1px; fill: none; fill-opacity: 1;"/><g stroke="rgb(144,19,254)" stroke-opacity="1" transform="matrix(-1,1.2246467991473532e-16,-1.2246467991473532e-16,-1,244.22500000000002,26.2)" style="stroke: rgb(144, 19, 254); stroke-width: 1px;"><path d=" M10.93,-3.29 Q4.96,-0.45 0,0 Q4.96,0.45 10.93,3.29"/></g></g></g><g class="connection-group"><g class="arrow-line"><path class="connection real" stroke-dasharray="" d="  M272.23,21.26 L390.23,21.74" style="stroke: rgb(144, 19, 254); stroke-opacity: 1; stroke-width: 1px; fill: none; fill-opacity: 1;"/><g stroke="rgb(144,19,254)" stroke-opacity="1" transform="matrix(-0.9999919428800662,-0.00401424649846379,0.00401424649846379,-0.9999919428800662,392.22499999999997,21.743204917686434)" style="stroke: rgb(144, 19, 254); stroke-width: 1px;"><path d=" M10.93,-3.29 Q4.96,-0.45 0,0 Q4.96,0.45 10.93,3.29"/></g></g></g><g class="connection-group"><g class="arrow-line"><path class="connection real" stroke-dasharray="" d="  M272.23,31.26 L390.23,31.74" style="stroke: rgb(144, 19, 254); stroke-opacity: 1; stroke-width: 1px; fill: none; fill-opacity: 1;"/><g stroke="rgb(144,19,254)" stroke-opacity="1" transform="matrix(-0.9999919428800662,-0.00401424649846379,0.00401424649846379,-0.9999919428800662,392.2250000000001,31.743287094956095)" style="stroke: rgb(144, 19, 254); stroke-width: 1px;"><path d=" M10.93,-3.29 Q4.96,-0.45 0,0 Q4.96,0.45 10.93,3.29"/></g></g></g><g class="connection-group"><g class="arrow-line"><path class="connection real" stroke-dasharray="" d="  M420.23,26.8 L536.23,26.8" style="stroke: rgb(144, 19, 254); stroke-opacity: 1; stroke-width: 1px; fill: none; fill-opacity: 1;"/><g stroke="rgb(144,19,254)" stroke-opacity="1" transform="matrix(-1,1.2246467991473532e-16,-1.2246467991473532e-16,-1,538.225,26.80000305175781)" style="stroke: rgb(144, 19, 254); stroke-width: 1px;"><path d=" M10.93,-3.29 Q4.96,-0.45 0,0 Q4.96,0.45 10.93,3.29"/></g></g></g></g><g/><g/></svg>
        <svg xmlns="http://www.w3.org/2000/svg" xmlns:xlink="http://www.w3.org/1999/xlink" width="660" height="51.80000305175781" style="width:660px;height:51.80000305175781px;font-family:Asana-Math, Asana;background:transparent;"><g><g><g><g transform="matrix(1,0,0,1,98.11663818359375,32.25)"><path transform="matrix(0.017,0,0,-0.017,0,0)" d="M791 693C823 693 848 684 848 648C848 625 828 594 789 557C693 462 476 384 323 380L323 379C534 615 696 693 791 693ZM218 361C124 239 110 171 110 122C110 66 130 -15 277 -15C425 -15 598 105 598 208C598 266 554 296 493 296C384 296 278 209 218 66L237 61C290 171 391 274 495 274C557 274 574 235 574 210C574 116 406 5 272 5C204 5 152 33 152 93C152 179 230 278 301 355C659 374 874 564 874 656C874 701 828 713 789 713C639 713 418 567 241 383C144 390 70 434 70 510C70 607 194 722 390 722C446 722 505 710 533 705L539 721C495 733 435 744 377 744C279 744 200 722 138 677C76 633 45 578 45 513C45 482 50 388 218 361Z" stroke="rgb(144,19,254)" stroke-opacity="1" stroke-width="8" fill="rgb(144,19,254)" fill-opacity="1"></path></g></g><g><g><g><g><g transform="matrix(1,0,0,1,111.4000244140625,35.016668701171874)"><path transform="matrix(0.0119,0,0,-0.0119,0,0)" d="M16 23L16 -3C203 -3 203 0 239 0C275 0 275 -3 468 -3L468 82C353 77 307 81 122 77L304 270C401 373 431 428 431 503C431 618 353 689 226 689C154 689 105 669 56 619L39 483L68 483L81 529C97 587 133 612 200 612C286 612 341 558 341 473C341 398 299 324 186 204Z" stroke="rgb(144,19,254)" stroke-opacity="1" stroke-width="8" fill="rgb(144,19,254)" fill-opacity="1"></path></g></g></g></g></g></g></g><g><g><g><g transform="matrix(1,0,0,1,248.11663818359375,32.25)"><path transform="matrix(0.017,0,0,-0.017,0,0)" d="M791 693C823 693 848 684 848 648C848 625 828 594 789 557C693 462 476 384 323 380L323 379C534 615 696 693 791 693ZM218 361C124 239 110 171 110 122C110 66 130 -15 277 -15C425 -15 598 105 598 208C598 266 554 296 493 296C384 296 278 209 218 66L237 61C290 171 391 274 495 274C557 274 574 235 574 210C574 116 406 5 272 5C204 5 152 33 152 93C152 179 230 278 301 355C659 374 874 564 874 656C874 701 828 713 789 713C639 713 418 567 241 383C144 390 70 434 70 510C70 607 194 722 390 722C446 722 505 710 533 705L539 721C495 733 435 744 377 744C279 744 200 722 138 677C76 633 45 578 45 513C45 482 50 388 218 361Z" stroke="rgb(144,19,254)" stroke-opacity="1" stroke-width="8" fill="rgb(144,19,254)" fill-opacity="1"></path></g></g><g><g><g><g><g transform="matrix(1,0,0,1,261.4000244140625,35.016668701171874)"><path transform="matrix(0.0119,0,0,-0.0119,0,0)" d="M418 -3L418 27L366 30C311 33 301 44 301 96L301 700L60 598L67 548L217 614L217 96C217 44 206 33 152 30L96 27L96 -3C250 0 250 0 261 0C292 0 402 -3 418 -3Z" stroke="rgb(144,19,254)" stroke-opacity="1" stroke-width="8" fill="rgb(144,19,254)" fill-opacity="1"></path></g></g></g></g></g></g></g><g><g><g><g transform="matrix(1,0,0,1,170.70001220703125,21.23333740234375)"><path transform="matrix(0.017,0,0,-0.017,0,0)" d="M342 271C342 352 277 417 195 417C112 417 47 352 47 271C47 188 112 124 195 124C277 124 342 188 342 271ZM304 271C304 209 254 161 195 161C133 161 85 209 85 271C85 331 133 380 195 380C254 380 304 331 304 271Z" stroke="rgb(144,19,254)" stroke-opacity="1" stroke-width="8" fill="rgb(144,19,254)" fill-opacity="1"></path></g></g><g><g><g><g><g transform="matrix(1,0,0,1,181.2166748046875,23.88333740234375)"><path transform="matrix(0.0119,0,0,-0.0119,0,0)" d="M791 693C823 693 848 684 848 648C848 625 828 594 789 557C693 462 476 384 323 380L323 379C534 615 696 693 791 693ZM218 361C124 239 110 171 110 122C110 66 130 -15 277 -15C425 -15 598 105 598 208C598 266 554 296 493 296C384 296 278 209 218 66L237 61C290 171 391 274 495 274C557 274 574 235 574 210C574 116 406 5 272 5C204 5 152 33 152 93C152 179 230 278 301 355C659 374 874 564 874 656C874 701 828 713 789 713C639 713 418 567 241 383C144 390 70 434 70 510C70 607 194 722 390 722C446 722 505 710 533 705L539 721C495 733 435 744 377 744C279 744 200 722 138 677C76 633 45 578 45 513C45 482 50 388 218 361Z" stroke="rgb(144,19,254)" stroke-opacity="1" stroke-width="8" fill="rgb(144,19,254)" fill-opacity="1"></path></g></g></g></g></g></g></g><g><g><g><g transform="matrix(1,0,0,1,396.11663818359375,32.850006103515625)"><path transform="matrix(0.017,0,0,-0.017,0,0)" d="M791 693C823 693 848 684 848 648C848 625 828 594 789 557C693 462 476 384 323 380L323 379C534 615 696 693 791 693ZM218 361C124 239 110 171 110 122C110 66 130 -15 277 -15C425 -15 598 105 598 208C598 266 554 296 493 296C384 296 278 209 218 66L237 61C290 171 391 274 495 274C557 274 574 235 574 210C574 116 406 5 272 5C204 5 152 33 152 93C152 179 230 278 301 355C659 374 874 564 874 656C874 701 828 713 789 713C639 713 418 567 241 383C144 390 70 434 70 510C70 607 194 722 390 722C446 722 505 710 533 705L539 721C495 733 435 744 377 744C279 744 200 722 138 677C76 633 45 578 45 513C45 482 50 388 218 361Z" stroke="rgb(144,19,254)" stroke-opacity="1" stroke-width="8" fill="rgb(144,19,254)" fill-opacity="1"></path></g></g><g><g><g><g><g transform="matrix(1,0,0,1,409.4000244140625,35.6166748046875)"><path transform="matrix(0.0119,0,0,-0.0119,0,0)" d="M263 689C108 689 29 566 29 324C29 207 50 106 85 57C120 8 176 -20 238 -20C389 -20 465 110 465 366C465 585 400 689 263 689ZM245 654C342 654 381 556 381 316C381 103 343 15 251 15C154 15 113 116 113 360C113 571 150 654 245 654Z" stroke="rgb(144,19,254)" stroke-opacity="1" stroke-width="8" fill="rgb(144,19,254)" fill-opacity="1"></path></g></g></g></g></g></g></g><g><g><g><g transform="matrix(1,0,0,1,465.4000244140625,22.850006103515625)"><path transform="matrix(0.017,0,0,-0.017,0,0)" d="M34 388L41 368L73 389C110 412 113 414 120 414C130 414 138 404 138 391C138 384 134 361 130 347L64 107C56 76 51 49 51 30C51 6 62 -9 81 -9C107 -9 143 12 241 85L231 103L205 86C176 67 153 56 144 56C137 56 131 66 131 76C131 86 133 95 138 116L215 420C219 437 221 448 221 456C221 473 212 482 196 482C174 482 137 461 62 408ZM228 712C199 712 170 679 170 645C170 620 185 604 209 604C240 604 264 633 264 671C264 695 249 712 228 712ZM760 722L748 733C696 707 660 698 588 691L584 670L632 670C656 670 666 663 666 646C666 638 665 629 664 622L636 468C606 477 579 482 554 482C485 482 391 410 345 323C314 265 294 170 294 86C294 21 309 -11 338 -11C365 -11 402 6 436 33C490 77 523 116 590 217L567 126C556 82 551 50 551 24C551 3 560 -9 577 -9C594 -9 618 3 652 28L733 88L723 107L679 76C665 66 649 59 640 59C632 59 626 68 626 82C626 90 627 99 634 128ZM391 59C375 59 366 73 366 98C366 224 412 380 461 418C474 428 493 433 520 433C564 433 593 427 626 410L614 351C577 171 436 59 391 59Z" stroke="rgb(144,19,254)" stroke-opacity="1" stroke-width="8" fill="rgb(144,19,254)" fill-opacity="1"></path></g></g><g><g><g><g><g transform="matrix(1,0,0,1,479.11663818359375,25.48331298828125)"><path transform="matrix(0.0119,0,0,-0.0119,0,0)" d="M791 693C823 693 848 684 848 648C848 625 828 594 789 557C693 462 476 384 323 380L323 379C534 615 696 693 791 693ZM218 361C124 239 110 171 110 122C110 66 130 -15 277 -15C425 -15 598 105 598 208C598 266 554 296 493 296C384 296 278 209 218 66L237 61C290 171 391 274 495 274C557 274 574 235 574 210C574 116 406 5 272 5C204 5 152 33 152 93C152 179 230 278 301 355C659 374 874 564 874 656C874 701 828 713 789 713C639 713 418 567 241 383C144 390 70 434 70 510C70 607 194 722 390 722C446 722 505 710 533 705L539 721C495 733 435 744 377 744C279 744 200 722 138 677C76 633 45 578 45 513C45 482 50 388 218 361Z" stroke="rgb(144,19,254)" stroke-opacity="1" stroke-width="8" fill="rgb(144,19,254)" fill-opacity="1"></path></g></g></g></g></g></g></g><g><g><g><g transform="matrix(1,0,0,1,542.1166381835938,32.850006103515625)"><path transform="matrix(0.017,0,0,-0.017,0,0)" d="M791 693C823 693 848 684 848 648C848 625 828 594 789 557C693 462 476 384 323 380L323 379C534 615 696 693 791 693ZM218 361C124 239 110 171 110 122C110 66 130 -15 277 -15C425 -15 598 105 598 208C598 266 554 296 493 296C384 296 278 209 218 66L237 61C290 171 391 274 495 274C557 274 574 235 574 210C574 116 406 5 272 5C204 5 152 33 152 93C152 179 230 278 301 355C659 374 874 564 874 656C874 701 828 713 789 713C639 713 418 567 241 383C144 390 70 434 70 510C70 607 194 722 390 722C446 722 505 710 533 705L539 721C495 733 435 744 377 744C279 744 200 722 138 677C76 633 45 578 45 513C45 482 50 388 218 361Z" stroke="rgb(144,19,254)" stroke-opacity="1" stroke-width="8" fill="rgb(144,19,254)" fill-opacity="1"></path></g></g><g><g><g><g><g transform="matrix(1,0,0,1,555.3999633789062,35.6166748046875)"><path transform="matrix(0.0119,0,0,-0.0119,0,0)" d="M418 -3L418 27L366 30C311 33 301 44 301 96L301 700L60 598L67 548L217 614L217 96C217 44 206 33 152 30L96 27L96 -3C250 0 250 0 261 0C292 0 402 -3 418 -3Z" stroke="rgb(144,19,254)" stroke-opacity="1" stroke-width="8" fill="rgb(144,19,254)" fill-opacity="1"></path></g></g></g></g></g></g></g><g><g><g><g transform="matrix(1,0,0,1,309.38336181640625,16.850006103515625)"><path transform="matrix(0.017,0,0,-0.017,0,0)" d="M483 722L471 733C419 707 383 698 311 691L307 670L355 670C379 670 389 663 389 646C389 638 388 629 387 622L359 468C329 477 302 482 277 482C208 482 114 410 68 323C37 265 17 170 17 86C17 21 32 -11 61 -11C88 -11 125 6 159 33C213 77 246 116 313 217L290 126C279 82 274 50 274 24C274 3 283 -9 300 -9C317 -9 341 3 375 28L456 88L446 107L402 76C388 66 372 59 363 59C355 59 349 68 349 82C349 90 350 99 357 128ZM114 59C98 59 89 73 89 98C89 224 135 380 184 418C197 428 216 433 243 433C287 433 316 427 349 410L337 351C300 171 159 59 114 59ZM516 152C516 46 561 -11 644 -11C699 -11 759 15 804 57C866 116 910 230 910 331C910 425 860 482 777 482C673 482 516 382 516 152ZM740 444C801 444 834 399 834 315C834 219 803 113 759 60C741 39 715 27 684 27C626 27 592 72 592 151C592 264 631 387 680 427C693 438 716 444 740 444ZM1672 103L1646 86C1617 67 1595 56 1585 56C1578 56 1572 65 1572 76C1572 86 1574 95 1579 116L1654 413C1658 430 1661 446 1661 454C1661 471 1651 482 1635 482C1606 482 1568 464 1507 421C1444 376 1409 341 1360 272L1390 409C1394 429 1397 444 1397 451C1397 470 1387 482 1371 482C1341 482 1295 460 1240 418C1196 384 1176 363 1111 275L1144 408C1148 424 1150 439 1150 451C1150 470 1141 482 1127 482C1106 482 1068 461 994 408L966 388L973 368C1010 391 1045 414 1052 414C1063 414 1070 404 1070 389C1070 338 1029 145 988 2L991 -9L1059 6L1081 108C1105 219 1132 278 1187 338C1229 384 1274 414 1302 414C1309 414 1313 406 1313 393C1313 358 1291 244 1250 69L1234 2L1239 -9L1308 6L1329 113C1345 194 1379 269 1423 318C1478 379 1528 414 1560 414C1568 414 1573 405 1573 389C1573 365 1570 351 1548 264C1508 105 1492 84 1492 31C1492 6 1503 -9 1522 -9C1548 -9 1584 12 1682 85Z" stroke="rgb(144,19,254)" stroke-opacity="1" stroke-width="8" fill="rgb(144,19,254)" fill-opacity="1"></path></g></g><g><g><g><g><g transform="matrix(1,0,0,1,339.13336181640625,19.48331298828125)"><path transform="matrix(0.0119,0,0,-0.0119,0,0)" d="M791 693C823 693 848 684 848 648C848 625 828 594 789 557C693 462 476 384 323 380L323 379C534 615 696 693 791 693ZM218 361C124 239 110 171 110 122C110 66 130 -15 277 -15C425 -15 598 105 598 208C598 266 554 296 493 296C384 296 278 209 218 66L237 61C290 171 391 274 495 274C557 274 574 235 574 210C574 116 406 5 272 5C204 5 152 33 152 93C152 179 230 278 301 355C659 374 874 564 874 656C874 701 828 713 789 713C639 713 418 567 241 383C144 390 70 434 70 510C70 607 194 722 390 722C446 722 505 710 533 705L539 721C495 733 435 744 377 744C279 744 200 722 138 677C76 633 45 578 45 513C45 482 50 388 218 361Z" stroke="rgb(144,19,254)" stroke-opacity="1" stroke-width="8" fill="rgb(144,19,254)" fill-opacity="1"></path></g></g></g></g></g></g></g><g><g><g><g transform="matrix(1,0,0,1,314.54998779296875,46.850006103515625)"><path transform="matrix(0.017,0,0,-0.017,0,0)" d="M342 330L365 330C373 395 380 432 389 458C365 473 330 482 293 482C248 483 175 463 118 400C64 352 25 241 25 136C25 40 67 -11 147 -11C201 -11 249 9 304 54L354 95L346 115L331 105C259 57 221 40 186 40C130 40 101 80 101 159C101 267 136 371 185 409C206 425 230 433 261 433C306 433 342 414 342 390ZM423 152C423 46 468 -11 551 -11C606 -11 666 15 711 57C773 116 817 230 817 331C817 425 767 482 684 482C580 482 423 382 423 152ZM647 444C708 444 741 399 741 315C741 219 710 113 666 60C648 39 622 27 591 27C533 27 499 72 499 151C499 264 538 387 587 427C600 438 623 444 647 444ZM1332 722L1320 733C1268 707 1232 698 1160 691L1156 670L1204 670C1228 670 1238 663 1238 646C1238 638 1237 629 1236 622L1208 468C1178 477 1151 482 1126 482C1057 482 963 410 917 323C886 265 866 170 866 86C866 21 881 -11 910 -11C937 -11 974 6 1008 33C1062 77 1095 116 1162 217L1139 126C1128 82 1123 50 1123 24C1123 3 1132 -9 1149 -9C1166 -9 1190 3 1224 28L1305 88L1295 107L1251 76C1237 66 1221 59 1212 59C1204 59 1198 68 1198 82C1198 90 1199 99 1206 128ZM963 59C947 59 938 73 938 98C938 224 984 380 1033 418C1046 428 1065 433 1092 433C1136 433 1165 427 1198 410L1186 351C1149 171 1008 59 963 59Z" stroke="rgb(144,19,254)" stroke-opacity="1" stroke-width="8" fill="rgb(144,19,254)" fill-opacity="1"></path></g></g><g><g><g><g><g transform="matrix(1,0,0,1,337.98333740234375,49.48331298828125)"><path transform="matrix(0.0119,0,0,-0.0119,0,0)" d="M791 693C823 693 848 684 848 648C848 625 828 594 789 557C693 462 476 384 323 380L323 379C534 615 696 693 791 693ZM218 361C124 239 110 171 110 122C110 66 130 -15 277 -15C425 -15 598 105 598 208C598 266 554 296 493 296C384 296 278 209 218 66L237 61C290 171 391 274 495 274C557 274 574 235 574 210C574 116 406 5 272 5C204 5 152 33 152 93C152 179 230 278 301 355C659 374 874 564 874 656C874 701 828 713 789 713C639 713 418 567 241 383C144 390 70 434 70 510C70 607 194 722 390 722C446 722 505 710 533 705L539 721C495 733 435 744 377 744C279 744 200 722 138 677C76 633 45 578 45 513C45 482 50 388 218 361Z" stroke="rgb(144,19,254)" stroke-opacity="1" stroke-width="8" fill="rgb(144,19,254)" fill-opacity="1"></path></g></g></g></g></g></g></g></svg>
</svg>
