<svg xmlns="http://www.w3.org/2000/svg" xmlns:xlink="http://www.w3.org/1999/xlink" x="0" y="0" width="661.433349609375" height="402.29998779296875" style="
        width:661.433349609375px;
        height:402.29998779296875px;
        background: transparent;
        fill: none;
">
        
        
        <svg xmlns="http://www.w3.org/2000/svg" class="role-diagram-draw-area"><g class="shapes-region" style="stroke: black; fill: none;"><g/></g><g><g class="connection-group"><g class="arrow-line"><path class="connection real" stroke-dasharray="" d="  M319.8,223.4 L289.23,253.38" style="stroke: rgb(74, 144, 226); stroke-opacity: 1; stroke-width: 1px; fill: none; fill-opacity: 1;"/><g stroke="rgb(74,144,226)" stroke-opacity="1" transform="matrix(-0.7141062388427499,0.7000373416081898,-0.7000373416081898,-0.7141062388427499,321.225,222.00392156862745)" style="stroke: rgb(74, 144, 226); stroke-width: 1px;"><path d=" M10.93,-3.29 Q4.96,-0.45 0,0 Q4.96,0.45 10.93,3.29"/></g></g></g><g class="connection-group"><g class="arrow-line"><path class="connection real" stroke-dasharray="" d="  M290.64,272.54 L321.23,302.87" style="stroke: rgb(126, 211, 33); stroke-opacity: 1; stroke-width: 1px; fill: none; fill-opacity: 1;"/><g stroke="rgb(126,211,33)" stroke-opacity="1" transform="matrix(0.7099395848628236,0.7042625830219874,-0.7042625830219874,0.7099395848628236,289.225,271.12794072768264)" style="stroke: rgb(126, 211, 33); stroke-width: 1px;"><path d=" M10.93,-3.29 Q4.96,-0.45 0,0 Q4.96,0.45 10.93,3.29"/></g></g></g><g class="connection-group"><g class="arrow-line"><path class="connection real" stroke-dasharray="" d="  M380.23,276.81 L380.23,300.4" style="stroke: rgb(126, 211, 33); stroke-opacity: 1; stroke-width: 1px; fill: none; fill-opacity: 1;"/><g stroke="rgb(126,211,33)" stroke-opacity="1" transform="matrix(6.123233995736766e-17,1,-1,6.123233995736766e-17,380.22499999999997,274.8083297729492)" style="stroke: rgb(126, 211, 33); stroke-width: 1px;"><path d=" M10.93,-3.29 Q4.96,-0.45 0,0 Q4.96,0.45 10.93,3.29"/></g></g></g><g class="connection-group"><g class="arrow-line"><path class="connection real" stroke-dasharray="" d="  M392.14,324.31 L421.23,353.4" style="stroke: rgb(208, 2, 27); stroke-opacity: 1; stroke-width: 1px; fill: none; fill-opacity: 1;"/><g stroke="rgb(208,2,27)" stroke-opacity="1" transform="matrix(0.7071067811865476,0.7071067811865475,-0.7071067811865475,0.7071067811865476,390.725,322.8999938964844)" style="stroke: rgb(208, 2, 27); stroke-width: 1px;"><path d=" M10.93,-3.29 Q4.96,-0.45 0,0 Q4.96,0.45 10.93,3.29"/></g></g></g><g class="connection-group"><g class="arrow-line"><path class="connection real" stroke-dasharray="" d="  M269.82,272.73 L239.23,303.69" style="stroke: rgb(126, 211, 33); stroke-opacity: 1; stroke-width: 1px; fill: none; fill-opacity: 1;"/><g stroke="rgb(126,211,33)" stroke-opacity="1" transform="matrix(-0.7028982997921757,0.7112903627557938,-0.7112903627557938,-0.7028982997921757,271.225,271.30649954223634)" style="stroke: rgb(126, 211, 33); stroke-width: 1px;"><path d=" M10.93,-3.29 Q4.96,-0.45 0,0 Q4.96,0.45 10.93,3.29"/></g></g></g><g class="connection-group"><g class="arrow-line"><path class="connection real" stroke-dasharray="" d="  M342.62,223.97 L369.73,251.96" style="stroke: rgb(74, 144, 226); stroke-opacity: 1; stroke-width: 1px; fill: none; fill-opacity: 1;"/><g stroke="rgb(74,144,226)" stroke-opacity="1" transform="matrix(0.6955366911650415,0.7184905783955595,-0.7184905783955595,0.6955366911650415,341.225,222.528230565908)" style="stroke: rgb(74, 144, 226); stroke-width: 1px;"><path d=" M10.93,-3.29 Q4.96,-0.45 0,0 Q4.96,0.45 10.93,3.29"/></g></g></g><g class="connection-group"><g class="arrow-line"><path class="connection real" stroke-dasharray="" d="  M368.33,324.63 L340.73,353.02" style="stroke: rgb(208, 2, 27); stroke-opacity: 1; stroke-width: 1px; fill: none; fill-opacity: 1;"/><g stroke="rgb(208,2,27)" stroke-opacity="1" transform="matrix(-0.6971651028545645,0.7169106076504829,-0.7169106076504829,-0.6971651028545645,369.725,323.19820894513816)" style="stroke: rgb(208, 2, 27); stroke-width: 1px;"><path d=" M10.93,-3.29 Q4.96,-0.45 0,0 Q4.96,0.45 10.93,3.29"/></g></g></g><g class="connection-group"><g class="arrow-line"><path class="connection real" stroke-dasharray="" d="  M230.23,326.79 L230.23,350.4" style="stroke: rgb(208, 2, 27); stroke-opacity: 1; stroke-width: 1px; fill: none; fill-opacity: 1;"/><g stroke="rgb(208,2,27)" stroke-opacity="1" transform="matrix(6.123233995736766e-17,1,-1,6.123233995736766e-17,230.22500000000002,324.79166412353516)" style="stroke: rgb(208, 2, 27); stroke-width: 1px;"><path d=" M10.93,-3.29 Q4.96,-0.45 0,0 Q4.96,0.45 10.93,3.29"/></g></g></g><g class="connection-group"><g class="arrow-line"><path class="connection real" stroke-dasharray="" d="  M280.23,325.79 L280.23,350.4" style="stroke: rgb(208, 2, 27); stroke-opacity: 1; stroke-width: 1px; fill: none; fill-opacity: 1;"/><g stroke="rgb(208,2,27)" stroke-opacity="1" transform="matrix(6.123233995736766e-17,1,-1,6.123233995736766e-17,280.225,323.79166412353516)" style="stroke: rgb(208, 2, 27); stroke-width: 1px;"><path d=" M10.93,-3.29 Q4.96,-0.45 0,0 Q4.96,0.45 10.93,3.29"/></g></g></g><g class="connection-group"><g class="arrow-line"><path class="connection real" stroke-dasharray="" d="  M280.23,276.2 L280.23,299.79" style="stroke: rgb(126, 211, 33); stroke-opacity: 1; stroke-width: 1px; fill: none; fill-opacity: 1;"/><g stroke="rgb(126,211,33)" stroke-opacity="1" transform="matrix(6.123233995736766e-17,1,-1,6.123233995736766e-17,280.22499999999997,274.2)" style="stroke: rgb(126, 211, 33); stroke-width: 1px;"><path d=" M10.93,-3.29 Q4.96,-0.45 0,0 Q4.96,0.45 10.93,3.29"/></g></g></g><g class="connection-group"><g class="arrow-line"><path class="connection real" stroke-dasharray="" d="  M331.23,226.2 L331.23,250.81" style="stroke: rgb(74, 144, 226); stroke-opacity: 1; stroke-width: 1px; fill: none; fill-opacity: 1;"/><g stroke="rgb(74,144,226)" stroke-opacity="1" transform="matrix(6.123233995736766e-17,1,-1,6.123233995736766e-17,331.225,224.2)" style="stroke: rgb(74, 144, 226); stroke-width: 1px;"><path d=" M10.93,-3.29 Q4.96,-0.45 0,0 Q4.96,0.45 10.93,3.29"/></g></g></g><g class="connection-group"><g class="arrow-line"><path class="connection real" stroke-dasharray="" d="  M120.23,64.4 L250.23,64.4" style="stroke: rgb(74, 144, 226); stroke-opacity: 1; stroke-width: 1px; fill: none; fill-opacity: 1;"/><g stroke="rgb(74,144,226)" stroke-opacity="1" transform="matrix(1,0,0,1,118.225,64.39999694824219)" style="stroke: rgb(74, 144, 226); stroke-width: 1px;"><path d=" M10.93,-3.29 Q4.96,-0.45 0,0 Q4.96,0.45 10.93,3.29"/></g></g></g><g class="connection-group"><g class="arrow-line"><path class="connection real" stroke-dasharray="" d="  M270.22,64.44 L398.23,64.96" style="stroke: rgb(126, 211, 33); stroke-opacity: 1; stroke-width: 1px; fill: none; fill-opacity: 1;"/><g stroke="rgb(126,211,33)" stroke-opacity="1" transform="matrix(0.9999919428800662,0.004014246498463718,-0.004014246498463718,0.9999919428800662,268.225,64.43648362030855)" style="stroke: rgb(126, 211, 33); stroke-width: 1px;"><path d=" M10.93,-3.29 Q4.96,-0.45 0,0 Q4.96,0.45 10.93,3.29"/></g></g></g><g class="connection-group"><g class="arrow-line"><path class="connection real" stroke-dasharray="" d="  M418.23,65 L544.23,65" style="stroke: rgb(208, 2, 27); stroke-opacity: 1; stroke-width: 1px; fill: none; fill-opacity: 1;"/><g stroke="rgb(208,2,27)" stroke-opacity="1" transform="matrix(1,0,0,1,416.225,65)" style="stroke: rgb(208, 2, 27); stroke-width: 1px;"><path d=" M10.93,-3.29 Q4.96,-0.45 0,0 Q4.96,0.45 10.93,3.29"/></g></g></g><g class="connection-group"><g class="arrow-line"><path class="connection real" stroke-dasharray="" d="  M331.92,118.2 L331.92,178.2" style="stroke: rgb(155, 155, 155); stroke-width: 1px; fill: none; fill-opacity: 1; stroke-opacity: 1;"/><g stroke="rgb(155,155,155)" transform="matrix(-1.8369701987210297e-16,-1,1,-1.8369701987210297e-16,331.9194024263679,180.19999694824213)" style="stroke: rgb(155, 155, 155); stroke-width: 1px;" stroke-opacity="1"><path d=" M10.93,-3.29 Q4.96,-0.45 0,0 Q4.96,0.45 10.93,3.29"/></g></g></g></g><g><g><rect rx="0" ry="0" x="80.41940242636792" y="11.199996948242188" width="503" height="107" style="stroke: rgb(155, 155, 155); stroke-opacity: 1; stroke-width: 1px; fill: none; fill-opacity: 1;"/></g><g><rect rx="0" ry="0" x="80.41940242636792" y="180.1999969482422" width="503" height="207" style="stroke: rgb(155, 155, 155); stroke-opacity: 1; stroke-width: 1px; fill: none; fill-opacity: 1;"/></g><g><rect rx="0" ry="0" x="186.4899333599214" y="199" width="291" height="24" style="stroke: rgb(144, 19, 254); stroke-opacity: 1; stroke-width: 1px; fill: none; fill-opacity: 1; stroke-dasharray: 6px, 6px;"/></g><g><rect rx="0" ry="0" x="186.4899333599214" y="250" width="291" height="24" style="stroke: rgb(80, 227, 194); stroke-opacity: 1; stroke-width: 1px; fill: none; fill-opacity: 1; stroke-dasharray: 6px, 6px;"/></g><g><rect rx="0" ry="0" x="186.4899333599214" y="300" width="291" height="24" style="stroke: rgb(248, 231, 28); stroke-opacity: 1; stroke-width: 1px; fill: none; fill-opacity: 1; stroke-dasharray: 6px, 6px;"/></g><g><rect rx="0" ry="0" x="186.4899333599214" y="350" width="291" height="24" style="stroke: rgb(245, 166, 35); stroke-opacity: 1; stroke-width: 1px; fill: none; fill-opacity: 1; stroke-dasharray: 6px, 6px;"/></g></g><g/></svg>
        <svg xmlns="http://www.w3.org/2000/svg" xmlns:xlink="http://www.w3.org/1999/xlink" width="660" height="400.8666687011719" style="width:660px;height:400.8666687011719px;font-family:Asana-Math, Asana;background:transparent;"><g><g><g><g transform="matrix(1,0,0,1,324.8499755859375,218.81666564941406)"><path transform="matrix(0.017,0,0,-0.017,0,0)" d="M567 55C567 39 552 30 524 28L480 25L480 -3C582 0 582 0 602 0C622 0 622 0 724 -3L724 25L698 28C651 35 650 35 642 80L555 705L509 705L136 112C100 56 82 40 48 32L28 27L28 -3C120 0 120 0 140 0C159 0 161 0 247 -3L247 25L195 28C179 29 164 38 164 47C164 55 171 69 190 102L292 277L538 277L563 89L563 86C563 84 567 69 567 55ZM496 601L533 313L317 313Z" stroke="rgb(144,19,254)" stroke-opacity="1" stroke-width="8" fill="rgb(144,19,254)" fill-opacity="1"></path></g></g></g></g><g><g><g><g transform="matrix(1,0,0,1,275.01666259765625,268.81666564941406)"><path transform="matrix(0.017,0,0,-0.017,0,0)" d="M543 227C543 337 459 353 377 365C434 385 459 397 490 425C536 464 559 511 559 562C559 644 501 692 401 692C399 692 389 692 374 691L311 690C299 689 263 689 251 689C232 689 201 690 152 691L100 692L97 664L150 662C174 661 185 653 185 635C185 621 181 589 176 559L89 55C85 37 73 30 31 23L26 -3L63 -2C90 0 105 0 117 0C128 0 154 -1 180 -2L217 -3L237 -4C256 -5 269 -6 277 -6C392 -6 543 87 543 227ZM166 41L217 340L302 340C405 340 455 298 455 211C455 108 382 34 282 34C228 34 207 38 166 41ZM352 655C433 655 473 619 473 544C473 439 399 376 275 376L223 376L272 650C288 650 329 655 352 655Z" stroke="rgb(80,227,194)" stroke-opacity="1" stroke-width="8" fill="rgb(80,227,194)" fill-opacity="1"></path></g></g></g></g><g><g><g><g transform="matrix(1,0,0,1,325.11663818359375,319.4166717529297)"><path transform="matrix(0.017,0,0,-0.017,0,0)" d="M434 653C511 653 565 639 621 603L621 519L648 519C653 576 661 619 675 665C592 695 535 706 466 706C374 706 301 683 229 632C112 548 50 424 50 274C50 87 159 -18 355 -18C412 -21 559 6 608 37C628 193 632 216 633 219C635 228 647 238 660 240L692 246L694 274C655 270 620 269 569 269C518 269 482 270 440 274L435 246L469 244C544 240 553 236 553 212C553 197 533 84 528 60C483 36 444 27 390 27C224 27 138 120 138 297C138 443 197 653 434 653Z" stroke="rgb(248,231,28)" stroke-opacity="1" stroke-width="8" fill="rgb(248,231,28)" fill-opacity="1"></path></g></g></g></g><g><g><g><g transform="matrix(1,0,0,1,325.58331298828125,369.41664123535156)"><path transform="matrix(0.017,0,0,-0.017,0,0)" d="M371 664L374 692L350 692L260 689C244 689 226 689 183 690L119 692L116 664L163 662C187 661 198 653 198 635C198 621 195 592 189 559L116 125C99 33 98 32 58 28L17 25L13 -3L55 -2C103 -1 126 0 145 0L242 -3L268 -3L271 25L222 28C195 30 186 37 186 57C186 63 187 74 188 78L231 340C381 169 404 140 509 -3L578 0C614 -1 620 -2 646 -3L646 27L626 27C603 27 583 39 562 65L316 367L608 640C624 655 645 665 662 665L683 665L683 692L660 691C639 690 623 689 615 689C605 689 589 690 568 691L548 692L548 663C548 655 538 642 510 614C466 569 297 403 233 353L278 613C285 651 292 658 329 661Z" stroke="rgb(245,166,35)" stroke-opacity="1" stroke-width="8" fill="rgb(245,166,35)" fill-opacity="1"></path></g></g></g></g><g><g><g><g transform="matrix(1,0,0,1,373.63330078125,269.4166717529297)"><path transform="matrix(0.017,0,0,-0.017,0,0)" d="M316 -3C388 -3 437 8 489 34C645 114 741 265 741 431C741 529 711 599 650 642C604 675 519 693 424 692L220 689L210 689C201 689 198 689 97 692L94 664L147 662C171 661 182 653 182 635C182 621 178 589 173 559L86 55C81 31 56 29 33 23L28 -3L121 0L176 0C211 0 282 -3 316 -3ZM384 655C566 655 649 579 649 415C649 225 549 41 329 41C285 41 236 46 168 56C168 68 169 75 172 93L268 650C291 650 349 655 384 655Z" stroke="rgb(80,227,194)" stroke-opacity="1" stroke-width="8" fill="rgb(80,227,194)" fill-opacity="1"></path></g></g></g></g><g><g><g><g transform="matrix(1,0,0,1,373.63330078125,319.0166778564453)"><path transform="matrix(0.017,0,0,-0.017,0,0)" d="M221 385L263 613C270 652 277 658 314 661L356 664L359 692L335 692L245 689C229 689 211 689 168 690L104 692L101 664L148 662C172 661 183 653 183 635C183 621 179 590 174 559L100 125C83 33 82 32 42 28L1 25L-3 -3L39 -2C87 -1 110 0 129 0L226 -3L252 -3L255 25L206 28C179 30 170 37 170 58C170 67 171 74 174 93L216 340L277 341C339 342 381 343 400 343C419 343 460 342 523 341L584 340L544 125C535 76 528 48 523 42C519 34 508 30 486 28L436 25L432 -3L488 -2C532 -1 562 0 573 0C589 0 620 -1 663 -2L705 -3L708 25L650 28C624 29 614 37 614 58C614 67 615 76 618 93L710 613C717 652 723 657 761 661L797 664L800 692L784 692L693 689C678 689 657 689 613 690L550 692L547 664L595 662C619 661 630 653 630 635C630 621 626 589 621 559L591 385Z" stroke="rgb(248,231,28)" stroke-opacity="1" stroke-width="8" fill="rgb(248,231,28)" fill-opacity="1"></path></g></g></g></g><g><g><g><g transform="matrix(1,0,0,1,425.01666259765625,369.0166778564453)"><path transform="matrix(0.017,0,0,-0.017,0,0)" d="M349 664L352 692L238 689C222 689 204 689 161 690L97 692L94 664L141 662C165 661 176 653 176 635L81 55C77 37 65 30 21 23L16 -3L57 -2C88 -1 150 0 170 0C170 0 467 -1 467 -1C467 -1 500 0 500 0C499 25 510 103 523 165L492 165L475 103C466 71 457 54 448 49C435 44 371 39 304 39C255 39 228 40 162 46C165 64 256 605 256 613C263 651 270 658 307 661Z" stroke="rgb(245,166,35)" stroke-opacity="1" stroke-width="8" fill="rgb(245,166,35)" fill-opacity="1"></path></g></g></g></g><g><g><g><g transform="matrix(1,0,0,1,225.01666259765625,319.4166717529297)"><path transform="matrix(0.017,0,0,-0.017,0,0)" d="M221 334L338 334L470 330L489 375L485 382C404 378 344 376 266 376L229 376L276 646C308 647 391 650 413 650C475 650 516 641 517 626L525 537L549 537C552 601 559 651 570 689C549 691 519 692 501 692C498 692 487 692 463 691L343 690C334 689 160 691 150 691L105 692L102 664L156 662C180 661 191 653 191 635C191 621 187 589 182 559L95 55C91 37 79 30 35 23L30 -3L71 -2C102 -1 164 0 184 0L409 -3C423 -3 448 -2 481 -1L514 0L518 36C520 56 525 86 534 135L539 161L512 161L496 101C486 65 477 53 455 48C435 44 362 39 308 39C267 39 240 40 171 46Z" stroke="rgb(248,231,28)" stroke-opacity="1" stroke-width="8" fill="rgb(248,231,28)" fill-opacity="1"></path></g></g></g></g><g><g><g><g transform="matrix(1,0,0,1,225.01666259765625,369.0166778564453)"><path transform="matrix(0.017,0,0,-0.017,0,0)" d="M103 664L150 662C174 661 185 653 185 636C185 629 179 576 176 559L104 125C89 36 86 31 46 28L10 25L7 -3L39 -3L133 0L227 -3L259 -3L262 25L210 28C184 30 174 37 174 57C174 63 175 74 176 78L265 613C272 652 277 657 316 661L351 664L354 692L248 689C231 689 213 689 170 690L106 692Z" stroke="rgb(245,166,35)" stroke-opacity="1" stroke-width="8" fill="rgb(245,166,35)" fill-opacity="1"></path></g></g></g></g><g><g><g><g transform="matrix(1,0,0,1,275.01666259765625,318.4166717529297)"><path transform="matrix(0.017,0,0,-0.017,0,0)" d="M286 646L392 650C454 650 494 641 495 626L503 537L527 537C530 600 537 651 548 689C526 691 498 692 481 692L440 691L275 689L246 689C221 689 181 690 143 691L94 692L91 664L147 662C171 661 182 652 182 635C182 621 178 589 173 559L98 125C81 33 81 32 40 28L4 25L0 -3L34 -2C74 -1 106 0 127 0C145 0 174 -1 213 -2L265 -3L268 25L204 28C177 29 168 37 168 57C168 63 169 74 170 78L206 301L323 301C350 301 381 300 429 298L455 297L474 342L470 349C389 345 329 343 251 343L214 343L260 614C263 630 264 635 269 646Z" stroke="rgb(248,231,28)" stroke-opacity="1" stroke-width="8" fill="rgb(248,231,28)" fill-opacity="1"></path></g></g></g></g><g><g><g><g transform="matrix(1,0,0,1,275.01666259765625,369.0166778564453)"><path transform="matrix(0.017,0,0,-0.017,0,0)" d="M355 664L358 692L244 689C228 689 210 689 167 690L103 692L100 664L147 662C171 661 182 653 182 635C182 630 182 627 181 622L86 -21C71 -124 41 -174 -6 -174C-18 -174 -27 -173 -35 -170L-32 -196C-21 -203 -9 -206 3 -206C38 -206 143 -178 177 54L262 613C268 651 275 658 313 661Z" stroke="rgb(245,166,35)" stroke-opacity="1" stroke-width="8" fill="rgb(245,166,35)" fill-opacity="1"></path></g></g></g></g><g><g><g><g transform="matrix(1,0,0,1,325.4000244140625,269.4166717529297)"><path transform="matrix(0.017,0,0,-0.017,0,0)" d="M45 284C45 90 152 -18 343 -18C439 -18 510 5 600 67C600 67 610 103 610 103C610 103 600 110 600 110C506 53 454 35 376 35C219 35 133 131 133 309C133 447 190 653 418 653C489 653 541 639 597 603L597 519L624 519C629 576 637 619 651 665C575 694 518 706 456 706C276 706 45 578 45 284Z" stroke="rgb(80,227,194)" stroke-opacity="1" stroke-width="8" fill="rgb(80,227,194)" fill-opacity="1"></path></g></g></g></g><g><g><g><g transform="matrix(1,0,0,1,104.01666259765625,71.01667785644531)"><path transform="matrix(0.017,0,0,-0.017,0,0)" d="M263 689C108 689 29 566 29 324C29 207 50 106 85 57C120 8 176 -20 238 -20C389 -20 465 110 465 366C465 585 400 689 263 689ZM245 654C342 654 381 556 381 316C381 103 343 15 251 15C154 15 113 116 113 360C113 571 150 654 245 654Z" stroke="rgb(144,19,254)" stroke-opacity="1" stroke-width="8" fill="rgb(144,19,254)" fill-opacity="1"></path></g></g></g></g><g><g><g><g transform="matrix(1,0,0,1,254.01666259765625,71.01667785644531)"><path transform="matrix(0.017,0,0,-0.017,0,0)" d="M418 -3L418 27L366 30C311 33 301 44 301 96L301 700L60 598L67 548L217 614L217 96C217 44 206 33 152 30L96 27L96 -3C250 0 250 0 261 0C292 0 402 -3 418 -3Z" stroke="rgb(80,227,194)" stroke-opacity="1" stroke-width="8" fill="rgb(80,227,194)" fill-opacity="1"></path></g></g></g></g><g><g><g><g transform="matrix(1,0,0,1,160.9666748046875,61.01667785644531)"><path transform="matrix(0.017,0,0,-0.017,0,0)" d="M263 689C108 689 29 566 29 324C29 207 50 106 85 57C120 8 176 -20 238 -20C389 -20 465 110 465 366C465 585 400 689 263 689ZM245 654C342 654 381 556 381 316C381 103 343 15 251 15C154 15 113 116 113 360C113 571 150 654 245 654Z" stroke="rgb(144,19,254)" stroke-opacity="1" stroke-width="8" fill="rgb(144,19,254)" fill-opacity="1"></path></g></g><g><g transform="matrix(1,0,0,1,174.54998779296875,61.01667785644531)"><path transform="matrix(0.017,0,0,-0.017,0,0)" d="M604 76L604 135L166 340L604 545L604 604L65 349L65 328ZM604 -61L604 -5L65 -5L65 -61Z" stroke="rgb(74,144,226)" stroke-opacity="1" stroke-width="8" fill="rgb(74,144,226)" fill-opacity="1"></path></g></g><g><g transform="matrix(1,0,0,1,191.01666259765625,61.01667785644531)"><path transform="matrix(0.017,0,0,-0.017,0,0)" d="M418 -3L418 27L366 30C311 33 301 44 301 96L301 700L60 598L67 548L217 614L217 96C217 44 206 33 152 30L96 27L96 -3C250 0 250 0 261 0C292 0 402 -3 418 -3Z" stroke="rgb(80,227,194)" stroke-opacity="1" stroke-width="8" fill="rgb(80,227,194)" fill-opacity="1"></path></g></g></g></g><g><g><g><g transform="matrix(1,0,0,1,402.01666259765625,71.61666870117188)"><path transform="matrix(0.017,0,0,-0.017,0,0)" d="M16 23L16 -3C203 -3 203 0 239 0C275 0 275 -3 468 -3L468 82C353 77 307 81 122 77L304 270C401 373 431 428 431 503C431 618 353 689 226 689C154 689 105 669 56 619L39 483L68 483L81 529C97 587 133 612 200 612C286 612 341 558 341 473C341 398 299 324 186 204Z" stroke="rgb(248,231,28)" stroke-opacity="1" stroke-width="8" fill="rgb(248,231,28)" fill-opacity="1"></path></g></g></g></g><g><g><g><g transform="matrix(1,0,0,1,458.9666748046875,60.616668701171875)"><path transform="matrix(0.017,0,0,-0.017,0,0)" d="M16 23L16 -3C203 -3 203 0 239 0C275 0 275 -3 468 -3L468 82C353 77 307 81 122 77L304 270C401 373 431 428 431 503C431 618 353 689 226 689C154 689 105 669 56 619L39 483L68 483L81 529C97 587 133 612 200 612C286 612 341 558 341 473C341 398 299 324 186 204Z" stroke="rgb(248,231,28)" stroke-opacity="1" stroke-width="8" fill="rgb(248,231,28)" fill-opacity="1"></path></g></g><g><g transform="matrix(1,0,0,1,472.54998779296875,60.616668701171875)"><path transform="matrix(0.017,0,0,-0.017,0,0)" d="M604 76L604 135L166 340L604 545L604 604L65 349L65 328ZM604 -61L604 -5L65 -5L65 -61Z" stroke="rgb(208,2,27)" stroke-opacity="1" stroke-width="8" fill="rgb(208,2,27)" fill-opacity="1"></path></g></g><g><g transform="matrix(1,0,0,1,489.01666259765625,60.616668701171875)"><path transform="matrix(0.017,0,0,-0.017,0,0)" d="M462 224C462 345 355 366 308 374C388 436 418 482 418 541C418 630 344 689 233 689C165 689 120 670 72 622L43 498L74 498L92 554C103 588 166 622 218 622C283 622 336 569 336 506C336 431 277 368 206 368C198 368 187 369 174 370L159 371L147 318L154 312C192 329 211 334 238 334C321 334 369 281 369 190C369 88 308 21 215 21C169 21 128 36 98 64C74 86 61 109 42 163L15 153C36 92 44 56 50 6C103 -12 147 -20 184 -20C307 -20 462 87 462 224Z" stroke="rgb(245,166,35)" stroke-opacity="1" stroke-width="8" fill="rgb(245,166,35)" fill-opacity="1"></path></g></g></g></g><g><g><g><g transform="matrix(1,0,0,1,548.0166625976562,71.61666870117188)"><path transform="matrix(0.017,0,0,-0.017,0,0)" d="M462 224C462 345 355 366 308 374C388 436 418 482 418 541C418 630 344 689 233 689C165 689 120 670 72 622L43 498L74 498L92 554C103 588 166 622 218 622C283 622 336 569 336 506C336 431 277 368 206 368C198 368 187 369 174 370L159 371L147 318L154 312C192 329 211 334 238 334C321 334 369 281 369 190C369 88 308 21 215 21C169 21 128 36 98 64C74 86 61 109 42 163L15 153C36 92 44 56 50 6C103 -12 147 -20 184 -20C307 -20 462 87 462 224Z" stroke="rgb(245,166,35)" stroke-opacity="1" stroke-width="8" fill="rgb(245,166,35)" fill-opacity="1"></path></g></g></g></g><g><g><g><g transform="matrix(1,0,0,1,312.9666748046875,61.616668701171875)"><path transform="matrix(0.017,0,0,-0.017,0,0)" d="M418 -3L418 27L366 30C311 33 301 44 301 96L301 700L60 598L67 548L217 614L217 96C217 44 206 33 152 30L96 27L96 -3C250 0 250 0 261 0C292 0 402 -3 418 -3Z" stroke="rgb(80,227,194)" stroke-opacity="1" stroke-width="8" fill="rgb(80,227,194)" fill-opacity="1"></path></g></g><g><g transform="matrix(1,0,0,1,326.54998779296875,61.616668701171875)"><path transform="matrix(0.017,0,0,-0.017,0,0)" d="M604 76L604 135L166 340L604 545L604 604L65 349L65 328ZM604 -61L604 -5L65 -5L65 -61Z" stroke="rgb(126,211,33)" stroke-opacity="1" stroke-width="8" fill="rgb(126,211,33)" fill-opacity="1"></path></g></g><g><g transform="matrix(1,0,0,1,343.01666259765625,61.616668701171875)"><path transform="matrix(0.017,0,0,-0.017,0,0)" d="M16 23L16 -3C203 -3 203 0 239 0C275 0 275 -3 468 -3L468 82C353 77 307 81 122 77L304 270C401 373 431 428 431 503C431 618 353 689 226 689C154 689 105 669 56 619L39 483L68 483L81 529C97 587 133 612 200 612C286 612 341 558 341 473C341 398 299 324 186 204Z" stroke="rgb(248,231,28)" stroke-opacity="1" stroke-width="8" fill="rgb(248,231,28)" fill-opacity="1"></path></g></g></g></g><g><g><g><g transform="matrix(1,0,0,1,84.26666259765625,31.316680908203125)"><path transform="matrix(0.017,0,0,-0.017,0,0)" d="M934 662L934 692C889 691 854 689 814 689C778 689 738 691 698 692L698 662L742 659C785 655 793 651 793 569L793 102L789 102L312 692C294 691 276 689 258 689L138 689C96 689 51 691 17 692L17 662L61 659C102 656 112 648 112 569L112 120C112 41 102 31 61 29L17 27L17 -3C51 -2 96 -2 138 -1C178 -1 218 0 254 0C294 0 329 -2 374 -3L374 27L329 29C286 31 279 41 279 120L279 581L281 581L752 0L839 0L839 569C839 653 848 655 889 659ZM189 31C163 34 158 46 158 120L158 569C158 643 163 655 189 658C227 654 233 648 233 569L233 120C233 40 226 35 189 31Z" stroke="rgb(155,155,155)" stroke-opacity="1" stroke-width="8" fill="rgb(155,155,155)" fill-opacity="1"></path></g></g><g><g><g><g><g transform="matrix(1,0,0,1,101.433349609375,24.783346557617186)"><path transform="matrix(0.0119,0,0,-0.0119,0,0)" d="M17 152C17 46 62 -11 145 -11C200 -11 260 15 305 57C367 116 411 230 411 331C411 425 361 482 278 482C174 482 17 382 17 152ZM241 444C302 444 335 399 335 315C335 219 304 113 260 60C242 39 216 27 185 27C127 27 93 72 93 151C93 264 132 387 181 427C194 438 217 444 241 444ZM619 -11C675 -11 790 62 833 125C874 186 908 296 908 371C908 438 885 482 849 482C807 482 754 456 702 409C661 374 641 348 605 289L629 408C632 425 634 440 634 452C634 471 626 482 612 482C591 482 553 461 479 408L451 388L458 368L490 389C518 407 529 412 538 412C548 412 555 403 555 389C555 381 553 361 551 351L493 8C483 -52 464 -143 444 -233L436 -270L443 -276C464 -269 484 -264 516 -259L558 3C579 -4 601 -11 619 -11ZM586 165C608 293 715 424 798 424C824 424 836 402 836 356C836 275 796 156 743 80C723 51 691 36 650 36C619 36 594 43 568 59Z" stroke="rgb(155,155,155)" stroke-opacity="1" stroke-width="8" fill="rgb(155,155,155)" fill-opacity="1"></path></g></g></g></g></g></g><g></g><g></g><g></g><g><g><g transform="matrix(1,0,0,1,84.26666259765625,112.91667175292969)"><path transform="matrix(0.017,0,0,-0.017,0,0)" d="" stroke="rgb(155,155,155)" stroke-opacity="1" stroke-width="8" fill="rgb(155,155,155)" fill-opacity="1"></path></g></g></g></g><g><g><g><g transform="matrix(1,0,0,1,84.26666259765625,198.5166778564453)"><path transform="matrix(0.017,0,0,-0.017,0,0)" d="M72 202C72 127 68 86 57 29C130 -4 190 -17 265 -17C444 -17 559 76 559 220C559 309 507 370 408 396L294 426C220 445 188 476 188 527C188 596 243 644 322 644C375 644 420 626 458 589L464 507L505 507C505 572 510 620 519 649L514 661C447 685 395 695 329 695C163 695 64 615 64 481C64 395 116 332 210 304L350 262C406 245 433 214 433 166C433 92 369 37 283 37C215 37 150 67 119 114L112 202ZM1071 295C1071 402 996 471 882 471C847 471 821 464 794 448L747 420C681 381 652 321 652 226C652 67 732 -17 881 -17C938 -17 975 -7 1039 26L1061 74L1049 89C1002 63 972 54 932 54C880 54 831 82 806 125C790 153 784 176 782 223L913 223C970 223 1015 229 1071 243ZM860 273L856 273C850 273 823 274 808 275L776 276C779 375 803 415 861 415C918 415 942 375 944 276ZM1433 60L1425 79C1405 69 1395 66 1379 66C1332 66 1317 82 1317 131L1317 369L1423 369L1431 434L1317 428L1317 486C1317 539 1320 572 1329 622L1315 632C1275 613 1244 601 1193 582C1196 530 1197 511 1197 490L1197 430L1131 387L1131 365L1195 369L1195 110C1195 21 1232 -17 1319 -17C1350 -17 1375 -10 1384 1Z" stroke="rgb(155,155,155)" stroke-opacity="1" stroke-width="8" fill="rgb(155,155,155)" fill-opacity="1"></path></g></g></g><g></g><g></g><g></g><g></g><g></g><g></g><g></g><g></g><g><g><g transform="matrix(1,0,0,1,84.26666259765625,382.1166534423828)"><path transform="matrix(0.017,0,0,-0.017,0,0)" d="" stroke="rgb(155,155,155)" stroke-opacity="1" stroke-width="8" fill="rgb(155,155,155)" fill-opacity="1"></path></g></g></g></g><g><g><g><g transform="matrix(1,0,0,1,334.76666259765625,153.6166534423828)"><path transform="matrix(0.017,0,0,-0.017,0,0)" d="M286 646L392 650C454 650 494 641 495 626L503 537L527 537C530 600 537 651 548 689C526 691 498 692 481 692L440 691L275 689L246 689C221 689 181 690 143 691L94 692L91 664L147 662C171 661 182 652 182 635C182 621 178 589 173 559L98 125C81 33 81 32 40 28L4 25L0 -3L34 -2C74 -1 106 0 127 0C145 0 174 -1 213 -2L265 -3L268 25L204 28C177 29 168 37 168 57C168 63 169 74 170 78L206 301L323 301C350 301 381 300 429 298L455 297L474 342L470 349C389 345 329 343 251 343L214 343L260 614C263 630 264 635 269 646Z" stroke="rgb(155,155,155)" stroke-opacity="1" stroke-width="8" fill="rgb(155,155,155)" fill-opacity="1"></path></g></g></g></g><g><g><g><g transform="matrix(1,0,0,1,190.38330078125,217.6166534423828)"><path transform="matrix(0.017,0,0,-0.017,0,0)" d="M286 646L392 650C454 650 494 641 495 626L503 537L527 537C530 600 537 651 548 689C526 691 498 692 481 692L440 691L275 689L246 689C221 689 181 690 143 691L94 692L91 664L147 662C171 661 182 652 182 635C182 621 178 589 173 559L98 125C81 33 81 32 40 28L4 25L0 -3L34 -2C74 -1 106 0 127 0C145 0 174 -1 213 -2L265 -3L268 25L204 28C177 29 168 37 168 57C168 63 169 74 170 78L206 301L323 301C350 301 381 300 429 298L455 297L474 342L470 349C389 345 329 343 251 343L214 343L260 614C263 630 264 635 269 646Z" stroke="rgb(144,19,254)" stroke-opacity="1" stroke-width="8" fill="rgb(144,19,254)" fill-opacity="1"></path></g></g><g><g transform="matrix(1,0,0,1,199.816650390625,217.8000030517578)"><path transform="matrix(0.017,0,0,-0.017,0,0)" d="M146 266C146 526 243 632 301 700L282 726C225 675 60 542 60 266C60 159 85 58 133 -32C168 -99 200 -138 282 -215L301 -194C255 -137 146 -15 146 266Z" stroke="rgb(144,19,254)" stroke-opacity="1" stroke-width="8" fill="rgb(144,19,254)" fill-opacity="1"></path></g></g><g><g transform="matrix(1,0,0,1,205.4666748046875,217.6166534423828)"><path transform="matrix(0.017,0,0,-0.017,0,0)" d="M263 689C108 689 29 566 29 324C29 207 50 106 85 57C120 8 176 -20 238 -20C389 -20 465 110 465 366C465 585 400 689 263 689ZM245 654C342 654 381 556 381 316C381 103 343 15 251 15C154 15 113 116 113 360C113 571 150 654 245 654Z" stroke="rgb(144,19,254)" stroke-opacity="1" stroke-width="8" fill="rgb(144,19,254)" fill-opacity="1"></path></g></g><g><g transform="matrix(1,0,0,1,213.95001220703125,217.8000030517578)"><path transform="matrix(0.017,0,0,-0.017,0,0)" d="M51 726L32 700C87 636 187 526 187 266C187 -10 83 -131 32 -194L51 -215C104 -165 273 -23 273 265C273 542 108 675 51 726Z" stroke="rgb(144,19,254)" stroke-opacity="1" stroke-width="8" fill="rgb(144,19,254)" fill-opacity="1"></path></g></g><g><g transform="matrix(1,0,0,1,219.5999755859375,217.6166534423828)"><path transform="matrix(0.017,0,0,-0.017,0,0)" d="" stroke="rgb(144,19,254)" stroke-opacity="1" stroke-width="8" fill="rgb(144,19,254)" fill-opacity="1"></path></g></g></g></g><g><g><g><g transform="matrix(1,0,0,1,190.38330078125,268.6166534423828)"><path transform="matrix(0.017,0,0,-0.017,0,0)" d="M286 646L392 650C454 650 494 641 495 626L503 537L527 537C530 600 537 651 548 689C526 691 498 692 481 692L440 691L275 689L246 689C221 689 181 690 143 691L94 692L91 664L147 662C171 661 182 652 182 635C182 621 178 589 173 559L98 125C81 33 81 32 40 28L4 25L0 -3L34 -2C74 -1 106 0 127 0C145 0 174 -1 213 -2L265 -3L268 25L204 28C177 29 168 37 168 57C168 63 169 74 170 78L206 301L323 301C350 301 381 300 429 298L455 297L474 342L470 349C389 345 329 343 251 343L214 343L260 614C263 630 264 635 269 646Z" stroke="rgb(80,227,194)" stroke-opacity="1" stroke-width="8" fill="rgb(80,227,194)" fill-opacity="1"></path></g></g><g><g transform="matrix(1,0,0,1,199.816650390625,268.8000030517578)"><path transform="matrix(0.017,0,0,-0.017,0,0)" d="M146 266C146 526 243 632 301 700L282 726C225 675 60 542 60 266C60 159 85 58 133 -32C168 -99 200 -138 282 -215L301 -194C255 -137 146 -15 146 266Z" stroke="rgb(80,227,194)" stroke-opacity="1" stroke-width="8" fill="rgb(80,227,194)" fill-opacity="1"></path></g></g><g><g transform="matrix(1,0,0,1,205.4666748046875,268.6166534423828)"><path transform="matrix(0.017,0,0,-0.017,0,0)" d="M418 -3L418 27L366 30C311 33 301 44 301 96L301 700L60 598L67 548L217 614L217 96C217 44 206 33 152 30L96 27L96 -3C250 0 250 0 261 0C292 0 402 -3 418 -3Z" stroke="rgb(80,227,194)" stroke-opacity="1" stroke-width="8" fill="rgb(80,227,194)" fill-opacity="1"></path></g></g><g><g transform="matrix(1,0,0,1,213.95001220703125,268.8000030517578)"><path transform="matrix(0.017,0,0,-0.017,0,0)" d="M51 726L32 700C87 636 187 526 187 266C187 -10 83 -131 32 -194L51 -215C104 -165 273 -23 273 265C273 542 108 675 51 726Z" stroke="rgb(80,227,194)" stroke-opacity="1" stroke-width="8" fill="rgb(80,227,194)" fill-opacity="1"></path></g></g><g><g transform="matrix(1,0,0,1,219.5999755859375,268.6166534423828)"><path transform="matrix(0.017,0,0,-0.017,0,0)" d="" stroke="rgb(80,227,194)" stroke-opacity="1" stroke-width="8" fill="rgb(80,227,194)" fill-opacity="1"></path></g></g></g></g><g><g><g><g transform="matrix(1,0,0,1,190.38330078125,318.6166534423828)"><path transform="matrix(0.017,0,0,-0.017,0,0)" d="M286 646L392 650C454 650 494 641 495 626L503 537L527 537C530 600 537 651 548 689C526 691 498 692 481 692L440 691L275 689L246 689C221 689 181 690 143 691L94 692L91 664L147 662C171 661 182 652 182 635C182 621 178 589 173 559L98 125C81 33 81 32 40 28L4 25L0 -3L34 -2C74 -1 106 0 127 0C145 0 174 -1 213 -2L265 -3L268 25L204 28C177 29 168 37 168 57C168 63 169 74 170 78L206 301L323 301C350 301 381 300 429 298L455 297L474 342L470 349C389 345 329 343 251 343L214 343L260 614C263 630 264 635 269 646Z" stroke="rgb(248,231,28)" stroke-opacity="1" stroke-width="8" fill="rgb(248,231,28)" fill-opacity="1"></path></g></g><g><g transform="matrix(1,0,0,1,199.816650390625,318.8000030517578)"><path transform="matrix(0.017,0,0,-0.017,0,0)" d="M146 266C146 526 243 632 301 700L282 726C225 675 60 542 60 266C60 159 85 58 133 -32C168 -99 200 -138 282 -215L301 -194C255 -137 146 -15 146 266Z" stroke="rgb(248,231,28)" stroke-opacity="1" stroke-width="8" fill="rgb(248,231,28)" fill-opacity="1"></path></g></g><g><g transform="matrix(1,0,0,1,205.4666748046875,318.6166534423828)"><path transform="matrix(0.017,0,0,-0.017,0,0)" d="M16 23L16 -3C203 -3 203 0 239 0C275 0 275 -3 468 -3L468 82C353 77 307 81 122 77L304 270C401 373 431 428 431 503C431 618 353 689 226 689C154 689 105 669 56 619L39 483L68 483L81 529C97 587 133 612 200 612C286 612 341 558 341 473C341 398 299 324 186 204Z" stroke="rgb(248,231,28)" stroke-opacity="1" stroke-width="8" fill="rgb(248,231,28)" fill-opacity="1"></path></g></g><g><g transform="matrix(1,0,0,1,213.95001220703125,318.8000030517578)"><path transform="matrix(0.017,0,0,-0.017,0,0)" d="M51 726L32 700C87 636 187 526 187 266C187 -10 83 -131 32 -194L51 -215C104 -165 273 -23 273 265C273 542 108 675 51 726Z" stroke="rgb(248,231,28)" stroke-opacity="1" stroke-width="8" fill="rgb(248,231,28)" fill-opacity="1"></path></g></g><g><g transform="matrix(1,0,0,1,219.5999755859375,318.6166534423828)"><path transform="matrix(0.017,0,0,-0.017,0,0)" d="" stroke="rgb(248,231,28)" stroke-opacity="1" stroke-width="8" fill="rgb(248,231,28)" fill-opacity="1"></path></g></g></g></g><g><g><g><g transform="matrix(1,0,0,1,190.38330078125,368.6166534423828)"><path transform="matrix(0.017,0,0,-0.017,0,0)" d="M286 646L392 650C454 650 494 641 495 626L503 537L527 537C530 600 537 651 548 689C526 691 498 692 481 692L440 691L275 689L246 689C221 689 181 690 143 691L94 692L91 664L147 662C171 661 182 652 182 635C182 621 178 589 173 559L98 125C81 33 81 32 40 28L4 25L0 -3L34 -2C74 -1 106 0 127 0C145 0 174 -1 213 -2L265 -3L268 25L204 28C177 29 168 37 168 57C168 63 169 74 170 78L206 301L323 301C350 301 381 300 429 298L455 297L474 342L470 349C389 345 329 343 251 343L214 343L260 614C263 630 264 635 269 646Z" stroke="rgb(245,166,35)" stroke-opacity="1" stroke-width="8" fill="rgb(245,166,35)" fill-opacity="1"></path></g></g><g><g transform="matrix(1,0,0,1,199.816650390625,368.8000030517578)"><path transform="matrix(0.017,0,0,-0.017,0,0)" d="M146 266C146 526 243 632 301 700L282 726C225 675 60 542 60 266C60 159 85 58 133 -32C168 -99 200 -138 282 -215L301 -194C255 -137 146 -15 146 266Z" stroke="rgb(245,166,35)" stroke-opacity="1" stroke-width="8" fill="rgb(245,166,35)" fill-opacity="1"></path></g></g><g><g transform="matrix(1,0,0,1,205.4666748046875,368.6166534423828)"><path transform="matrix(0.017,0,0,-0.017,0,0)" d="M462 224C462 345 355 366 308 374C388 436 418 482 418 541C418 630 344 689 233 689C165 689 120 670 72 622L43 498L74 498L92 554C103 588 166 622 218 622C283 622 336 569 336 506C336 431 277 368 206 368C198 368 187 369 174 370L159 371L147 318L154 312C192 329 211 334 238 334C321 334 369 281 369 190C369 88 308 21 215 21C169 21 128 36 98 64C74 86 61 109 42 163L15 153C36 92 44 56 50 6C103 -12 147 -20 184 -20C307 -20 462 87 462 224Z" stroke="rgb(245,166,35)" stroke-opacity="1" stroke-width="8" fill="rgb(245,166,35)" fill-opacity="1"></path></g></g><g><g transform="matrix(1,0,0,1,213.95001220703125,368.8000030517578)"><path transform="matrix(0.017,0,0,-0.017,0,0)" d="M51 726L32 700C87 636 187 526 187 266C187 -10 83 -131 32 -194L51 -215C104 -165 273 -23 273 265C273 542 108 675 51 726Z" stroke="rgb(245,166,35)" stroke-opacity="1" stroke-width="8" fill="rgb(245,166,35)" fill-opacity="1"></path></g></g><g><g transform="matrix(1,0,0,1,219.5999755859375,368.6166534423828)"><path transform="matrix(0.017,0,0,-0.017,0,0)" d="" stroke="rgb(245,166,35)" stroke-opacity="1" stroke-width="8" fill="rgb(245,166,35)" fill-opacity="1"></path></g></g></g></g></svg>
</svg>
