<svg xmlns="http://www.w3.org/2000/svg" xmlns:xlink="http://www.w3.org/1999/xlink" x="0" y="0" width="661.3333129882812" height="134.79998779296875" style="
        width:661.3333129882812px;
        height:134.79998779296875px;
        background: transparent;
        fill: none;
">
        
        
        <svg xmlns="http://www.w3.org/2000/svg" class="role-diagram-draw-area"><g class="shapes-region" style="stroke: black; fill: none;"><g/></g><g><g class="connection-group"><g class="arrow-line"><path class="connection real" stroke-dasharray="" d="  M261.23,30.2 L391.23,30.2" style="stroke: rgb(74, 144, 226); stroke-opacity: 1; stroke-width: 1px; fill: none; fill-opacity: 1;"/><g stroke="rgb(74,144,226)" stroke-opacity="1" transform="matrix(-1,1.2246467991473532e-16,-1.2246467991473532e-16,-1,393.225,30.2)" style="stroke: rgb(74, 144, 226); stroke-width: 1px;"><path d=" M10.93,-3.29 Q4.96,-0.45 0,0 Q4.96,0.45 10.93,3.29"/></g></g></g><g class="connection-group"><g class="arrow-line"><path class="connection real" stroke-dasharray="" d="  M270.23,113 L382.23,113" style="stroke: rgb(74, 144, 226); stroke-opacity: 1; stroke-width: 1px; fill: none; fill-opacity: 1;"/><g stroke="rgb(74,144,226)" stroke-opacity="1" transform="matrix(-1,1.2246467991473532e-16,-1.2246467991473532e-16,-1,384.225,112.99999999999999)" style="stroke: rgb(74, 144, 226); stroke-width: 1px;"><path d=" M10.93,-3.29 Q4.96,-0.45 0,0 Q4.96,0.45 10.93,3.29"/></g></g></g><g class="connection-group"><g class="arrow-line"><path class="connection real" stroke-dasharray="" d="  M326.23,47.8 L326.23,81.8" style="stroke: rgb(155, 155, 155); stroke-width: 1px; fill: none; fill-opacity: 1; stroke-opacity: 1;"/><g stroke="rgb(155,155,155)" transform="matrix(-1.8369701987210297e-16,-1,1,-1.8369701987210297e-16,326.225,83.79998779296875)" style="stroke: rgb(155, 155, 155); stroke-width: 1px;" stroke-opacity="1"><path d=" M10.93,-3.29 Q4.96,-0.45 0,0 Q4.96,0.45 10.93,3.29"/></g></g></g></g><g><g><rect rx="0" ry="0" x="229.22500000000002" y="3.79998779296875" width="194" height="44" style="stroke: rgb(155, 155, 155); stroke-opacity: 1; stroke-width: 1px; fill: none; fill-opacity: 1;"/></g><g><rect rx="0" ry="0" x="229.22500000000002" y="83.79998779296875" width="194" height="44" style="stroke: rgb(155, 155, 155); stroke-opacity: 1; stroke-width: 1px; fill: none; fill-opacity: 1;"/></g></g><g/></svg>
        <svg xmlns="http://www.w3.org/2000/svg" xmlns:xlink="http://www.w3.org/1999/xlink" width="660" height="133.4666748046875" style="width:660px;height:133.4666748046875px;font-family:Asana-Math, Asana;background:transparent;"><g><g><g><g transform="matrix(1,0,0,1,247.01666259765625,36.866668701171875)"><path transform="matrix(0.017,0,0,-0.017,0,0)" d="M271 204L242 77C238 60 236 42 236 26C236 4 245 -9 260 -9C283 -9 324 17 406 85L399 106C375 86 346 59 324 59C315 59 309 68 309 82C309 87 309 90 310 93L402 472L392 481L359 463C318 478 301 482 274 482C246 482 226 477 199 464C137 433 104 403 79 354C35 265 4 145 4 67C4 23 19 -11 38 -11C75 -11 155 41 271 204ZM319 414C297 305 278 253 244 201C187 117 126 59 94 59C82 59 76 72 76 99C76 163 104 280 139 360C163 415 186 433 234 433C257 433 275 429 319 414Z" stroke="rgb(144,19,254)" stroke-opacity="1" stroke-width="8" fill="rgb(144,19,254)" fill-opacity="1"></path></g></g></g></g><g><g><g><g transform="matrix(1,0,0,1,397.01666259765625,36.866668701171875)"><path transform="matrix(0.017,0,0,-0.017,0,0)" d="M235 722L223 733C171 707 135 698 63 691L59 670L107 670C131 670 141 663 141 646C141 639 140 628 139 622L38 71C37 68 37 64 37 61C37 22 85 -11 140 -11C177 -11 228 8 271 39C367 107 433 244 433 376C433 414 424 453 412 468C405 477 392 482 377 482C353 482 323 474 295 460C244 433 211 403 149 324ZM322 424C348 424 361 401 361 352C361 288 340 202 310 137C277 68 237 36 183 36C137 36 112 59 112 101C112 135 127 276 208 361C241 395 293 424 322 424Z" stroke="rgb(80,227,194)" stroke-opacity="1" stroke-width="8" fill="rgb(80,227,194)" fill-opacity="1"></path></g></g></g></g><g><g><g><g transform="matrix(1,0,0,1,321.01666259765625,23.866668701171875)"><path transform="matrix(0.017,0,0,-0.017,0,0)" d="M345 437L329 437L350 549C366 635 394 673 440 673C470 673 497 658 512 634L522 638C527 654 537 685 545 705L550 720C534 727 503 733 480 733C469 733 453 730 445 726C421 715 339 654 316 630C294 608 282 578 271 521L256 442C215 422 195 414 170 405L165 383L246 383L237 327C207 132 170 -54 148 -123C130 -182 100 -213 64 -213C41 -213 30 -206 12 -184L-2 -188C-6 -211 -20 -259 -25 -268C-16 -273 -1 -276 10 -276C51 -276 105 -245 144 -198C215 -114 235 -18 319 383L423 383C427 402 434 425 440 439L436 446C407 439 408 437 345 437Z" stroke="rgb(74,144,226)" stroke-opacity="1" stroke-width="8" fill="rgb(74,144,226)" fill-opacity="1"></path></g></g></g></g><g><g><g><g transform="matrix(1,0,0,1,238.0999755859375,119.66668701171875)"><path transform="matrix(0.017,0,0,-0.017,0,0)" d="M286 646L392 650C454 650 494 641 495 626L503 537L527 537C530 600 537 651 548 689C526 691 498 692 481 692L440 691L275 689L246 689C221 689 181 690 143 691L94 692L91 664L147 662C171 661 182 652 182 635C182 621 178 589 173 559L98 125C81 33 81 32 40 28L4 25L0 -3L34 -2C74 -1 106 0 127 0C145 0 174 -1 213 -2L265 -3L268 25L204 28C177 29 168 37 168 57C168 63 169 74 170 78L206 301L323 301C350 301 381 300 429 298L455 297L474 342L470 349C389 345 329 343 251 343L214 343L260 614C263 630 264 635 269 646Z" stroke="rgb(144,19,254)" stroke-opacity="1" stroke-width="8" fill="rgb(144,19,254)" fill-opacity="1"></path></g></g><g><g transform="matrix(1,0,0,1,247.5333251953125,119.79998779296875)"><path transform="matrix(0.017,0,0,-0.017,0,0)" d="M146 266C146 526 243 632 301 700L282 726C225 675 60 542 60 266C60 159 85 58 133 -32C168 -99 200 -138 282 -215L301 -194C255 -137 146 -15 146 266Z" stroke="rgb(144,19,254)" stroke-opacity="1" stroke-width="8" fill="rgb(144,19,254)" fill-opacity="1"></path></g></g><g><g transform="matrix(1,0,0,1,253.18328857421875,119.66668701171875)"><path transform="matrix(0.017,0,0,-0.017,0,0)" d="M271 204L242 77C238 60 236 42 236 26C236 4 245 -9 260 -9C283 -9 324 17 406 85L399 106C375 86 346 59 324 59C315 59 309 68 309 82C309 87 309 90 310 93L402 472L392 481L359 463C318 478 301 482 274 482C246 482 226 477 199 464C137 433 104 403 79 354C35 265 4 145 4 67C4 23 19 -11 38 -11C75 -11 155 41 271 204ZM319 414C297 305 278 253 244 201C187 117 126 59 94 59C82 59 76 72 76 99C76 163 104 280 139 360C163 415 186 433 234 433C257 433 275 429 319 414Z" stroke="rgb(144,19,254)" stroke-opacity="1" stroke-width="8" fill="rgb(144,19,254)" fill-opacity="1"></path></g></g><g><g transform="matrix(1,0,0,1,260.71661376953125,119.79998779296875)"><path transform="matrix(0.017,0,0,-0.017,0,0)" d="M51 726L32 700C87 636 187 526 187 266C187 -10 83 -131 32 -194L51 -215C104 -165 273 -23 273 265C273 542 108 675 51 726Z" stroke="rgb(144,19,254)" stroke-opacity="1" stroke-width="8" fill="rgb(144,19,254)" fill-opacity="1"></path></g></g></g></g><g><g><g><g transform="matrix(1,0,0,1,387.95001220703125,119.66668701171875)"><path transform="matrix(0.017,0,0,-0.017,0,0)" d="M286 646L392 650C454 650 494 641 495 626L503 537L527 537C530 600 537 651 548 689C526 691 498 692 481 692L440 691L275 689L246 689C221 689 181 690 143 691L94 692L91 664L147 662C171 661 182 652 182 635C182 621 178 589 173 559L98 125C81 33 81 32 40 28L4 25L0 -3L34 -2C74 -1 106 0 127 0C145 0 174 -1 213 -2L265 -3L268 25L204 28C177 29 168 37 168 57C168 63 169 74 170 78L206 301L323 301C350 301 381 300 429 298L455 297L474 342L470 349C389 345 329 343 251 343L214 343L260 614C263 630 264 635 269 646Z" stroke="rgb(80,227,194)" stroke-opacity="1" stroke-width="8" fill="rgb(80,227,194)" fill-opacity="1"></path></g></g><g><g transform="matrix(1,0,0,1,397.38330078125,119.79998779296875)"><path transform="matrix(0.017,0,0,-0.017,0,0)" d="M146 266C146 526 243 632 301 700L282 726C225 675 60 542 60 266C60 159 85 58 133 -32C168 -99 200 -138 282 -215L301 -194C255 -137 146 -15 146 266Z" stroke="rgb(80,227,194)" stroke-opacity="1" stroke-width="8" fill="rgb(80,227,194)" fill-opacity="1"></path></g></g><g><g transform="matrix(1,0,0,1,403.0333251953125,119.66668701171875)"><path transform="matrix(0.017,0,0,-0.017,0,0)" d="M235 722L223 733C171 707 135 698 63 691L59 670L107 670C131 670 141 663 141 646C141 639 140 628 139 622L38 71C37 68 37 64 37 61C37 22 85 -11 140 -11C177 -11 228 8 271 39C367 107 433 244 433 376C433 414 424 453 412 468C405 477 392 482 377 482C353 482 323 474 295 460C244 433 211 403 149 324ZM322 424C348 424 361 401 361 352C361 288 340 202 310 137C277 68 237 36 183 36C137 36 112 59 112 101C112 135 127 276 208 361C241 395 293 424 322 424Z" stroke="rgb(80,227,194)" stroke-opacity="1" stroke-width="8" fill="rgb(80,227,194)" fill-opacity="1"></path></g></g><g><g transform="matrix(1,0,0,1,410.88330078125,119.79998779296875)"><path transform="matrix(0.017,0,0,-0.017,0,0)" d="M51 726L32 700C87 636 187 526 187 266C187 -10 83 -131 32 -194L51 -215C104 -165 273 -23 273 265C273 542 108 675 51 726Z" stroke="rgb(80,227,194)" stroke-opacity="1" stroke-width="8" fill="rgb(80,227,194)" fill-opacity="1"></path></g></g></g></g><g><g><g><g transform="matrix(1,0,0,1,311.20001220703125,106.66668701171875)"><path transform="matrix(0.017,0,0,-0.017,0,0)" d="M286 646L392 650C454 650 494 641 495 626L503 537L527 537C530 600 537 651 548 689C526 691 498 692 481 692L440 691L275 689L246 689C221 689 181 690 143 691L94 692L91 664L147 662C171 661 182 652 182 635C182 621 178 589 173 559L98 125C81 33 81 32 40 28L4 25L0 -3L34 -2C74 -1 106 0 127 0C145 0 174 -1 213 -2L265 -3L268 25L204 28C177 29 168 37 168 57C168 63 169 74 170 78L206 301L323 301C350 301 381 300 429 298L455 297L474 342L470 349C389 345 329 343 251 343L214 343L260 614C263 630 264 635 269 646Z" stroke="rgb(74,144,226)" stroke-opacity="1" stroke-width="8" fill="rgb(74,144,226)" fill-opacity="1"></path></g></g><g><g transform="matrix(1,0,0,1,320.63330078125,106.79998779296875)"><path transform="matrix(0.017,0,0,-0.017,0,0)" d="M146 266C146 526 243 632 301 700L282 726C225 675 60 542 60 266C60 159 85 58 133 -32C168 -99 200 -138 282 -215L301 -194C255 -137 146 -15 146 266Z" stroke="rgb(74,144,226)" stroke-opacity="1" stroke-width="8" fill="rgb(74,144,226)" fill-opacity="1"></path></g></g><g><g transform="matrix(1,0,0,1,326.2833251953125,106.66668701171875)"><path transform="matrix(0.017,0,0,-0.017,0,0)" d="M345 437L329 437L350 549C366 635 394 673 440 673C470 673 497 658 512 634L522 638C527 654 537 685 545 705L550 720C534 727 503 733 480 733C469 733 453 730 445 726C421 715 339 654 316 630C294 608 282 578 271 521L256 442C215 422 195 414 170 405L165 383L246 383L237 327C207 132 170 -54 148 -123C130 -182 100 -213 64 -213C41 -213 30 -206 12 -184L-2 -188C-6 -211 -20 -259 -25 -268C-16 -273 -1 -276 10 -276C51 -276 105 -245 144 -198C215 -114 235 -18 319 383L423 383C427 402 434 425 440 439L436 446C407 439 408 437 345 437Z" stroke="rgb(74,144,226)" stroke-opacity="1" stroke-width="8" fill="rgb(74,144,226)" fill-opacity="1"></path></g></g><g><g transform="matrix(1,0,0,1,335.63330078125,106.79998779296875)"><path transform="matrix(0.017,0,0,-0.017,0,0)" d="M51 726L32 700C87 636 187 526 187 266C187 -10 83 -131 32 -194L51 -215C104 -165 273 -23 273 265C273 542 108 675 51 726Z" stroke="rgb(74,144,226)" stroke-opacity="1" stroke-width="8" fill="rgb(74,144,226)" fill-opacity="1"></path></g></g></g></g><g><g><g><g transform="matrix(1,0,0,1,233.0999755859375,22.26666259765625)"><path transform="matrix(0.017,0,0,-0.017,0,0)" d="M791 693C823 693 848 684 848 648C848 625 828 594 789 557C693 462 476 384 323 380L323 379C534 615 696 693 791 693ZM218 361C124 239 110 171 110 122C110 66 130 -15 277 -15C425 -15 598 105 598 208C598 266 554 296 493 296C384 296 278 209 218 66L237 61C290 171 391 274 495 274C557 274 574 235 574 210C574 116 406 5 272 5C204 5 152 33 152 93C152 179 230 278 301 355C659 374 874 564 874 656C874 701 828 713 789 713C639 713 418 567 241 383C144 390 70 434 70 510C70 607 194 722 390 722C446 722 505 710 533 705L539 721C495 733 435 744 377 744C279 744 200 722 138 677C76 633 45 578 45 513C45 482 50 388 218 361Z" stroke="rgb(155,155,155)" stroke-opacity="1" stroke-width="8" fill="rgb(155,155,155)" fill-opacity="1"></path></g></g></g><g><g><g transform="matrix(1,0,0,1,233.0999755859375,42.66668701171875)"><path transform="matrix(0.017,0,0,-0.017,0,0)" d="" stroke="rgb(155,155,155)" stroke-opacity="1" stroke-width="8" fill="rgb(155,155,155)" fill-opacity="1"></path></g></g></g></g><g><g><g><g transform="matrix(1,0,0,1,233.0999755859375,102.26666259765625)"><path transform="matrix(0.017,0,0,-0.017,0,0)" d="M180 15C128 15 73 20 73 45C73 56 91 76 154 76C218 76 265 60 318 40L318 39C274 24 230 15 180 15ZM897 440C897 245 737 15 520 15C468 15 415 29 389 38C522 98 610 184 680 276L719 328C784 416 840 482 889 530L889 529C897 495 897 467 897 440ZM587 733C327 733 172 566 172 423C172 354 217 273 355 273C528 273 649 404 687 560L671 573C628 421 493 293 343 293C252 293 205 343 205 409C205 543 384 706 611 706C746 706 839 652 876 557C672 417 523 119 347 51C302 71 232 98 156 98C106 98 45 85 45 45C40 11 110 -18 213 -5C267 0 290 5 351 23C374 17 441 -5 519 -5C576 -5 629 5 679 32C791 91 922 242 922 455C922 476 913 533 911 547C936 568 962 591 1050 639L1036 654C1015 644 950 612 897 577L897 576C875 618 801 733 587 733Z" stroke="rgb(155,155,155)" stroke-opacity="1" stroke-width="8" fill="rgb(155,155,155)" fill-opacity="1"></path></g></g></g><g><g><g transform="matrix(1,0,0,1,233.0999755859375,122.66668701171875)"><path transform="matrix(0.017,0,0,-0.017,0,0)" d="" stroke="rgb(155,155,155)" stroke-opacity="1" stroke-width="8" fill="rgb(155,155,155)" fill-opacity="1"></path></g></g></g></g><g><g><g><g transform="matrix(1,0,0,1,330.39996337890625,71.08334350585938)"><path transform="matrix(0.017,0,0,-0.017,0,0)" d="M286 646L392 650C454 650 494 641 495 626L503 537L527 537C530 600 537 651 548 689C526 691 498 692 481 692L440 691L275 689L246 689C221 689 181 690 143 691L94 692L91 664L147 662C171 661 182 652 182 635C182 621 178 589 173 559L98 125C81 33 81 32 40 28L4 25L0 -3L34 -2C74 -1 106 0 127 0C145 0 174 -1 213 -2L265 -3L268 25L204 28C177 29 168 37 168 57C168 63 169 74 170 78L206 301L323 301C350 301 381 300 429 298L455 297L474 342L470 349C389 345 329 343 251 343L214 343L260 614C263 630 264 635 269 646Z" stroke="rgb(155,155,155)" stroke-opacity="1" stroke-width="8" fill="rgb(155,155,155)" fill-opacity="1"></path></g></g></g></g></svg>
</svg>
