<svg xmlns="http://www.w3.org/2000/svg" xmlns:xlink="http://www.w3.org/1999/xlink" x="0" y="0" width="661.5333251953125" height="56.866668701171875" style="
        width:661.5333251953125px;
        height:56.866668701171875px;
        background: transparent;
        fill: none;
">
        
        
        <svg xmlns="http://www.w3.org/2000/svg" class="role-diagram-draw-area"><g class="shapes-region" style="stroke: black; fill: none;"><g/></g><g><g class="connection-group"><g class="arrow-line"><path class="connection real" stroke-dasharray="" d="  M271.73,21.25 L390.73,21.74" style="stroke: rgb(144, 19, 254); stroke-opacity: 1; stroke-width: 1px; fill: none; fill-opacity: 1;"/><g stroke="rgb(144,19,254)" stroke-opacity="1" transform="matrix(-0.9999919428800662,-0.00401424649846379,0.00401424649846379,-0.9999919428800662,392.7250000000001,21.745231955023456)" style="stroke: rgb(144, 19, 254); stroke-width: 1px;"><path d=" M10.93,-3.29 Q4.96,-0.45 0,0 Q4.96,0.45 10.93,3.29"/></g></g></g><g class="connection-group"><g class="arrow-line"><path class="connection real" stroke-dasharray="" d="  M271.73,31.25 L390.73,31.74" style="stroke: rgb(144, 19, 254); stroke-opacity: 1; stroke-width: 1px; fill: none; fill-opacity: 1;"/><g stroke="rgb(144,19,254)" stroke-opacity="1" transform="matrix(-0.9999919428800662,-0.00401424649846379,0.00401424649846379,-0.9999919428800662,392.72499999999997,31.74531413229311)" style="stroke: rgb(144, 19, 254); stroke-width: 1px;"><path d=" M10.93,-3.29 Q4.96,-0.45 0,0 Q4.96,0.45 10.93,3.29"/></g></g></g></g><g/><g/></svg>
        <svg xmlns="http://www.w3.org/2000/svg" xmlns:xlink="http://www.w3.org/1999/xlink" width="660" height="55.33332824707031" style="width:660px;height:55.33332824707031px;font-family:Asana-Math, Asana;background:transparent;"><g><g><g><g transform="matrix(1,0,0,1,248.5333251953125,32.25)"><path transform="matrix(0.017,0,0,-0.017,0,0)" d="M793 699C811 699 841 699 841 661C841 574 648 454 397 446C441 496 635 699 793 699ZM408 740C268 740 148 669 148 564C148 537 157 452 307 429C259 357 250 310 250 279C250 241 270 184 363 184C449 184 527 233 574 267C459 82 346 5 193 5C119 5 74 27 74 61C74 76 90 84 90 84C94 83 110 73 119 77C137 77 150 91 150 110C150 126 140 140 115 140C85 140 46 107 46 68C46 0 130 -15 204 -15C283 -15 357 0 423 37C601 130 594 263 701 357L686 371C519 244 428 205 363 205C300 205 283 240 283 262C283 307 334 374 377 422C625 422 871 557 871 662C871 685 860 719 791 719C696 719 496 644 323 449C296 454 177 472 177 560C177 639 282 716 422 716C466 716 488 712 533 700L543 717L543 716C477 740 430 740 408 740Z" stroke="rgb(144,19,254)" stroke-opacity="1" stroke-width="8" fill="rgb(144,19,254)" fill-opacity="1"></path></g></g><g><g><g><g><g transform="matrix(1,0,0,1,261,35.01663818359375)"><path transform="matrix(0.0119,0,0,-0.0119,0,0)" d="M418 -3L418 27L366 30C311 33 301 44 301 96L301 700L60 598L67 548L217 614L217 96C217 44 206 33 152 30L96 27L96 -3C250 0 250 0 261 0C292 0 402 -3 418 -3Z" stroke="rgb(144,19,254)" stroke-opacity="1" stroke-width="8" fill="rgb(144,19,254)" fill-opacity="1"></path></g></g></g></g></g></g></g><g><g><g><g transform="matrix(1,0,0,1,396.51666259765625,32.8499755859375)"><path transform="matrix(0.017,0,0,-0.017,0,0)" d="M793 699C811 699 841 699 841 661C841 574 648 454 397 446C441 496 635 699 793 699ZM408 740C268 740 148 669 148 564C148 537 157 452 307 429C259 357 250 310 250 279C250 241 270 184 363 184C449 184 527 233 574 267C459 82 346 5 193 5C119 5 74 27 74 61C74 76 90 84 90 84C94 83 110 73 119 77C137 77 150 91 150 110C150 126 140 140 115 140C85 140 46 107 46 68C46 0 130 -15 204 -15C283 -15 357 0 423 37C601 130 594 263 701 357L686 371C519 244 428 205 363 205C300 205 283 240 283 262C283 307 334 374 377 422C625 422 871 557 871 662C871 685 860 719 791 719C696 719 496 644 323 449C296 454 177 472 177 560C177 639 282 716 422 716C466 716 488 712 533 700L543 717L543 716C477 740 430 740 408 740Z" stroke="rgb(144,19,254)" stroke-opacity="1" stroke-width="8" fill="rgb(144,19,254)" fill-opacity="1"></path></g></g><g><g><g><g><g transform="matrix(1,0,0,1,408.98333740234375,35.6166748046875)"><path transform="matrix(0.0119,0,0,-0.0119,0,0)" d="M263 689C108 689 29 566 29 324C29 207 50 106 85 57C120 8 176 -20 238 -20C389 -20 465 110 465 366C465 585 400 689 263 689ZM245 654C342 654 381 556 381 316C381 103 343 15 251 15C154 15 113 116 113 360C113 571 150 654 245 654Z" stroke="rgb(144,19,254)" stroke-opacity="1" stroke-width="8" fill="rgb(144,19,254)" fill-opacity="1"></path></g></g></g></g></g></g></g><g><g><g><g transform="matrix(1,0,0,1,305.2166748046875,18.63330078125)"><path transform="matrix(0.017,0,0,-0.017,0,0)" d="M31 148C26 97 20 62 9 16C47 -2 81 -11 116 -11C165 -11 211 7 262 47C313 87 334 124 334 174C334 228 302 257 228 271L185 279C125 290 106 307 106 348C106 401 151 442 208 442C249 442 287 424 303 397L303 342L326 342C330 377 334 404 345 455C306 474 278 482 245 482C193 482 132 452 84 404C58 377 47 352 47 316C47 260 78 228 144 215L207 203C251 195 267 177 267 138C267 73 221 29 150 29C115 29 84 40 56 64L56 148ZM405 152C405 46 450 -11 533 -11C588 -11 648 15 693 57C755 116 799 230 799 331C799 425 749 482 666 482C562 482 405 382 405 152ZM629 444C690 444 723 399 723 315C723 219 692 113 648 60C630 39 604 27 573 27C515 27 481 72 481 151C481 264 520 387 569 427C582 438 605 444 629 444ZM1323 473L1316 482L1248 465L1238 414C1223 336 1198 268 1167 221C1108 130 1030 59 990 59C982 59 977 68 977 85C977 99 979 112 984 137L1041 408C1044 424 1046 438 1046 451C1046 470 1037 482 1023 482C1003 482 965 461 891 408L863 388L870 368L902 389C930 407 941 412 950 412C959 412 967 403 967 392C967 388 966 378 965 374L902 77C900 68 898 44 898 30C898 7 913 -11 933 -11C996 -11 1117 101 1201 239L1164 97C1157 73 1153 46 1153 31C1153 6 1164 -9 1183 -9C1209 -9 1245 12 1343 85L1333 103L1307 86C1283 70 1257 59 1246 59C1238 59 1233 66 1233 76C1233 112 1308 416 1323 473ZM1754 365C1757 403 1762 435 1770 476C1759 481 1755 482 1750 482C1719 482 1688 458 1652 407C1613 351 1574 291 1558 256L1590 408C1594 425 1596 438 1596 450C1596 470 1588 482 1573 482C1552 482 1514 461 1440 408L1412 388L1419 368L1451 389C1479 407 1490 412 1499 412C1509 412 1516 403 1516 390C1516 332 1473 126 1433 -2L1443 -9C1458 -4 1474 -1 1497 4L1510 6L1536 126C1554 209 1577 262 1621 319C1655 363 1682 384 1704 384C1719 384 1729 379 1740 365ZM2116 330L2139 330C2147 395 2154 432 2163 458C2139 473 2104 482 2067 482C2022 483 1949 463 1892 400C1838 352 1799 241 1799 136C1799 40 1841 -11 1921 -11C1975 -11 2023 9 2078 54L2128 95L2120 115L2105 105C2033 57 1995 40 1960 40C1904 40 1875 80 1875 159C1875 267 1910 371 1959 409C1980 425 2004 433 2035 433C2080 433 2116 414 2116 390ZM2508 111L2484 94C2431 56 2383 36 2347 36C2300 36 2271 73 2271 133C2271 158 2274 185 2279 214C2296 218 2405 248 2430 259C2515 296 2554 342 2554 404C2554 451 2520 482 2470 482C2402 496 2292 423 2255 349C2225 299 2195 180 2195 113C2195 35 2239 -11 2311 -11C2368 -11 2424 17 2516 92ZM2293 274C2310 343 2330 386 2359 412C2377 428 2408 440 2432 440C2461 440 2480 420 2480 388C2480 344 2445 297 2393 272C2365 258 2329 247 2284 237Z" stroke="rgb(144,19,254)" stroke-opacity="1" stroke-width="8" fill="rgb(144,19,254)" fill-opacity="1"></path></g></g><g><g><g><g><g transform="matrix(1,0,0,1,349.88336181640625,11.566656494140625)"><path transform="matrix(0.0119,0,0,-0.0119,0,0)" d="M793 699C811 699 841 699 841 661C841 574 648 454 397 446C441 496 635 699 793 699ZM408 740C268 740 148 669 148 564C148 537 157 452 307 429C259 357 250 310 250 279C250 241 270 184 363 184C449 184 527 233 574 267C459 82 346 5 193 5C119 5 74 27 74 61C74 76 90 84 90 84C94 83 110 73 119 77C137 77 150 91 150 110C150 126 140 140 115 140C85 140 46 107 46 68C46 0 130 -15 204 -15C283 -15 357 0 423 37C601 130 594 263 701 357L686 371C519 244 428 205 363 205C300 205 283 240 283 262C283 307 334 374 377 422C625 422 871 557 871 662C871 685 860 719 791 719C696 719 496 644 323 449C296 454 177 472 177 560C177 639 282 716 422 716C466 716 488 712 533 700L543 717L543 716C477 740 430 740 408 740Z" stroke="rgb(144,19,254)" stroke-opacity="1" stroke-width="8" fill="rgb(144,19,254)" fill-opacity="1"></path></g></g></g></g></g></g></g><g><g><g><g transform="matrix(1,0,0,1,305.7833251953125,48.63330078125)"><path transform="matrix(0.017,0,0,-0.017,0,0)" d="M125 390L69 107C68 99 56 61 56 31C56 6 67 -9 86 -9C121 -9 156 11 234 74L265 99L255 117L210 86C181 66 161 56 150 56C141 56 136 64 136 76C136 102 150 183 179 328L192 390L299 390L310 440C272 436 238 434 200 434C216 528 227 577 245 631L234 646C214 634 187 622 156 610L131 440C87 419 61 408 43 403L41 390ZM603 204L574 77C570 60 568 42 568 26C568 4 577 -9 592 -9C615 -9 656 17 738 85L731 106C707 86 678 59 656 59C647 59 641 68 641 82C641 87 641 90 642 93L734 472L724 481L691 463C650 478 633 482 606 482C578 482 558 477 531 464C469 433 436 403 411 354C367 265 336 145 336 67C336 23 351 -11 370 -11C407 -11 487 41 603 204ZM651 414C629 305 610 253 576 201C519 117 458 59 426 59C414 59 408 72 408 99C408 163 436 280 471 360C495 415 518 433 566 433C589 433 607 429 651 414ZM1143 365C1146 403 1151 435 1159 476C1148 481 1144 482 1139 482C1108 482 1077 458 1041 407C1002 351 963 291 947 256L979 408C983 425 985 438 985 450C985 470 977 482 962 482C941 482 903 461 829 408L801 388L808 368L840 389C868 407 879 412 888 412C898 412 905 403 905 390C905 332 862 126 822 -2L832 -9C847 -4 863 -1 886 4L899 6L925 126C943 209 966 262 1010 319C1044 363 1071 384 1093 384C1108 384 1118 379 1129 365ZM1438 482C1371 482 1218 419 1218 259C1218 182 1263 136 1340 136C1348 136 1359 136 1370 137L1329 99C1313 84 1302 66 1302 52C1302 42 1309 31 1323 19C1254 -4 1126 -48 1126 -159C1126 -230 1196 -276 1305 -276C1434 -276 1547 -204 1547 -121C1547 -85 1526 -49 1483 -14L1423 35C1389 62 1376 81 1376 100C1376 114 1391 128 1403 146C1501 170 1572 253 1572 342C1572 357 1569 376 1568 380C1585 378 1593 378 1602 378C1619 378 1629 379 1652 382L1661 427L1658 433C1630 426 1610 424 1556 424C1556 425 1532 482 1438 482ZM1339 1L1416 -58C1462 -94 1481 -121 1481 -154C1481 -206 1412 -248 1329 -248C1247 -248 1190 -206 1190 -145C1190 -43 1300 -11 1339 1ZM1413 448C1471 448 1500 412 1500 341C1500 238 1452 168 1382 168C1321 168 1289 209 1289 288C1289 383 1340 448 1413 448ZM1990 111L1966 94C1913 56 1865 36 1829 36C1782 36 1753 73 1753 133C1753 158 1756 185 1761 214C1778 218 1887 248 1912 259C1997 296 2036 342 2036 404C2036 451 2002 482 1952 482C1884 496 1774 423 1737 349C1707 299 1677 180 1677 113C1677 35 1721 -11 1793 -11C1850 -11 1906 17 1998 92ZM1775 274C1792 343 1812 386 1841 412C1859 428 1890 440 1914 440C1943 440 1962 420 1962 388C1962 344 1927 297 1875 272C1847 258 1811 247 1766 237ZM2175 390L2119 107C2118 99 2106 61 2106 31C2106 6 2117 -9 2136 -9C2171 -9 2206 11 2284 74L2315 99L2305 117L2260 86C2231 66 2211 56 2200 56C2191 56 2186 64 2186 76C2186 102 2200 183 2229 328L2242 390L2349 390L2360 440C2322 436 2288 434 2250 434C2266 528 2277 577 2295 631L2284 646C2264 634 2237 622 2206 610L2181 440C2137 419 2111 408 2093 403L2091 390Z" stroke="rgb(144,19,254)" stroke-opacity="1" stroke-width="8" fill="rgb(144,19,254)" fill-opacity="1"></path></g></g><g><g><g><g><g transform="matrix(1,0,0,1,347.29998779296875,41.5666259765625)"><path transform="matrix(0.0119,0,0,-0.0119,0,0)" d="M793 699C811 699 841 699 841 661C841 574 648 454 397 446C441 496 635 699 793 699ZM408 740C268 740 148 669 148 564C148 537 157 452 307 429C259 357 250 310 250 279C250 241 270 184 363 184C449 184 527 233 574 267C459 82 346 5 193 5C119 5 74 27 74 61C74 76 90 84 90 84C94 83 110 73 119 77C137 77 150 91 150 110C150 126 140 140 115 140C85 140 46 107 46 68C46 0 130 -15 204 -15C283 -15 357 0 423 37C601 130 594 263 701 357L686 371C519 244 428 205 363 205C300 205 283 240 283 262C283 307 334 374 377 422C625 422 871 557 871 662C871 685 860 719 791 719C696 719 496 644 323 449C296 454 177 472 177 560C177 639 282 716 422 716C466 716 488 712 533 700L543 717L543 716C477 740 430 740 408 740Z" stroke="rgb(144,19,254)" stroke-opacity="1" stroke-width="8" fill="rgb(144,19,254)" fill-opacity="1"></path></g></g></g></g></g></g></g></svg>
</svg>
