<svg xmlns="http://www.w3.org/2000/svg" xmlns:xlink="http://www.w3.org/1999/xlink" x="0" y="0" width="661.5333251953125" height="121.46665954589844" style="
        width:661.5333251953125px;
        height:121.46665954589844px;
        background: transparent;
        fill: none;
">
        
        
        <svg xmlns="http://www.w3.org/2000/svg" class="role-diagram-draw-area"><g class="shapes-region" style="stroke: black; fill: none;"><g class="composite-shape"><path class="real" d=" M261.23,26.33 L391.23,26.33 L391.23,92.33 L261.23,92.33 Z" style="stroke-width: 1px; stroke: rgb(155, 155, 155); stroke-opacity: 1; fill: none; fill-opacity: 1;"/></g><g class="arrow-line"><path class="connection real" stroke-dasharray="" d="  M311.23,92.5 C311.23,79.5 318.23,70.5 330.23,70.5" style="stroke: rgb(248, 231, 28); stroke-opacity: 1; stroke-width: 1px; fill: none; fill-opacity: 1;"/></g><g class="arrow-line"><path class="connection real" stroke-dasharray="" d="  M351.23,92.5 C350.23,81.5 341.23,70.5 328.23,70.93" style="stroke: rgb(80, 227, 194); stroke-opacity: 1; stroke-width: 1px; fill: none; fill-opacity: 1;"/></g><g class="arrow-line"><path class="connection real" stroke-dasharray="" d="  M288.23,25.8 C286.23,84.8 306.23,66.8 330.23,70.5" style="stroke: rgb(208, 2, 27); stroke-width: 1px; fill: none; fill-opacity: 1; stroke-opacity: 1;"/></g><g class="arrow-line"><path class="connection real" stroke-dasharray="" d="  M366.23,26.8 C371.23,86.8 348.23,66.8 328.23,70.5" style="stroke: rgb(74, 144, 226); stroke-width: 1px; fill: none; fill-opacity: 1; stroke-opacity: 1;"/></g><g class="arrow-line"><path class="connection real" stroke-dasharray="" d="  M328.23,26.8 L328.23,70.5" style="stroke: rgb(126, 211, 33); stroke-width: 1px; fill: none; fill-opacity: 1; stroke-opacity: 1;"/></g><g/></g><g/><g/><g/></svg>
        <svg xmlns="http://www.w3.org/2000/svg" xmlns:xlink="http://www.w3.org/1999/xlink" width="660" height="119.93333435058594" style="width:660px;height:119.93333435058594px;font-family:Asana-Math, Asana;background:transparent;"><g><g><g><g transform="matrix(1,0,0,1,364.7166748046875,78.36669921875)"><path transform="matrix(0.017,0,0,-0.017,0,0)" d="M546 66C477 73 429 107 397 135C450 182 550 288 564 306L568 237C568 161 557 96 546 66ZM379 151C339 199 297 263 297 347C297 435 342 495 408 495C469 495 538 437 559 334C462 217 397 168 379 151ZM581 120C588 144 592 172 592 250C592 259 588 319 587 328C722 480 899 665 1012 687L1012 686C873 524 722 326 581 120ZM46 60C46 2 91 -12 127 -12C158 -12 197 -2 235 17C273 38 323 71 378 117C413 90 459 56 535 46L505 0L569 0L597 42C691 46 744 112 753 124L739 138C703 99 659 76 615 68C778 333 940 554 1055 710L1055 709C1050 709 1036 713 1028 713C939 713 791 590 578 356C550 460 472 524 402 524C319 524 264 450 264 357C264 332 269 238 361 135C252 37 178 9 133 9C100 9 72 24 72 49C72 66 77 76 92 76C96 76 110 69 120 69C142 69 157 93 157 107C157 117 149 141 119 141C86 141 46 106 46 60Z" stroke="rgb(144,19,254)" stroke-opacity="1" stroke-width="8" fill="rgb(144,19,254)" fill-opacity="1"></path></g></g></g></g><g><g><g><g transform="matrix(1,0,0,1,334.76666259765625,67.36669921875)"><path transform="matrix(0.017,0,0,-0.017,0,0)" d="M562 97L555 97C539 79 520 55 493 55C448 55 432 184 426 216C465 278 500 343 525 413C516 428 506 444 495 459L484 459C482 391 447 315 421 257L414 260C403 337 401 473 289 473C121 473 24 243 48 93C57 33 86 -16 154 -16C246 -16 324 64 372 131L375 128C381 95 392 -16 443 -16C489 -16 545 54 571 84C570 91 567 94 562 97ZM368 164C334 113 268 28 197 28C144 28 126 70 119 115C105 202 138 437 247 437C334 437 355 252 364 192Z" stroke="rgb(189,16,224)" stroke-opacity="1" stroke-width="8" fill="rgb(189,16,224)" fill-opacity="1"></path></g></g></g></g><g><g><g><g transform="matrix(1,0,0,1,344.566650390625,111.36669921875)"><path transform="matrix(0.017,0,0,-0.017,0,0)" d="M371 664L374 692L350 692L260 689C244 689 226 689 183 690L119 692L116 664L163 662C187 661 198 653 198 635C198 621 195 592 189 559L116 125C99 33 98 32 58 28L17 25L13 -3L55 -2C103 -1 126 0 145 0L242 -3L268 -3L271 25L222 28C195 30 186 37 186 57C186 63 187 74 188 78L231 340C381 169 404 140 509 -3L578 0C614 -1 620 -2 646 -3L646 27L626 27C603 27 583 39 562 65L316 367L608 640C624 655 645 665 662 665L683 665L683 692L660 691C639 690 623 689 615 689C605 689 589 690 568 691L548 692L548 663C548 655 538 642 510 614C466 569 297 403 233 353L278 613C285 651 292 658 329 661Z" stroke="rgb(80,227,194)" stroke-opacity="1" stroke-width="8" fill="rgb(80,227,194)" fill-opacity="1"></path></g></g></g></g><g><g><g><g transform="matrix(1,0,0,1,307.01666259765625,111.36669921875)"><path transform="matrix(0.017,0,0,-0.017,0,0)" d="M349 664L352 692L238 689C222 689 204 689 161 690L97 692L94 664L141 662C165 661 176 653 176 635L81 55C77 37 65 30 21 23L16 -3L57 -2C88 -1 150 0 170 0C170 0 467 -1 467 -1C467 -1 500 0 500 0C499 25 510 103 523 165L492 165L475 103C466 71 457 54 448 49C435 44 371 39 304 39C255 39 228 40 162 46C165 64 256 605 256 613C263 651 270 658 307 661Z" stroke="rgb(248,231,28)" stroke-opacity="1" stroke-width="8" fill="rgb(248,231,28)" fill-opacity="1"></path></g></g></g></g><g><g><g><g transform="matrix(1,0,0,1,323.45001220703125,88.9666748046875)"><path transform="matrix(0.017,0,0,-0.017,0,0)" d="M750 682C787 682 801 669 801 648C801 611 761 569 678 527C597 482 504 459 398 458L398 457C459 578 633 682 750 682ZM357 746C235 746 137 680 137 583C137 523 172 445 360 435C362 423 365 412 374 405C212 377 46 293 46 127C46 82 61 46 91 22C126 -2 168 -15 228 -15C311 -15 388 5 455 49C527 93 560 141 560 191C560 218 550 239 529 254C510 270 482 277 446 277C333 277 228 199 161 96L177 88C245 171 340 254 449 254C523 254 534 216 534 190C534 149 504 106 438 66C374 26 305 5 226 5C141 5 79 42 79 94C79 199 215 339 394 384C412 371 435 367 451 367C469 367 488 371 488 384C488 399 462 407 417 409L400 408C395 417 395 425 398 434C513 439 613 466 699 511C783 560 824 604 824 649C824 694 783 706 737 706C562 706 365 576 357 459C240 462 165 506 165 578C165 662 259 718 376 718C418 718 452 716 500 701L510 718L510 717C468 735 418 746 357 746Z" stroke="rgb(189,16,224)" stroke-opacity="1" stroke-width="8" fill="rgb(189,16,224)" fill-opacity="1"></path></g></g></g></g><g><g><g><g transform="matrix(1,0,0,1,324.11663818359375,20.9666748046875)"><path transform="matrix(0.017,0,0,-0.017,0,0)" d="M434 653C511 653 565 639 621 603L621 519L648 519C653 576 661 619 675 665C592 695 535 706 466 706C374 706 301 683 229 632C112 548 50 424 50 274C50 87 159 -18 355 -18C412 -21 559 6 608 37C628 193 632 216 633 219C635 228 647 238 660 240L692 246L694 274C655 270 620 269 569 269C518 269 482 270 440 274L435 246L469 244C544 240 553 236 553 212C553 197 533 84 528 60C483 36 444 27 390 27C224 27 138 120 138 297C138 443 197 653 434 653Z" stroke="rgb(126,211,33)" stroke-opacity="1" stroke-width="8" fill="rgb(126,211,33)" fill-opacity="1"></path></g></g></g></g><g><g><g><g transform="matrix(1,0,0,1,281.63336181640625,20.9666748046875)"><path transform="matrix(0.017,0,0,-0.017,0,0)" d="M221 385L263 613C270 652 277 658 314 661L356 664L359 692L335 692L245 689C229 689 211 689 168 690L104 692L101 664L148 662C172 661 183 653 183 635C183 621 179 590 174 559L100 125C83 33 82 32 42 28L1 25L-3 -3L39 -2C87 -1 110 0 129 0L226 -3L252 -3L255 25L206 28C179 30 170 37 170 58C170 67 171 74 174 93L216 340L277 341C339 342 381 343 400 343C419 343 460 342 523 341L584 340L544 125C535 76 528 48 523 42C519 34 508 30 486 28L436 25L432 -3L488 -2C532 -1 562 0 573 0C589 0 620 -1 663 -2L705 -3L708 25L650 28C624 29 614 37 614 58C614 67 615 76 618 93L710 613C717 652 723 657 761 661L797 664L800 692L784 692L693 689C678 689 657 689 613 690L550 692L547 664L595 662C619 661 630 653 630 635C630 621 626 589 621 559L591 385Z" stroke="rgb(208,2,27)" stroke-opacity="1" stroke-width="8" fill="rgb(208,2,27)" fill-opacity="1"></path></g></g></g></g><g><g><g><g transform="matrix(1,0,0,1,364.01666259765625,20.9666748046875)"><path transform="matrix(0.017,0,0,-0.017,0,0)" d="M286 646L392 650C454 650 494 641 495 626L503 537L527 537C530 600 537 651 548 689C526 691 498 692 481 692L440 691L275 689L246 689C221 689 181 690 143 691L94 692L91 664L147 662C171 661 182 652 182 635C182 621 178 589 173 559L98 125C81 33 81 32 40 28L4 25L0 -3L34 -2C74 -1 106 0 127 0C145 0 174 -1 213 -2L265 -3L268 25L204 28C177 29 168 37 168 57C168 63 169 74 170 78L206 301L323 301C350 301 381 300 429 298L455 297L474 342L470 349C389 345 329 343 251 343L214 343L260 614C263 630 264 635 269 646Z" stroke="rgb(74,144,226)" stroke-opacity="1" stroke-width="8" fill="rgb(74,144,226)" fill-opacity="1"></path></g></g></g></g><g><g><g><g transform="matrix(1,0,0,1,336.98333740234375,49.9666748046875)"><path transform="matrix(0.017,0,0,-0.017,0,0)" d="M740 631L721 630C694 537 645 455 571 389C500 323 432 289 365 289C306 289 267 321 267 374C267 508 489 709 767 709C879 709 946 675 977 648C705 473 560 167 388 62C334 29 272 13 202 13C149 13 76 29 76 74C76 90 83 100 96 100C102 100 117 91 131 91C151 91 167 111 167 124C167 138 156 157 127 157C84 157 46 119 46 78C46 45 71 -6 213 -6C635 -6 672 415 996 629C1014 611 1028 590 1028 555C1028 469 951 374 852 357C811 367 805 367 794 367C780 367 760 361 760 348C760 335 778 327 805 327L852 330C888 307 888 277 888 260C888 162 754 15 643 15C605 15 596 37 596 51C596 107 689 171 810 189L807 205C652 188 574 112 574 50C574 5 611 -6 656 -6C787 -6 934 110 934 230C934 273 918 301 883 338C977 363 1069 422 1069 530C1069 548 1069 594 1023 647C1036 655 1051 662 1067 671L1116 694L1110 710C1088 703 1067 696 1050 689L1001 666L1001 665C929 719 845 730 769 730C487 730 242 530 242 378C242 326 272 267 367 267C532 267 700 428 740 631Z" stroke="rgb(80,227,194)" stroke-opacity="1" stroke-width="8" fill="rgb(80,227,194)" fill-opacity="1"></path></g></g></g></g><g><g><g><g transform="matrix(1,0,0,1,302.85003662109375,48.9666748046875)"><path transform="matrix(0.017,0,0,-0.017,0,0)" d="M791 693C823 693 848 684 848 648C848 625 828 594 789 557C693 462 476 384 323 380L323 379C534 615 696 693 791 693ZM218 361C124 239 110 171 110 122C110 66 130 -15 277 -15C425 -15 598 105 598 208C598 266 554 296 493 296C384 296 278 209 218 66L237 61C290 171 391 274 495 274C557 274 574 235 574 210C574 116 406 5 272 5C204 5 152 33 152 93C152 179 230 278 301 355C659 374 874 564 874 656C874 701 828 713 789 713C639 713 418 567 241 383C144 390 70 434 70 510C70 607 194 722 390 722C446 722 505 710 533 705L539 721C495 733 435 744 377 744C279 744 200 722 138 677C76 633 45 578 45 513C45 482 50 388 218 361Z" stroke="rgb(248,231,28)" stroke-opacity="1" stroke-width="8" fill="rgb(248,231,28)" fill-opacity="1"></path></g></g></g></g><g><g><g><g transform="matrix(1,0,0,1,271.38336181640625,77.9666748046875)"><path transform="matrix(0.017,0,0,-0.017,0,0)" d="M180 15C128 15 73 20 73 45C73 56 91 76 154 76C218 76 265 60 318 40L318 39C274 24 230 15 180 15ZM897 440C897 245 737 15 520 15C468 15 415 29 389 38C522 98 610 184 680 276L719 328C784 416 840 482 889 530L889 529C897 495 897 467 897 440ZM587 733C327 733 172 566 172 423C172 354 217 273 355 273C528 273 649 404 687 560L671 573C628 421 493 293 343 293C252 293 205 343 205 409C205 543 384 706 611 706C746 706 839 652 876 557C672 417 523 119 347 51C302 71 232 98 156 98C106 98 45 85 45 45C40 11 110 -18 213 -5C267 0 290 5 351 23C374 17 441 -5 519 -5C576 -5 629 5 679 32C791 91 922 242 922 455C922 476 913 533 911 547C936 568 962 591 1050 639L1036 654C1015 644 950 612 897 577L897 576C875 618 801 733 587 733Z" stroke="rgb(245,166,35)" stroke-opacity="1" stroke-width="8" fill="rgb(245,166,35)" fill-opacity="1"></path></g></g></g></g></svg>
</svg>
