<svg xmlns="http://www.w3.org/2000/svg" xmlns:xlink="http://www.w3.org/1999/xlink" x="0" y="0" width="661.5333251953125" height="103.69999694824219" style="
        width:661.5333251953125px;
        height:103.69999694824219px;
        background: transparent;
        fill: none;
">
        
        
        <svg xmlns="http://www.w3.org/2000/svg" class="role-diagram-draw-area"><g class="shapes-region" style="stroke: black; fill: none;"><g/></g><g><g class="connection-group"><g class="arrow-line"><path class="connection real" stroke-dasharray="" d="  M266.7,24.58 L312.24,23.95 M266.74,27.58 L312.28,26.95" style="stroke: rgb(74, 144, 226); stroke-opacity: 1; stroke-width: 1px; fill: none; fill-opacity: 1;"/><g stroke="rgb(74,144,226)" stroke-opacity="1" transform="matrix(-0.9999049456400823,0.013787664214944095,-0.013787664214944095,-0.9999049456400823,320.2630105939694,25.337843281609057)" style="stroke: rgb(74, 144, 226); stroke-width: 1px;"><path d=" M10.93,-3.29 Q4.96,-0.45 0,0 Q4.96,0.45 10.93,3.29"/></g></g></g><g class="connection-group"><g class="arrow-line"><path class="connection real" stroke-dasharray="" d="  M331.99,37.17 L332.38,57.17 M328.99,37.23 L329.38,57.23" style="stroke: rgb(126, 211, 33); stroke-opacity: 1; stroke-width: 1px; fill: none; fill-opacity: 1;"/><g stroke="rgb(126,211,33)" stroke-opacity="1" transform="matrix(-0.01919744239969043,-0.9998157121216442,0.9998157121216442,-0.01919744239969043,331.03224136320017,65.19999999999999)" style="stroke: rgb(126, 211, 33); stroke-width: 1px;"><path d=" M10.93,-3.29 Q4.96,-0.45 0,0 Q4.96,0.45 10.93,3.29"/></g></g></g><g class="connection-group"><g class="arrow-line"><path class="connection real" stroke-dasharray="6 6" d="  M267.57,31.21 L315.04,64.13 M265.86,33.67 L313.33,66.59" style="stroke: rgb(80, 227, 194); stroke-opacity: 1; stroke-width: 1px; fill: none; fill-opacity: 1;"/><g stroke="rgb(80,227,194)" stroke-opacity="1" transform="matrix(-0.82174640862959,-0.569853349471924,0.569853349471924,-0.82174640862959,320.76301059396934,69.91885792162935)" style="stroke: rgb(80, 227, 194); stroke-width: 1px;"><path d=" M10.93,-3.29 Q4.96,-0.45 0,0 Q4.96,0.45 10.93,3.29"/></g></g></g><g class="connection-group"><g class="arrow-line"><path class="connection real" stroke-dasharray="" d="  M341.78,75.83 L390.78,76.45 M341.74,78.83 L390.74,79.45" style="stroke: rgb(208, 2, 27); stroke-opacity: 1; stroke-width: 1px; fill: none; fill-opacity: 1;"/><g stroke="rgb(208,2,27)" stroke-opacity="1" transform="matrix(-0.9999210442038161,-0.012566039883352592,0.012566039883352592,-0.9999210442038161,398.76301059396945,78.04740705613966)" style="stroke: rgb(208, 2, 27); stroke-width: 1px;"><path d=" M10.93,-3.29 Q4.96,-0.45 0,0 Q4.96,0.45 10.93,3.29"/></g></g></g><g class="connection-group"><g class="arrow-line"><path class="connection real" stroke-dasharray="6 6" d="  M341.11,30.75 L392.99,65.98 M339.42,33.23 L391.3,68.46" style="stroke: rgb(248, 231, 28); stroke-opacity: 1; stroke-width: 1px; fill: none; fill-opacity: 1;"/><g stroke="rgb(248,231,28)" stroke-opacity="1" transform="matrix(-0.827276727994233,-0.5617946380299084,0.5617946380299084,-0.827276727994233,398.76301059396934,71.71560275738057)" style="stroke: rgb(248, 231, 28); stroke-width: 1px;"><path d=" M10.93,-3.29 Q4.96,-0.45 0,0 Q4.96,0.45 10.93,3.29"/></g></g></g><g class="connection-group"><g class="arrow-line"><path class="connection real" stroke-dasharray="6 6" d="  M267.21,27.89 L322.32,46.91 M344.06,54.42 L391.69,70.86 M266.23,30.72 L321.34,49.75 M343.08,57.25 L390.71,73.69" style="stroke: rgb(189, 16, 224); stroke-opacity: 1; stroke-width: 1px; fill: none; fill-opacity: 1;"/><g stroke="rgb(189,16,224)" stroke-opacity="1" transform="matrix(-0.9452910557512495,-0.3262281715558731,0.3262281715558731,-0.9452910557512495,398.7630105939694,74.88738917412786)" style="stroke: rgb(189, 16, 224); stroke-width: 1px;"><path d=" M10.93,-3.29 Q4.96,-0.45 0,0 Q4.96,0.45 10.93,3.29"/></g></g></g></g><g/><g/></svg>
        <svg xmlns="http://www.w3.org/2000/svg" xmlns:xlink="http://www.w3.org/1999/xlink" width="660" height="102.16665649414062" style="width:660px;height:102.16665649414062px;font-family:Asana-Math, Asana;background:transparent;"><g><g><g><g transform="matrix(1,0,0,1,252.48333740234375,33.23333740234375)"><path transform="matrix(0.017,0,0,-0.017,0,0)" d="M286 646L392 650C454 650 494 641 495 626L503 537L527 537C530 600 537 651 548 689C526 691 498 692 481 692L440 691L275 689L246 689C221 689 181 690 143 691L94 692L91 664L147 662C171 661 182 652 182 635C182 621 178 589 173 559L98 125C81 33 81 32 40 28L4 25L0 -3L34 -2C74 -1 106 0 127 0C145 0 174 -1 213 -2L265 -3L268 25L204 28C177 29 168 37 168 57C168 63 169 74 170 78L206 301L323 301C350 301 381 300 429 298L455 297L474 342L470 349C389 345 329 343 251 343L214 343L260 614C263 630 264 635 269 646Z" stroke="rgb(144,19,254)" stroke-opacity="1" stroke-width="8" fill="rgb(144,19,254)" fill-opacity="1"></path></g></g></g></g><g><g><g><g transform="matrix(1,0,0,1,324.1500244140625,32.23333740234375)"><path transform="matrix(0.017,0,0,-0.017,0,0)" d="M434 653C511 653 565 639 621 603L621 519L648 519C653 576 661 619 675 665C592 695 535 706 466 706C374 706 301 683 229 632C112 548 50 424 50 274C50 87 159 -18 355 -18C412 -21 559 6 608 37C628 193 632 216 633 219C635 228 647 238 660 240L692 246L694 274C655 270 620 269 569 269C518 269 482 270 440 274L435 246L469 244C544 240 553 236 553 212C553 197 533 84 528 60C483 36 444 27 390 27C224 27 138 120 138 297C138 443 197 653 434 653Z" stroke="rgb(80,227,194)" stroke-opacity="1" stroke-width="8" fill="rgb(80,227,194)" fill-opacity="1"></path></g></g></g></g><g><g><g><g transform="matrix(1,0,0,1,285.76666259765625,22.23333740234375)"><path transform="matrix(0.017,0,0,-0.017,0,0)" d="M562 97L555 97C539 79 520 55 493 55C448 55 432 184 426 216C465 278 500 343 525 413C516 428 506 444 495 459L484 459C482 391 447 315 421 257L414 260C403 337 401 473 289 473C121 473 24 243 48 93C57 33 86 -16 154 -16C246 -16 324 64 372 131L375 128C381 95 392 -16 443 -16C489 -16 545 54 571 84C570 91 567 94 562 97ZM368 164C334 113 268 28 197 28C144 28 126 70 119 115C105 202 138 437 247 437C334 437 355 252 364 192Z" stroke="rgb(74,144,226)" stroke-opacity="1" stroke-width="8" fill="rgb(74,144,226)" fill-opacity="1"></path></g></g></g></g><g><g><g><g transform="matrix(1,0,0,1,324.66668701171875,84.23333740234375)"><path transform="matrix(0.017,0,0,-0.017,0,0)" d="M221 385L263 613C270 652 277 658 314 661L356 664L359 692L335 692L245 689C229 689 211 689 168 690L104 692L101 664L148 662C172 661 183 653 183 635C183 621 179 590 174 559L100 125C83 33 82 32 42 28L1 25L-3 -3L39 -2C87 -1 110 0 129 0L226 -3L252 -3L255 25L206 28C179 30 170 37 170 58C170 67 171 74 174 93L216 340L277 341C339 342 381 343 400 343C419 343 460 342 523 341L584 340L544 125C535 76 528 48 523 42C519 34 508 30 486 28L436 25L432 -3L488 -2C532 -1 562 0 573 0C589 0 620 -1 663 -2L705 -3L708 25L650 28C624 29 614 37 614 58C614 67 615 76 618 93L710 613C717 652 723 657 761 661L797 664L800 692L784 692L693 689C678 689 657 689 613 690L550 692L547 664L595 662C619 661 630 653 630 635C630 621 626 589 621 559L591 385Z" stroke="rgb(248,231,28)" stroke-opacity="1" stroke-width="8" fill="rgb(248,231,28)" fill-opacity="1"></path></g></g></g></g><g><g><g><g transform="matrix(1,0,0,1,334.35003662109375,54.23333740234375)"><path transform="matrix(0.017,0,0,-0.017,0,0)" d="M458 205C443 301 360 358 269 360L268 369C355 400 426 479 409 581C399 644 360 680 296 680C265 680 236 673 208 661C58 595 73 439 73 289C74 102 79 -87 68 -273L77 -283C101 -274 125 -265 151 -259C140 -162 137 -66 134 29C172 -2 217 -15 261 -15C382 -15 478 80 458 205ZM376 208C391 115 355 12 249 12C192 12 150 45 141 103C125 205 122 573 202 629C217 640 235 646 254 646C306 646 336 606 343 558C361 446 280 371 174 371C173 359 172 347 168 337L177 329C192 336 207 339 224 339C306 339 363 291 376 208Z" stroke="rgb(126,211,33)" stroke-opacity="1" stroke-width="8" fill="rgb(126,211,33)" fill-opacity="1"></path></g></g></g></g><g transform="matrix(0.8249162373260137,0.5652549879442832,-0.5652549879442832,0.8249162373260137,82.39195028711765,-151.60103415413306)"><g><g><g transform="matrix(1,0,0,1,271,64.23333740234375)"><path transform="matrix(0.017,0,0,-0.017,0,0)" d="M458 205C443 301 360 358 269 360L268 369C355 400 426 479 409 581C399 644 360 680 296 680C265 680 236 673 208 661C58 595 73 439 73 289C74 102 79 -87 68 -273L77 -283C101 -274 125 -265 151 -259C140 -162 137 -66 134 29C172 -2 217 -15 261 -15C382 -15 478 80 458 205ZM376 208C391 115 355 12 249 12C192 12 150 45 141 103C125 205 122 573 202 629C217 640 235 646 254 646C306 646 336 606 343 558C361 446 280 371 174 371C173 359 172 347 168 337L177 329C192 336 207 339 224 339C306 339 363 291 376 208Z" stroke="rgb(80,227,194)" stroke-opacity="1" stroke-width="8" fill="rgb(80,227,194)" fill-opacity="1"></path></g></g><g><g transform="matrix(1,0,0,1,283.10003662109375,64.23333740234375)"><path transform="matrix(0.017,0,0,-0.017,0,0)" d="M124 319C94 319 67 291 67 261C67 231 94 203 123 203C155 203 183 230 183 260C183 291 155 319 124 319Z" stroke="rgb(80,227,194)" stroke-opacity="1" stroke-width="8" fill="rgb(80,227,194)" fill-opacity="1"></path></g></g><g><g transform="matrix(1,0,0,1,290.73333740234375,64.23333740234375)"><path transform="matrix(0.017,0,0,-0.017,0,0)" d="M562 97L555 97C539 79 520 55 493 55C448 55 432 184 426 216C465 278 500 343 525 413C516 428 506 444 495 459L484 459C482 391 447 315 421 257L414 260C403 337 401 473 289 473C121 473 24 243 48 93C57 33 86 -16 154 -16C246 -16 324 64 372 131L375 128C381 95 392 -16 443 -16C489 -16 545 54 571 84C570 91 567 94 562 97ZM368 164C334 113 268 28 197 28C144 28 126 70 119 115C105 202 138 437 247 437C334 437 355 252 364 192Z" stroke="rgb(80,227,194)" stroke-opacity="1" stroke-width="8" fill="rgb(80,227,194)" fill-opacity="1"></path></g></g></g></g><g><g><g><g transform="matrix(1,0,0,1,402.61663818359375,85.20001220703125)"><path transform="matrix(0.017,0,0,-0.017,0,0)" d="M371 664L374 692L350 692L260 689C244 689 226 689 183 690L119 692L116 664L163 662C187 661 198 653 198 635C198 621 195 592 189 559L116 125C99 33 98 32 58 28L17 25L13 -3L55 -2C103 -1 126 0 145 0L242 -3L268 -3L271 25L222 28C195 30 186 37 186 57C186 63 187 74 188 78L231 340C381 169 404 140 509 -3L578 0C614 -1 620 -2 646 -3L646 27L626 27C603 27 583 39 562 65L316 367L608 640C624 655 645 665 662 665L683 665L683 692L660 691C639 690 623 689 615 689C605 689 589 690 568 691L548 692L548 663C548 655 538 642 510 614C466 569 297 403 233 353L278 613C285 651 292 658 329 661Z" stroke="rgb(245,166,35)" stroke-opacity="1" stroke-width="8" fill="rgb(245,166,35)" fill-opacity="1"></path></g></g></g></g><g><g><g><g transform="matrix(1,0,0,1,359.76666259765625,94.0333251953125)"><path transform="matrix(0.017,0,0,-0.017,0,0)" d="M88 473C23 473 -6 426 -31 377C-30 371 -26 368 -23 365L-17 366C2 394 19 412 56 412C151 412 182 290 193 220C207 136 211 53 209 -29C173 -86 142 -181 127 -249C132 -257 138 -265 143 -273C163 -268 182 -260 201 -251C215 -183 225 -106 227 -36C275 43 329 120 383 194C427 254 501 353 488 438C486 450 484 467 468 467C451 467 420 453 404 446L400 435C406 419 413 401 416 385C432 279 288 108 240 19L234 23C259 393 176 473 88 473Z" stroke="rgb(208,2,27)" stroke-opacity="1" stroke-width="8" fill="rgb(208,2,27)" fill-opacity="1"></path></g></g></g></g><g transform="matrix(0.8249162373260137,0.5652549879442832,-0.5652549879442832,0.8249162373260137,87.77952481721633,-205.06137845188778)"><g><g><g transform="matrix(1,0,0,1,360.10003662109375,46.20001220703125)"><path transform="matrix(0.017,0,0,-0.017,0,0)" d="M88 473C23 473 -6 426 -31 377C-30 371 -26 368 -23 365L-17 366C2 394 19 412 56 412C151 412 182 290 193 220C207 136 211 53 209 -29C173 -86 142 -181 127 -249C132 -257 138 -265 143 -273C163 -268 182 -260 201 -251C215 -183 225 -106 227 -36C275 43 329 120 383 194C427 254 501 353 488 438C486 450 484 467 468 467C451 467 420 453 404 446L400 435C406 419 413 401 416 385C432 279 288 108 240 19L234 23C259 393 176 473 88 473Z" stroke="rgb(248,231,28)" stroke-opacity="1" stroke-width="8" fill="rgb(248,231,28)" fill-opacity="1"></path></g></g><g><g transform="matrix(1,0,0,1,373.4000244140625,46.20001220703125)"><path transform="matrix(0.017,0,0,-0.017,0,0)" d="M124 319C94 319 67 291 67 261C67 231 94 203 123 203C155 203 183 230 183 260C183 291 155 319 124 319Z" stroke="rgb(248,231,28)" stroke-opacity="1" stroke-width="8" fill="rgb(248,231,28)" fill-opacity="1"></path></g></g><g><g transform="matrix(1,0,0,1,381.01666259765625,46.20001220703125)"><path transform="matrix(0.017,0,0,-0.017,0,0)" d="M458 205C443 301 360 358 269 360L268 369C355 400 426 479 409 581C399 644 360 680 296 680C265 680 236 673 208 661C58 595 73 439 73 289C74 102 79 -87 68 -273L77 -283C101 -274 125 -265 151 -259C140 -162 137 -66 134 29C172 -2 217 -15 261 -15C382 -15 478 80 458 205ZM376 208C391 115 355 12 249 12C192 12 150 45 141 103C125 205 122 573 202 629C217 640 235 646 254 646C306 646 336 606 343 558C361 446 280 371 174 371C173 359 172 347 168 337L177 329C192 336 207 339 224 339C306 339 363 291 376 208Z" stroke="rgb(248,231,28)" stroke-opacity="1" stroke-width="8" fill="rgb(248,231,28)" fill-opacity="1"></path></g></g></g></g></svg>
</svg>
