<svg xmlns="http://www.w3.org/2000/svg" xmlns:xlink="http://www.w3.org/1999/xlink" x="0" y="0" width="661.433349609375" height="242.6666717529297" style="
        width:661.433349609375px;
        height:242.6666717529297px;
        background: transparent;
        fill: none;
">
        
        
        <svg xmlns="http://www.w3.org/2000/svg" class="role-diagram-draw-area"><g class="shapes-region" style="stroke: black; fill: none;"><g class="composite-shape"><path class="real" d=" M155.23,26.33 L250.23,26.33 L250.23,92.33 L155.23,92.33 Z" style="stroke-width: 1px; stroke: rgb(155, 155, 155); stroke-opacity: 1; fill: none; fill-opacity: 1;"/></g><g class="arrow-line"><path class="connection real" stroke-dasharray="" d="  M183.23,92.5 C183.23,79.5 190.23,70.5 202.23,70.5" style="stroke: rgb(208, 2, 27); stroke-opacity: 1; stroke-width: 1px; fill: none; fill-opacity: 1;"/></g><g class="arrow-line"><path class="connection real" stroke-dasharray="" d="  M223.23,92.5 C222.23,81.5 213.23,70.5 200.23,70.93" style="stroke: rgb(74, 144, 226); stroke-opacity: 1; stroke-width: 1px; fill: none; fill-opacity: 1;"/></g><g class="composite-shape"><path class="real" d=" M156.23,145.93 L251.23,145.93 L251.23,211.93 L156.23,211.93 Z" style="stroke-width: 1px; stroke: rgb(155, 155, 155); stroke-opacity: 1; fill: none; fill-opacity: 1;"/></g><g class="arrow-line"><path class="connection real" stroke-dasharray="" d="  M184.23,212.1 C184.23,199.1 191.23,190.1 203.23,190.1" style="stroke: rgb(74, 144, 226); stroke-opacity: 1; stroke-width: 1px; fill: none; fill-opacity: 1;"/></g><g class="arrow-line"><path class="connection real" stroke-dasharray="" d="  M224.23,212.1 C223.23,201.1 214.23,190.1 201.23,190.53" style="stroke: rgb(208, 2, 27); stroke-opacity: 1; stroke-width: 1px; fill: none; fill-opacity: 1;"/></g><g class="arrow-line"><path class="connection real" stroke-dasharray="" d="  M183.28,26.87 C183.28,38.87 191.23,46.5 203.23,46.5" style="stroke: rgb(208, 2, 27); stroke-opacity: 1; stroke-width: 1px; fill: none; fill-opacity: 1;"/></g><g class="arrow-line"><path class="connection real" stroke-dasharray="" d="  M223.28,26.87 C224.28,39.87 216.23,46.07 203.23,46.5" style="stroke: rgb(74, 144, 226); stroke-opacity: 1; stroke-width: 1px; fill: none; fill-opacity: 1;"/></g><g class="arrow-line"><path class="connection real" stroke-dasharray="" d="  M182.28,145.87 C182.28,157.87 190.23,165.5 202.23,165.5" style="stroke: rgb(74, 144, 226); stroke-opacity: 1; stroke-width: 1px; fill: none; fill-opacity: 1;"/></g><g class="arrow-line"><path class="connection real" stroke-dasharray="" d="  M222.28,145.87 C223.28,158.87 215.23,165.07 202.23,165.5" style="stroke: rgb(208, 2, 27); stroke-opacity: 1; stroke-width: 1px; fill: none; fill-opacity: 1;"/></g><g class="composite-shape"><path class="real" d=" M413.23,27.4 L508.23,27.4 L508.23,93.4 L413.23,93.4 Z" style="stroke-width: 1px; stroke: rgb(155, 155, 155); stroke-opacity: 1; fill: none; fill-opacity: 1;"/></g><g class="composite-shape"><path class="real" d=" M413.23,146 L508.23,146 L508.23,212 L413.23,212 Z" style="stroke-width: 1px; stroke: rgb(155, 155, 155); stroke-opacity: 1; fill: none; fill-opacity: 1;"/></g><g class="composite-shape"><path class="real" d=" M283.23,27.63 L378.23,27.63 L378.23,93.63 L283.23,93.63 Z" style="stroke-width: 1px; stroke: rgb(155, 155, 155); stroke-opacity: 1; fill: none; fill-opacity: 1;"/></g><g class="composite-shape"><path class="real" d=" M283.23,146.23 L378.23,146.23 L378.23,212.23 L283.23,212.23 Z" style="stroke-width: 1px; stroke: rgb(155, 155, 155); stroke-opacity: 1; fill: none; fill-opacity: 1;"/></g><g class="arrow-line"><path class="connection real" stroke-dasharray="" d="  M311.28,27.55 C311.28,46.03 311.28,59.14 329.24,59.14 C311.28,59.78 311.28,73.55 310.9,92.91" style="stroke: rgb(208, 2, 27); stroke-width: 1px; fill: none; fill-opacity: 1; stroke-opacity: 1;"/></g><g class="arrow-line"><path class="connection real" stroke-dasharray="" d="  M310.28,145.55 C310.28,164.88 310.28,177.55 329.16,177.55 C310.28,178.22 310.28,191.55 310.93,212.88" style="stroke: rgb(74, 144, 226); stroke-width: 1px; fill: none; fill-opacity: 1; stroke-opacity: 1;"/></g><g class="arrow-line"><path class="connection real" stroke-dasharray="" d="  M350.63,146.22 C350.63,165.55 349.98,177.55 329.16,177.55 C349.98,178.22 350.63,191.22 351.28,212.55" style="stroke: rgb(208, 2, 27); stroke-opacity: 1; stroke-width: 1px; fill: none; fill-opacity: 1;"/></g><g class="arrow-line"><path class="connection real" stroke-dasharray="" d="  M349.66,28.19 C349.66,46.67 349.05,59.14 329.24,59.14 C349.05,59.78 349.66,73.16 350.28,93.55" style="stroke: rgb(74, 144, 226); stroke-opacity: 1; stroke-width: 1px; fill: none; fill-opacity: 1;"/></g><g/></g><g><g class="connection-group"><g class="arrow-line"><path class="connection real" stroke-dasharray="" d="  M480.23,93.4 L480.23,28" style="stroke: rgb(74, 144, 226); stroke-opacity: 1; stroke-width: 1px; fill: none; fill-opacity: 1;"/></g></g><g class="connection-group"><g class="arrow-line"><path class="connection real" stroke-dasharray="" d="  M442.23,93.4 L442.23,28" style="stroke: rgb(208, 2, 27); stroke-opacity: 1; stroke-width: 1px; fill: none; fill-opacity: 1;"/></g></g><g class="connection-group"><g class="arrow-line"><path class="connection real" stroke-dasharray="" d="  M480.23,212 L480.23,147" style="stroke: rgb(208, 2, 27); stroke-opacity: 1; stroke-width: 1px; fill: none; fill-opacity: 1;"/></g></g><g class="connection-group"><g class="arrow-line"><path class="connection real" stroke-dasharray="" d="  M442.23,212 L442.23,147" style="stroke: rgb(74, 144, 226); stroke-opacity: 1; stroke-width: 1px; fill: none; fill-opacity: 1;"/></g></g></g><g/><g/></svg>
        <svg xmlns="http://www.w3.org/2000/svg" xmlns:xlink="http://www.w3.org/1999/xlink" width="660" height="241.23333740234375" style="width:660px;height:241.23333740234375px;font-family:Asana-Math, Asana;background:transparent;"><g><g><g><g transform="matrix(1,0,0,1,234.8499755859375,88.94998168945312)"><path transform="matrix(0.017,0,0,-0.017,0,0)" d="M791 693C823 693 848 684 848 648C848 625 828 594 789 557C693 462 476 384 323 380L323 379C534 615 696 693 791 693ZM218 361C124 239 110 171 110 122C110 66 130 -15 277 -15C425 -15 598 105 598 208C598 266 554 296 493 296C384 296 278 209 218 66L237 61C290 171 391 274 495 274C557 274 574 235 574 210C574 116 406 5 272 5C204 5 152 33 152 93C152 179 230 278 301 355C659 374 874 564 874 656C874 701 828 713 789 713C639 713 418 567 241 383C144 390 70 434 70 510C70 607 194 722 390 722C446 722 505 710 533 705L539 721C495 733 435 744 377 744C279 744 200 722 138 677C76 633 45 578 45 513C45 482 50 388 218 361Z" stroke="rgb(144,19,254)" stroke-opacity="1" stroke-width="8" fill="rgb(144,19,254)" fill-opacity="1"></path></g></g></g></g><g><g><g><g transform="matrix(1,0,0,1,217.01666259765625,110.94998168945312)"><path transform="matrix(0.017,0,0,-0.017,0,0)" d="M286 646L392 650C454 650 494 641 495 626L503 537L527 537C530 600 537 651 548 689C526 691 498 692 481 692L440 691L275 689L246 689C221 689 181 690 143 691L94 692L91 664L147 662C171 661 182 652 182 635C182 621 178 589 173 559L98 125C81 33 81 32 40 28L4 25L0 -3L34 -2C74 -1 106 0 127 0C145 0 174 -1 213 -2L265 -3L268 25L204 28C177 29 168 37 168 57C168 63 169 74 170 78L206 301L323 301C350 301 381 300 429 298L455 297L474 342L470 349C389 345 329 343 251 343L214 343L260 614C263 630 264 635 269 646Z" stroke="rgb(74,144,226)" stroke-opacity="1" stroke-width="8" fill="rgb(74,144,226)" fill-opacity="1"></path></g></g></g></g><g><g><g><g transform="matrix(1,0,0,1,178.11663818359375,110.94998168945312)"><path transform="matrix(0.017,0,0,-0.017,0,0)" d="M434 653C511 653 565 639 621 603L621 519L648 519C653 576 661 619 675 665C592 695 535 706 466 706C374 706 301 683 229 632C112 548 50 424 50 274C50 87 159 -18 355 -18C412 -21 559 6 608 37C628 193 632 216 633 219C635 228 647 238 660 240L692 246L694 274C655 270 620 269 569 269C518 269 482 270 440 274L435 246L469 244C544 240 553 236 553 212C553 197 533 84 528 60C483 36 444 27 390 27C224 27 138 120 138 297C138 443 197 653 434 653Z" stroke="rgb(208,2,27)" stroke-opacity="1" stroke-width="8" fill="rgb(208,2,27)" fill-opacity="1"></path></g></g></g></g><g><g><g><g transform="matrix(1,0,0,1,193.4000244140625,88.54998779296875)"><path transform="matrix(0.017,0,0,-0.017,0,0)" d="M180 15C128 15 73 20 73 45C73 56 91 76 154 76C218 76 265 60 318 40L318 39C274 24 230 15 180 15ZM897 440C897 245 737 15 520 15C468 15 415 29 389 38C522 98 610 184 680 276L719 328C784 416 840 482 889 530L889 529C897 495 897 467 897 440ZM587 733C327 733 172 566 172 423C172 354 217 273 355 273C528 273 649 404 687 560L671 573C628 421 493 293 343 293C252 293 205 343 205 409C205 543 384 706 611 706C746 706 839 652 876 557C672 417 523 119 347 51C302 71 232 98 156 98C106 98 45 85 45 45C40 11 110 -18 213 -5C267 0 290 5 351 23C374 17 441 -5 519 -5C576 -5 629 5 679 32C791 91 922 242 922 455C922 476 913 533 911 547C936 568 962 591 1050 639L1036 654C1015 644 950 612 897 577L897 576C875 618 801 733 587 733Z" stroke="rgb(245,166,35)" stroke-opacity="1" stroke-width="8" fill="rgb(245,166,35)" fill-opacity="1"></path></g></g></g></g><g><g><g><g transform="matrix(1,0,0,1,196.8499755859375,208.54998779296875)"><path transform="matrix(0.017,0,0,-0.017,0,0)" d="M791 693C823 693 848 684 848 648C848 625 828 594 789 557C693 462 476 384 323 380L323 379C534 615 696 693 791 693ZM218 361C124 239 110 171 110 122C110 66 130 -15 277 -15C425 -15 598 105 598 208C598 266 554 296 493 296C384 296 278 209 218 66L237 61C290 171 391 274 495 274C557 274 574 235 574 210C574 116 406 5 272 5C204 5 152 33 152 93C152 179 230 278 301 355C659 374 874 564 874 656C874 701 828 713 789 713C639 713 418 567 241 383C144 390 70 434 70 510C70 607 194 722 390 722C446 722 505 710 533 705L539 721C495 733 435 744 377 744C279 744 200 722 138 677C76 633 45 578 45 513C45 482 50 388 218 361Z" stroke="rgb(144,19,254)" stroke-opacity="1" stroke-width="8" fill="rgb(144,19,254)" fill-opacity="1"></path></g></g></g></g><g><g><g><g transform="matrix(1,0,0,1,217.11663818359375,230.54998779296875)"><path transform="matrix(0.017,0,0,-0.017,0,0)" d="M434 653C511 653 565 639 621 603L621 519L648 519C653 576 661 619 675 665C592 695 535 706 466 706C374 706 301 683 229 632C112 548 50 424 50 274C50 87 159 -18 355 -18C412 -21 559 6 608 37C628 193 632 216 633 219C635 228 647 238 660 240L692 246L694 274C655 270 620 269 569 269C518 269 482 270 440 274L435 246L469 244C544 240 553 236 553 212C553 197 533 84 528 60C483 36 444 27 390 27C224 27 138 120 138 297C138 443 197 653 434 653Z" stroke="rgb(208,2,27)" stroke-opacity="1" stroke-width="8" fill="rgb(208,2,27)" fill-opacity="1"></path></g></g></g></g><g><g><g><g transform="matrix(1,0,0,1,180.01666259765625,230.54998779296875)"><path transform="matrix(0.017,0,0,-0.017,0,0)" d="M286 646L392 650C454 650 494 641 495 626L503 537L527 537C530 600 537 651 548 689C526 691 498 692 481 692L440 691L275 689L246 689C221 689 181 690 143 691L94 692L91 664L147 662C171 661 182 652 182 635C182 621 178 589 173 559L98 125C81 33 81 32 40 28L4 25L0 -3L34 -2C74 -1 106 0 127 0C145 0 174 -1 213 -2L265 -3L268 25L204 28C177 29 168 37 168 57C168 63 169 74 170 78L206 301L323 301C350 301 381 300 429 298L455 297L474 342L470 349C389 345 329 343 251 343L214 343L260 614C263 630 264 635 269 646Z" stroke="rgb(74,144,226)" stroke-opacity="1" stroke-width="8" fill="rgb(74,144,226)" fill-opacity="1"></path></g></g></g></g><g><g><g><g transform="matrix(1,0,0,1,233.4000244140625,208.14996337890625)"><path transform="matrix(0.017,0,0,-0.017,0,0)" d="M180 15C128 15 73 20 73 45C73 56 91 76 154 76C218 76 265 60 318 40L318 39C274 24 230 15 180 15ZM897 440C897 245 737 15 520 15C468 15 415 29 389 38C522 98 610 184 680 276L719 328C784 416 840 482 889 530L889 529C897 495 897 467 897 440ZM587 733C327 733 172 566 172 423C172 354 217 273 355 273C528 273 649 404 687 560L671 573C628 421 493 293 343 293C252 293 205 343 205 409C205 543 384 706 611 706C746 706 839 652 876 557C672 417 523 119 347 51C302 71 232 98 156 98C106 98 45 85 45 45C40 11 110 -18 213 -5C267 0 290 5 351 23C374 17 441 -5 519 -5C576 -5 629 5 679 32C791 91 922 242 922 455C922 476 913 533 911 547C936 568 962 591 1050 639L1036 654C1015 644 950 612 897 577L897 576C875 618 801 733 587 733Z" stroke="rgb(245,166,35)" stroke-opacity="1" stroke-width="8" fill="rgb(245,166,35)" fill-opacity="1"></path></g></g></g></g><g><g><g><g transform="matrix(1,0,0,1,195.4000244140625,42.54998779296875)"><path transform="matrix(0.017,0,0,-0.017,0,0)" d="M180 15C128 15 73 20 73 45C73 56 91 76 154 76C218 76 265 60 318 40L318 39C274 24 230 15 180 15ZM897 440C897 245 737 15 520 15C468 15 415 29 389 38C522 98 610 184 680 276L719 328C784 416 840 482 889 530L889 529C897 495 897 467 897 440ZM587 733C327 733 172 566 172 423C172 354 217 273 355 273C528 273 649 404 687 560L671 573C628 421 493 293 343 293C252 293 205 343 205 409C205 543 384 706 611 706C746 706 839 652 876 557C672 417 523 119 347 51C302 71 232 98 156 98C106 98 45 85 45 45C40 11 110 -18 213 -5C267 0 290 5 351 23C374 17 441 -5 519 -5C576 -5 629 5 679 32C791 91 922 242 922 455C922 476 913 533 911 547C936 568 962 591 1050 639L1036 654C1015 644 950 612 897 577L897 576C875 618 801 733 587 733Z" stroke="rgb(245,166,35)" stroke-opacity="1" stroke-width="8" fill="rgb(245,166,35)" fill-opacity="1"></path></g></g></g></g><g><g><g><g transform="matrix(1,0,0,1,178.11663818359375,22.54998779296875)"><path transform="matrix(0.017,0,0,-0.017,0,0)" d="M434 653C511 653 565 639 621 603L621 519L648 519C653 576 661 619 675 665C592 695 535 706 466 706C374 706 301 683 229 632C112 548 50 424 50 274C50 87 159 -18 355 -18C412 -21 559 6 608 37C628 193 632 216 633 219C635 228 647 238 660 240L692 246L694 274C655 270 620 269 569 269C518 269 482 270 440 274L435 246L469 244C544 240 553 236 553 212C553 197 533 84 528 60C483 36 444 27 390 27C224 27 138 120 138 297C138 443 197 653 434 653Z" stroke="rgb(208,2,27)" stroke-opacity="1" stroke-width="8" fill="rgb(208,2,27)" fill-opacity="1"></path></g></g></g></g><g><g><g><g transform="matrix(1,0,0,1,217.01666259765625,22.54998779296875)"><path transform="matrix(0.017,0,0,-0.017,0,0)" d="M286 646L392 650C454 650 494 641 495 626L503 537L527 537C530 600 537 651 548 689C526 691 498 692 481 692L440 691L275 689L246 689C221 689 181 690 143 691L94 692L91 664L147 662C171 661 182 652 182 635C182 621 178 589 173 559L98 125C81 33 81 32 40 28L4 25L0 -3L34 -2C74 -1 106 0 127 0C145 0 174 -1 213 -2L265 -3L268 25L204 28C177 29 168 37 168 57C168 63 169 74 170 78L206 301L323 301C350 301 381 300 429 298L455 297L474 342L470 349C389 345 329 343 251 343L214 343L260 614C263 630 264 635 269 646Z" stroke="rgb(74,144,226)" stroke-opacity="1" stroke-width="8" fill="rgb(74,144,226)" fill-opacity="1"></path></g></g></g></g><g><g><g><g transform="matrix(1,0,0,1,196.8499755859375,161.54998779296875)"><path transform="matrix(0.017,0,0,-0.017,0,0)" d="M791 693C823 693 848 684 848 648C848 625 828 594 789 557C693 462 476 384 323 380L323 379C534 615 696 693 791 693ZM218 361C124 239 110 171 110 122C110 66 130 -15 277 -15C425 -15 598 105 598 208C598 266 554 296 493 296C384 296 278 209 218 66L237 61C290 171 391 274 495 274C557 274 574 235 574 210C574 116 406 5 272 5C204 5 152 33 152 93C152 179 230 278 301 355C659 374 874 564 874 656C874 701 828 713 789 713C639 713 418 567 241 383C144 390 70 434 70 510C70 607 194 722 390 722C446 722 505 710 533 705L539 721C495 733 435 744 377 744C279 744 200 722 138 677C76 633 45 578 45 513C45 482 50 388 218 361Z" stroke="rgb(144,19,254)" stroke-opacity="1" stroke-width="8" fill="rgb(144,19,254)" fill-opacity="1"></path></g></g></g></g><g><g><g><g transform="matrix(1,0,0,1,180.01666259765625,142.54998779296875)"><path transform="matrix(0.017,0,0,-0.017,0,0)" d="M286 646L392 650C454 650 494 641 495 626L503 537L527 537C530 600 537 651 548 689C526 691 498 692 481 692L440 691L275 689L246 689C221 689 181 690 143 691L94 692L91 664L147 662C171 661 182 652 182 635C182 621 178 589 173 559L98 125C81 33 81 32 40 28L4 25L0 -3L34 -2C74 -1 106 0 127 0C145 0 174 -1 213 -2L265 -3L268 25L204 28C177 29 168 37 168 57C168 63 169 74 170 78L206 301L323 301C350 301 381 300 429 298L455 297L474 342L470 349C389 345 329 343 251 343L214 343L260 614C263 630 264 635 269 646Z" stroke="rgb(74,144,226)" stroke-opacity="1" stroke-width="8" fill="rgb(74,144,226)" fill-opacity="1"></path></g></g></g></g><g><g><g><g transform="matrix(1,0,0,1,217.11663818359375,142.54998779296875)"><path transform="matrix(0.017,0,0,-0.017,0,0)" d="M434 653C511 653 565 639 621 603L621 519L648 519C653 576 661 619 675 665C592 695 535 706 466 706C374 706 301 683 229 632C112 548 50 424 50 274C50 87 159 -18 355 -18C412 -21 559 6 608 37C628 193 632 216 633 219C635 228 647 238 660 240L692 246L694 274C655 270 620 269 569 269C518 269 482 270 440 274L435 246L469 244C544 240 553 236 553 212C553 197 533 84 528 60C483 36 444 27 390 27C224 27 138 120 138 297C138 443 197 653 434 653Z" stroke="rgb(208,2,27)" stroke-opacity="1" stroke-width="8" fill="rgb(208,2,27)" fill-opacity="1"></path></g></g></g></g><g><g><g><g transform="matrix(1,0,0,1,488.8499755859375,69.01666259765625)"><path transform="matrix(0.017,0,0,-0.017,0,0)" d="M791 693C823 693 848 684 848 648C848 625 828 594 789 557C693 462 476 384 323 380L323 379C534 615 696 693 791 693ZM218 361C124 239 110 171 110 122C110 66 130 -15 277 -15C425 -15 598 105 598 208C598 266 554 296 493 296C384 296 278 209 218 66L237 61C290 171 391 274 495 274C557 274 574 235 574 210C574 116 406 5 272 5C204 5 152 33 152 93C152 179 230 278 301 355C659 374 874 564 874 656C874 701 828 713 789 713C639 713 418 567 241 383C144 390 70 434 70 510C70 607 194 722 390 722C446 722 505 710 533 705L539 721C495 733 435 744 377 744C279 744 200 722 138 677C76 633 45 578 45 513C45 482 50 388 218 361Z" stroke="rgb(144,19,254)" stroke-opacity="1" stroke-width="8" fill="rgb(144,19,254)" fill-opacity="1"></path></g></g></g></g><g><g><g><g transform="matrix(1,0,0,1,475.01666259765625,112.01666259765625)"><path transform="matrix(0.017,0,0,-0.017,0,0)" d="M286 646L392 650C454 650 494 641 495 626L503 537L527 537C530 600 537 651 548 689C526 691 498 692 481 692L440 691L275 689L246 689C221 689 181 690 143 691L94 692L91 664L147 662C171 661 182 652 182 635C182 621 178 589 173 559L98 125C81 33 81 32 40 28L4 25L0 -3L34 -2C74 -1 106 0 127 0C145 0 174 -1 213 -2L265 -3L268 25L204 28C177 29 168 37 168 57C168 63 169 74 170 78L206 301L323 301C350 301 381 300 429 298L455 297L474 342L470 349C389 345 329 343 251 343L214 343L260 614C263 630 264 635 269 646Z" stroke="rgb(74,144,226)" stroke-opacity="1" stroke-width="8" fill="rgb(74,144,226)" fill-opacity="1"></path></g></g></g></g><g><g><g><g transform="matrix(1,0,0,1,436.0999755859375,112.01666259765625)"><path transform="matrix(0.017,0,0,-0.017,0,0)" d="M434 653C511 653 565 639 621 603L621 519L648 519C653 576 661 619 675 665C592 695 535 706 466 706C374 706 301 683 229 632C112 548 50 424 50 274C50 87 159 -18 355 -18C412 -21 559 6 608 37C628 193 632 216 633 219C635 228 647 238 660 240L692 246L694 274C655 270 620 269 569 269C518 269 482 270 440 274L435 246L469 244C544 240 553 236 553 212C553 197 533 84 528 60C483 36 444 27 390 27C224 27 138 120 138 297C138 443 197 653 434 653Z" stroke="rgb(208,2,27)" stroke-opacity="1" stroke-width="8" fill="rgb(208,2,27)" fill-opacity="1"></path></g></g></g></g><g><g><g><g transform="matrix(1,0,0,1,474.11663818359375,230.61663818359375)"><path transform="matrix(0.017,0,0,-0.017,0,0)" d="M434 653C511 653 565 639 621 603L621 519L648 519C653 576 661 619 675 665C592 695 535 706 466 706C374 706 301 683 229 632C112 548 50 424 50 274C50 87 159 -18 355 -18C412 -21 559 6 608 37C628 193 632 216 633 219C635 228 647 238 660 240L692 246L694 274C655 270 620 269 569 269C518 269 482 270 440 274L435 246L469 244C544 240 553 236 553 212C553 197 533 84 528 60C483 36 444 27 390 27C224 27 138 120 138 297C138 443 197 653 434 653Z" stroke="rgb(208,2,27)" stroke-opacity="1" stroke-width="8" fill="rgb(208,2,27)" fill-opacity="1"></path></g></g></g></g><g><g><g><g transform="matrix(1,0,0,1,437.01666259765625,230.61663818359375)"><path transform="matrix(0.017,0,0,-0.017,0,0)" d="M286 646L392 650C454 650 494 641 495 626L503 537L527 537C530 600 537 651 548 689C526 691 498 692 481 692L440 691L275 689L246 689C221 689 181 690 143 691L94 692L91 664L147 662C171 661 182 652 182 635C182 621 178 589 173 559L98 125C81 33 81 32 40 28L4 25L0 -3L34 -2C74 -1 106 0 127 0C145 0 174 -1 213 -2L265 -3L268 25L204 28C177 29 168 37 168 57C168 63 169 74 170 78L206 301L323 301C350 301 381 300 429 298L455 297L474 342L470 349C389 345 329 343 251 343L214 343L260 614C263 630 264 635 269 646Z" stroke="rgb(74,144,226)" stroke-opacity="1" stroke-width="8" fill="rgb(74,144,226)" fill-opacity="1"></path></g></g></g></g><g><g><g><g transform="matrix(1,0,0,1,453.4000244140625,68.61663818359375)"><path transform="matrix(0.017,0,0,-0.017,0,0)" d="M180 15C128 15 73 20 73 45C73 56 91 76 154 76C218 76 265 60 318 40L318 39C274 24 230 15 180 15ZM897 440C897 245 737 15 520 15C468 15 415 29 389 38C522 98 610 184 680 276L719 328C784 416 840 482 889 530L889 529C897 495 897 467 897 440ZM587 733C327 733 172 566 172 423C172 354 217 273 355 273C528 273 649 404 687 560L671 573C628 421 493 293 343 293C252 293 205 343 205 409C205 543 384 706 611 706C746 706 839 652 876 557C672 417 523 119 347 51C302 71 232 98 156 98C106 98 45 85 45 45C40 11 110 -18 213 -5C267 0 290 5 351 23C374 17 441 -5 519 -5C576 -5 629 5 679 32C791 91 922 242 922 455C922 476 913 533 911 547C936 568 962 591 1050 639L1036 654C1015 644 950 612 897 577L897 576C875 618 801 733 587 733Z" stroke="rgb(245,166,35)" stroke-opacity="1" stroke-width="8" fill="rgb(245,166,35)" fill-opacity="1"></path></g></g></g></g><g><g><g><g transform="matrix(1,0,0,1,436.0999755859375,22.61663818359375)"><path transform="matrix(0.017,0,0,-0.017,0,0)" d="M434 653C511 653 565 639 621 603L621 519L648 519C653 576 661 619 675 665C592 695 535 706 466 706C374 706 301 683 229 632C112 548 50 424 50 274C50 87 159 -18 355 -18C412 -21 559 6 608 37C628 193 632 216 633 219C635 228 647 238 660 240L692 246L694 274C655 270 620 269 569 269C518 269 482 270 440 274L435 246L469 244C544 240 553 236 553 212C553 197 533 84 528 60C483 36 444 27 390 27C224 27 138 120 138 297C138 443 197 653 434 653Z" stroke="rgb(208,2,27)" stroke-opacity="1" stroke-width="8" fill="rgb(208,2,27)" fill-opacity="1"></path></g></g></g></g><g><g><g><g transform="matrix(1,0,0,1,475.01666259765625,22.61663818359375)"><path transform="matrix(0.017,0,0,-0.017,0,0)" d="M286 646L392 650C454 650 494 641 495 626L503 537L527 537C530 600 537 651 548 689C526 691 498 692 481 692L440 691L275 689L246 689C221 689 181 690 143 691L94 692L91 664L147 662C171 661 182 652 182 635C182 621 178 589 173 559L98 125C81 33 81 32 40 28L4 25L0 -3L34 -2C74 -1 106 0 127 0C145 0 174 -1 213 -2L265 -3L268 25L204 28C177 29 168 37 168 57C168 63 169 74 170 78L206 301L323 301C350 301 381 300 429 298L455 297L474 342L470 349C389 345 329 343 251 343L214 343L260 614C263 630 264 635 269 646Z" stroke="rgb(74,144,226)" stroke-opacity="1" stroke-width="8" fill="rgb(74,144,226)" fill-opacity="1"></path></g></g></g></g><g><g><g><g transform="matrix(1,0,0,1,437.01666259765625,141.61663818359375)"><path transform="matrix(0.017,0,0,-0.017,0,0)" d="M286 646L392 650C454 650 494 641 495 626L503 537L527 537C530 600 537 651 548 689C526 691 498 692 481 692L440 691L275 689L246 689C221 689 181 690 143 691L94 692L91 664L147 662C171 661 182 652 182 635C182 621 178 589 173 559L98 125C81 33 81 32 40 28L4 25L0 -3L34 -2C74 -1 106 0 127 0C145 0 174 -1 213 -2L265 -3L268 25L204 28C177 29 168 37 168 57C168 63 169 74 170 78L206 301L323 301C350 301 381 300 429 298L455 297L474 342L470 349C389 345 329 343 251 343L214 343L260 614C263 630 264 635 269 646Z" stroke="rgb(74,144,226)" stroke-opacity="1" stroke-width="8" fill="rgb(74,144,226)" fill-opacity="1"></path></g></g></g></g><g><g><g><g transform="matrix(1,0,0,1,474.11663818359375,141.61663818359375)"><path transform="matrix(0.017,0,0,-0.017,0,0)" d="M434 653C511 653 565 639 621 603L621 519L648 519C653 576 661 619 675 665C592 695 535 706 466 706C374 706 301 683 229 632C112 548 50 424 50 274C50 87 159 -18 355 -18C412 -21 559 6 608 37C628 193 632 216 633 219C635 228 647 238 660 240L692 246L694 274C655 270 620 269 569 269C518 269 482 270 440 274L435 246L469 244C544 240 553 236 553 212C553 197 533 84 528 60C483 36 444 27 390 27C224 27 138 120 138 297C138 443 197 653 434 653Z" stroke="rgb(208,2,27)" stroke-opacity="1" stroke-width="8" fill="rgb(208,2,27)" fill-opacity="1"></path></g></g></g></g><g><g><g><g transform="matrix(1,0,0,1,422.8499755859375,68.61663818359375)"><path transform="matrix(0.017,0,0,-0.017,0,0)" d="M791 693C823 693 848 684 848 648C848 625 828 594 789 557C693 462 476 384 323 380L323 379C534 615 696 693 791 693ZM218 361C124 239 110 171 110 122C110 66 130 -15 277 -15C425 -15 598 105 598 208C598 266 554 296 493 296C384 296 278 209 218 66L237 61C290 171 391 274 495 274C557 274 574 235 574 210C574 116 406 5 272 5C204 5 152 33 152 93C152 179 230 278 301 355C659 374 874 564 874 656C874 701 828 713 789 713C639 713 418 567 241 383C144 390 70 434 70 510C70 607 194 722 390 722C446 722 505 710 533 705L539 721C495 733 435 744 377 744C279 744 200 722 138 677C76 633 45 578 45 513C45 482 50 388 218 361Z" stroke="rgb(144,19,254)" stroke-opacity="1" stroke-width="8" fill="rgb(144,19,254)" fill-opacity="1"></path></g></g></g></g><g><g><g><g transform="matrix(1,0,0,1,485.4000244140625,187.61663818359375)"><path transform="matrix(0.017,0,0,-0.017,0,0)" d="M180 15C128 15 73 20 73 45C73 56 91 76 154 76C218 76 265 60 318 40L318 39C274 24 230 15 180 15ZM897 440C897 245 737 15 520 15C468 15 415 29 389 38C522 98 610 184 680 276L719 328C784 416 840 482 889 530L889 529C897 495 897 467 897 440ZM587 733C327 733 172 566 172 423C172 354 217 273 355 273C528 273 649 404 687 560L671 573C628 421 493 293 343 293C252 293 205 343 205 409C205 543 384 706 611 706C746 706 839 652 876 557C672 417 523 119 347 51C302 71 232 98 156 98C106 98 45 85 45 45C40 11 110 -18 213 -5C267 0 290 5 351 23C374 17 441 -5 519 -5C576 -5 629 5 679 32C791 91 922 242 922 455C922 476 913 533 911 547C936 568 962 591 1050 639L1036 654C1015 644 950 612 897 577L897 576C875 618 801 733 587 733Z" stroke="rgb(245,166,35)" stroke-opacity="1" stroke-width="8" fill="rgb(245,166,35)" fill-opacity="1"></path></g></g></g></g><g><g><g><g transform="matrix(1,0,0,1,452.8499755859375,187.2166748046875)"><path transform="matrix(0.017,0,0,-0.017,0,0)" d="M791 693C823 693 848 684 848 648C848 625 828 594 789 557C693 462 476 384 323 380L323 379C534 615 696 693 791 693ZM218 361C124 239 110 171 110 122C110 66 130 -15 277 -15C425 -15 598 105 598 208C598 266 554 296 493 296C384 296 278 209 218 66L237 61C290 171 391 274 495 274C557 274 574 235 574 210C574 116 406 5 272 5C204 5 152 33 152 93C152 179 230 278 301 355C659 374 874 564 874 656C874 701 828 713 789 713C639 713 418 567 241 383C144 390 70 434 70 510C70 607 194 722 390 722C446 722 505 710 533 705L539 721C495 733 435 744 377 744C279 744 200 722 138 677C76 633 45 578 45 513C45 482 50 388 218 361Z" stroke="rgb(144,19,254)" stroke-opacity="1" stroke-width="8" fill="rgb(144,19,254)" fill-opacity="1"></path></g></g></g></g><g><g><g><g transform="matrix(1,0,0,1,419.4000244140625,187.2166748046875)"><path transform="matrix(0.017,0,0,-0.017,0,0)" d="M180 15C128 15 73 20 73 45C73 56 91 76 154 76C218 76 265 60 318 40L318 39C274 24 230 15 180 15ZM897 440C897 245 737 15 520 15C468 15 415 29 389 38C522 98 610 184 680 276L719 328C784 416 840 482 889 530L889 529C897 495 897 467 897 440ZM587 733C327 733 172 566 172 423C172 354 217 273 355 273C528 273 649 404 687 560L671 573C628 421 493 293 343 293C252 293 205 343 205 409C205 543 384 706 611 706C746 706 839 652 876 557C672 417 523 119 347 51C302 71 232 98 156 98C106 98 45 85 45 45C40 11 110 -18 213 -5C267 0 290 5 351 23C374 17 441 -5 519 -5C576 -5 629 5 679 32C791 91 922 242 922 455C922 476 913 533 911 547C936 568 962 591 1050 639L1036 654C1015 644 950 612 897 577L897 576C875 618 801 733 587 733Z" stroke="rgb(245,166,35)" stroke-opacity="1" stroke-width="8" fill="rgb(245,166,35)" fill-opacity="1"></path></g></g></g></g><g><g><g><g transform="matrix(1,0,0,1,358.8499755859375,69.25)"><path transform="matrix(0.017,0,0,-0.017,0,0)" d="M791 693C823 693 848 684 848 648C848 625 828 594 789 557C693 462 476 384 323 380L323 379C534 615 696 693 791 693ZM218 361C124 239 110 171 110 122C110 66 130 -15 277 -15C425 -15 598 105 598 208C598 266 554 296 493 296C384 296 278 209 218 66L237 61C290 171 391 274 495 274C557 274 574 235 574 210C574 116 406 5 272 5C204 5 152 33 152 93C152 179 230 278 301 355C659 374 874 564 874 656C874 701 828 713 789 713C639 713 418 567 241 383C144 390 70 434 70 510C70 607 194 722 390 722C446 722 505 710 533 705L539 721C495 733 435 744 377 744C279 744 200 722 138 677C76 633 45 578 45 513C45 482 50 388 218 361Z" stroke="rgb(144,19,254)" stroke-opacity="1" stroke-width="8" fill="rgb(144,19,254)" fill-opacity="1"></path></g></g></g></g><g><g><g><g transform="matrix(1,0,0,1,345.01666259765625,112.25)"><path transform="matrix(0.017,0,0,-0.017,0,0)" d="M286 646L392 650C454 650 494 641 495 626L503 537L527 537C530 600 537 651 548 689C526 691 498 692 481 692L440 691L275 689L246 689C221 689 181 690 143 691L94 692L91 664L147 662C171 661 182 652 182 635C182 621 178 589 173 559L98 125C81 33 81 32 40 28L4 25L0 -3L34 -2C74 -1 106 0 127 0C145 0 174 -1 213 -2L265 -3L268 25L204 28C177 29 168 37 168 57C168 63 169 74 170 78L206 301L323 301C350 301 381 300 429 298L455 297L474 342L470 349C389 345 329 343 251 343L214 343L260 614C263 630 264 635 269 646Z" stroke="rgb(74,144,226)" stroke-opacity="1" stroke-width="8" fill="rgb(74,144,226)" fill-opacity="1"></path></g></g></g></g><g><g><g><g transform="matrix(1,0,0,1,306.11663818359375,112.25)"><path transform="matrix(0.017,0,0,-0.017,0,0)" d="M434 653C511 653 565 639 621 603L621 519L648 519C653 576 661 619 675 665C592 695 535 706 466 706C374 706 301 683 229 632C112 548 50 424 50 274C50 87 159 -18 355 -18C412 -21 559 6 608 37C628 193 632 216 633 219C635 228 647 238 660 240L692 246L694 274C655 270 620 269 569 269C518 269 482 270 440 274L435 246L469 244C544 240 553 236 553 212C553 197 533 84 528 60C483 36 444 27 390 27C224 27 138 120 138 297C138 443 197 653 434 653Z" stroke="rgb(208,2,27)" stroke-opacity="1" stroke-width="8" fill="rgb(208,2,27)" fill-opacity="1"></path></g></g></g></g><g><g><g><g transform="matrix(1,0,0,1,344.11663818359375,230.8499755859375)"><path transform="matrix(0.017,0,0,-0.017,0,0)" d="M434 653C511 653 565 639 621 603L621 519L648 519C653 576 661 619 675 665C592 695 535 706 466 706C374 706 301 683 229 632C112 548 50 424 50 274C50 87 159 -18 355 -18C412 -21 559 6 608 37C628 193 632 216 633 219C635 228 647 238 660 240L692 246L694 274C655 270 620 269 569 269C518 269 482 270 440 274L435 246L469 244C544 240 553 236 553 212C553 197 533 84 528 60C483 36 444 27 390 27C224 27 138 120 138 297C138 443 197 653 434 653Z" stroke="rgb(208,2,27)" stroke-opacity="1" stroke-width="8" fill="rgb(208,2,27)" fill-opacity="1"></path></g></g></g></g><g><g><g><g transform="matrix(1,0,0,1,307.01666259765625,230.8499755859375)"><path transform="matrix(0.017,0,0,-0.017,0,0)" d="M286 646L392 650C454 650 494 641 495 626L503 537L527 537C530 600 537 651 548 689C526 691 498 692 481 692L440 691L275 689L246 689C221 689 181 690 143 691L94 692L91 664L147 662C171 661 182 652 182 635C182 621 178 589 173 559L98 125C81 33 81 32 40 28L4 25L0 -3L34 -2C74 -1 106 0 127 0C145 0 174 -1 213 -2L265 -3L268 25L204 28C177 29 168 37 168 57C168 63 169 74 170 78L206 301L323 301C350 301 381 300 429 298L455 297L474 342L470 349C389 345 329 343 251 343L214 343L260 614C263 630 264 635 269 646Z" stroke="rgb(74,144,226)" stroke-opacity="1" stroke-width="8" fill="rgb(74,144,226)" fill-opacity="1"></path></g></g></g></g><g><g><g><g transform="matrix(1,0,0,1,323.4000244140625,44.8499755859375)"><path transform="matrix(0.017,0,0,-0.017,0,0)" d="M180 15C128 15 73 20 73 45C73 56 91 76 154 76C218 76 265 60 318 40L318 39C274 24 230 15 180 15ZM897 440C897 245 737 15 520 15C468 15 415 29 389 38C522 98 610 184 680 276L719 328C784 416 840 482 889 530L889 529C897 495 897 467 897 440ZM587 733C327 733 172 566 172 423C172 354 217 273 355 273C528 273 649 404 687 560L671 573C628 421 493 293 343 293C252 293 205 343 205 409C205 543 384 706 611 706C746 706 839 652 876 557C672 417 523 119 347 51C302 71 232 98 156 98C106 98 45 85 45 45C40 11 110 -18 213 -5C267 0 290 5 351 23C374 17 441 -5 519 -5C576 -5 629 5 679 32C791 91 922 242 922 455C922 476 913 533 911 547C936 568 962 591 1050 639L1036 654C1015 644 950 612 897 577L897 576C875 618 801 733 587 733Z" stroke="rgb(245,166,35)" stroke-opacity="1" stroke-width="8" fill="rgb(245,166,35)" fill-opacity="1"></path></g></g></g></g><g><g><g><g transform="matrix(1,0,0,1,306.11663818359375,22.8499755859375)"><path transform="matrix(0.017,0,0,-0.017,0,0)" d="M434 653C511 653 565 639 621 603L621 519L648 519C653 576 661 619 675 665C592 695 535 706 466 706C374 706 301 683 229 632C112 548 50 424 50 274C50 87 159 -18 355 -18C412 -21 559 6 608 37C628 193 632 216 633 219C635 228 647 238 660 240L692 246L694 274C655 270 620 269 569 269C518 269 482 270 440 274L435 246L469 244C544 240 553 236 553 212C553 197 533 84 528 60C483 36 444 27 390 27C224 27 138 120 138 297C138 443 197 653 434 653Z" stroke="rgb(208,2,27)" stroke-opacity="1" stroke-width="8" fill="rgb(208,2,27)" fill-opacity="1"></path></g></g></g></g><g><g><g><g transform="matrix(1,0,0,1,345.01666259765625,22.8499755859375)"><path transform="matrix(0.017,0,0,-0.017,0,0)" d="M286 646L392 650C454 650 494 641 495 626L503 537L527 537C530 600 537 651 548 689C526 691 498 692 481 692L440 691L275 689L246 689C221 689 181 690 143 691L94 692L91 664L147 662C171 661 182 652 182 635C182 621 178 589 173 559L98 125C81 33 81 32 40 28L4 25L0 -3L34 -2C74 -1 106 0 127 0C145 0 174 -1 213 -2L265 -3L268 25L204 28C177 29 168 37 168 57C168 63 169 74 170 78L206 301L323 301C350 301 381 300 429 298L455 297L474 342L470 349C389 345 329 343 251 343L214 343L260 614C263 630 264 635 269 646Z" stroke="rgb(74,144,226)" stroke-opacity="1" stroke-width="8" fill="rgb(74,144,226)" fill-opacity="1"></path></g></g></g></g><g><g><g><g transform="matrix(1,0,0,1,307.01666259765625,141.8499755859375)"><path transform="matrix(0.017,0,0,-0.017,0,0)" d="M286 646L392 650C454 650 494 641 495 626L503 537L527 537C530 600 537 651 548 689C526 691 498 692 481 692L440 691L275 689L246 689C221 689 181 690 143 691L94 692L91 664L147 662C171 661 182 652 182 635C182 621 178 589 173 559L98 125C81 33 81 32 40 28L4 25L0 -3L34 -2C74 -1 106 0 127 0C145 0 174 -1 213 -2L265 -3L268 25L204 28C177 29 168 37 168 57C168 63 169 74 170 78L206 301L323 301C350 301 381 300 429 298L455 297L474 342L470 349C389 345 329 343 251 343L214 343L260 614C263 630 264 635 269 646Z" stroke="rgb(74,144,226)" stroke-opacity="1" stroke-width="8" fill="rgb(74,144,226)" fill-opacity="1"></path></g></g></g></g><g><g><g><g transform="matrix(1,0,0,1,344.11663818359375,141.8499755859375)"><path transform="matrix(0.017,0,0,-0.017,0,0)" d="M434 653C511 653 565 639 621 603L621 519L648 519C653 576 661 619 675 665C592 695 535 706 466 706C374 706 301 683 229 632C112 548 50 424 50 274C50 87 159 -18 355 -18C412 -21 559 6 608 37C628 193 632 216 633 219C635 228 647 238 660 240L692 246L694 274C655 270 620 269 569 269C518 269 482 270 440 274L435 246L469 244C544 240 553 236 553 212C553 197 533 84 528 60C483 36 444 27 390 27C224 27 138 120 138 297C138 443 197 653 434 653Z" stroke="rgb(208,2,27)" stroke-opacity="1" stroke-width="8" fill="rgb(208,2,27)" fill-opacity="1"></path></g></g></g></g><g><g><g><g transform="matrix(1,0,0,1,292.8499755859375,68.8499755859375)"><path transform="matrix(0.017,0,0,-0.017,0,0)" d="M791 693C823 693 848 684 848 648C848 625 828 594 789 557C693 462 476 384 323 380L323 379C534 615 696 693 791 693ZM218 361C124 239 110 171 110 122C110 66 130 -15 277 -15C425 -15 598 105 598 208C598 266 554 296 493 296C384 296 278 209 218 66L237 61C290 171 391 274 495 274C557 274 574 235 574 210C574 116 406 5 272 5C204 5 152 33 152 93C152 179 230 278 301 355C659 374 874 564 874 656C874 701 828 713 789 713C639 713 418 567 241 383C144 390 70 434 70 510C70 607 194 722 390 722C446 722 505 710 533 705L539 721C495 733 435 744 377 744C279 744 200 722 138 677C76 633 45 578 45 513C45 482 50 388 218 361Z" stroke="rgb(144,19,254)" stroke-opacity="1" stroke-width="8" fill="rgb(144,19,254)" fill-opacity="1"></path></g></g></g></g><g><g><g><g transform="matrix(1,0,0,1,355.38330078125,187.8499755859375)"><path transform="matrix(0.017,0,0,-0.017,0,0)" d="M180 15C128 15 73 20 73 45C73 56 91 76 154 76C218 76 265 60 318 40L318 39C274 24 230 15 180 15ZM897 440C897 245 737 15 520 15C468 15 415 29 389 38C522 98 610 184 680 276L719 328C784 416 840 482 889 530L889 529C897 495 897 467 897 440ZM587 733C327 733 172 566 172 423C172 354 217 273 355 273C528 273 649 404 687 560L671 573C628 421 493 293 343 293C252 293 205 343 205 409C205 543 384 706 611 706C746 706 839 652 876 557C672 417 523 119 347 51C302 71 232 98 156 98C106 98 45 85 45 45C40 11 110 -18 213 -5C267 0 290 5 351 23C374 17 441 -5 519 -5C576 -5 629 5 679 32C791 91 922 242 922 455C922 476 913 533 911 547C936 568 962 591 1050 639L1036 654C1015 644 950 612 897 577L897 576C875 618 801 733 587 733Z" stroke="rgb(245,166,35)" stroke-opacity="1" stroke-width="8" fill="rgb(245,166,35)" fill-opacity="1"></path></g></g></g></g><g><g><g><g transform="matrix(1,0,0,1,322.8499755859375,162.449951171875)"><path transform="matrix(0.017,0,0,-0.017,0,0)" d="M791 693C823 693 848 684 848 648C848 625 828 594 789 557C693 462 476 384 323 380L323 379C534 615 696 693 791 693ZM218 361C124 239 110 171 110 122C110 66 130 -15 277 -15C425 -15 598 105 598 208C598 266 554 296 493 296C384 296 278 209 218 66L237 61C290 171 391 274 495 274C557 274 574 235 574 210C574 116 406 5 272 5C204 5 152 33 152 93C152 179 230 278 301 355C659 374 874 564 874 656C874 701 828 713 789 713C639 713 418 567 241 383C144 390 70 434 70 510C70 607 194 722 390 722C446 722 505 710 533 705L539 721C495 733 435 744 377 744C279 744 200 722 138 677C76 633 45 578 45 513C45 482 50 388 218 361Z" stroke="rgb(144,19,254)" stroke-opacity="1" stroke-width="8" fill="rgb(144,19,254)" fill-opacity="1"></path></g></g></g></g><g><g><g><g transform="matrix(1,0,0,1,289.38330078125,187.449951171875)"><path transform="matrix(0.017,0,0,-0.017,0,0)" d="M180 15C128 15 73 20 73 45C73 56 91 76 154 76C218 76 265 60 318 40L318 39C274 24 230 15 180 15ZM897 440C897 245 737 15 520 15C468 15 415 29 389 38C522 98 610 184 680 276L719 328C784 416 840 482 889 530L889 529C897 495 897 467 897 440ZM587 733C327 733 172 566 172 423C172 354 217 273 355 273C528 273 649 404 687 560L671 573C628 421 493 293 343 293C252 293 205 343 205 409C205 543 384 706 611 706C746 706 839 652 876 557C672 417 523 119 347 51C302 71 232 98 156 98C106 98 45 85 45 45C40 11 110 -18 213 -5C267 0 290 5 351 23C374 17 441 -5 519 -5C576 -5 629 5 679 32C791 91 922 242 922 455C922 476 913 533 911 547C936 568 962 591 1050 639L1036 654C1015 644 950 612 897 577L897 576C875 618 801 733 587 733Z" stroke="rgb(245,166,35)" stroke-opacity="1" stroke-width="8" fill="rgb(245,166,35)" fill-opacity="1"></path></g></g></g></g><g><g><g><g transform="matrix(1,0,0,1,323.88330078125,90.25)"><path transform="matrix(0.017,0,0,-0.017,0,0)" d="M180 15C128 15 73 20 73 45C73 56 91 76 154 76C218 76 265 60 318 40L318 39C274 24 230 15 180 15ZM897 440C897 245 737 15 520 15C468 15 415 29 389 38C522 98 610 184 680 276L719 328C784 416 840 482 889 530L889 529C897 495 897 467 897 440ZM587 733C327 733 172 566 172 423C172 354 217 273 355 273C528 273 649 404 687 560L671 573C628 421 493 293 343 293C252 293 205 343 205 409C205 543 384 706 611 706C746 706 839 652 876 557C672 417 523 119 347 51C302 71 232 98 156 98C106 98 45 85 45 45C40 11 110 -18 213 -5C267 0 290 5 351 23C374 17 441 -5 519 -5C576 -5 629 5 679 32C791 91 922 242 922 455C922 476 913 533 911 547C936 568 962 591 1050 639L1036 654C1015 644 950 612 897 577L897 576C875 618 801 733 587 733Z" stroke="rgb(245,166,35)" stroke-opacity="1" stroke-width="8" fill="rgb(245,166,35)" fill-opacity="1"></path></g></g></g></g><g><g><g><g transform="matrix(1,0,0,1,322.8499755859375,209.449951171875)"><path transform="matrix(0.017,0,0,-0.017,0,0)" d="M791 693C823 693 848 684 848 648C848 625 828 594 789 557C693 462 476 384 323 380L323 379C534 615 696 693 791 693ZM218 361C124 239 110 171 110 122C110 66 130 -15 277 -15C425 -15 598 105 598 208C598 266 554 296 493 296C384 296 278 209 218 66L237 61C290 171 391 274 495 274C557 274 574 235 574 210C574 116 406 5 272 5C204 5 152 33 152 93C152 179 230 278 301 355C659 374 874 564 874 656C874 701 828 713 789 713C639 713 418 567 241 383C144 390 70 434 70 510C70 607 194 722 390 722C446 722 505 710 533 705L539 721C495 733 435 744 377 744C279 744 200 722 138 677C76 633 45 578 45 513C45 482 50 388 218 361Z" stroke="rgb(144,19,254)" stroke-opacity="1" stroke-width="8" fill="rgb(144,19,254)" fill-opacity="1"></path></g></g></g></g><g><g><g><g transform="matrix(1,0,0,1,197.83331298828125,67.93331298828124)"><path transform="matrix(0.0136,0,0,-0.0136,0,0)" d="M149 473C116 473 20 404 -9 383L-11 377L-3 366L3 364C19 375 55 401 75 401C86 401 91 393 93 382C103 316 94 73 87 -6L97 -16C117 -6 137 3 158 9L163 18C159 137 121 426 293 426C338 426 368 402 376 356C394 244 376 12 371 -101C365 -216 373 -234 381 -266L392 -275C414 -264 437 -255 462 -251L464 -238C400 -117 463 277 447 382C438 444 393 473 334 473C258 473 204 424 169 367L162 369C166 427 177 473 149 473Z" stroke="rgb(80,227,194)" stroke-opacity="1" stroke-width="8" fill="rgb(80,227,194)" fill-opacity="1"></path></g></g><g><g><g><g><g transform="matrix(1,0,0,1,205.83331298828125,62.653300781249996)"><path transform="matrix(0.009519999999999999,0,0,-0.009519999999999999,0,0)" d="M500 219L500 277L0 277L0 219ZM917 -3L917 27L865 30C810 33 800 44 800 96L800 700L559 598L566 548L716 614L716 96C716 44 705 33 651 30L595 27L595 -3C749 0 749 0 760 0C791 0 901 -3 917 -3Z" stroke="rgb(80,227,194)" stroke-opacity="1" stroke-width="8" fill="rgb(80,227,194)" fill-opacity="1"></path></g></g></g></g></g></g></g><g><g><g><g transform="matrix(1,0,0,1,197.76666259765625,55.299981689453126)"><path transform="matrix(0.0136,0,0,-0.0136,0,0)" d="M149 473C116 473 20 404 -9 383L-11 377L-3 366L3 364C19 375 55 401 75 401C86 401 91 393 93 382C103 316 94 73 87 -6L97 -16C117 -6 137 3 158 9L163 18C159 137 121 426 293 426C338 426 368 402 376 356C394 244 376 12 371 -101C365 -216 373 -234 381 -266L392 -275C414 -264 437 -255 462 -251L464 -238C400 -117 463 277 447 382C438 444 393 473 334 473C258 473 204 424 169 367L162 369C166 427 177 473 149 473Z" stroke="rgb(80,227,194)" stroke-opacity="1" stroke-width="8" fill="rgb(80,227,194)" fill-opacity="1"></path></g></g></g></g><g><g><g><g transform="matrix(1,0,0,1,196.76666259765625,174.54998779296875)"><path transform="matrix(0.017,0,0,-0.017,0,0)" d="M439 408C402 445 350 466 301 466C137 466 26 307 50 149C68 39 144 -12 249 -12C324 -12 388 26 438 70L427 88C387 56 336 36 278 36C206 36 131 120 130 211C154 214 176 214 198 214L255 214C284 214 314 214 344 213L349 219L358 253C281 251 206 252 130 252C134 336 172 422 270 422C329 422 375 409 389 354L408 355Z" stroke="rgb(248,231,28)" stroke-opacity="1" stroke-width="8" fill="rgb(248,231,28)" fill-opacity="1"></path></g></g></g></g><g><g><g><g transform="matrix(1,0,0,1,197.26666259765625,187.8499755859375)"><path transform="matrix(0.017,0,0,-0.017,0,0)" d="M439 408C402 445 350 466 301 466C137 466 26 307 50 149C68 39 144 -12 249 -12C324 -12 388 26 438 70L427 88C387 56 336 36 278 36C206 36 131 120 130 211C154 214 176 214 198 214L255 214C284 214 314 214 344 213L349 219L358 253C281 251 206 252 130 252C134 336 172 422 270 422C329 422 375 409 389 354L408 355Z" stroke="rgb(248,231,28)" stroke-opacity="1" stroke-width="8" fill="rgb(248,231,28)" fill-opacity="1"></path></g></g><g><g><g><g><g transform="matrix(1,0,0,1,206.433349609375,181.3166259765625)"><path transform="matrix(0.0119,0,0,-0.0119,0,0)" d="M500 219L500 277L0 277L0 219ZM917 -3L917 27L865 30C810 33 800 44 800 96L800 700L559 598L566 548L716 614L716 96C716 44 705 33 651 30L595 27L595 -3C749 0 749 0 760 0C791 0 901 -3 917 -3Z" stroke="rgb(248,231,28)" stroke-opacity="1" stroke-width="8" fill="rgb(248,231,28)" fill-opacity="1"></path></g></g></g></g></g></g></g><g><g><g><g transform="matrix(1,0,0,1,260.566650390625,67.68331909179688)"><path transform="matrix(0.017,0,0,-0.017,0,0)" d="M604 347L604 406L65 406L65 347ZM604 134L604 193L65 193L65 134Z" stroke="rgb(155,155,155)" stroke-opacity="1" stroke-width="8" fill="rgb(155,155,155)" fill-opacity="1"></path></g></g></g></g><g><g><g><g transform="matrix(1,0,0,1,261.566650390625,185.683349609375)"><path transform="matrix(0.017,0,0,-0.017,0,0)" d="M604 347L604 406L65 406L65 347ZM604 134L604 193L65 193L65 134Z" stroke="rgb(155,155,155)" stroke-opacity="1" stroke-width="8" fill="rgb(155,155,155)" fill-opacity="1"></path></g></g></g></g><g><g><g><g transform="matrix(1,0,0,1,389.566650390625,67.68331909179688)"><path transform="matrix(0.017,0,0,-0.017,0,0)" d="M604 347L604 406L65 406L65 347ZM604 134L604 193L65 193L65 134Z" stroke="rgb(155,155,155)" stroke-opacity="1" stroke-width="8" fill="rgb(155,155,155)" fill-opacity="1"></path></g></g></g></g><g><g><g><g transform="matrix(1,0,0,1,390.566650390625,185.683349609375)"><path transform="matrix(0.017,0,0,-0.017,0,0)" d="M604 347L604 406L65 406L65 347ZM604 134L604 193L65 193L65 134Z" stroke="rgb(155,155,155)" stroke-opacity="1" stroke-width="8" fill="rgb(155,155,155)" fill-opacity="1"></path></g></g></g></g></svg>
</svg>
