<svg xmlns="http://www.w3.org/2000/svg" xmlns:xlink="http://www.w3.org/1999/xlink" x="0" y="0" width="661.5333251953125" height="302.0333251953125" style="
        width:661.5333251953125px;
        height:302.0333251953125px;
        background: transparent;
        fill: none;
">
        
        
        <svg xmlns="http://www.w3.org/2000/svg" class="role-diagram-draw-area"><g class="shapes-region" style="stroke: black; fill: none;"><g/></g><g><g class="connection-group"><g class="arrow-line"><path class="connection real" stroke-dasharray="" d="  M251.73,28.2 L302.23,28.2" style="stroke: rgb(126, 211, 33); stroke-opacity: 1; stroke-width: 1px; fill: none; fill-opacity: 1;"/><g stroke="rgb(126,211,33)" stroke-opacity="1" transform="matrix(-1,1.2246467991473532e-16,-1.2246467991473532e-16,-1,304.225,28.19999999999999)" style="stroke: rgb(126, 211, 33); stroke-width: 1px;"><path d=" M10.93,-3.29 Q4.96,-0.45 0,0 Q4.96,0.45 10.93,3.29"/></g></g></g><g class="connection-group"><g class="arrow-line"><path class="connection real" stroke-dasharray="" d="  M342.89,40.2 L400.01,86.93" style="stroke: rgb(208, 2, 27); stroke-opacity: 1; stroke-width: 1px; fill: none; fill-opacity: 1;"/><g stroke="rgb(208,2,27)" stroke-opacity="1" transform="matrix(-0.7739507437561497,-0.6332458023858529,0.6332458023858529,-0.7739507437561497,401.55833333333334,88.19999999999999)" style="stroke: rgb(208, 2, 27); stroke-width: 1px;"><path d=" M10.93,-3.29 Q4.96,-0.45 0,0 Q4.96,0.45 10.93,3.29"/></g></g></g><g class="connection-group"><g class="arrow-line"><path class="connection real" stroke-dasharray="" d="  M251.73,210.2 L301.23,210.2" style="stroke: rgb(126, 211, 33); stroke-opacity: 1; stroke-width: 1px; fill: none; fill-opacity: 1;"/><g stroke="rgb(126,211,33)" stroke-opacity="1" transform="matrix(-1,1.2246467991473532e-16,-1.2246467991473532e-16,-1,303.225,210.20000000000007)" style="stroke: rgb(126, 211, 33); stroke-width: 1px;"><path d=" M10.93,-3.29 Q4.96,-0.45 0,0 Q4.96,0.45 10.93,3.29"/></g></g></g><g class="connection-group"><g class="arrow-line"><path class="connection real" stroke-dasharray="" d="  M342.06,222.2 L399.84,268.94" style="stroke: rgb(208, 2, 27); stroke-opacity: 1; stroke-width: 1px; fill: none; fill-opacity: 1;"/><g stroke="rgb(208,2,27)" stroke-opacity="1" transform="matrix(-0.7774753662986408,-0.6289133921286733,0.6289133921286733,-0.7774753662986408,401.39166666666677,270.2)" style="stroke: rgb(208, 2, 27); stroke-width: 1px;"><path d=" M10.93,-3.29 Q4.96,-0.45 0,0 Q4.96,0.45 10.93,3.29"/></g></g></g><g class="connection-group"><g class="arrow-line"><path class="connection real" stroke-dasharray="" d="  M228.23,40.2 L228.23,196.2" style="stroke: rgb(80, 227, 194); stroke-opacity: 1; stroke-width: 1px; fill: none; fill-opacity: 1;"/><g stroke="rgb(80,227,194)" stroke-opacity="1" transform="matrix(-1.8369701987210297e-16,-1,1,-1.8369701987210297e-16,228.22500000000002,198.20000000000007)" style="stroke: rgb(80, 227, 194); stroke-width: 1px;"><path d=" M10.93,-3.29 Q4.96,-0.45 0,0 Q4.96,0.45 10.93,3.29"/></g></g></g><g class="connection-group"><g class="arrow-line"><path class="connection real" stroke-dasharray="" d="  M416.23,112.2 L416.23,268.2" style="stroke: rgb(245, 166, 35); stroke-opacity: 1; stroke-width: 1px; fill: none; fill-opacity: 1;"/><g stroke="rgb(245,166,35)" stroke-opacity="1" transform="matrix(-1.8369701987210297e-16,-1,1,-1.8369701987210297e-16,416.225,270.2000000000001)" style="stroke: rgb(245, 166, 35); stroke-width: 1px;"><path d=" M10.93,-3.29 Q4.96,-0.45 0,0 Q4.96,0.45 10.93,3.29"/></g></g></g><g class="connection-group"><g class="arrow-line"><path class="connection real" stroke-dasharray="" d="  M237.11,40.2 L406.15,268.59" style="stroke: rgb(248, 231, 28); stroke-opacity: 1; stroke-width: 1px; fill: none; fill-opacity: 1;"/><g stroke="rgb(248,231,28)" stroke-opacity="1" transform="matrix(-0.5949630771802847,-0.8037530322133576,0.8037530322133576,-0.5949630771802847,407.34311023622047,270.20000000000005)" style="stroke: rgb(248, 231, 28); stroke-width: 1px;"><path d=" M10.93,-3.29 Q4.96,-0.45 0,0 Q4.96,0.45 10.93,3.29"/></g></g></g><g class="connection-group"><g class="arrow-line"><path class="connection real" stroke-dasharray="" d="  M251.73,37.2 L386.36,88.76" style="stroke: rgb(248, 231, 28); stroke-width: 1px; fill: none; fill-opacity: 1; stroke-opacity: 1;"/><g stroke="rgb(248,231,28)" transform="matrix(-0.9338303869951268,-0.3577161001751694,0.3577161001751694,-0.9338303869951268,388.225,89.47659574468088)" style="stroke: rgb(248, 231, 28); stroke-width: 1px;" stroke-opacity="1"><path d=" M10.93,-3.29 Q4.96,-0.45 0,0 Q4.96,0.45 10.93,3.29"/></g></g></g><g class="connection-group"><g class="arrow-line"><path class="connection real" stroke-dasharray="" d="  M251.73,219.2 L386.36,270.76" style="stroke: rgb(248, 231, 28); stroke-width: 1px; fill: none; fill-opacity: 1; stroke-opacity: 1;"/><g stroke="rgb(248,231,28)" transform="matrix(-0.9338303869951268,-0.3577161001751694,0.3577161001751694,-0.9338303869951268,388.2250000000001,271.4765957446808)" style="stroke: rgb(248, 231, 28); stroke-width: 1px;" stroke-opacity="1"><path d=" M10.93,-3.29 Q4.96,-0.45 0,0 Q4.96,0.45 10.93,3.29"/></g></g></g><g class="connection-group"><g class="arrow-line"><path class="connection real" stroke-dasharray="6 6" d="  M328.16,40.2 L327.3,196.2" style="stroke: rgb(248, 231, 28); stroke-width: 1px; fill: none; fill-opacity: 1; stroke-opacity: 1;"/><g stroke="rgb(248,231,28)" transform="matrix(0.005410494283529964,-0.9999853631686856,0.9999853631686856,0.005410494283529964,327.2909340659341,198.2)" style="stroke: rgb(248, 231, 28); stroke-width: 1px;" stroke-opacity="1"><path d=" M10.93,-3.29 Q4.96,-0.45 0,0 Q4.96,0.45 10.93,3.29"/></g></g></g></g><g/><g/></svg>
        <svg xmlns="http://www.w3.org/2000/svg" xmlns:xlink="http://www.w3.org/1999/xlink" width="660" height="300.5" style="width:660px;height:300.5px;font-family:Asana-Math, Asana;background:transparent;"><g><g><g><g transform="matrix(1,0,0,1,208.45001220703125,35.23333740234375)"><path transform="matrix(0.017,0,0,-0.017,0,0)" d="M371 664L374 692L350 692L260 689C244 689 226 689 183 690L119 692L116 664L163 662C187 661 198 653 198 635C198 621 195 592 189 559L116 125C99 33 98 32 58 28L17 25L13 -3L55 -2C103 -1 126 0 145 0L242 -3L268 -3L271 25L222 28C195 30 186 37 186 57C186 63 187 74 188 78L231 340C381 169 404 140 509 -3L578 0C614 -1 620 -2 646 -3L646 27L626 27C603 27 583 39 562 65L316 367L608 640C624 655 645 665 662 665L683 665L683 692L660 691C639 690 623 689 615 689C605 689 589 690 568 691L548 692L548 663C548 655 538 642 510 614C466 569 297 403 233 353L278 613C285 651 292 658 329 661ZM952 646L1058 650C1120 650 1160 641 1161 626L1169 537L1193 537C1196 600 1203 651 1214 689C1192 691 1164 692 1147 692L1106 691L941 689L912 689C887 689 847 690 809 691L760 692L757 664L813 662C837 661 848 652 848 635C848 621 844 589 839 559L764 125C747 33 747 32 706 28L670 25L666 -3L700 -2C740 -1 772 0 793 0C811 0 840 -1 879 -2L931 -3L934 25L870 28C843 29 834 37 834 57C834 63 835 74 836 78L872 301L989 301C1016 301 1047 300 1095 298L1121 297L1140 342L1136 349C1055 345 995 343 917 343L880 343L926 614C929 630 930 635 935 646Z" stroke="rgb(80,227,194)" stroke-opacity="1" stroke-width="8" fill="rgb(80,227,194)" fill-opacity="1"></path></g></g><g><g transform="matrix(1,0,0,1,229.20001220703125,35)"><path transform="matrix(0.017,0,0,-0.017,0,0)" d="M146 266C146 526 243 632 301 700L282 726C225 675 60 542 60 266C60 159 85 58 133 -32C168 -99 200 -138 282 -215L301 -194C255 -137 146 -15 146 266Z" stroke="rgb(80,227,194)" stroke-opacity="1" stroke-width="8" fill="rgb(80,227,194)" fill-opacity="1"></path></g></g><g><g transform="matrix(1,0,0,1,234.85003662109375,35.23333740234375)"><path transform="matrix(0.017,0,0,-0.017,0,0)" d="M271 204L242 77C238 60 236 42 236 26C236 4 245 -9 260 -9C283 -9 324 17 406 85L399 106C375 86 346 59 324 59C315 59 309 68 309 82C309 87 309 90 310 93L402 472L392 481L359 463C318 478 301 482 274 482C246 482 226 477 199 464C137 433 104 403 79 354C35 265 4 145 4 67C4 23 19 -11 38 -11C75 -11 155 41 271 204ZM319 414C297 305 278 253 244 201C187 117 126 59 94 59C82 59 76 72 76 99C76 163 104 280 139 360C163 415 186 433 234 433C257 433 275 429 319 414Z" stroke="rgb(80,227,194)" stroke-opacity="1" stroke-width="8" fill="rgb(80,227,194)" fill-opacity="1"></path></g></g><g><g transform="matrix(1,0,0,1,242.38336181640625,35)"><path transform="matrix(0.017,0,0,-0.017,0,0)" d="M51 726L32 700C87 636 187 526 187 266C187 -10 83 -131 32 -194L51 -215C104 -165 273 -23 273 265C273 542 108 675 51 726Z" stroke="rgb(80,227,194)" stroke-opacity="1" stroke-width="8" fill="rgb(80,227,194)" fill-opacity="1"></path></g></g></g></g><g><g><g><g transform="matrix(1,0,0,1,307.9666748046875,35.23333740234375)"><path transform="matrix(0.017,0,0,-0.017,0,0)" d="M349 664L352 692L238 689C222 689 204 689 161 690L97 692L94 664L141 662C165 661 176 653 176 635L81 55C77 37 65 30 21 23L16 -3L57 -2C88 -1 150 0 170 0C170 0 467 -1 467 -1C467 -1 500 0 500 0C499 25 510 103 523 165L492 165L475 103C466 71 457 54 448 49C435 44 371 39 304 39C255 39 228 40 162 46C165 64 256 605 256 613C263 651 270 658 307 661ZM989 653C1066 653 1120 639 1176 603L1176 519L1203 519C1208 576 1216 619 1230 665C1147 695 1090 706 1021 706C929 706 856 683 784 632C667 548 605 424 605 274C605 87 714 -18 910 -18C967 -21 1114 6 1163 37C1183 193 1187 216 1188 219C1190 228 1202 238 1215 240L1247 246L1249 274C1210 270 1175 269 1124 269C1073 269 1037 270 995 274L990 246L1024 244C1099 240 1108 236 1108 212C1108 197 1088 84 1083 60C1038 36 999 27 945 27C779 27 693 120 693 297C693 443 752 653 989 653Z" stroke="rgb(248,231,28)" stroke-opacity="1" stroke-width="8" fill="rgb(248,231,28)" fill-opacity="1"></path></g></g><g><g transform="matrix(1,0,0,1,329.6500244140625,35)"><path transform="matrix(0.017,0,0,-0.017,0,0)" d="M146 266C146 526 243 632 301 700L282 726C225 675 60 542 60 266C60 159 85 58 133 -32C168 -99 200 -138 282 -215L301 -194C255 -137 146 -15 146 266Z" stroke="rgb(248,231,28)" stroke-opacity="1" stroke-width="8" fill="rgb(248,231,28)" fill-opacity="1"></path></g></g><g><g transform="matrix(1,0,0,1,335.316650390625,35.23333740234375)"><path transform="matrix(0.017,0,0,-0.017,0,0)" d="M271 204L242 77C238 60 236 42 236 26C236 4 245 -9 260 -9C283 -9 324 17 406 85L399 106C375 86 346 59 324 59C315 59 309 68 309 82C309 87 309 90 310 93L402 472L392 481L359 463C318 478 301 482 274 482C246 482 226 477 199 464C137 433 104 403 79 354C35 265 4 145 4 67C4 23 19 -11 38 -11C75 -11 155 41 271 204ZM319 414C297 305 278 253 244 201C187 117 126 59 94 59C82 59 76 72 76 99C76 163 104 280 139 360C163 415 186 433 234 433C257 433 275 429 319 414Z" stroke="rgb(248,231,28)" stroke-opacity="1" stroke-width="8" fill="rgb(248,231,28)" fill-opacity="1"></path></g></g><g><g transform="matrix(1,0,0,1,342.85003662109375,35)"><path transform="matrix(0.017,0,0,-0.017,0,0)" d="M51 726L32 700C87 636 187 526 187 266C187 -10 83 -131 32 -194L51 -215C104 -165 273 -23 273 265C273 542 108 675 51 726Z" stroke="rgb(248,231,28)" stroke-opacity="1" stroke-width="8" fill="rgb(248,231,28)" fill-opacity="1"></path></g></g></g></g><g><g><g><g transform="matrix(1,0,0,1,251.83331298828125,23.033340454101562)"><path transform="matrix(0.017,0,0,-0.017,0,0)" d="M88 473C23 473 -6 426 -31 377C-30 371 -26 368 -23 365L-17 366C2 394 19 412 56 412C151 412 182 290 193 220C207 136 211 53 209 -29C173 -86 142 -181 127 -249C132 -257 138 -265 143 -273C163 -268 182 -260 201 -251C215 -183 225 -106 227 -36C275 43 329 120 383 194C427 254 501 353 488 438C486 450 484 467 468 467C451 467 420 453 404 446L400 435C406 419 413 401 416 385C432 279 288 108 240 19L234 23C259 393 176 473 88 473ZM1143 97L1136 97C1120 79 1101 55 1074 55C1029 55 1013 184 1007 216C1046 278 1081 343 1106 413C1097 428 1087 444 1076 459L1065 459C1063 391 1028 315 1002 257L995 260C984 337 982 473 870 473C702 473 605 243 629 93C638 33 667 -16 735 -16C827 -16 905 64 953 131L956 128C962 95 973 -16 1024 -16C1070 -16 1126 54 1152 84C1151 91 1148 94 1143 97ZM949 164C915 113 849 28 778 28C725 28 707 70 700 115C686 202 719 437 828 437C915 437 936 252 945 192Z" stroke="rgb(126,211,33)" stroke-opacity="1" stroke-width="8" fill="rgb(126,211,33)" fill-opacity="1"></path></g></g><g><g transform="matrix(1,0,0,1,271.816650390625,22.800003051757812)"><path transform="matrix(0.017,0,0,-0.017,0,0)" d="M146 266C146 526 243 632 301 700L282 726C225 675 60 542 60 266C60 159 85 58 133 -32C168 -99 200 -138 282 -215L301 -194C255 -137 146 -15 146 266Z" stroke="rgb(126,211,33)" stroke-opacity="1" stroke-width="8" fill="rgb(126,211,33)" fill-opacity="1"></path></g></g><g><g transform="matrix(1,0,0,1,277.4666748046875,23.033340454101562)"><path transform="matrix(0.017,0,0,-0.017,0,0)" d="M271 204L242 77C238 60 236 42 236 26C236 4 245 -9 260 -9C283 -9 324 17 406 85L399 106C375 86 346 59 324 59C315 59 309 68 309 82C309 87 309 90 310 93L402 472L392 481L359 463C318 478 301 482 274 482C246 482 226 477 199 464C137 433 104 403 79 354C35 265 4 145 4 67C4 23 19 -11 38 -11C75 -11 155 41 271 204ZM319 414C297 305 278 253 244 201C187 117 126 59 94 59C82 59 76 72 76 99C76 163 104 280 139 360C163 415 186 433 234 433C257 433 275 429 319 414Z" stroke="rgb(126,211,33)" stroke-opacity="1" stroke-width="8" fill="rgb(126,211,33)" fill-opacity="1"></path></g></g><g><g transform="matrix(1,0,0,1,285,22.800003051757812)"><path transform="matrix(0.017,0,0,-0.017,0,0)" d="M51 726L32 700C87 636 187 526 187 266C187 -10 83 -131 32 -194L51 -215C104 -165 273 -23 273 265C273 542 108 675 51 726Z" stroke="rgb(126,211,33)" stroke-opacity="1" stroke-width="8" fill="rgb(126,211,33)" fill-opacity="1"></path></g></g></g></g><g><g><g><g transform="matrix(1,0,0,1,392.10003662109375,107.23333740234375)"><path transform="matrix(0.017,0,0,-0.017,0,0)" d="M937 664L950 695C922 699 775 701 773 692L688 536L442 114L292 692C269 686 146 690 125 692L122 664L148 662C200 658 218 648 218 622C218 616 72 100 70 93C54 41 39 28 -16 23L-19 -3L20 -2C54 -1 79 0 93 0C107 0 133 -1 168 -2L203 -3L206 25L168 28C136 30 119 40 119 55C119 65 121 78 126 96L250 560L399 -18L422 -18L479 86L718 500L770 587L733 67C729 39 717 32 666 28L635 25L632 -3L679 -2C721 -1 751 0 766 0C782 0 812 -1 853 -2L899 -3L902 25L865 28C829 31 811 42 811 63L812 100L853 631C855 650 870 660 899 662ZM1174 385L1216 613C1223 652 1230 658 1267 661L1309 664L1312 692L1288 692L1198 689C1182 689 1164 689 1121 690L1057 692L1054 664L1101 662C1125 661 1136 653 1136 635C1136 621 1132 590 1127 559L1053 125C1036 33 1035 32 995 28L954 25L950 -3L992 -2C1040 -1 1063 0 1082 0L1179 -3L1205 -3L1208 25L1159 28C1132 30 1123 37 1123 58C1123 67 1124 74 1127 93L1169 340L1230 341C1292 342 1334 343 1353 343C1372 343 1413 342 1476 341L1537 340L1497 125C1488 76 1481 48 1476 42C1472 34 1461 30 1439 28L1389 25L1385 -3L1441 -2C1485 -1 1515 0 1526 0C1542 0 1573 -1 1616 -2L1658 -3L1661 25L1603 28C1577 29 1567 37 1567 58C1567 67 1568 76 1571 93L1663 613C1670 652 1676 657 1714 661L1750 664L1753 692L1737 692L1646 689C1631 689 1610 689 1566 690L1503 692L1500 664L1548 662C1572 661 1583 653 1583 635C1583 621 1579 589 1574 559L1544 385Z" stroke="rgb(245,166,35)" stroke-opacity="1" stroke-width="8" fill="rgb(245,166,35)" fill-opacity="1"></path></g></g><g><g transform="matrix(1,0,0,1,421.5333251953125,107)"><path transform="matrix(0.017,0,0,-0.017,0,0)" d="M146 266C146 526 243 632 301 700L282 726C225 675 60 542 60 266C60 159 85 58 133 -32C168 -99 200 -138 282 -215L301 -194C255 -137 146 -15 146 266Z" stroke="rgb(245,166,35)" stroke-opacity="1" stroke-width="8" fill="rgb(245,166,35)" fill-opacity="1"></path></g></g><g><g transform="matrix(1,0,0,1,427.183349609375,107.23333740234375)"><path transform="matrix(0.017,0,0,-0.017,0,0)" d="M271 204L242 77C238 60 236 42 236 26C236 4 245 -9 260 -9C283 -9 324 17 406 85L399 106C375 86 346 59 324 59C315 59 309 68 309 82C309 87 309 90 310 93L402 472L392 481L359 463C318 478 301 482 274 482C246 482 226 477 199 464C137 433 104 403 79 354C35 265 4 145 4 67C4 23 19 -11 38 -11C75 -11 155 41 271 204ZM319 414C297 305 278 253 244 201C187 117 126 59 94 59C82 59 76 72 76 99C76 163 104 280 139 360C163 415 186 433 234 433C257 433 275 429 319 414Z" stroke="rgb(245,166,35)" stroke-opacity="1" stroke-width="8" fill="rgb(245,166,35)" fill-opacity="1"></path></g></g><g><g transform="matrix(1,0,0,1,434.70001220703125,107)"><path transform="matrix(0.017,0,0,-0.017,0,0)" d="M51 726L32 700C87 636 187 526 187 266C187 -10 83 -131 32 -194L51 -215C104 -165 273 -23 273 265C273 542 108 675 51 726Z" stroke="rgb(245,166,35)" stroke-opacity="1" stroke-width="8" fill="rgb(245,166,35)" fill-opacity="1"></path></g></g></g></g><g transform="matrix(0.7630068834719113,0.6463903586645466,-0.6463903586645466,0.7630068834719113,125.42913470935372,-232.1035368432468)"><g><g><g transform="matrix(1,0,0,1,361.25,62.03334045410156)"><path transform="matrix(0.017,0,0,-0.017,0,0)" d="M465 287C436 470 196 506 178 622C171 664 221 679 256 679C291 679 326 668 359 649L368 655C363 667 357 681 349 694C324 699 299 702 274 702C213 702 98 676 111 597C120 539 199 493 246 464L246 458C108 426 38 304 61 160C78 53 133 -16 246 -16C403 -16 489 139 465 287ZM393 269C408 174 385 12 267 12C183 12 148 99 137 167C116 295 141 411 268 448C339 399 380 350 393 269ZM955 205C940 301 857 358 766 360L765 369C852 400 923 479 906 581C896 644 857 680 793 680C762 680 733 673 705 661C555 595 570 439 570 289C571 102 576 -87 565 -273L574 -283C598 -274 622 -265 648 -259C637 -162 634 -66 631 29C669 -2 714 -15 758 -15C879 -15 975 80 955 205ZM873 208C888 115 852 12 746 12C689 12 647 45 638 103C622 205 619 573 699 629C714 640 732 646 751 646C803 646 833 606 840 558C858 446 777 371 671 371C670 359 669 347 665 337L674 329C689 336 704 339 721 339C803 339 860 291 873 208Z" stroke="rgb(208,2,27)" stroke-opacity="1" stroke-width="8" fill="rgb(208,2,27)" fill-opacity="1"></path></g></g><g><g transform="matrix(1,0,0,1,378.4000244140625,61.80000305175781)"><path transform="matrix(0.017,0,0,-0.017,0,0)" d="M146 266C146 526 243 632 301 700L282 726C225 675 60 542 60 266C60 159 85 58 133 -32C168 -99 200 -138 282 -215L301 -194C255 -137 146 -15 146 266Z" stroke="rgb(208,2,27)" stroke-opacity="1" stroke-width="8" fill="rgb(208,2,27)" fill-opacity="1"></path></g></g><g><g transform="matrix(1,0,0,1,384.04998779296875,62.03334045410156)"><path transform="matrix(0.017,0,0,-0.017,0,0)" d="M271 204L242 77C238 60 236 42 236 26C236 4 245 -9 260 -9C283 -9 324 17 406 85L399 106C375 86 346 59 324 59C315 59 309 68 309 82C309 87 309 90 310 93L402 472L392 481L359 463C318 478 301 482 274 482C246 482 226 477 199 464C137 433 104 403 79 354C35 265 4 145 4 67C4 23 19 -11 38 -11C75 -11 155 41 271 204ZM319 414C297 305 278 253 244 201C187 117 126 59 94 59C82 59 76 72 76 99C76 163 104 280 139 360C163 415 186 433 234 433C257 433 275 429 319 414Z" stroke="rgb(208,2,27)" stroke-opacity="1" stroke-width="8" fill="rgb(208,2,27)" fill-opacity="1"></path></g></g><g><g transform="matrix(1,0,0,1,391.566650390625,61.80000305175781)"><path transform="matrix(0.017,0,0,-0.017,0,0)" d="M51 726L32 700C87 636 187 526 187 266C187 -10 83 -131 32 -194L51 -215C104 -165 273 -23 273 265C273 542 108 675 51 726Z" stroke="rgb(208,2,27)" stroke-opacity="1" stroke-width="8" fill="rgb(208,2,27)" fill-opacity="1"></path></g></g></g></g><g><g><g><g transform="matrix(1,0,0,1,252.66668701171875,205.0333251953125)"><path transform="matrix(0.017,0,0,-0.017,0,0)" d="M88 473C23 473 -6 426 -31 377C-30 371 -26 368 -23 365L-17 366C2 394 19 412 56 412C151 412 182 290 193 220C207 136 211 53 209 -29C173 -86 142 -181 127 -249C132 -257 138 -265 143 -273C163 -268 182 -260 201 -251C215 -183 225 -106 227 -36C275 43 329 120 383 194C427 254 501 353 488 438C486 450 484 467 468 467C451 467 420 453 404 446L400 435C406 419 413 401 416 385C432 279 288 108 240 19L234 23C259 393 176 473 88 473ZM1143 97L1136 97C1120 79 1101 55 1074 55C1029 55 1013 184 1007 216C1046 278 1081 343 1106 413C1097 428 1087 444 1076 459L1065 459C1063 391 1028 315 1002 257L995 260C984 337 982 473 870 473C702 473 605 243 629 93C638 33 667 -16 735 -16C827 -16 905 64 953 131L956 128C962 95 973 -16 1024 -16C1070 -16 1126 54 1152 84C1151 91 1148 94 1143 97ZM949 164C915 113 849 28 778 28C725 28 707 70 700 115C686 202 719 437 828 437C915 437 936 252 945 192Z" stroke="rgb(126,211,33)" stroke-opacity="1" stroke-width="8" fill="rgb(126,211,33)" fill-opacity="1"></path></g></g><g><g transform="matrix(1,0,0,1,272.6500244140625,204.79998779296875)"><path transform="matrix(0.017,0,0,-0.017,0,0)" d="M146 266C146 526 243 632 301 700L282 726C225 675 60 542 60 266C60 159 85 58 133 -32C168 -99 200 -138 282 -215L301 -194C255 -137 146 -15 146 266Z" stroke="rgb(126,211,33)" stroke-opacity="1" stroke-width="8" fill="rgb(126,211,33)" fill-opacity="1"></path></g></g><g><g transform="matrix(1,0,0,1,278.29998779296875,205.0333251953125)"><path transform="matrix(0.017,0,0,-0.017,0,0)" d="M235 722L223 733C171 707 135 698 63 691L59 670L107 670C131 670 141 663 141 646C141 639 140 628 139 622L38 71C37 68 37 64 37 61C37 22 85 -11 140 -11C177 -11 228 8 271 39C367 107 433 244 433 376C433 414 424 453 412 468C405 477 392 482 377 482C353 482 323 474 295 460C244 433 211 403 149 324ZM322 424C348 424 361 401 361 352C361 288 340 202 310 137C277 68 237 36 183 36C137 36 112 59 112 101C112 135 127 276 208 361C241 395 293 424 322 424Z" stroke="rgb(126,211,33)" stroke-opacity="1" stroke-width="8" fill="rgb(126,211,33)" fill-opacity="1"></path></g></g><g><g transform="matrix(1,0,0,1,286.1500244140625,204.79998779296875)"><path transform="matrix(0.017,0,0,-0.017,0,0)" d="M51 726L32 700C87 636 187 526 187 266C187 -10 83 -131 32 -194L51 -215C104 -165 273 -23 273 265C273 542 108 675 51 726Z" stroke="rgb(126,211,33)" stroke-opacity="1" stroke-width="8" fill="rgb(126,211,33)" fill-opacity="1"></path></g></g></g></g><g><g><g><g transform="matrix(1,0,0,1,208.2833251953125,217.23333740234375)"><path transform="matrix(0.017,0,0,-0.017,0,0)" d="M371 664L374 692L350 692L260 689C244 689 226 689 183 690L119 692L116 664L163 662C187 661 198 653 198 635C198 621 195 592 189 559L116 125C99 33 98 32 58 28L17 25L13 -3L55 -2C103 -1 126 0 145 0L242 -3L268 -3L271 25L222 28C195 30 186 37 186 57C186 63 187 74 188 78L231 340C381 169 404 140 509 -3L578 0C614 -1 620 -2 646 -3L646 27L626 27C603 27 583 39 562 65L316 367L608 640C624 655 645 665 662 665L683 665L683 692L660 691C639 690 623 689 615 689C605 689 589 690 568 691L548 692L548 663C548 655 538 642 510 614C466 569 297 403 233 353L278 613C285 651 292 658 329 661ZM952 646L1058 650C1120 650 1160 641 1161 626L1169 537L1193 537C1196 600 1203 651 1214 689C1192 691 1164 692 1147 692L1106 691L941 689L912 689C887 689 847 690 809 691L760 692L757 664L813 662C837 661 848 652 848 635C848 621 844 589 839 559L764 125C747 33 747 32 706 28L670 25L666 -3L700 -2C740 -1 772 0 793 0C811 0 840 -1 879 -2L931 -3L934 25L870 28C843 29 834 37 834 57C834 63 835 74 836 78L872 301L989 301C1016 301 1047 300 1095 298L1121 297L1140 342L1136 349C1055 345 995 343 917 343L880 343L926 614C929 630 930 635 935 646Z" stroke="rgb(80,227,194)" stroke-opacity="1" stroke-width="8" fill="rgb(80,227,194)" fill-opacity="1"></path></g></g><g><g transform="matrix(1,0,0,1,229.0333251953125,217)"><path transform="matrix(0.017,0,0,-0.017,0,0)" d="M146 266C146 526 243 632 301 700L282 726C225 675 60 542 60 266C60 159 85 58 133 -32C168 -99 200 -138 282 -215L301 -194C255 -137 146 -15 146 266Z" stroke="rgb(80,227,194)" stroke-opacity="1" stroke-width="8" fill="rgb(80,227,194)" fill-opacity="1"></path></g></g><g><g transform="matrix(1,0,0,1,234.683349609375,217.23333740234375)"><path transform="matrix(0.017,0,0,-0.017,0,0)" d="M235 722L223 733C171 707 135 698 63 691L59 670L107 670C131 670 141 663 141 646C141 639 140 628 139 622L38 71C37 68 37 64 37 61C37 22 85 -11 140 -11C177 -11 228 8 271 39C367 107 433 244 433 376C433 414 424 453 412 468C405 477 392 482 377 482C353 482 323 474 295 460C244 433 211 403 149 324ZM322 424C348 424 361 401 361 352C361 288 340 202 310 137C277 68 237 36 183 36C137 36 112 59 112 101C112 135 127 276 208 361C241 395 293 424 322 424Z" stroke="rgb(80,227,194)" stroke-opacity="1" stroke-width="8" fill="rgb(80,227,194)" fill-opacity="1"></path></g></g><g><g transform="matrix(1,0,0,1,242.5333251953125,217)"><path transform="matrix(0.017,0,0,-0.017,0,0)" d="M51 726L32 700C87 636 187 526 187 266C187 -10 83 -131 32 -194L51 -215C104 -165 273 -23 273 265C273 542 108 675 51 726Z" stroke="rgb(80,227,194)" stroke-opacity="1" stroke-width="8" fill="rgb(80,227,194)" fill-opacity="1"></path></g></g></g></g><g><g><g><g transform="matrix(1,0,0,1,306.816650390625,217.23333740234375)"><path transform="matrix(0.017,0,0,-0.017,0,0)" d="M349 664L352 692L238 689C222 689 204 689 161 690L97 692L94 664L141 662C165 661 176 653 176 635L81 55C77 37 65 30 21 23L16 -3L57 -2C88 -1 150 0 170 0C170 0 467 -1 467 -1C467 -1 500 0 500 0C499 25 510 103 523 165L492 165L475 103C466 71 457 54 448 49C435 44 371 39 304 39C255 39 228 40 162 46C165 64 256 605 256 613C263 651 270 658 307 661ZM989 653C1066 653 1120 639 1176 603L1176 519L1203 519C1208 576 1216 619 1230 665C1147 695 1090 706 1021 706C929 706 856 683 784 632C667 548 605 424 605 274C605 87 714 -18 910 -18C967 -21 1114 6 1163 37C1183 193 1187 216 1188 219C1190 228 1202 238 1215 240L1247 246L1249 274C1210 270 1175 269 1124 269C1073 269 1037 270 995 274L990 246L1024 244C1099 240 1108 236 1108 212C1108 197 1088 84 1083 60C1038 36 999 27 945 27C779 27 693 120 693 297C693 443 752 653 989 653Z" stroke="rgb(248,231,28)" stroke-opacity="1" stroke-width="8" fill="rgb(248,231,28)" fill-opacity="1"></path></g></g><g><g transform="matrix(1,0,0,1,328.5,217)"><path transform="matrix(0.017,0,0,-0.017,0,0)" d="M146 266C146 526 243 632 301 700L282 726C225 675 60 542 60 266C60 159 85 58 133 -32C168 -99 200 -138 282 -215L301 -194C255 -137 146 -15 146 266Z" stroke="rgb(248,231,28)" stroke-opacity="1" stroke-width="8" fill="rgb(248,231,28)" fill-opacity="1"></path></g></g><g><g transform="matrix(1,0,0,1,334.1500244140625,217.23333740234375)"><path transform="matrix(0.017,0,0,-0.017,0,0)" d="M235 722L223 733C171 707 135 698 63 691L59 670L107 670C131 670 141 663 141 646C141 639 140 628 139 622L38 71C37 68 37 64 37 61C37 22 85 -11 140 -11C177 -11 228 8 271 39C367 107 433 244 433 376C433 414 424 453 412 468C405 477 392 482 377 482C353 482 323 474 295 460C244 433 211 403 149 324ZM322 424C348 424 361 401 361 352C361 288 340 202 310 137C277 68 237 36 183 36C137 36 112 59 112 101C112 135 127 276 208 361C241 395 293 424 322 424Z" stroke="rgb(248,231,28)" stroke-opacity="1" stroke-width="8" fill="rgb(248,231,28)" fill-opacity="1"></path></g></g><g><g transform="matrix(1,0,0,1,342,217)"><path transform="matrix(0.017,0,0,-0.017,0,0)" d="M51 726L32 700C87 636 187 526 187 266C187 -10 83 -131 32 -194L51 -215C104 -165 273 -23 273 265C273 542 108 675 51 726Z" stroke="rgb(248,231,28)" stroke-opacity="1" stroke-width="8" fill="rgb(248,231,28)" fill-opacity="1"></path></g></g></g></g><g><g><g><g transform="matrix(1,0,0,1,391.95001220703125,289.23333740234375)"><path transform="matrix(0.017,0,0,-0.017,0,0)" d="M937 664L950 695C922 699 775 701 773 692L688 536L442 114L292 692C269 686 146 690 125 692L122 664L148 662C200 658 218 648 218 622C218 616 72 100 70 93C54 41 39 28 -16 23L-19 -3L20 -2C54 -1 79 0 93 0C107 0 133 -1 168 -2L203 -3L206 25L168 28C136 30 119 40 119 55C119 65 121 78 126 96L250 560L399 -18L422 -18L479 86L718 500L770 587L733 67C729 39 717 32 666 28L635 25L632 -3L679 -2C721 -1 751 0 766 0C782 0 812 -1 853 -2L899 -3L902 25L865 28C829 31 811 42 811 63L812 100L853 631C855 650 870 660 899 662ZM1174 385L1216 613C1223 652 1230 658 1267 661L1309 664L1312 692L1288 692L1198 689C1182 689 1164 689 1121 690L1057 692L1054 664L1101 662C1125 661 1136 653 1136 635C1136 621 1132 590 1127 559L1053 125C1036 33 1035 32 995 28L954 25L950 -3L992 -2C1040 -1 1063 0 1082 0L1179 -3L1205 -3L1208 25L1159 28C1132 30 1123 37 1123 58C1123 67 1124 74 1127 93L1169 340L1230 341C1292 342 1334 343 1353 343C1372 343 1413 342 1476 341L1537 340L1497 125C1488 76 1481 48 1476 42C1472 34 1461 30 1439 28L1389 25L1385 -3L1441 -2C1485 -1 1515 0 1526 0C1542 0 1573 -1 1616 -2L1658 -3L1661 25L1603 28C1577 29 1567 37 1567 58C1567 67 1568 76 1571 93L1663 613C1670 652 1676 657 1714 661L1750 664L1753 692L1737 692L1646 689C1631 689 1610 689 1566 690L1503 692L1500 664L1548 662C1572 661 1583 653 1583 635C1583 621 1579 589 1574 559L1544 385Z" stroke="rgb(245,166,35)" stroke-opacity="1" stroke-width="8" fill="rgb(245,166,35)" fill-opacity="1"></path></g></g><g><g transform="matrix(1,0,0,1,421.36663818359375,289)"><path transform="matrix(0.017,0,0,-0.017,0,0)" d="M146 266C146 526 243 632 301 700L282 726C225 675 60 542 60 266C60 159 85 58 133 -32C168 -99 200 -138 282 -215L301 -194C255 -137 146 -15 146 266Z" stroke="rgb(245,166,35)" stroke-opacity="1" stroke-width="8" fill="rgb(245,166,35)" fill-opacity="1"></path></g></g><g><g transform="matrix(1,0,0,1,427.01666259765625,289.23333740234375)"><path transform="matrix(0.017,0,0,-0.017,0,0)" d="M235 722L223 733C171 707 135 698 63 691L59 670L107 670C131 670 141 663 141 646C141 639 140 628 139 622L38 71C37 68 37 64 37 61C37 22 85 -11 140 -11C177 -11 228 8 271 39C367 107 433 244 433 376C433 414 424 453 412 468C405 477 392 482 377 482C353 482 323 474 295 460C244 433 211 403 149 324ZM322 424C348 424 361 401 361 352C361 288 340 202 310 137C277 68 237 36 183 36C137 36 112 59 112 101C112 135 127 276 208 361C241 395 293 424 322 424Z" stroke="rgb(245,166,35)" stroke-opacity="1" stroke-width="8" fill="rgb(245,166,35)" fill-opacity="1"></path></g></g><g><g transform="matrix(1,0,0,1,434.86663818359375,289)"><path transform="matrix(0.017,0,0,-0.017,0,0)" d="M51 726L32 700C87 636 187 526 187 266C187 -10 83 -131 32 -194L51 -215C104 -165 273 -23 273 265C273 542 108 675 51 726Z" stroke="rgb(245,166,35)" stroke-opacity="1" stroke-width="8" fill="rgb(245,166,35)" fill-opacity="1"></path></g></g></g></g><g><g><g><g transform="matrix(1,0,0,1,184.5333251953125,121.23333740234375)"><path transform="matrix(0.017,0,0,-0.017,0,0)" d="M371 664L374 692L350 692L260 689C244 689 226 689 183 690L119 692L116 664L163 662C187 661 198 653 198 635C198 621 195 592 189 559L116 125C99 33 98 32 58 28L17 25L13 -3L55 -2C103 -1 126 0 145 0L242 -3L268 -3L271 25L222 28C195 30 186 37 186 57C186 63 187 74 188 78L231 340C381 169 404 140 509 -3L578 0C614 -1 620 -2 646 -3L646 27L626 27C603 27 583 39 562 65L316 367L608 640C624 655 645 665 662 665L683 665L683 692L660 691C639 690 623 689 615 689C605 689 589 690 568 691L548 692L548 663C548 655 538 642 510 614C466 569 297 403 233 353L278 613C285 651 292 658 329 661ZM952 646L1058 650C1120 650 1160 641 1161 626L1169 537L1193 537C1196 600 1203 651 1214 689C1192 691 1164 692 1147 692L1106 691L941 689L912 689C887 689 847 690 809 691L760 692L757 664L813 662C837 661 848 652 848 635C848 621 844 589 839 559L764 125C747 33 747 32 706 28L670 25L666 -3L700 -2C740 -1 772 0 793 0C811 0 840 -1 879 -2L931 -3L934 25L870 28C843 29 834 37 834 57C834 63 835 74 836 78L872 301L989 301C1016 301 1047 300 1095 298L1121 297L1140 342L1136 349C1055 345 995 343 917 343L880 343L926 614C929 630 930 635 935 646Z" stroke="rgb(80,227,194)" stroke-opacity="1" stroke-width="8" fill="rgb(80,227,194)" fill-opacity="1"></path></g></g><g><g transform="matrix(1,0,0,1,205.2833251953125,121)"><path transform="matrix(0.017,0,0,-0.017,0,0)" d="M146 266C146 526 243 632 301 700L282 726C225 675 60 542 60 266C60 159 85 58 133 -32C168 -99 200 -138 282 -215L301 -194C255 -137 146 -15 146 266Z" stroke="rgb(80,227,194)" stroke-opacity="1" stroke-width="8" fill="rgb(80,227,194)" fill-opacity="1"></path></g></g><g><g transform="matrix(1,0,0,1,210.933349609375,121.23333740234375)"><path transform="matrix(0.017,0,0,-0.017,0,0)" d="M345 437L329 437L350 549C366 635 394 673 440 673C470 673 497 658 512 634L522 638C527 654 537 685 545 705L550 720C534 727 503 733 480 733C469 733 453 730 445 726C421 715 339 654 316 630C294 608 282 578 271 521L256 442C215 422 195 414 170 405L165 383L246 383L237 327C207 132 170 -54 148 -123C130 -182 100 -213 64 -213C41 -213 30 -206 12 -184L-2 -188C-6 -211 -20 -259 -25 -268C-16 -273 -1 -276 10 -276C51 -276 105 -245 144 -198C215 -114 235 -18 319 383L423 383C427 402 434 425 440 439L436 446C407 439 408 437 345 437Z" stroke="rgb(80,227,194)" stroke-opacity="1" stroke-width="8" fill="rgb(80,227,194)" fill-opacity="1"></path></g></g><g><g transform="matrix(1,0,0,1,220.2833251953125,121)"><path transform="matrix(0.017,0,0,-0.017,0,0)" d="M51 726L32 700C87 636 187 526 187 266C187 -10 83 -131 32 -194L51 -215C104 -165 273 -23 273 265C273 542 108 675 51 726Z" stroke="rgb(80,227,194)" stroke-opacity="1" stroke-width="8" fill="rgb(80,227,194)" fill-opacity="1"></path></g></g></g></g><g><g><g><g transform="matrix(1,0,0,1,418.20001220703125,193.23333740234375)"><path transform="matrix(0.017,0,0,-0.017,0,0)" d="M937 664L950 695C922 699 775 701 773 692L688 536L442 114L292 692C269 686 146 690 125 692L122 664L148 662C200 658 218 648 218 622C218 616 72 100 70 93C54 41 39 28 -16 23L-19 -3L20 -2C54 -1 79 0 93 0C107 0 133 -1 168 -2L203 -3L206 25L168 28C136 30 119 40 119 55C119 65 121 78 126 96L250 560L399 -18L422 -18L479 86L718 500L770 587L733 67C729 39 717 32 666 28L635 25L632 -3L679 -2C721 -1 751 0 766 0C782 0 812 -1 853 -2L899 -3L902 25L865 28C829 31 811 42 811 63L812 100L853 631C855 650 870 660 899 662ZM1174 385L1216 613C1223 652 1230 658 1267 661L1309 664L1312 692L1288 692L1198 689C1182 689 1164 689 1121 690L1057 692L1054 664L1101 662C1125 661 1136 653 1136 635C1136 621 1132 590 1127 559L1053 125C1036 33 1035 32 995 28L954 25L950 -3L992 -2C1040 -1 1063 0 1082 0L1179 -3L1205 -3L1208 25L1159 28C1132 30 1123 37 1123 58C1123 67 1124 74 1127 93L1169 340L1230 341C1292 342 1334 343 1353 343C1372 343 1413 342 1476 341L1537 340L1497 125C1488 76 1481 48 1476 42C1472 34 1461 30 1439 28L1389 25L1385 -3L1441 -2C1485 -1 1515 0 1526 0C1542 0 1573 -1 1616 -2L1658 -3L1661 25L1603 28C1577 29 1567 37 1567 58C1567 67 1568 76 1571 93L1663 613C1670 652 1676 657 1714 661L1750 664L1753 692L1737 692L1646 689C1631 689 1610 689 1566 690L1503 692L1500 664L1548 662C1572 661 1583 653 1583 635C1583 621 1579 589 1574 559L1544 385Z" stroke="rgb(245,166,35)" stroke-opacity="1" stroke-width="8" fill="rgb(245,166,35)" fill-opacity="1"></path></g></g><g><g transform="matrix(1,0,0,1,447.61663818359375,193)"><path transform="matrix(0.017,0,0,-0.017,0,0)" d="M146 266C146 526 243 632 301 700L282 726C225 675 60 542 60 266C60 159 85 58 133 -32C168 -99 200 -138 282 -215L301 -194C255 -137 146 -15 146 266Z" stroke="rgb(245,166,35)" stroke-opacity="1" stroke-width="8" fill="rgb(245,166,35)" fill-opacity="1"></path></g></g><g><g transform="matrix(1,0,0,1,453.26666259765625,193.23333740234375)"><path transform="matrix(0.017,0,0,-0.017,0,0)" d="M345 437L329 437L350 549C366 635 394 673 440 673C470 673 497 658 512 634L522 638C527 654 537 685 545 705L550 720C534 727 503 733 480 733C469 733 453 730 445 726C421 715 339 654 316 630C294 608 282 578 271 521L256 442C215 422 195 414 170 405L165 383L246 383L237 327C207 132 170 -54 148 -123C130 -182 100 -213 64 -213C41 -213 30 -206 12 -184L-2 -188C-6 -211 -20 -259 -25 -268C-16 -273 -1 -276 10 -276C51 -276 105 -245 144 -198C215 -114 235 -18 319 383L423 383C427 402 434 425 440 439L436 446C407 439 408 437 345 437Z" stroke="rgb(245,166,35)" stroke-opacity="1" stroke-width="8" fill="rgb(245,166,35)" fill-opacity="1"></path></g></g><g><g transform="matrix(1,0,0,1,462.61663818359375,193)"><path transform="matrix(0.017,0,0,-0.017,0,0)" d="M51 726L32 700C87 636 187 526 187 266C187 -10 83 -131 32 -194L51 -215C104 -165 273 -23 273 265C273 542 108 675 51 726Z" stroke="rgb(245,166,35)" stroke-opacity="1" stroke-width="8" fill="rgb(245,166,35)" fill-opacity="1"></path></g></g></g></g><g transform="matrix(0.6012573237717266,0.7990554615362198,-0.7990554615362198,0.6012573237717266,223.3621558517949,-181.20382453045164)"><g><g><g transform="matrix(1,0,0,1,242.01666259765625,140)"><path transform="matrix(0.017,0,0,-0.017,0,0)" d="M146 266C146 526 243 632 301 700L282 726C225 675 60 542 60 266C60 159 85 58 133 -32C168 -99 200 -138 282 -215L301 -194C255 -137 146 -15 146 266Z" stroke="rgb(248,231,28)" stroke-opacity="1" stroke-width="8" fill="rgb(248,231,28)" fill-opacity="1"></path></g></g><g><g transform="matrix(1,0,0,1,247.66668701171875,140.23333740234375)"><path transform="matrix(0.017,0,0,-0.017,0,0)" d="M465 287C436 470 196 506 178 622C171 664 221 679 256 679C291 679 326 668 359 649L368 655C363 667 357 681 349 694C324 699 299 702 274 702C213 702 98 676 111 597C120 539 199 493 246 464L246 458C108 426 38 304 61 160C78 53 133 -16 246 -16C403 -16 489 139 465 287ZM393 269C408 174 385 12 267 12C183 12 148 99 137 167C116 295 141 411 268 448C339 399 380 350 393 269Z" stroke="rgb(248,231,28)" stroke-opacity="1" stroke-width="8" fill="rgb(248,231,28)" fill-opacity="1"></path></g></g><g><g transform="matrix(1,0,0,1,259.51666259765625,140.23333740234375)"><path transform="matrix(0.017,0,0,-0.017,0,0)" d="M124 319C94 319 67 291 67 261C67 231 94 203 123 203C155 203 183 230 183 260C183 291 155 319 124 319Z" stroke="rgb(248,231,28)" stroke-opacity="1" stroke-width="8" fill="rgb(248,231,28)" fill-opacity="1"></path></g></g><g><g transform="matrix(1,0,0,1,267.1500244140625,140.23333740234375)"><path transform="matrix(0.017,0,0,-0.017,0,0)" d="M88 473C23 473 -6 426 -31 377C-30 371 -26 368 -23 365L-17 366C2 394 19 412 56 412C151 412 182 290 193 220C207 136 211 53 209 -29C173 -86 142 -181 127 -249C132 -257 138 -265 143 -273C163 -268 182 -260 201 -251C215 -183 225 -106 227 -36C275 43 329 120 383 194C427 254 501 353 488 438C486 450 484 467 468 467C451 467 420 453 404 446L400 435C406 419 413 401 416 385C432 279 288 108 240 19L234 23C259 393 176 473 88 473Z" stroke="rgb(248,231,28)" stroke-opacity="1" stroke-width="8" fill="rgb(248,231,28)" fill-opacity="1"></path></g></g><g><g transform="matrix(1,0,0,1,277.0333251953125,140)"><path transform="matrix(0.017,0,0,-0.017,0,0)" d="M51 726L32 700C87 636 187 526 187 266C187 -10 83 -131 32 -194L51 -215C104 -165 273 -23 273 265C273 542 108 675 51 726Z" stroke="rgb(248,231,28)" stroke-opacity="1" stroke-width="8" fill="rgb(248,231,28)" fill-opacity="1"></path></g></g><g><g transform="matrix(1,0,0,1,282.66668701171875,140)"><path transform="matrix(0.017,0,0,-0.017,0,0)" d="M146 266C146 526 243 632 301 700L282 726C225 675 60 542 60 266C60 159 85 58 133 -32C168 -99 200 -138 282 -215L301 -194C255 -137 146 -15 146 266Z" stroke="rgb(248,231,28)" stroke-opacity="1" stroke-width="8" fill="rgb(248,231,28)" fill-opacity="1"></path></g></g><g><g transform="matrix(1,0,0,1,288.33331298828125,140.23333740234375)"><path transform="matrix(0.017,0,0,-0.017,0,0)" d="M458 205C443 301 360 358 269 360L268 369C355 400 426 479 409 581C399 644 360 680 296 680C265 680 236 673 208 661C58 595 73 439 73 289C74 102 79 -87 68 -273L77 -283C101 -274 125 -265 151 -259C140 -162 137 -66 134 29C172 -2 217 -15 261 -15C382 -15 478 80 458 205ZM376 208C391 115 355 12 249 12C192 12 150 45 141 103C125 205 122 573 202 629C217 640 235 646 254 646C306 646 336 606 343 558C361 446 280 371 174 371C173 359 172 347 168 337L177 329C192 336 207 339 224 339C306 339 363 291 376 208Z" stroke="rgb(248,231,28)" stroke-opacity="1" stroke-width="8" fill="rgb(248,231,28)" fill-opacity="1"></path></g></g><g><g transform="matrix(1,0,0,1,300.433349609375,140.23333740234375)"><path transform="matrix(0.017,0,0,-0.017,0,0)" d="M124 319C94 319 67 291 67 261C67 231 94 203 123 203C155 203 183 230 183 260C183 291 155 319 124 319Z" stroke="rgb(248,231,28)" stroke-opacity="1" stroke-width="8" fill="rgb(248,231,28)" fill-opacity="1"></path></g></g><g><g transform="matrix(1,0,0,1,308.066650390625,140.23333740234375)"><path transform="matrix(0.017,0,0,-0.017,0,0)" d="M562 97L555 97C539 79 520 55 493 55C448 55 432 184 426 216C465 278 500 343 525 413C516 428 506 444 495 459L484 459C482 391 447 315 421 257L414 260C403 337 401 473 289 473C121 473 24 243 48 93C57 33 86 -16 154 -16C246 -16 324 64 372 131L375 128C381 95 392 -16 443 -16C489 -16 545 54 571 84C570 91 567 94 562 97ZM368 164C334 113 268 28 197 28C144 28 126 70 119 115C105 202 138 437 247 437C334 437 355 252 364 192Z" stroke="rgb(248,231,28)" stroke-opacity="1" stroke-width="8" fill="rgb(248,231,28)" fill-opacity="1"></path></g></g><g><g transform="matrix(1,0,0,1,318.16668701171875,140)"><path transform="matrix(0.017,0,0,-0.017,0,0)" d="M51 726L32 700C87 636 187 526 187 266C187 -10 83 -131 32 -194L51 -215C104 -165 273 -23 273 265C273 542 108 675 51 726Z" stroke="rgb(248,231,28)" stroke-opacity="1" stroke-width="8" fill="rgb(248,231,28)" fill-opacity="1"></path></g></g><g><g transform="matrix(1,0,0,1,323.816650390625,140)"><path transform="matrix(0.017,0,0,-0.017,0,0)" d="M146 266C146 526 243 632 301 700L282 726C225 675 60 542 60 266C60 159 85 58 133 -32C168 -99 200 -138 282 -215L301 -194C255 -137 146 -15 146 266Z" stroke="rgb(248,231,28)" stroke-opacity="1" stroke-width="8" fill="rgb(248,231,28)" fill-opacity="1"></path></g></g><g><g transform="matrix(1,0,0,1,329.45001220703125,140.23333740234375)"><path transform="matrix(0.017,0,0,-0.017,0,0)" d="M345 437L329 437L350 549C366 635 394 673 440 673C470 673 497 658 512 634L522 638C527 654 537 685 545 705L550 720C534 727 503 733 480 733C469 733 453 730 445 726C421 715 339 654 316 630C294 608 282 578 271 521L256 442C215 422 195 414 170 405L165 383L246 383L237 327C207 132 170 -54 148 -123C130 -182 100 -213 64 -213C41 -213 30 -206 12 -184L-2 -188C-6 -211 -20 -259 -25 -268C-16 -273 -1 -276 10 -276C51 -276 105 -245 144 -198C215 -114 235 -18 319 383L423 383C427 402 434 425 440 439L436 446C407 439 408 437 345 437Z" stroke="rgb(248,231,28)" stroke-opacity="1" stroke-width="8" fill="rgb(248,231,28)" fill-opacity="1"></path></g></g><g><g transform="matrix(1,0,0,1,338.816650390625,140)"><path transform="matrix(0.017,0,0,-0.017,0,0)" d="M51 726L32 700C87 636 187 526 187 266C187 -10 83 -131 32 -194L51 -215C104 -165 273 -23 273 265C273 542 108 675 51 726Z" stroke="rgb(248,231,28)" stroke-opacity="1" stroke-width="8" fill="rgb(248,231,28)" fill-opacity="1"></path></g></g></g></g><g transform="matrix(0.7630068834719113,0.6463903586645466,-0.6463903586645466,0.7630068834719113,241.54041459637992,-188.79298412824835)"><g><g><g transform="matrix(1,0,0,1,360.08331298828125,242.0333251953125)"><path transform="matrix(0.017,0,0,-0.017,0,0)" d="M465 287C436 470 196 506 178 622C171 664 221 679 256 679C291 679 326 668 359 649L368 655C363 667 357 681 349 694C324 699 299 702 274 702C213 702 98 676 111 597C120 539 199 493 246 464L246 458C108 426 38 304 61 160C78 53 133 -16 246 -16C403 -16 489 139 465 287ZM393 269C408 174 385 12 267 12C183 12 148 99 137 167C116 295 141 411 268 448C339 399 380 350 393 269ZM955 205C940 301 857 358 766 360L765 369C852 400 923 479 906 581C896 644 857 680 793 680C762 680 733 673 705 661C555 595 570 439 570 289C571 102 576 -87 565 -273L574 -283C598 -274 622 -265 648 -259C637 -162 634 -66 631 29C669 -2 714 -15 758 -15C879 -15 975 80 955 205ZM873 208C888 115 852 12 746 12C689 12 647 45 638 103C622 205 619 573 699 629C714 640 732 646 751 646C803 646 833 606 840 558C858 446 777 371 671 371C670 359 669 347 665 337L674 329C689 336 704 339 721 339C803 339 860 291 873 208Z" stroke="rgb(208,2,27)" stroke-opacity="1" stroke-width="8" fill="rgb(208,2,27)" fill-opacity="1"></path></g></g><g><g transform="matrix(1,0,0,1,377.23333740234375,241.79998779296875)"><path transform="matrix(0.017,0,0,-0.017,0,0)" d="M146 266C146 526 243 632 301 700L282 726C225 675 60 542 60 266C60 159 85 58 133 -32C168 -99 200 -138 282 -215L301 -194C255 -137 146 -15 146 266Z" stroke="rgb(208,2,27)" stroke-opacity="1" stroke-width="8" fill="rgb(208,2,27)" fill-opacity="1"></path></g></g><g><g transform="matrix(1,0,0,1,382.88336181640625,242.0333251953125)"><path transform="matrix(0.017,0,0,-0.017,0,0)" d="M235 722L223 733C171 707 135 698 63 691L59 670L107 670C131 670 141 663 141 646C141 639 140 628 139 622L38 71C37 68 37 64 37 61C37 22 85 -11 140 -11C177 -11 228 8 271 39C367 107 433 244 433 376C433 414 424 453 412 468C405 477 392 482 377 482C353 482 323 474 295 460C244 433 211 403 149 324ZM322 424C348 424 361 401 361 352C361 288 340 202 310 137C277 68 237 36 183 36C137 36 112 59 112 101C112 135 127 276 208 361C241 395 293 424 322 424Z" stroke="rgb(208,2,27)" stroke-opacity="1" stroke-width="8" fill="rgb(208,2,27)" fill-opacity="1"></path></g></g><g><g transform="matrix(1,0,0,1,390.73333740234375,241.79998779296875)"><path transform="matrix(0.017,0,0,-0.017,0,0)" d="M51 726L32 700C87 636 187 526 187 266C187 -10 83 -131 32 -194L51 -215C104 -165 273 -23 273 265C273 542 108 675 51 726Z" stroke="rgb(208,2,27)" stroke-opacity="1" stroke-width="8" fill="rgb(208,2,27)" fill-opacity="1"></path></g></g></g></g><g transform="matrix(0.9288742131985405,0.3703953240185308,-0.3703953240185308,0.9288742131985405,51.86925038546832,-115.71479262192975)"><g><g><g transform="matrix(1,0,0,1,276.91668701171875,84)"><path transform="matrix(0.017,0,0,-0.017,0,0)" d="M146 266C146 526 243 632 301 700L282 726C225 675 60 542 60 266C60 159 85 58 133 -32C168 -99 200 -138 282 -215L301 -194C255 -137 146 -15 146 266Z" stroke="rgb(248,231,28)" stroke-opacity="1" stroke-width="8" fill="rgb(248,231,28)" fill-opacity="1"></path></g></g><g><g transform="matrix(1,0,0,1,282.566650390625,84.23333740234375)"><path transform="matrix(0.017,0,0,-0.017,0,0)" d="M465 287C436 470 196 506 178 622C171 664 221 679 256 679C291 679 326 668 359 649L368 655C363 667 357 681 349 694C324 699 299 702 274 702C213 702 98 676 111 597C120 539 199 493 246 464L246 458C108 426 38 304 61 160C78 53 133 -16 246 -16C403 -16 489 139 465 287ZM393 269C408 174 385 12 267 12C183 12 148 99 137 167C116 295 141 411 268 448C339 399 380 350 393 269Z" stroke="rgb(248,231,28)" stroke-opacity="1" stroke-width="8" fill="rgb(248,231,28)" fill-opacity="1"></path></g></g><g><g transform="matrix(1,0,0,1,294.41668701171875,84.23333740234375)"><path transform="matrix(0.017,0,0,-0.017,0,0)" d="M124 319C94 319 67 291 67 261C67 231 94 203 123 203C155 203 183 230 183 260C183 291 155 319 124 319Z" stroke="rgb(248,231,28)" stroke-opacity="1" stroke-width="8" fill="rgb(248,231,28)" fill-opacity="1"></path></g></g><g><g transform="matrix(1,0,0,1,302.04998779296875,84.23333740234375)"><path transform="matrix(0.017,0,0,-0.017,0,0)" d="M88 473C23 473 -6 426 -31 377C-30 371 -26 368 -23 365L-17 366C2 394 19 412 56 412C151 412 182 290 193 220C207 136 211 53 209 -29C173 -86 142 -181 127 -249C132 -257 138 -265 143 -273C163 -268 182 -260 201 -251C215 -183 225 -106 227 -36C275 43 329 120 383 194C427 254 501 353 488 438C486 450 484 467 468 467C451 467 420 453 404 446L400 435C406 419 413 401 416 385C432 279 288 108 240 19L234 23C259 393 176 473 88 473Z" stroke="rgb(248,231,28)" stroke-opacity="1" stroke-width="8" fill="rgb(248,231,28)" fill-opacity="1"></path></g></g><g><g transform="matrix(1,0,0,1,311.933349609375,84)"><path transform="matrix(0.017,0,0,-0.017,0,0)" d="M51 726L32 700C87 636 187 526 187 266C187 -10 83 -131 32 -194L51 -215C104 -165 273 -23 273 265C273 542 108 675 51 726Z" stroke="rgb(248,231,28)" stroke-opacity="1" stroke-width="8" fill="rgb(248,231,28)" fill-opacity="1"></path></g></g><g><g transform="matrix(1,0,0,1,317.58331298828125,84)"><path transform="matrix(0.017,0,0,-0.017,0,0)" d="M146 266C146 526 243 632 301 700L282 726C225 675 60 542 60 266C60 159 85 58 133 -32C168 -99 200 -138 282 -215L301 -194C255 -137 146 -15 146 266Z" stroke="rgb(248,231,28)" stroke-opacity="1" stroke-width="8" fill="rgb(248,231,28)" fill-opacity="1"></path></g></g><g><g transform="matrix(1,0,0,1,323.23333740234375,84.23333740234375)"><path transform="matrix(0.017,0,0,-0.017,0,0)" d="M458 205C443 301 360 358 269 360L268 369C355 400 426 479 409 581C399 644 360 680 296 680C265 680 236 673 208 661C58 595 73 439 73 289C74 102 79 -87 68 -273L77 -283C101 -274 125 -265 151 -259C140 -162 137 -66 134 29C172 -2 217 -15 261 -15C382 -15 478 80 458 205ZM376 208C391 115 355 12 249 12C192 12 150 45 141 103C125 205 122 573 202 629C217 640 235 646 254 646C306 646 336 606 343 558C361 446 280 371 174 371C173 359 172 347 168 337L177 329C192 336 207 339 224 339C306 339 363 291 376 208Z" stroke="rgb(248,231,28)" stroke-opacity="1" stroke-width="8" fill="rgb(248,231,28)" fill-opacity="1"></path></g></g><g><g transform="matrix(1,0,0,1,335.33331298828125,84.23333740234375)"><path transform="matrix(0.017,0,0,-0.017,0,0)" d="M124 319C94 319 67 291 67 261C67 231 94 203 123 203C155 203 183 230 183 260C183 291 155 319 124 319Z" stroke="rgb(248,231,28)" stroke-opacity="1" stroke-width="8" fill="rgb(248,231,28)" fill-opacity="1"></path></g></g><g><g transform="matrix(1,0,0,1,342.9666748046875,84.23333740234375)"><path transform="matrix(0.017,0,0,-0.017,0,0)" d="M562 97L555 97C539 79 520 55 493 55C448 55 432 184 426 216C465 278 500 343 525 413C516 428 506 444 495 459L484 459C482 391 447 315 421 257L414 260C403 337 401 473 289 473C121 473 24 243 48 93C57 33 86 -16 154 -16C246 -16 324 64 372 131L375 128C381 95 392 -16 443 -16C489 -16 545 54 571 84C570 91 567 94 562 97ZM368 164C334 113 268 28 197 28C144 28 126 70 119 115C105 202 138 437 247 437C334 437 355 252 364 192Z" stroke="rgb(248,231,28)" stroke-opacity="1" stroke-width="8" fill="rgb(248,231,28)" fill-opacity="1"></path></g></g><g><g transform="matrix(1,0,0,1,353.066650390625,84)"><path transform="matrix(0.017,0,0,-0.017,0,0)" d="M51 726L32 700C87 636 187 526 187 266C187 -10 83 -131 32 -194L51 -215C104 -165 273 -23 273 265C273 542 108 675 51 726Z" stroke="rgb(248,231,28)" stroke-opacity="1" stroke-width="8" fill="rgb(248,231,28)" fill-opacity="1"></path></g></g><g><g transform="matrix(1,0,0,1,358.7166748046875,84)"><path transform="matrix(0.017,0,0,-0.017,0,0)" d="M146 266C146 526 243 632 301 700L282 726C225 675 60 542 60 266C60 159 85 58 133 -32C168 -99 200 -138 282 -215L301 -194C255 -137 146 -15 146 266Z" stroke="rgb(248,231,28)" stroke-opacity="1" stroke-width="8" fill="rgb(248,231,28)" fill-opacity="1"></path></g></g><g><g transform="matrix(1,0,0,1,364.36663818359375,84.23333740234375)"><path transform="matrix(0.017,0,0,-0.017,0,0)" d="M271 204L242 77C238 60 236 42 236 26C236 4 245 -9 260 -9C283 -9 324 17 406 85L399 106C375 86 346 59 324 59C315 59 309 68 309 82C309 87 309 90 310 93L402 472L392 481L359 463C318 478 301 482 274 482C246 482 226 477 199 464C137 433 104 403 79 354C35 265 4 145 4 67C4 23 19 -11 38 -11C75 -11 155 41 271 204ZM319 414C297 305 278 253 244 201C187 117 126 59 94 59C82 59 76 72 76 99C76 163 104 280 139 360C163 415 186 433 234 433C257 433 275 429 319 414Z" stroke="rgb(248,231,28)" stroke-opacity="1" stroke-width="8" fill="rgb(248,231,28)" fill-opacity="1"></path></g></g><g><g transform="matrix(1,0,0,1,371.9000244140625,84)"><path transform="matrix(0.017,0,0,-0.017,0,0)" d="M51 726L32 700C87 636 187 526 187 266C187 -10 83 -131 32 -194L51 -215C104 -165 273 -23 273 265C273 542 108 675 51 726Z" stroke="rgb(248,231,28)" stroke-opacity="1" stroke-width="8" fill="rgb(248,231,28)" fill-opacity="1"></path></g></g></g></g><g transform="matrix(0.9288742131985405,0.3703953240185308,-0.3703953240185308,0.9288742131985405,119.28179029908512,-102.77297682051687)"><g><g><g transform="matrix(1,0,0,1,276.76666259765625,266)"><path transform="matrix(0.017,0,0,-0.017,0,0)" d="M146 266C146 526 243 632 301 700L282 726C225 675 60 542 60 266C60 159 85 58 133 -32C168 -99 200 -138 282 -215L301 -194C255 -137 146 -15 146 266Z" stroke="rgb(248,231,28)" stroke-opacity="1" stroke-width="8" fill="rgb(248,231,28)" fill-opacity="1"></path></g></g><g><g transform="matrix(1,0,0,1,282.41668701171875,266.23333740234375)"><path transform="matrix(0.017,0,0,-0.017,0,0)" d="M465 287C436 470 196 506 178 622C171 664 221 679 256 679C291 679 326 668 359 649L368 655C363 667 357 681 349 694C324 699 299 702 274 702C213 702 98 676 111 597C120 539 199 493 246 464L246 458C108 426 38 304 61 160C78 53 133 -16 246 -16C403 -16 489 139 465 287ZM393 269C408 174 385 12 267 12C183 12 148 99 137 167C116 295 141 411 268 448C339 399 380 350 393 269Z" stroke="rgb(248,231,28)" stroke-opacity="1" stroke-width="8" fill="rgb(248,231,28)" fill-opacity="1"></path></g></g><g><g transform="matrix(1,0,0,1,294.26666259765625,266.23333740234375)"><path transform="matrix(0.017,0,0,-0.017,0,0)" d="M124 319C94 319 67 291 67 261C67 231 94 203 123 203C155 203 183 230 183 260C183 291 155 319 124 319Z" stroke="rgb(248,231,28)" stroke-opacity="1" stroke-width="8" fill="rgb(248,231,28)" fill-opacity="1"></path></g></g><g><g transform="matrix(1,0,0,1,301.88336181640625,266.23333740234375)"><path transform="matrix(0.017,0,0,-0.017,0,0)" d="M88 473C23 473 -6 426 -31 377C-30 371 -26 368 -23 365L-17 366C2 394 19 412 56 412C151 412 182 290 193 220C207 136 211 53 209 -29C173 -86 142 -181 127 -249C132 -257 138 -265 143 -273C163 -268 182 -260 201 -251C215 -183 225 -106 227 -36C275 43 329 120 383 194C427 254 501 353 488 438C486 450 484 467 468 467C451 467 420 453 404 446L400 435C406 419 413 401 416 385C432 279 288 108 240 19L234 23C259 393 176 473 88 473Z" stroke="rgb(248,231,28)" stroke-opacity="1" stroke-width="8" fill="rgb(248,231,28)" fill-opacity="1"></path></g></g><g><g transform="matrix(1,0,0,1,311.7833251953125,266)"><path transform="matrix(0.017,0,0,-0.017,0,0)" d="M51 726L32 700C87 636 187 526 187 266C187 -10 83 -131 32 -194L51 -215C104 -165 273 -23 273 265C273 542 108 675 51 726Z" stroke="rgb(248,231,28)" stroke-opacity="1" stroke-width="8" fill="rgb(248,231,28)" fill-opacity="1"></path></g></g><g><g transform="matrix(1,0,0,1,317.433349609375,266)"><path transform="matrix(0.017,0,0,-0.017,0,0)" d="M146 266C146 526 243 632 301 700L282 726C225 675 60 542 60 266C60 159 85 58 133 -32C168 -99 200 -138 282 -215L301 -194C255 -137 146 -15 146 266Z" stroke="rgb(248,231,28)" stroke-opacity="1" stroke-width="8" fill="rgb(248,231,28)" fill-opacity="1"></path></g></g><g><g transform="matrix(1,0,0,1,323.08331298828125,266.23333740234375)"><path transform="matrix(0.017,0,0,-0.017,0,0)" d="M458 205C443 301 360 358 269 360L268 369C355 400 426 479 409 581C399 644 360 680 296 680C265 680 236 673 208 661C58 595 73 439 73 289C74 102 79 -87 68 -273L77 -283C101 -274 125 -265 151 -259C140 -162 137 -66 134 29C172 -2 217 -15 261 -15C382 -15 478 80 458 205ZM376 208C391 115 355 12 249 12C192 12 150 45 141 103C125 205 122 573 202 629C217 640 235 646 254 646C306 646 336 606 343 558C361 446 280 371 174 371C173 359 172 347 168 337L177 329C192 336 207 339 224 339C306 339 363 291 376 208Z" stroke="rgb(248,231,28)" stroke-opacity="1" stroke-width="8" fill="rgb(248,231,28)" fill-opacity="1"></path></g></g><g><g transform="matrix(1,0,0,1,335.183349609375,266.23333740234375)"><path transform="matrix(0.017,0,0,-0.017,0,0)" d="M124 319C94 319 67 291 67 261C67 231 94 203 123 203C155 203 183 230 183 260C183 291 155 319 124 319Z" stroke="rgb(248,231,28)" stroke-opacity="1" stroke-width="8" fill="rgb(248,231,28)" fill-opacity="1"></path></g></g><g><g transform="matrix(1,0,0,1,342.816650390625,266.23333740234375)"><path transform="matrix(0.017,0,0,-0.017,0,0)" d="M562 97L555 97C539 79 520 55 493 55C448 55 432 184 426 216C465 278 500 343 525 413C516 428 506 444 495 459L484 459C482 391 447 315 421 257L414 260C403 337 401 473 289 473C121 473 24 243 48 93C57 33 86 -16 154 -16C246 -16 324 64 372 131L375 128C381 95 392 -16 443 -16C489 -16 545 54 571 84C570 91 567 94 562 97ZM368 164C334 113 268 28 197 28C144 28 126 70 119 115C105 202 138 437 247 437C334 437 355 252 364 192Z" stroke="rgb(248,231,28)" stroke-opacity="1" stroke-width="8" fill="rgb(248,231,28)" fill-opacity="1"></path></g></g><g><g transform="matrix(1,0,0,1,352.91668701171875,266)"><path transform="matrix(0.017,0,0,-0.017,0,0)" d="M51 726L32 700C87 636 187 526 187 266C187 -10 83 -131 32 -194L51 -215C104 -165 273 -23 273 265C273 542 108 675 51 726Z" stroke="rgb(248,231,28)" stroke-opacity="1" stroke-width="8" fill="rgb(248,231,28)" fill-opacity="1"></path></g></g><g><g transform="matrix(1,0,0,1,358.566650390625,266)"><path transform="matrix(0.017,0,0,-0.017,0,0)" d="M146 266C146 526 243 632 301 700L282 726C225 675 60 542 60 266C60 159 85 58 133 -32C168 -99 200 -138 282 -215L301 -194C255 -137 146 -15 146 266Z" stroke="rgb(248,231,28)" stroke-opacity="1" stroke-width="8" fill="rgb(248,231,28)" fill-opacity="1"></path></g></g><g><g transform="matrix(1,0,0,1,364.2166748046875,266.23333740234375)"><path transform="matrix(0.017,0,0,-0.017,0,0)" d="M235 722L223 733C171 707 135 698 63 691L59 670L107 670C131 670 141 663 141 646C141 639 140 628 139 622L38 71C37 68 37 64 37 61C37 22 85 -11 140 -11C177 -11 228 8 271 39C367 107 433 244 433 376C433 414 424 453 412 468C405 477 392 482 377 482C353 482 323 474 295 460C244 433 211 403 149 324ZM322 424C348 424 361 401 361 352C361 288 340 202 310 137C277 68 237 36 183 36C137 36 112 59 112 101C112 135 127 276 208 361C241 395 293 424 322 424Z" stroke="rgb(248,231,28)" stroke-opacity="1" stroke-width="8" fill="rgb(248,231,28)" fill-opacity="1"></path></g></g><g><g transform="matrix(1,0,0,1,372.04998779296875,266)"><path transform="matrix(0.017,0,0,-0.017,0,0)" d="M51 726L32 700C87 636 187 526 187 266C187 -10 83 -131 32 -194L51 -215C104 -165 273 -23 273 265C273 542 108 675 51 726Z" stroke="rgb(248,231,28)" stroke-opacity="1" stroke-width="8" fill="rgb(248,231,28)" fill-opacity="1"></path></g></g></g></g><g transform="matrix(0.6016756257948523,0.7987405344192648,-0.7987405344192648,0.6016756257948523,295.41139268694405,-213.97411843648877)"><g><g><g transform="matrix(1,0,0,1,316.5333251953125,196)"><path transform="matrix(0.017,0,0,-0.017,0,0)" d="M146 266C146 526 243 632 301 700L282 726C225 675 60 542 60 266C60 159 85 58 133 -32C168 -99 200 -138 282 -215L301 -194C255 -137 146 -15 146 266Z" stroke="rgb(248,231,28)" stroke-opacity="1" stroke-width="8" fill="rgb(248,231,28)" fill-opacity="1"></path></g></g><g><g transform="matrix(1,0,0,1,322.16668701171875,196.23333740234375)"><path transform="matrix(0.017,0,0,-0.017,0,0)" d="M465 287C436 470 196 506 178 622C171 664 221 679 256 679C291 679 326 668 359 649L368 655C363 667 357 681 349 694C324 699 299 702 274 702C213 702 98 676 111 597C120 539 199 493 246 464L246 458C108 426 38 304 61 160C78 53 133 -16 246 -16C403 -16 489 139 465 287ZM393 269C408 174 385 12 267 12C183 12 148 99 137 167C116 295 141 411 268 448C339 399 380 350 393 269ZM955 205C940 301 857 358 766 360L765 369C852 400 923 479 906 581C896 644 857 680 793 680C762 680 733 673 705 661C555 595 570 439 570 289C571 102 576 -87 565 -273L574 -283C598 -274 622 -265 648 -259C637 -162 634 -66 631 29C669 -2 714 -15 758 -15C879 -15 975 80 955 205ZM873 208C888 115 852 12 746 12C689 12 647 45 638 103C622 205 619 573 699 629C714 640 732 646 751 646C803 646 833 606 840 558C858 446 777 371 671 371C670 359 669 347 665 337L674 329C689 336 704 339 721 339C803 339 860 291 873 208Z" stroke="rgb(208,2,27)" stroke-opacity="1" stroke-width="8" fill="rgb(208,2,27)" fill-opacity="1"></path></g></g><g><g transform="matrix(1,0,0,1,339.33331298828125,196)"><path transform="matrix(0.017,0,0,-0.017,0,0)" d="M51 726L32 700C87 636 187 526 187 266C187 -10 83 -131 32 -194L51 -215C104 -165 273 -23 273 265C273 542 108 675 51 726Z" stroke="rgb(248,231,28)" stroke-opacity="1" stroke-width="8" fill="rgb(248,231,28)" fill-opacity="1"></path></g></g><g><g transform="matrix(1,0,0,1,348.38336181640625,196.23333740234375)"><path transform="matrix(0.017,0,0,-0.017,0,0)" d="M124 319C94 319 67 291 67 261C67 231 94 203 123 203C155 203 183 230 183 260C183 291 155 319 124 319Z" stroke="rgb(248,231,28)" stroke-opacity="1" stroke-width="8" fill="rgb(248,231,28)" fill-opacity="1"></path></g></g><g><g transform="matrix(1,0,0,1,356.01666259765625,196)"><path transform="matrix(0.017,0,0,-0.017,0,0)" d="M146 266C146 526 243 632 301 700L282 726C225 675 60 542 60 266C60 159 85 58 133 -32C168 -99 200 -138 282 -215L301 -194C255 -137 146 -15 146 266Z" stroke="rgb(248,231,28)" stroke-opacity="1" stroke-width="8" fill="rgb(248,231,28)" fill-opacity="1"></path></g></g><g><g transform="matrix(1,0,0,1,361.6500244140625,196.23333740234375)"><path transform="matrix(0.017,0,0,-0.017,0,0)" d="M88 473C23 473 -6 426 -31 377C-30 371 -26 368 -23 365L-17 366C2 394 19 412 56 412C151 412 182 290 193 220C207 136 211 53 209 -29C173 -86 142 -181 127 -249C132 -257 138 -265 143 -273C163 -268 182 -260 201 -251C215 -183 225 -106 227 -36C275 43 329 120 383 194C427 254 501 353 488 438C486 450 484 467 468 467C451 467 420 453 404 446L400 435C406 419 413 401 416 385C432 279 288 108 240 19L234 23C259 393 176 473 88 473ZM1143 97L1136 97C1120 79 1101 55 1074 55C1029 55 1013 184 1007 216C1046 278 1081 343 1106 413C1097 428 1087 444 1076 459L1065 459C1063 391 1028 315 1002 257L995 260C984 337 982 473 870 473C702 473 605 243 629 93C638 33 667 -16 735 -16C827 -16 905 64 953 131L956 128C962 95 973 -16 1024 -16C1070 -16 1126 54 1152 84C1151 91 1148 94 1143 97ZM949 164C915 113 849 28 778 28C725 28 707 70 700 115C686 202 719 437 828 437C915 437 936 252 945 192Z" stroke="rgb(126,211,33)" stroke-opacity="1" stroke-width="8" fill="rgb(126,211,33)" fill-opacity="1"></path></g></g><g><g transform="matrix(1,0,0,1,381.6500244140625,196)"><path transform="matrix(0.017,0,0,-0.017,0,0)" d="M51 726L32 700C87 636 187 526 187 266C187 -10 83 -131 32 -194L51 -215C104 -165 273 -23 273 265C273 542 108 675 51 726Z" stroke="rgb(248,231,28)" stroke-opacity="1" stroke-width="8" fill="rgb(248,231,28)" fill-opacity="1"></path></g></g><g><g transform="matrix(1,0,0,1,387.29998779296875,196)"><path transform="matrix(0.017,0,0,-0.017,0,0)" d="M146 266C146 526 243 632 301 700L282 726C225 675 60 542 60 266C60 159 85 58 133 -32C168 -99 200 -138 282 -215L301 -194C255 -137 146 -15 146 266Z" stroke="rgb(248,231,28)" stroke-opacity="1" stroke-width="8" fill="rgb(248,231,28)" fill-opacity="1"></path></g></g><g><g transform="matrix(1,0,0,1,392.95001220703125,196.23333740234375)"><path transform="matrix(0.017,0,0,-0.017,0,0)" d="M345 437L329 437L350 549C366 635 394 673 440 673C470 673 497 658 512 634L522 638C527 654 537 685 545 705L550 720C534 727 503 733 480 733C469 733 453 730 445 726C421 715 339 654 316 630C294 608 282 578 271 521L256 442C215 422 195 414 170 405L165 383L246 383L237 327C207 132 170 -54 148 -123C130 -182 100 -213 64 -213C41 -213 30 -206 12 -184L-2 -188C-6 -211 -20 -259 -25 -268C-16 -273 -1 -276 10 -276C51 -276 105 -245 144 -198C215 -114 235 -18 319 383L423 383C427 402 434 425 440 439L436 446C407 439 408 437 345 437Z" stroke="rgb(248,231,28)" stroke-opacity="1" stroke-width="8" fill="rgb(248,231,28)" fill-opacity="1"></path></g></g><g><g transform="matrix(1,0,0,1,402.2833251953125,196)"><path transform="matrix(0.017,0,0,-0.017,0,0)" d="M51 726L32 700C87 636 187 526 187 266C187 -10 83 -131 32 -194L51 -215C104 -165 273 -23 273 265C273 542 108 675 51 726Z" stroke="rgb(248,231,28)" stroke-opacity="1" stroke-width="8" fill="rgb(248,231,28)" fill-opacity="1"></path></g></g></g></g><g><g><g><g transform="matrix(1,0,0,1,330.066650390625,121.23333740234375)"><path transform="matrix(0.017,0,0,-0.017,0,0)" d="M349 664L352 692L238 689C222 689 204 689 161 690L97 692L94 664L141 662C165 661 176 653 176 635L81 55C77 37 65 30 21 23L16 -3L57 -2C88 -1 150 0 170 0C170 0 467 -1 467 -1C467 -1 500 0 500 0C499 25 510 103 523 165L492 165L475 103C466 71 457 54 448 49C435 44 371 39 304 39C255 39 228 40 162 46C165 64 256 605 256 613C263 651 270 658 307 661ZM989 653C1066 653 1120 639 1176 603L1176 519L1203 519C1208 576 1216 619 1230 665C1147 695 1090 706 1021 706C929 706 856 683 784 632C667 548 605 424 605 274C605 87 714 -18 910 -18C967 -21 1114 6 1163 37C1183 193 1187 216 1188 219C1190 228 1202 238 1215 240L1247 246L1249 274C1210 270 1175 269 1124 269C1073 269 1037 270 995 274L990 246L1024 244C1099 240 1108 236 1108 212C1108 197 1088 84 1083 60C1038 36 999 27 945 27C779 27 693 120 693 297C693 443 752 653 989 653Z" stroke="rgb(248,231,28)" stroke-opacity="1" stroke-width="8" fill="rgb(248,231,28)" fill-opacity="1"></path></g></g><g><g transform="matrix(1,0,0,1,351.75,121)"><path transform="matrix(0.017,0,0,-0.017,0,0)" d="M146 266C146 526 243 632 301 700L282 726C225 675 60 542 60 266C60 159 85 58 133 -32C168 -99 200 -138 282 -215L301 -194C255 -137 146 -15 146 266Z" stroke="rgb(248,231,28)" stroke-opacity="1" stroke-width="8" fill="rgb(248,231,28)" fill-opacity="1"></path></g></g><g><g transform="matrix(1,0,0,1,357.4000244140625,121.23333740234375)"><path transform="matrix(0.017,0,0,-0.017,0,0)" d="M345 437L329 437L350 549C366 635 394 673 440 673C470 673 497 658 512 634L522 638C527 654 537 685 545 705L550 720C534 727 503 733 480 733C469 733 453 730 445 726C421 715 339 654 316 630C294 608 282 578 271 521L256 442C215 422 195 414 170 405L165 383L246 383L237 327C207 132 170 -54 148 -123C130 -182 100 -213 64 -213C41 -213 30 -206 12 -184L-2 -188C-6 -211 -20 -259 -25 -268C-16 -273 -1 -276 10 -276C51 -276 105 -245 144 -198C215 -114 235 -18 319 383L423 383C427 402 434 425 440 439L436 446C407 439 408 437 345 437Z" stroke="rgb(248,231,28)" stroke-opacity="1" stroke-width="8" fill="rgb(248,231,28)" fill-opacity="1"></path></g></g><g><g transform="matrix(1,0,0,1,366.75,121)"><path transform="matrix(0.017,0,0,-0.017,0,0)" d="M51 726L32 700C87 636 187 526 187 266C187 -10 83 -131 32 -194L51 -215C104 -165 273 -23 273 265C273 542 108 675 51 726Z" stroke="rgb(248,231,28)" stroke-opacity="1" stroke-width="8" fill="rgb(248,231,28)" fill-opacity="1"></path></g></g></g></g></svg>
</svg>
