<svg xmlns="http://www.w3.org/2000/svg" xmlns:xlink="http://www.w3.org/1999/xlink" x="0" y="0" width="661.5333251953125" height="103.69999694824219" style="
        width:661.5333251953125px;
        height:103.69999694824219px;
        background: transparent;
        fill: none;
">
        
        
        <svg xmlns="http://www.w3.org/2000/svg" class="role-diagram-draw-area"><g class="shapes-region" style="stroke: black; fill: none;"><g/></g><g><g class="connection-group"><g class="arrow-line"><path class="connection real" stroke-dasharray="" d="  M269.2,24.54 L310.24,23.98 M269.24,27.54 L310.28,26.98" style="stroke: rgb(74, 144, 226); stroke-opacity: 1; stroke-width: 1px; fill: none; fill-opacity: 1;"/><g stroke="rgb(74,144,226)" stroke-opacity="1" transform="matrix(-0.9999049456400823,0.013787664214944095,-0.013787664214944095,-0.9999049456400823,318.26301059396945,25.365411937930872)" style="stroke: rgb(74, 144, 226); stroke-width: 1px;"><path d=" M10.93,-3.29 Q4.96,-0.45 0,0 Q4.96,0.45 10.93,3.29"/></g></g></g><g class="connection-group"><g class="arrow-line"><path class="connection real" stroke-dasharray="" d="  M331.99,37.17 L332.38,57.17 M328.99,37.23 L329.38,57.23" style="stroke: rgb(126, 211, 33); stroke-opacity: 1; stroke-width: 1px; fill: none; fill-opacity: 1;"/><g stroke="rgb(126,211,33)" stroke-opacity="1" transform="matrix(-0.01919744239969043,-0.9998157121216442,0.9998157121216442,-0.01919744239969043,331.03224136320017,65.19999999999999)" style="stroke: rgb(126, 211, 33); stroke-width: 1px;"><path d=" M10.93,-3.29 Q4.96,-0.45 0,0 Q4.96,0.45 10.93,3.29"/></g></g></g><g class="connection-group"><g class="arrow-line"><path class="connection real" stroke-dasharray="6 6" d="  M270.07,32.94 L315.54,64.47 M268.36,35.41 L313.83,66.94" style="stroke: rgb(80, 227, 194); stroke-opacity: 1; stroke-width: 1px; fill: none; fill-opacity: 1;"/><g stroke="rgb(80,227,194)" stroke-opacity="1" transform="matrix(-0.82174640862959,-0.569853349471924,0.569853349471924,-0.82174640862959,321.2630105939694,70.26557897298034)" style="stroke: rgb(80, 227, 194); stroke-width: 1px;"><path d=" M10.93,-3.29 Q4.96,-0.45 0,0 Q4.96,0.45 10.93,3.29"/></g></g></g><g class="connection-group"><g class="arrow-line"><path class="connection real" stroke-dasharray="" d="  M341.28,75.83 L388.78,76.42 M341.24,78.83 L388.74,79.42" style="stroke: rgb(208, 2, 27); stroke-opacity: 1; stroke-width: 1px; fill: none; fill-opacity: 1;"/><g stroke="rgb(208,2,27)" stroke-opacity="1" transform="matrix(-0.9999210442038161,-0.012566039883352592,0.012566039883352592,-0.9999210442038161,396.7630105939694,78.02229869892071)" style="stroke: rgb(208, 2, 27); stroke-width: 1px;"><path d=" M10.93,-3.29 Q4.96,-0.45 0,0 Q4.96,0.45 10.93,3.29"/></g></g></g><g class="connection-group"><g class="arrow-line"><path class="connection real" stroke-dasharray="6 6" d="  M343.11,32.11 L390.99,64.62 M341.42,34.59 L389.3,67.1" style="stroke: rgb(248, 231, 28); stroke-opacity: 1; stroke-width: 1px; fill: none; fill-opacity: 1;"/><g stroke="rgb(248,231,28)" stroke-opacity="1" transform="matrix(-0.827276727994233,-0.5617946380299084,0.5617946380299084,-0.827276727994233,396.7630105939694,70.3574829688439)" style="stroke: rgb(248, 231, 28); stroke-width: 1px;"><path d=" M10.93,-3.29 Q4.96,-0.45 0,0 Q4.96,0.45 10.93,3.29"/></g></g></g><g class="connection-group"><g class="arrow-line"><path class="connection real" stroke-dasharray="6 6" d="  M269.71,28.75 L322.42,46.95 M344.17,54.45 L389.69,70.17 M268.73,31.59 L321.45,49.79 M343.19,57.29 L388.71,73" style="stroke: rgb(189, 16, 224); stroke-opacity: 1; stroke-width: 1px; fill: none; fill-opacity: 1;"/><g stroke="rgb(189,16,224)" stroke-opacity="1" transform="matrix(-0.9452910557512495,-0.3262281715558731,0.3262281715558731,-0.9452910557512495,396.76301059396945,74.19701389438012)" style="stroke: rgb(189, 16, 224); stroke-width: 1px;"><path d=" M10.93,-3.29 Q4.96,-0.45 0,0 Q4.96,0.45 10.93,3.29"/></g></g></g></g><g/><g/></svg>
        <svg xmlns="http://www.w3.org/2000/svg" xmlns:xlink="http://www.w3.org/1999/xlink" width="660" height="102.16667175292969" style="width:660px;height:102.16667175292969px;font-family:Asana-Math, Asana;background:transparent;"><g><g><g><g transform="matrix(1,0,0,1,250.183349609375,33.23333740234375)"><path transform="matrix(0.017,0,0,-0.017,0,0)" d="M546 66C477 73 429 107 397 135C450 182 550 288 564 306L568 237C568 161 557 96 546 66ZM379 151C339 199 297 263 297 347C297 435 342 495 408 495C469 495 538 437 559 334C462 217 397 168 379 151ZM581 120C588 144 592 172 592 250C592 259 588 319 587 328C722 480 899 665 1012 687L1012 686C873 524 722 326 581 120ZM46 60C46 2 91 -12 127 -12C158 -12 197 -2 235 17C273 38 323 71 378 117C413 90 459 56 535 46L505 0L569 0L597 42C691 46 744 112 753 124L739 138C703 99 659 76 615 68C778 333 940 554 1055 710L1055 709C1050 709 1036 713 1028 713C939 713 791 590 578 356C550 460 472 524 402 524C319 524 264 450 264 357C264 332 269 238 361 135C252 37 178 9 133 9C100 9 72 24 72 49C72 66 77 76 92 76C96 76 110 69 120 69C142 69 157 93 157 107C157 117 149 141 119 141C86 141 46 106 46 60Z" stroke="rgb(144,19,254)" stroke-opacity="1" stroke-width="8" fill="rgb(144,19,254)" fill-opacity="1"></path></g></g></g></g><g><g><g><g transform="matrix(1,0,0,1,322.01666259765625,32.23333740234375)"><path transform="matrix(0.017,0,0,-0.017,0,0)" d="M740 631L721 630C694 537 645 455 571 389C500 323 432 289 365 289C306 289 267 321 267 374C267 508 489 709 767 709C879 709 946 675 977 648C705 473 560 167 388 62C334 29 272 13 202 13C149 13 76 29 76 74C76 90 83 100 96 100C102 100 117 91 131 91C151 91 167 111 167 124C167 138 156 157 127 157C84 157 46 119 46 78C46 45 71 -6 213 -6C635 -6 672 415 996 629C1014 611 1028 590 1028 555C1028 469 951 374 852 357C811 367 805 367 794 367C780 367 760 361 760 348C760 335 778 327 805 327L852 330C888 307 888 277 888 260C888 162 754 15 643 15C605 15 596 37 596 51C596 107 689 171 810 189L807 205C652 188 574 112 574 50C574 5 611 -6 656 -6C787 -6 934 110 934 230C934 273 918 301 883 338C977 363 1069 422 1069 530C1069 548 1069 594 1023 647C1036 655 1051 662 1067 671L1116 694L1110 710C1088 703 1067 696 1050 689L1001 666L1001 665C929 719 845 730 769 730C487 730 242 530 242 378C242 326 272 267 367 267C532 267 700 428 740 631Z" stroke="rgb(80,227,194)" stroke-opacity="1" stroke-width="8" fill="rgb(80,227,194)" fill-opacity="1"></path></g></g></g></g><g><g><g><g transform="matrix(1,0,0,1,285.76666259765625,22.23333740234375)"><path transform="matrix(0.017,0,0,-0.017,0,0)" d="M562 97L555 97C539 79 520 55 493 55C448 55 432 184 426 216C465 278 500 343 525 413C516 428 506 444 495 459L484 459C482 391 447 315 421 257L414 260C403 337 401 473 289 473C121 473 24 243 48 93C57 33 86 -16 154 -16C246 -16 324 64 372 131L375 128C381 95 392 -16 443 -16C489 -16 545 54 571 84C570 91 567 94 562 97ZM368 164C334 113 268 28 197 28C144 28 126 70 119 115C105 202 138 437 247 437C334 437 355 252 364 192Z" stroke="rgb(74,144,226)" stroke-opacity="1" stroke-width="8" fill="rgb(74,144,226)" fill-opacity="1"></path></g></g></g></g><g><g><g><g transform="matrix(1,0,0,1,324.88336181640625,84.23333740234375)"><path transform="matrix(0.017,0,0,-0.017,0,0)" d="M791 693C823 693 848 684 848 648C848 625 828 594 789 557C693 462 476 384 323 380L323 379C534 615 696 693 791 693ZM218 361C124 239 110 171 110 122C110 66 130 -15 277 -15C425 -15 598 105 598 208C598 266 554 296 493 296C384 296 278 209 218 66L237 61C290 171 391 274 495 274C557 274 574 235 574 210C574 116 406 5 272 5C204 5 152 33 152 93C152 179 230 278 301 355C659 374 874 564 874 656C874 701 828 713 789 713C639 713 418 567 241 383C144 390 70 434 70 510C70 607 194 722 390 722C446 722 505 710 533 705L539 721C495 733 435 744 377 744C279 744 200 722 138 677C76 633 45 578 45 513C45 482 50 388 218 361Z" stroke="rgb(248,231,28)" stroke-opacity="1" stroke-width="8" fill="rgb(248,231,28)" fill-opacity="1"></path></g></g></g></g><g><g><g><g transform="matrix(1,0,0,1,334.35003662109375,54.23333740234375)"><path transform="matrix(0.017,0,0,-0.017,0,0)" d="M458 205C443 301 360 358 269 360L268 369C355 400 426 479 409 581C399 644 360 680 296 680C265 680 236 673 208 661C58 595 73 439 73 289C74 102 79 -87 68 -273L77 -283C101 -274 125 -265 151 -259C140 -162 137 -66 134 29C172 -2 217 -15 261 -15C382 -15 478 80 458 205ZM376 208C391 115 355 12 249 12C192 12 150 45 141 103C125 205 122 573 202 629C217 640 235 646 254 646C306 646 336 606 343 558C361 446 280 371 174 371C173 359 172 347 168 337L177 329C192 336 207 339 224 339C306 339 363 291 376 208Z" stroke="rgb(126,211,33)" stroke-opacity="1" stroke-width="8" fill="rgb(126,211,33)" fill-opacity="1"></path></g></g></g></g><g transform="matrix(0.8249162373260137,0.5652549879442832,-0.5652549879442832,0.8249162373260137,82.39195192810476,-151.60102419324335)"><g><g><g transform="matrix(1,0,0,1,269.816650390625,64.23333740234375)"><path transform="matrix(0.017,0,0,-0.017,0,0)" d="M458 205C443 301 360 358 269 360L268 369C355 400 426 479 409 581C399 644 360 680 296 680C265 680 236 673 208 661C58 595 73 439 73 289C74 102 79 -87 68 -273L77 -283C101 -274 125 -265 151 -259C140 -162 137 -66 134 29C172 -2 217 -15 261 -15C382 -15 478 80 458 205ZM376 208C391 115 355 12 249 12C192 12 150 45 141 103C125 205 122 573 202 629C217 640 235 646 254 646C306 646 336 606 343 558C361 446 280 371 174 371C173 359 172 347 168 337L177 329C192 336 207 339 224 339C306 339 363 291 376 208Z" stroke="rgb(80,227,194)" stroke-opacity="1" stroke-width="8" fill="rgb(80,227,194)" fill-opacity="1"></path></g></g><g><g transform="matrix(1,0,0,1,281.91668701171875,64.23333740234375)"><path transform="matrix(0.017,0,0,-0.017,0,0)" d="M342 271C342 352 277 417 195 417C112 417 47 352 47 271C47 188 112 124 195 124C277 124 342 188 342 271ZM304 271C304 209 254 161 195 161C133 161 85 209 85 271C85 331 133 380 195 380C254 380 304 331 304 271Z" stroke="rgb(80,227,194)" stroke-opacity="1" stroke-width="8" fill="rgb(80,227,194)" fill-opacity="1"></path></g></g><g><g transform="matrix(1,0,0,1,291.91668701171875,64.23333740234375)"><path transform="matrix(0.017,0,0,-0.017,0,0)" d="M562 97L555 97C539 79 520 55 493 55C448 55 432 184 426 216C465 278 500 343 525 413C516 428 506 444 495 459L484 459C482 391 447 315 421 257L414 260C403 337 401 473 289 473C121 473 24 243 48 93C57 33 86 -16 154 -16C246 -16 324 64 372 131L375 128C381 95 392 -16 443 -16C489 -16 545 54 571 84C570 91 567 94 562 97ZM368 164C334 113 268 28 197 28C144 28 126 70 119 115C105 202 138 437 247 437C334 437 355 252 364 192Z" stroke="rgb(80,227,194)" stroke-opacity="1" stroke-width="8" fill="rgb(80,227,194)" fill-opacity="1"></path></g></g></g></g><g><g><g><g transform="matrix(1,0,0,1,400.433349609375,85.20001220703125)"><path transform="matrix(0.017,0,0,-0.017,0,0)" d="M180 15C128 15 73 20 73 45C73 56 91 76 154 76C218 76 265 60 318 40L318 39C274 24 230 15 180 15ZM897 440C897 245 737 15 520 15C468 15 415 29 389 38C522 98 610 184 680 276L719 328C784 416 840 482 889 530L889 529C897 495 897 467 897 440ZM587 733C327 733 172 566 172 423C172 354 217 273 355 273C528 273 649 404 687 560L671 573C628 421 493 293 343 293C252 293 205 343 205 409C205 543 384 706 611 706C746 706 839 652 876 557C672 417 523 119 347 51C302 71 232 98 156 98C106 98 45 85 45 45C40 11 110 -18 213 -5C267 0 290 5 351 23C374 17 441 -5 519 -5C576 -5 629 5 679 32C791 91 922 242 922 455C922 476 913 533 911 547C936 568 962 591 1050 639L1036 654C1015 644 950 612 897 577L897 576C875 618 801 733 587 733Z" stroke="rgb(245,166,35)" stroke-opacity="1" stroke-width="8" fill="rgb(245,166,35)" fill-opacity="1"></path></g></g></g></g><g><g><g><g transform="matrix(1,0,0,1,359.76666259765625,94.03335571289062)"><path transform="matrix(0.017,0,0,-0.017,0,0)" d="M88 473C23 473 -6 426 -31 377C-30 371 -26 368 -23 365L-17 366C2 394 19 412 56 412C151 412 182 290 193 220C207 136 211 53 209 -29C173 -86 142 -181 127 -249C132 -257 138 -265 143 -273C163 -268 182 -260 201 -251C215 -183 225 -106 227 -36C275 43 329 120 383 194C427 254 501 353 488 438C486 450 484 467 468 467C451 467 420 453 404 446L400 435C406 419 413 401 416 385C432 279 288 108 240 19L234 23C259 393 176 473 88 473Z" stroke="rgb(208,2,27)" stroke-opacity="1" stroke-width="8" fill="rgb(208,2,27)" fill-opacity="1"></path></g></g></g></g><g transform="matrix(0.8249162373260137,0.5652549879442832,-0.5652549879442832,0.8249162373260137,87.78243949594372,-205.07078844321845)"><g><g><g transform="matrix(1,0,0,1,358.933349609375,46.20001220703125)"><path transform="matrix(0.017,0,0,-0.017,0,0)" d="M88 473C23 473 -6 426 -31 377C-30 371 -26 368 -23 365L-17 366C2 394 19 412 56 412C151 412 182 290 193 220C207 136 211 53 209 -29C173 -86 142 -181 127 -249C132 -257 138 -265 143 -273C163 -268 182 -260 201 -251C215 -183 225 -106 227 -36C275 43 329 120 383 194C427 254 501 353 488 438C486 450 484 467 468 467C451 467 420 453 404 446L400 435C406 419 413 401 416 385C432 279 288 108 240 19L234 23C259 393 176 473 88 473Z" stroke="rgb(248,231,28)" stroke-opacity="1" stroke-width="8" fill="rgb(248,231,28)" fill-opacity="1"></path></g></g><g><g transform="matrix(1,0,0,1,372.20001220703125,46.20001220703125)"><path transform="matrix(0.017,0,0,-0.017,0,0)" d="M342 271C342 352 277 417 195 417C112 417 47 352 47 271C47 188 112 124 195 124C277 124 342 188 342 271ZM304 271C304 209 254 161 195 161C133 161 85 209 85 271C85 331 133 380 195 380C254 380 304 331 304 271Z" stroke="rgb(248,231,28)" stroke-opacity="1" stroke-width="8" fill="rgb(248,231,28)" fill-opacity="1"></path></g></g><g><g transform="matrix(1,0,0,1,382.2166748046875,46.20001220703125)"><path transform="matrix(0.017,0,0,-0.017,0,0)" d="M458 205C443 301 360 358 269 360L268 369C355 400 426 479 409 581C399 644 360 680 296 680C265 680 236 673 208 661C58 595 73 439 73 289C74 102 79 -87 68 -273L77 -283C101 -274 125 -265 151 -259C140 -162 137 -66 134 29C172 -2 217 -15 261 -15C382 -15 478 80 458 205ZM376 208C391 115 355 12 249 12C192 12 150 45 141 103C125 205 122 573 202 629C217 640 235 646 254 646C306 646 336 606 343 558C361 446 280 371 174 371C173 359 172 347 168 337L177 329C192 336 207 339 224 339C306 339 363 291 376 208Z" stroke="rgb(248,231,28)" stroke-opacity="1" stroke-width="8" fill="rgb(248,231,28)" fill-opacity="1"></path></g></g></g></g></svg>
</svg>
