<svg xmlns="http://www.w3.org/2000/svg" xmlns:xlink="http://www.w3.org/1999/xlink" x="0" y="0" width="661.433349609375" height="360.76666259765625" style="
        width:661.433349609375px;
        height:360.76666259765625px;
        background: transparent;
        fill: none;
">
        
        
        <svg xmlns="http://www.w3.org/2000/svg" class="role-diagram-draw-area"><g class="shapes-region" style="stroke: black; fill: none;"><g/></g><g><g class="connection-group"><g class="arrow-line"><path class="connection real" stroke-dasharray="" d="  M288.98,75.3 L210.03,139.04" style="stroke: rgb(155, 155, 155); stroke-opacity: 1; stroke-width: 1px; fill: none; fill-opacity: 1;"/><g stroke="rgb(155,155,155)" stroke-opacity="1" transform="matrix(0.7780239006584517,-0.6282346774925813,0.6282346774925813,0.7780239006584517,208.47500000000002,140.29998779296875)" style="stroke: rgb(155, 155, 155); stroke-width: 1px;"><path d=" M10.93,-3.29 Q4.96,-0.45 0,0 Q4.96,0.45 10.93,3.29"/></g></g></g><g class="connection-group"><g class="arrow-line"><path class="connection real" stroke-dasharray="" d="  M369.23,75.3 L447.67,139.04" style="stroke: rgb(155, 155, 155); stroke-opacity: 1; stroke-width: 1px; fill: none; fill-opacity: 1;"/><g stroke="rgb(155,155,155)" stroke-opacity="1" transform="matrix(-0.776156468939648,-0.6305403521767162,0.6305403521767162,-0.776156468939648,449.225,140.2999877929687)" style="stroke: rgb(155, 155, 155); stroke-width: 1px;"><path d=" M10.93,-3.29 Q4.96,-0.45 0,0 Q4.96,0.45 10.93,3.29"/></g></g></g><g class="connection-group"><g class="arrow-line"><path class="connection real" stroke-dasharray="" d="  M205.33,205.3 L290.61,279.98" style="stroke: rgb(189, 16, 224); stroke-opacity: 1; stroke-width: 1px; fill: none; fill-opacity: 1;"/><g stroke="rgb(189,16,224)" stroke-opacity="1" transform="matrix(-0.7522999344381012,-0.6588207712606128,0.6588207712606128,-0.7522999344381012,292.11507092198576,281.2999877929688)" style="stroke: rgb(189, 16, 224); stroke-width: 1px;"><path d=" M10.93,-3.29 Q4.96,-0.45 0,0 Q4.96,0.45 10.93,3.29"/></g></g></g><g class="connection-group"><g class="arrow-line"><path class="connection real" stroke-dasharray="" d="  M452.35,205.3 L367.6,279.98" style="stroke: rgb(189, 16, 224); stroke-opacity: 1; stroke-width: 1px; fill: none; fill-opacity: 1;"/><g stroke="rgb(189,16,224)" stroke-opacity="1" transform="matrix(0.7502264788993523,-0.6611809361727542,0.6611809361727542,0.7502264788993523,366.10443262411354,281.29998779296875)" style="stroke: rgb(189, 16, 224); stroke-width: 1px;"><path d=" M10.93,-3.29 Q4.96,-0.45 0,0 Q4.96,0.45 10.93,3.29"/></g></g></g><g class="connection-group"><g class="arrow-line"><path class="connection real" stroke-dasharray="" d="  M250.23,171.3 L400.23,171.3 M250.23,174.3 L400.23,174.3" style="stroke: rgb(189, 16, 224); stroke-opacity: 1; stroke-width: 1px; fill: none; fill-opacity: 1;"/><g stroke="rgb(189,16,224)" stroke-opacity="1" transform="matrix(-1,1.2246467991473532e-16,-1.2246467991473532e-16,-1,407.225,172.79998779296875)" style="stroke: rgb(189, 16, 224); stroke-width: 1px;"><path d=" M10.93,-4.9 Q4.96,-1 0,0 Q4.96,1 10.93,4.9"/></g></g></g><g class="connection-group"><g class="arrow-line"><path class="connection real" stroke-dasharray="" d="  M309.23,318.3 L340.23,318.3 M309.23,321.3 L340.23,321.3" style="stroke: rgb(189, 16, 224); stroke-width: 1px; fill: none; fill-opacity: 1; stroke-opacity: 1;"/><g stroke="rgb(189,16,224)" transform="matrix(-1,1.2246467991473532e-16,-1.2246467991473532e-16,-1,347.22499999999997,319.80000610351556)" style="stroke: rgb(189, 16, 224); stroke-width: 1px;" stroke-opacity="1"><path d=" M10.93,-4.9 Q4.96,-1 0,0 Q4.96,1 10.93,4.9"/></g></g></g></g><g><g><rect rx="0" ry="0" x="86.22500000000002" y="140.29998779296875" width="164" height="65" style="stroke: rgb(155, 155, 155); stroke-opacity: 1; stroke-width: 1px; fill: none; fill-opacity: 1;"/></g><g><rect rx="0" ry="0" x="407.225" y="140.29998779296875" width="164" height="65" style="stroke: rgb(155, 155, 155); stroke-opacity: 1; stroke-width: 1px; fill: none; fill-opacity: 1;"/></g><g><rect rx="0" ry="0" x="232.22500000000002" y="281.29998779296875" width="194" height="65" style="stroke: rgb(155, 155, 155); stroke-opacity: 1; stroke-width: 1px; fill: none; fill-opacity: 1;"/></g><g><rect rx="0" ry="0" x="226.22500000000002" y="10.29998779296875" width="206" height="65" style="stroke: rgb(155, 155, 155); stroke-opacity: 1; stroke-width: 1px; fill: none; fill-opacity: 1;"/></g></g><g/></svg>
        <svg xmlns="http://www.w3.org/2000/svg" xmlns:xlink="http://www.w3.org/1999/xlink" width="660" height="359.33331298828125" style="width:660px;height:359.33331298828125px;font-family:Asana-Math, Asana;background:transparent;"><g><g><g><g transform="matrix(1,0,0,1,89.9166259765625,159.01666259765625)"><path transform="matrix(0.017,0,0,-0.017,0,0)" d="M406 377C497 409 588 440 588 546C588 637 526 681 399 681L316 680C292 679 223 678 207 678C193 678 164 678 118 679L39 681L39 644L76 641C121 637 124 631 124 543L124 95C124 61 119 46 104 38L72 20L72 -3C144 -1 170 0 198 0C237 0 340 -3 340 -3C500 -3 611 87 611 216C611 365 475 372 406 377ZM265 348L295 348C411 348 461 304 461 202C461 98 414 52 308 52C293 52 282 53 265 56ZM265 627C289 630 304 631 323 631C404 631 440 598 440 524C440 437 396 400 295 400L265 400Z" stroke="rgb(248,231,28)" stroke-opacity="1" stroke-width="8" fill="rgb(248,231,28)" fill-opacity="1"></path></g></g><g><g transform="matrix(1,0,0,1,101.23333740234375,159.1999969482422)"><path transform="matrix(0.017,0,0,-0.017,0,0)" d="M146 266C146 526 243 632 301 700L282 726C225 675 60 542 60 266C60 159 85 58 133 -32C168 -99 200 -138 282 -215L301 -194C255 -137 146 -15 146 266Z" stroke="rgb(248,231,28)" stroke-opacity="1" stroke-width="8" fill="rgb(248,231,28)" fill-opacity="1"></path></g></g><g><g transform="matrix(1,0,0,1,106.88330078125,159.01666259765625)"><path transform="matrix(0.017,0,0,-0.017,0,0)" d="M167 420C188 420 201 421 226 424C171 350 72 266 72 126C72 44 107 -11 160 -11C224 -11 276 44 350 187C341 143 338 118 338 95C338 32 367 -11 412 -11C546 -11 699 238 699 384C699 441 673 482 637 482C624 482 612 478 604 470L554 423L565 404C574 410 583 413 592 413C619 413 635 390 635 350C635 205 538 39 453 39C424 39 403 79 403 134C403 181 412 247 424 290L476 474L469 482L395 460L366 311C354 249 340 209 311 155C271 80 233 39 203 39C168 39 145 78 145 136C145 255 186 352 285 464L275 482C255 473 242 470 214 470C186 470 144 472 115 475L103 476C97 477 92 477 91 477C79 477 70 475 59 470C45 443 34 407 21 352L43 352L60 394C67 411 87 422 111 422C145 422 128 420 167 420Z" stroke="rgb(248,231,28)" stroke-opacity="1" stroke-width="8" fill="rgb(248,231,28)" fill-opacity="1"></path></g></g><g><g transform="matrix(1,0,0,1,119.13330078125,159.01666259765625)"><path transform="matrix(0.017,0,0,-0.017,0,0)" d="M204 123C177 114 159 108 106 93C99 17 74 -48 16 -144L30 -155L71 -136C152 -31 190 32 218 109Z" stroke="rgb(248,231,28)" stroke-opacity="1" stroke-width="8" fill="rgb(248,231,28)" fill-opacity="1"></path></g></g><g><g transform="matrix(1,0,0,1,126.76666259765625,159.01666259765625)"><path transform="matrix(0.017,0,0,-0.017,0,0)" d="M242 -180C241 -187 241 -193 241 -198C241 -241 278 -276 323 -276C429 -276 539 -152 598 33L739 473L728 482C699 471 676 465 654 463L619 331C607 284 572 211 539 162C504 111 455 67 433 67C421 67 412 90 413 115L429 322C431 353 433 391 433 419C433 464 426 482 409 482C396 482 382 475 334 442L252 386L263 368L313 398C318 401 329 410 338 410C352 410 360 391 360 358C360 357 360 351 359 343L342 100L341 60C341 18 359 -11 384 -11C421 -11 505 74 580 187L531 16C480 -161 430 -234 360 -234C325 -234 298 -207 298 -172C298 -167 299 -159 300 -150L290 -146Z" stroke="rgb(248,231,28)" stroke-opacity="1" stroke-width="8" fill="rgb(248,231,28)" fill-opacity="1"></path></g></g><g><g transform="matrix(1,0,0,1,139.48333740234375,159.1999969482422)"><path transform="matrix(0.017,0,0,-0.017,0,0)" d="M51 726L32 700C87 636 187 526 187 266C187 -10 83 -131 32 -194L51 -215C104 -165 273 -23 273 265C273 542 108 675 51 726Z" stroke="rgb(248,231,28)" stroke-opacity="1" stroke-width="8" fill="rgb(248,231,28)" fill-opacity="1"></path></g></g><g><g transform="matrix(1,0,0,1,148.5333251953125,159.01666259765625)"><path transform="matrix(0.017,0,0,-0.017,0,0)" d="M611 37L376 271L611 505L568 547L335 313L101 547L59 505L293 271L59 37L101 -5L335 229L568 -5Z" stroke="rgb(155,155,155)" stroke-opacity="1" stroke-width="8" fill="rgb(155,155,155)" fill-opacity="1"></path></g></g><g><g transform="matrix(1,0,0,1,163.2833251953125,159.01666259765625)"><path transform="matrix(0.017,0,0,-0.017,0,0)" d="M406 377C497 409 588 440 588 546C588 637 526 681 399 681L316 680C292 679 223 678 207 678C193 678 164 678 118 679L39 681L39 644L76 641C121 637 124 631 124 543L124 95C124 61 119 46 104 38L72 20L72 -3C144 -1 170 0 198 0C237 0 340 -3 340 -3C500 -3 611 87 611 216C611 365 475 372 406 377ZM265 348L295 348C411 348 461 304 461 202C461 98 414 52 308 52C293 52 282 53 265 56ZM265 627C289 630 304 631 323 631C404 631 440 598 440 524C440 437 396 400 295 400L265 400Z" stroke="rgb(74,144,226)" stroke-opacity="1" stroke-width="8" fill="rgb(74,144,226)" fill-opacity="1"></path></g></g><g><g transform="matrix(1,0,0,1,174.5999755859375,159.1999969482422)"><path transform="matrix(0.017,0,0,-0.017,0,0)" d="M146 266C146 526 243 632 301 700L282 726C225 675 60 542 60 266C60 159 85 58 133 -32C168 -99 200 -138 282 -215L301 -194C255 -137 146 -15 146 266Z" stroke="rgb(74,144,226)" stroke-opacity="1" stroke-width="8" fill="rgb(74,144,226)" fill-opacity="1"></path></g></g><g><g transform="matrix(1,0,0,1,180.25,159.01666259765625)"><path transform="matrix(0.017,0,0,-0.017,0,0)" d="M166 420C187 420 203 421 229 424C118 304 76 221 76 121C76 44 122 -11 186 -11C324 -11 477 236 477 384C477 441 451 482 415 482C402 482 390 478 382 470L332 423L343 404C352 410 361 413 370 413C397 413 413 390 413 350C413 202 316 39 228 39C179 39 148 81 148 146C148 251 187 342 285 464L275 482C255 473 242 470 214 470C186 470 144 472 115 475L103 476C97 477 92 477 91 477C79 477 70 475 59 470C45 443 34 407 21 352L43 352L60 394C67 411 87 422 111 422C144 422 128 420 166 420Z" stroke="rgb(74,144,226)" stroke-opacity="1" stroke-width="8" fill="rgb(74,144,226)" fill-opacity="1"></path></g></g><g><g transform="matrix(1,0,0,1,188.73333740234375,159.01666259765625)"><path transform="matrix(0.017,0,0,-0.017,0,0)" d="M204 123C177 114 159 108 106 93C99 17 74 -48 16 -144L30 -155L71 -136C152 -31 190 32 218 109Z" stroke="rgb(74,144,226)" stroke-opacity="1" stroke-width="8" fill="rgb(74,144,226)" fill-opacity="1"></path></g></g><g><g transform="matrix(1,0,0,1,196.36663818359375,159.01666259765625)"><path transform="matrix(0.017,0,0,-0.017,0,0)" d="M416 420C437 420 450 421 475 424C420 350 321 266 321 126C321 44 356 -11 409 -11C473 -11 525 44 599 187C590 143 587 118 587 95C587 32 616 -11 661 -11C795 -11 948 238 948 384C948 441 922 482 886 482C873 482 861 478 853 470L803 423L814 404C823 410 832 413 841 413C868 413 884 390 884 350C884 205 787 39 702 39C673 39 652 79 652 134C652 181 661 247 673 290L725 474L718 482L644 460L615 311C603 249 589 209 560 155C520 80 482 39 452 39C417 39 394 78 394 136C394 255 435 352 534 464L524 482C504 473 491 470 463 470C435 470 393 472 364 475L352 476C346 477 341 477 340 477C328 477 319 475 308 470C294 443 283 407 270 352L292 352L309 394C316 411 336 422 360 422C394 422 377 420 416 420Z" stroke="rgb(74,144,226)" stroke-opacity="1" stroke-width="8" fill="rgb(74,144,226)" fill-opacity="1"></path></g></g><g><g transform="matrix(1,0,0,1,212.8499755859375,159.1999969482422)"><path transform="matrix(0.017,0,0,-0.017,0,0)" d="M51 726L32 700C87 636 187 526 187 266C187 -10 83 -131 32 -194L51 -215C104 -165 273 -23 273 265C273 542 108 675 51 726Z" stroke="rgb(74,144,226)" stroke-opacity="1" stroke-width="8" fill="rgb(74,144,226)" fill-opacity="1"></path></g></g></g><g></g><g><g><g transform="matrix(1,0,0,1,89.9166259765625,199.81666564941406)"><path transform="matrix(0.017,0,0,-0.017,0,0)" d="" stroke="rgb(155,155,155)" stroke-opacity="1" stroke-width="8" fill="rgb(155,155,155)" fill-opacity="1"></path></g></g></g></g><g><g><g><g transform="matrix(1,0,0,1,410.9166259765625,159.01666259765625)"><path transform="matrix(0.017,0,0,-0.017,0,0)" d="M406 377C497 409 588 440 588 546C588 637 526 681 399 681L316 680C292 679 223 678 207 678C193 678 164 678 118 679L39 681L39 644L76 641C121 637 124 631 124 543L124 95C124 61 119 46 104 38L72 20L72 -3C144 -1 170 0 198 0C237 0 340 -3 340 -3C500 -3 611 87 611 216C611 365 475 372 406 377ZM265 348L295 348C411 348 461 304 461 202C461 98 414 52 308 52C293 52 282 53 265 56ZM265 627C289 630 304 631 323 631C404 631 440 598 440 524C440 437 396 400 295 400L265 400Z" stroke="rgb(208,2,27)" stroke-opacity="1" stroke-width="8" fill="rgb(208,2,27)" fill-opacity="1"></path></g></g><g><g transform="matrix(1,0,0,1,422.23333740234375,159.1999969482422)"><path transform="matrix(0.017,0,0,-0.017,0,0)" d="M146 266C146 526 243 632 301 700L282 726C225 675 60 542 60 266C60 159 85 58 133 -32C168 -99 200 -138 282 -215L301 -194C255 -137 146 -15 146 266Z" stroke="rgb(208,2,27)" stroke-opacity="1" stroke-width="8" fill="rgb(208,2,27)" fill-opacity="1"></path></g></g><g><g transform="matrix(1,0,0,1,427.88330078125,159.01666259765625)"><path transform="matrix(0.017,0,0,-0.017,0,0)" d="M9 1C24 -7 40 -11 52 -11C85 -11 124 18 155 65L231 182L242 113C255 28 278 -11 314 -11C336 -11 368 6 400 35L449 79L440 98C404 68 379 53 363 53C348 53 335 63 325 83C316 102 305 139 300 168L282 269L317 318C364 383 391 406 422 406C438 406 450 398 455 383L469 387L484 472C472 479 463 482 454 482C414 482 374 446 312 354L275 299L269 347C257 446 230 482 171 482C145 482 123 474 114 461L56 378L73 368C103 402 123 416 142 416C175 416 197 375 214 277L225 215L185 153C142 86 108 54 80 54C65 54 54 58 52 63L41 91L21 88C21 53 13 27 9 1Z" stroke="rgb(208,2,27)" stroke-opacity="1" stroke-width="8" fill="rgb(208,2,27)" fill-opacity="1"></path></g></g><g><g transform="matrix(1,0,0,1,436.36663818359375,159.01666259765625)"><path transform="matrix(0.017,0,0,-0.017,0,0)" d="M204 123C177 114 159 108 106 93C99 17 74 -48 16 -144L30 -155L71 -136C152 -31 190 32 218 109Z" stroke="rgb(208,2,27)" stroke-opacity="1" stroke-width="8" fill="rgb(208,2,27)" fill-opacity="1"></path></g></g><g><g transform="matrix(1,0,0,1,444,159.01666259765625)"><path transform="matrix(0.017,0,0,-0.017,0,0)" d="M242 -180C241 -187 241 -193 241 -198C241 -241 278 -276 323 -276C429 -276 539 -152 598 33L739 473L728 482C699 471 676 465 654 463L619 331C607 284 572 211 539 162C504 111 455 67 433 67C421 67 412 90 413 115L429 322C431 353 433 391 433 419C433 464 426 482 409 482C396 482 382 475 334 442L252 386L263 368L313 398C318 401 329 410 338 410C352 410 360 391 360 358C360 357 360 351 359 343L342 100L341 60C341 18 359 -11 384 -11C421 -11 505 74 580 187L531 16C480 -161 430 -234 360 -234C325 -234 298 -207 298 -172C298 -167 299 -159 300 -150L290 -146Z" stroke="rgb(208,2,27)" stroke-opacity="1" stroke-width="8" fill="rgb(208,2,27)" fill-opacity="1"></path></g></g><g><g transform="matrix(1,0,0,1,456.7166748046875,159.1999969482422)"><path transform="matrix(0.017,0,0,-0.017,0,0)" d="M51 726L32 700C87 636 187 526 187 266C187 -10 83 -131 32 -194L51 -215C104 -165 273 -23 273 265C273 542 108 675 51 726Z" stroke="rgb(208,2,27)" stroke-opacity="1" stroke-width="8" fill="rgb(208,2,27)" fill-opacity="1"></path></g></g><g><g transform="matrix(1,0,0,1,465.76666259765625,159.01666259765625)"><path transform="matrix(0.017,0,0,-0.017,0,0)" d="M611 37L376 271L611 505L568 547L335 313L101 547L59 505L293 271L59 37L101 -5L335 229L568 -5Z" stroke="rgb(155,155,155)" stroke-opacity="1" stroke-width="8" fill="rgb(155,155,155)" fill-opacity="1"></path></g></g><g><g transform="matrix(1,0,0,1,480.51666259765625,159.01666259765625)"><path transform="matrix(0.017,0,0,-0.017,0,0)" d="M406 377C497 409 588 440 588 546C588 637 526 681 399 681L316 680C292 679 223 678 207 678C193 678 164 678 118 679L39 681L39 644L76 641C121 637 124 631 124 543L124 95C124 61 119 46 104 38L72 20L72 -3C144 -1 170 0 198 0C237 0 340 -3 340 -3C500 -3 611 87 611 216C611 365 475 372 406 377ZM265 348L295 348C411 348 461 304 461 202C461 98 414 52 308 52C293 52 282 53 265 56ZM265 627C289 630 304 631 323 631C404 631 440 598 440 524C440 437 396 400 295 400L265 400Z" stroke="rgb(80,227,194)" stroke-opacity="1" stroke-width="8" fill="rgb(80,227,194)" fill-opacity="1"></path></g></g><g><g transform="matrix(1,0,0,1,491.83331298828125,159.1999969482422)"><path transform="matrix(0.017,0,0,-0.017,0,0)" d="M146 266C146 526 243 632 301 700L282 726C225 675 60 542 60 266C60 159 85 58 133 -32C168 -99 200 -138 282 -215L301 -194C255 -137 146 -15 146 266Z" stroke="rgb(80,227,194)" stroke-opacity="1" stroke-width="8" fill="rgb(80,227,194)" fill-opacity="1"></path></g></g><g><g transform="matrix(1,0,0,1,497.48333740234375,159.01666259765625)"><path transform="matrix(0.017,0,0,-0.017,0,0)" d="M166 420C187 420 203 421 229 424C118 304 76 221 76 121C76 44 122 -11 186 -11C324 -11 477 236 477 384C477 441 451 482 415 482C402 482 390 478 382 470L332 423L343 404C352 410 361 413 370 413C397 413 413 390 413 350C413 202 316 39 228 39C179 39 148 81 148 146C148 251 187 342 285 464L275 482C255 473 242 470 214 470C186 470 144 472 115 475L103 476C97 477 92 477 91 477C79 477 70 475 59 470C45 443 34 407 21 352L43 352L60 394C67 411 87 422 111 422C144 422 128 420 166 420Z" stroke="rgb(80,227,194)" stroke-opacity="1" stroke-width="8" fill="rgb(80,227,194)" fill-opacity="1"></path></g></g><g><g transform="matrix(1,0,0,1,505.9666748046875,159.01666259765625)"><path transform="matrix(0.017,0,0,-0.017,0,0)" d="M204 123C177 114 159 108 106 93C99 17 74 -48 16 -144L30 -155L71 -136C152 -31 190 32 218 109Z" stroke="rgb(80,227,194)" stroke-opacity="1" stroke-width="8" fill="rgb(80,227,194)" fill-opacity="1"></path></g></g><g><g transform="matrix(1,0,0,1,513.5999755859375,159.01666259765625)"><path transform="matrix(0.017,0,0,-0.017,0,0)" d="M258 1C273 -7 289 -11 301 -11C334 -11 373 18 404 65L480 182L491 113C504 28 527 -11 563 -11C585 -11 617 6 649 35L698 79L689 98C653 68 628 53 612 53C597 53 584 63 574 83C565 102 554 139 549 168L531 269L566 318C613 383 640 406 671 406C687 406 699 398 704 383L718 387L733 472C721 479 712 482 703 482C663 482 623 446 561 354L524 299L518 347C506 446 479 482 420 482C394 482 372 474 363 461L305 378L322 368C352 402 372 416 391 416C424 416 446 375 463 277L474 215L434 153C391 86 357 54 329 54C314 54 303 58 301 63L290 91L270 88C270 53 262 27 258 1Z" stroke="rgb(80,227,194)" stroke-opacity="1" stroke-width="8" fill="rgb(80,227,194)" fill-opacity="1"></path></g></g><g><g transform="matrix(1,0,0,1,526.316650390625,159.1999969482422)"><path transform="matrix(0.017,0,0,-0.017,0,0)" d="M51 726L32 700C87 636 187 526 187 266C187 -10 83 -131 32 -194L51 -215C104 -165 273 -23 273 265C273 542 108 675 51 726Z" stroke="rgb(80,227,194)" stroke-opacity="1" stroke-width="8" fill="rgb(80,227,194)" fill-opacity="1"></path></g></g></g><g></g><g><g><g transform="matrix(1,0,0,1,410.9166259765625,199.81666564941406)"><path transform="matrix(0.017,0,0,-0.017,0,0)" d="" stroke="rgb(155,155,155)" stroke-opacity="1" stroke-width="8" fill="rgb(155,155,155)" fill-opacity="1"></path></g></g></g></g><g><g><g><g transform="matrix(1,0,0,1,236.0999755859375,300.01666259765625)"><path transform="matrix(0.017,0,0,-0.017,0,0)" d="M406 377C497 409 588 440 588 546C588 637 526 681 399 681L316 680C292 679 223 678 207 678C193 678 164 678 118 679L39 681L39 644L76 641C121 637 124 631 124 543L124 95C124 61 119 46 104 38L72 20L72 -3C144 -1 170 0 198 0C237 0 340 -3 340 -3C500 -3 611 87 611 216C611 365 475 372 406 377ZM265 348L295 348C411 348 461 304 461 202C461 98 414 52 308 52C293 52 282 53 265 56ZM265 627C289 630 304 631 323 631C404 631 440 598 440 524C440 437 396 400 295 400L265 400Z" stroke="rgb(189,16,224)" stroke-opacity="1" stroke-width="8" fill="rgb(189,16,224)" fill-opacity="1"></path></g></g><g><g transform="matrix(1,0,0,1,247.4166259765625,300.20001220703125)"><path transform="matrix(0.017,0,0,-0.017,0,0)" d="M146 266C146 526 243 632 301 700L282 726C225 675 60 542 60 266C60 159 85 58 133 -32C168 -99 200 -138 282 -215L301 -194C255 -137 146 -15 146 266Z" stroke="rgb(189,16,224)" stroke-opacity="1" stroke-width="8" fill="rgb(189,16,224)" fill-opacity="1"></path></g></g><g><g transform="matrix(1,0,0,1,253.066650390625,300.01666259765625)"><path transform="matrix(0.017,0,0,-0.017,0,0)" d="M166 420C187 420 203 421 229 424C118 304 76 221 76 121C76 44 122 -11 186 -11C324 -11 477 236 477 384C477 441 451 482 415 482C402 482 390 478 382 470L332 423L343 404C352 410 361 413 370 413C397 413 413 390 413 350C413 202 316 39 228 39C179 39 148 81 148 146C148 251 187 342 285 464L275 482C255 473 242 470 214 470C186 470 144 472 115 475L103 476C97 477 92 477 91 477C79 477 70 475 59 470C45 443 34 407 21 352L43 352L60 394C67 411 87 422 111 422C144 422 128 420 166 420Z" stroke="rgb(189,16,224)" stroke-opacity="1" stroke-width="8" fill="rgb(189,16,224)" fill-opacity="1"></path></g></g><g><g transform="matrix(1,0,0,1,261.54998779296875,300.01666259765625)"><path transform="matrix(0.017,0,0,-0.017,0,0)" d="M204 123C177 114 159 108 106 93C99 17 74 -48 16 -144L30 -155L71 -136C152 -31 190 32 218 109Z" stroke="rgb(189,16,224)" stroke-opacity="1" stroke-width="8" fill="rgb(189,16,224)" fill-opacity="1"></path></g></g><g><g transform="matrix(1,0,0,1,269.183349609375,300.01666259765625)"><path transform="matrix(0.017,0,0,-0.017,0,0)" d="M242 -180C241 -187 241 -193 241 -198C241 -241 278 -276 323 -276C429 -276 539 -152 598 33L739 473L728 482C699 471 676 465 654 463L619 331C607 284 572 211 539 162C504 111 455 67 433 67C421 67 412 90 413 115L429 322C431 353 433 391 433 419C433 464 426 482 409 482C396 482 382 475 334 442L252 386L263 368L313 398C318 401 329 410 338 410C352 410 360 391 360 358C360 357 360 351 359 343L342 100L341 60C341 18 359 -11 384 -11C421 -11 505 74 580 187L531 16C480 -161 430 -234 360 -234C325 -234 298 -207 298 -172C298 -167 299 -159 300 -150L290 -146Z" stroke="rgb(189,16,224)" stroke-opacity="1" stroke-width="8" fill="rgb(189,16,224)" fill-opacity="1"></path></g></g><g><g transform="matrix(1,0,0,1,281.9000244140625,300.20001220703125)"><path transform="matrix(0.017,0,0,-0.017,0,0)" d="M51 726L32 700C87 636 187 526 187 266C187 -10 83 -131 32 -194L51 -215C104 -165 273 -23 273 265C273 542 108 675 51 726Z" stroke="rgb(189,16,224)" stroke-opacity="1" stroke-width="8" fill="rgb(189,16,224)" fill-opacity="1"></path></g></g></g><g></g><g><g><g transform="matrix(1,0,0,1,236.0999755859375,340.816650390625)"><path transform="matrix(0.017,0,0,-0.017,0,0)" d="" stroke="rgb(155,155,155)" stroke-opacity="1" stroke-width="8" fill="rgb(155,155,155)" fill-opacity="1"></path></g></g></g></g><g><g><g><g transform="matrix(1,0,0,1,230.1500244140625,29.01666259765625)"><path transform="matrix(0.017,0,0,-0.017,0,0)" d="M406 377C497 409 588 440 588 546C588 637 526 681 399 681L316 680C292 679 223 678 207 678C193 678 164 678 118 679L39 681L39 644L76 641C121 637 124 631 124 543L124 95C124 61 119 46 104 38L72 20L72 -3C144 -1 170 0 198 0C237 0 340 -3 340 -3C500 -3 611 87 611 216C611 365 475 372 406 377ZM265 348L295 348C411 348 461 304 461 202C461 98 414 52 308 52C293 52 282 53 265 56ZM265 627C289 630 304 631 323 631C404 631 440 598 440 524C440 437 396 400 295 400L265 400Z" stroke="rgb(208,2,27)" stroke-opacity="1" stroke-width="8" fill="rgb(208,2,27)" fill-opacity="1"></path></g></g><g><g transform="matrix(1,0,0,1,241.4666748046875,29.199996948242188)"><path transform="matrix(0.017,0,0,-0.017,0,0)" d="M146 266C146 526 243 632 301 700L282 726C225 675 60 542 60 266C60 159 85 58 133 -32C168 -99 200 -138 282 -215L301 -194C255 -137 146 -15 146 266Z" stroke="rgb(208,2,27)" stroke-opacity="1" stroke-width="8" fill="rgb(208,2,27)" fill-opacity="1"></path></g></g><g><g transform="matrix(1,0,0,1,247.11663818359375,29.01666259765625)"><path transform="matrix(0.017,0,0,-0.017,0,0)" d="M9 1C24 -7 40 -11 52 -11C85 -11 124 18 155 65L231 182L242 113C255 28 278 -11 314 -11C336 -11 368 6 400 35L449 79L440 98C404 68 379 53 363 53C348 53 335 63 325 83C316 102 305 139 300 168L282 269L317 318C364 383 391 406 422 406C438 406 450 398 455 383L469 387L484 472C472 479 463 482 454 482C414 482 374 446 312 354L275 299L269 347C257 446 230 482 171 482C145 482 123 474 114 461L56 378L73 368C103 402 123 416 142 416C175 416 197 375 214 277L225 215L185 153C142 86 108 54 80 54C65 54 54 58 52 63L41 91L21 88C21 53 13 27 9 1Z" stroke="rgb(208,2,27)" stroke-opacity="1" stroke-width="8" fill="rgb(208,2,27)" fill-opacity="1"></path></g></g><g><g transform="matrix(1,0,0,1,255.5999755859375,29.01666259765625)"><path transform="matrix(0.017,0,0,-0.017,0,0)" d="M204 123C177 114 159 108 106 93C99 17 74 -48 16 -144L30 -155L71 -136C152 -31 190 32 218 109Z" stroke="rgb(208,2,27)" stroke-opacity="1" stroke-width="8" fill="rgb(208,2,27)" fill-opacity="1"></path></g></g><g><g transform="matrix(1,0,0,1,263.23333740234375,29.01666259765625)"><path transform="matrix(0.017,0,0,-0.017,0,0)" d="M242 -180C241 -187 241 -193 241 -198C241 -241 278 -276 323 -276C429 -276 539 -152 598 33L739 473L728 482C699 471 676 465 654 463L619 331C607 284 572 211 539 162C504 111 455 67 433 67C421 67 412 90 413 115L429 322C431 353 433 391 433 419C433 464 426 482 409 482C396 482 382 475 334 442L252 386L263 368L313 398C318 401 329 410 338 410C352 410 360 391 360 358C360 357 360 351 359 343L342 100L341 60C341 18 359 -11 384 -11C421 -11 505 74 580 187L531 16C480 -161 430 -234 360 -234C325 -234 298 -207 298 -172C298 -167 299 -159 300 -150L290 -146Z" stroke="rgb(208,2,27)" stroke-opacity="1" stroke-width="8" fill="rgb(208,2,27)" fill-opacity="1"></path></g></g><g><g transform="matrix(1,0,0,1,275.95001220703125,29.199996948242188)"><path transform="matrix(0.017,0,0,-0.017,0,0)" d="M51 726L32 700C87 636 187 526 187 266C187 -10 83 -131 32 -194L51 -215C104 -165 273 -23 273 265C273 542 108 675 51 726Z" stroke="rgb(208,2,27)" stroke-opacity="1" stroke-width="8" fill="rgb(208,2,27)" fill-opacity="1"></path></g></g><g><g transform="matrix(1,0,0,1,285,29.01666259765625)"><path transform="matrix(0.017,0,0,-0.017,0,0)" d="M611 37L376 271L611 505L568 547L335 313L101 547L59 505L293 271L59 37L101 -5L335 229L568 -5Z" stroke="rgb(155,155,155)" stroke-opacity="1" stroke-width="8" fill="rgb(155,155,155)" fill-opacity="1"></path></g></g><g><g transform="matrix(1,0,0,1,299.75,29.01666259765625)"><path transform="matrix(0.017,0,0,-0.017,0,0)" d="M406 377C497 409 588 440 588 546C588 637 526 681 399 681L316 680C292 679 223 678 207 678C193 678 164 678 118 679L39 681L39 644L76 641C121 637 124 631 124 543L124 95C124 61 119 46 104 38L72 20L72 -3C144 -1 170 0 198 0C237 0 340 -3 340 -3C500 -3 611 87 611 216C611 365 475 372 406 377ZM265 348L295 348C411 348 461 304 461 202C461 98 414 52 308 52C293 52 282 53 265 56ZM265 627C289 630 304 631 323 631C404 631 440 598 440 524C440 437 396 400 295 400L265 400Z" stroke="rgb(126,211,33)" stroke-opacity="1" stroke-width="8" fill="rgb(126,211,33)" fill-opacity="1"></path></g></g><g><g transform="matrix(1,0,0,1,311.066650390625,29.199996948242188)"><path transform="matrix(0.017,0,0,-0.017,0,0)" d="M146 266C146 526 243 632 301 700L282 726C225 675 60 542 60 266C60 159 85 58 133 -32C168 -99 200 -138 282 -215L301 -194C255 -137 146 -15 146 266Z" stroke="rgb(126,211,33)" stroke-opacity="1" stroke-width="8" fill="rgb(126,211,33)" fill-opacity="1"></path></g></g><g><g transform="matrix(1,0,0,1,316.7166748046875,29.01666259765625)"><path transform="matrix(0.017,0,0,-0.017,0,0)" d="M167 420C188 420 201 421 226 424C171 350 72 266 72 126C72 44 107 -11 160 -11C224 -11 276 44 350 187C341 143 338 118 338 95C338 32 367 -11 412 -11C546 -11 699 238 699 384C699 441 673 482 637 482C624 482 612 478 604 470L554 423L565 404C574 410 583 413 592 413C619 413 635 390 635 350C635 205 538 39 453 39C424 39 403 79 403 134C403 181 412 247 424 290L476 474L469 482L395 460L366 311C354 249 340 209 311 155C271 80 233 39 203 39C168 39 145 78 145 136C145 255 186 352 285 464L275 482C255 473 242 470 214 470C186 470 144 472 115 475L103 476C97 477 92 477 91 477C79 477 70 475 59 470C45 443 34 407 21 352L43 352L60 394C67 411 87 422 111 422C145 422 128 420 167 420Z" stroke="rgb(126,211,33)" stroke-opacity="1" stroke-width="8" fill="rgb(126,211,33)" fill-opacity="1"></path></g></g><g><g transform="matrix(1,0,0,1,328.9666748046875,29.01666259765625)"><path transform="matrix(0.017,0,0,-0.017,0,0)" d="M204 123C177 114 159 108 106 93C99 17 74 -48 16 -144L30 -155L71 -136C152 -31 190 32 218 109Z" stroke="rgb(126,211,33)" stroke-opacity="1" stroke-width="8" fill="rgb(126,211,33)" fill-opacity="1"></path></g></g><g><g transform="matrix(1,0,0,1,336.5999755859375,29.01666259765625)"><path transform="matrix(0.017,0,0,-0.017,0,0)" d="M258 1C273 -7 289 -11 301 -11C334 -11 373 18 404 65L480 182L491 113C504 28 527 -11 563 -11C585 -11 617 6 649 35L698 79L689 98C653 68 628 53 612 53C597 53 584 63 574 83C565 102 554 139 549 168L531 269L566 318C613 383 640 406 671 406C687 406 699 398 704 383L718 387L733 472C721 479 712 482 703 482C663 482 623 446 561 354L524 299L518 347C506 446 479 482 420 482C394 482 372 474 363 461L305 378L322 368C352 402 372 416 391 416C424 416 446 375 463 277L474 215L434 153C391 86 357 54 329 54C314 54 303 58 301 63L290 91L270 88C270 53 262 27 258 1Z" stroke="rgb(126,211,33)" stroke-opacity="1" stroke-width="8" fill="rgb(126,211,33)" fill-opacity="1"></path></g></g><g><g transform="matrix(1,0,0,1,349.316650390625,29.199996948242188)"><path transform="matrix(0.017,0,0,-0.017,0,0)" d="M51 726L32 700C87 636 187 526 187 266C187 -10 83 -131 32 -194L51 -215C104 -165 273 -23 273 265C273 542 108 675 51 726Z" stroke="rgb(126,211,33)" stroke-opacity="1" stroke-width="8" fill="rgb(126,211,33)" fill-opacity="1"></path></g></g><g><g transform="matrix(1,0,0,1,358.36663818359375,29.01666259765625)"><path transform="matrix(0.017,0,0,-0.017,0,0)" d="M611 37L376 271L611 505L568 547L335 313L101 547L59 505L293 271L59 37L101 -5L335 229L568 -5Z" stroke="rgb(155,155,155)" stroke-opacity="1" stroke-width="8" fill="rgb(155,155,155)" fill-opacity="1"></path></g></g><g><g transform="matrix(1,0,0,1,373.11663818359375,29.01666259765625)"><path transform="matrix(0.017,0,0,-0.017,0,0)" d="M406 377C497 409 588 440 588 546C588 637 526 681 399 681L316 680C292 679 223 678 207 678C193 678 164 678 118 679L39 681L39 644L76 641C121 637 124 631 124 543L124 95C124 61 119 46 104 38L72 20L72 -3C144 -1 170 0 198 0C237 0 340 -3 340 -3C500 -3 611 87 611 216C611 365 475 372 406 377ZM265 348L295 348C411 348 461 304 461 202C461 98 414 52 308 52C293 52 282 53 265 56ZM265 627C289 630 304 631 323 631C404 631 440 598 440 524C440 437 396 400 295 400L265 400Z" stroke="rgb(74,144,226)" stroke-opacity="1" stroke-width="8" fill="rgb(74,144,226)" fill-opacity="1"></path></g></g><g><g transform="matrix(1,0,0,1,384.433349609375,29.199996948242188)"><path transform="matrix(0.017,0,0,-0.017,0,0)" d="M146 266C146 526 243 632 301 700L282 726C225 675 60 542 60 266C60 159 85 58 133 -32C168 -99 200 -138 282 -215L301 -194C255 -137 146 -15 146 266Z" stroke="rgb(74,144,226)" stroke-opacity="1" stroke-width="8" fill="rgb(74,144,226)" fill-opacity="1"></path></g></g><g><g transform="matrix(1,0,0,1,390.08331298828125,29.01666259765625)"><path transform="matrix(0.017,0,0,-0.017,0,0)" d="M166 420C187 420 203 421 229 424C118 304 76 221 76 121C76 44 122 -11 186 -11C324 -11 477 236 477 384C477 441 451 482 415 482C402 482 390 478 382 470L332 423L343 404C352 410 361 413 370 413C397 413 413 390 413 350C413 202 316 39 228 39C179 39 148 81 148 146C148 251 187 342 285 464L275 482C255 473 242 470 214 470C186 470 144 472 115 475L103 476C97 477 92 477 91 477C79 477 70 475 59 470C45 443 34 407 21 352L43 352L60 394C67 411 87 422 111 422C144 422 128 420 166 420Z" stroke="rgb(74,144,226)" stroke-opacity="1" stroke-width="8" fill="rgb(74,144,226)" fill-opacity="1"></path></g></g><g><g transform="matrix(1,0,0,1,398.566650390625,29.01666259765625)"><path transform="matrix(0.017,0,0,-0.017,0,0)" d="M204 123C177 114 159 108 106 93C99 17 74 -48 16 -144L30 -155L71 -136C152 -31 190 32 218 109Z" stroke="rgb(74,144,226)" stroke-opacity="1" stroke-width="8" fill="rgb(74,144,226)" fill-opacity="1"></path></g></g><g><g transform="matrix(1,0,0,1,406.20001220703125,29.01666259765625)"><path transform="matrix(0.017,0,0,-0.017,0,0)" d="M416 420C437 420 450 421 475 424C420 350 321 266 321 126C321 44 356 -11 409 -11C473 -11 525 44 599 187C590 143 587 118 587 95C587 32 616 -11 661 -11C795 -11 948 238 948 384C948 441 922 482 886 482C873 482 861 478 853 470L803 423L814 404C823 410 832 413 841 413C868 413 884 390 884 350C884 205 787 39 702 39C673 39 652 79 652 134C652 181 661 247 673 290L725 474L718 482L644 460L615 311C603 249 589 209 560 155C520 80 482 39 452 39C417 39 394 78 394 136C394 255 435 352 534 464L524 482C504 473 491 470 463 470C435 470 393 472 364 475L352 476C346 477 341 477 340 477C328 477 319 475 308 470C294 443 283 407 270 352L292 352L309 394C316 411 336 422 360 422C394 422 377 420 416 420Z" stroke="rgb(74,144,226)" stroke-opacity="1" stroke-width="8" fill="rgb(74,144,226)" fill-opacity="1"></path></g></g><g><g transform="matrix(1,0,0,1,422.683349609375,29.199996948242188)"><path transform="matrix(0.017,0,0,-0.017,0,0)" d="M51 726L32 700C87 636 187 526 187 266C187 -10 83 -131 32 -194L51 -215C104 -165 273 -23 273 265C273 542 108 675 51 726Z" stroke="rgb(74,144,226)" stroke-opacity="1" stroke-width="8" fill="rgb(74,144,226)" fill-opacity="1"></path></g></g></g><g></g><g><g><g transform="matrix(1,0,0,1,230.1500244140625,69.81666564941406)"><path transform="matrix(0.017,0,0,-0.017,0,0)" d="" stroke="rgb(155,155,155)" stroke-opacity="1" stroke-width="8" fill="rgb(155,155,155)" fill-opacity="1"></path></g></g></g></g><g><g><g><g transform="matrix(1,0,0,1,136.7166748046875,112.61666870117188)"><path transform="matrix(0.017,0,0,-0.017,0,0)" d="M342 330L365 330C373 395 380 432 389 458C365 473 330 482 293 482C248 483 175 463 118 400C64 352 25 241 25 136C25 40 67 -11 147 -11C201 -11 249 9 304 54L354 95L346 115L331 105C259 57 221 40 186 40C130 40 101 80 101 159C101 267 136 371 185 409C206 425 230 433 261 433C306 433 342 414 342 390Z" stroke="rgb(248,231,28)" stroke-opacity="1" stroke-width="8" fill="rgb(248,231,28)" fill-opacity="1"></path></g></g><g><g><g><g><g transform="matrix(1,0,0,1,144.13330078125,115.78333129882813)"><path transform="matrix(0.0119,0,0,-0.0119,0,0)" d="M167 420C188 420 201 421 226 424C171 350 72 266 72 126C72 44 107 -11 160 -11C224 -11 276 44 350 187C341 143 338 118 338 95C338 32 367 -11 412 -11C546 -11 699 238 699 384C699 441 673 482 637 482C624 482 612 478 604 470L554 423L565 404C574 410 583 413 592 413C619 413 635 390 635 350C635 205 538 39 453 39C424 39 403 79 403 134C403 181 412 247 424 290L476 474L469 482L395 460L366 311C354 249 340 209 311 155C271 80 233 39 203 39C168 39 145 78 145 136C145 255 186 352 285 464L275 482C255 473 242 470 214 470C186 470 144 472 115 475L103 476C97 477 92 477 91 477C79 477 70 475 59 470C45 443 34 407 21 352L43 352L60 394C67 411 87 422 111 422C145 422 128 420 167 420ZM730 1C745 -7 761 -11 773 -11C806 -11 845 18 876 65L952 182L963 113C976 28 999 -11 1035 -11C1057 -11 1089 6 1121 35L1170 79L1161 98C1125 68 1100 53 1084 53C1069 53 1056 63 1046 83C1037 102 1026 139 1021 168L1003 269L1038 318C1085 383 1112 406 1143 406C1159 406 1171 398 1176 383L1190 387L1205 472C1193 479 1184 482 1175 482C1135 482 1095 446 1033 354L996 299L990 347C978 446 951 482 892 482C866 482 844 474 835 461L777 378L794 368C824 402 844 416 863 416C896 416 918 375 935 277L946 215L906 153C863 86 829 54 801 54C786 54 775 58 773 63L762 91L742 88C742 53 734 27 730 1ZM1213 -180C1212 -187 1212 -193 1212 -198C1212 -241 1249 -276 1294 -276C1400 -276 1510 -152 1569 33L1710 473L1699 482C1670 471 1647 465 1625 463L1590 331C1578 284 1543 211 1510 162C1475 111 1426 67 1404 67C1392 67 1383 90 1384 115L1400 322C1402 353 1404 391 1404 419C1404 464 1397 482 1380 482C1367 482 1353 475 1305 442L1223 386L1234 368L1284 398C1289 401 1300 410 1309 410C1323 410 1331 391 1331 358C1331 357 1331 351 1330 343L1313 100L1312 60C1312 18 1330 -11 1355 -11C1392 -11 1476 74 1551 187L1502 16C1451 -161 1401 -234 1331 -234C1296 -234 1269 -207 1269 -172C1269 -167 1270 -159 1271 -150L1261 -146Z" stroke="rgb(248,231,28)" stroke-opacity="1" stroke-width="8" fill="rgb(248,231,28)" fill-opacity="1"></path></g></g></g></g></g><g><g transform="matrix(1,0,0,1,169,112.61666870117188)"><path transform="matrix(0.017,0,0,-0.017,0,0)" d="M611 37L376 271L611 505L568 547L335 313L101 547L59 505L293 271L59 37L101 -5L335 229L568 -5Z" stroke="rgb(155,155,155)" stroke-opacity="1" stroke-width="8" fill="rgb(155,155,155)" fill-opacity="1"></path></g></g><g><g transform="matrix(1,0,0,1,183.75,112.61666870117188)"><path transform="matrix(0.017,0,0,-0.017,0,0)" d="M34 388L41 368L73 389C110 412 113 414 120 414C130 414 138 404 138 391C138 384 134 361 130 347L64 107C56 76 51 49 51 30C51 6 62 -9 81 -9C107 -9 143 12 241 85L231 103L205 86C176 67 153 56 144 56C137 56 131 66 131 76C131 86 133 95 138 116L215 420C219 437 221 448 221 456C221 473 212 482 196 482C174 482 137 461 62 408ZM228 712C199 712 170 679 170 645C170 620 185 604 209 604C240 604 264 633 264 671C264 695 249 712 228 712ZM760 722L748 733C696 707 660 698 588 691L584 670L632 670C656 670 666 663 666 646C666 638 665 629 664 622L636 468C606 477 579 482 554 482C485 482 391 410 345 323C314 265 294 170 294 86C294 21 309 -11 338 -11C365 -11 402 6 436 33C490 77 523 116 590 217L567 126C556 82 551 50 551 24C551 3 560 -9 577 -9C594 -9 618 3 652 28L733 88L723 107L679 76C665 66 649 59 640 59C632 59 626 68 626 82C626 90 627 99 634 128ZM391 59C375 59 366 73 366 98C366 224 412 380 461 418C474 428 493 433 520 433C564 433 593 427 626 410L614 351C577 171 436 59 391 59Z" stroke="rgb(74,144,226)" stroke-opacity="1" stroke-width="8" fill="rgb(74,144,226)" fill-opacity="1"></path></g></g><g><g><g><g><g transform="matrix(1,0,0,1,197.4666748046875,115.78333129882813)"><path transform="matrix(0.0119,0,0,-0.0119,0,0)" d="M406 377C497 409 588 440 588 546C588 637 526 681 399 681L316 680C292 679 223 678 207 678C193 678 164 678 118 679L39 681L39 644L76 641C121 637 124 631 124 543L124 95C124 61 119 46 104 38L72 20L72 -3C144 -1 170 0 198 0C237 0 340 -3 340 -3C500 -3 611 87 611 216C611 365 475 372 406 377ZM265 348L295 348C411 348 461 304 461 202C461 98 414 52 308 52C293 52 282 53 265 56ZM265 627C289 630 304 631 323 631C404 631 440 598 440 524C440 437 396 400 295 400L265 400Z" stroke="rgb(74,144,226)" stroke-opacity="1" stroke-width="8" fill="rgb(74,144,226)" fill-opacity="1"></path></g></g><g><g transform="matrix(1,0,0,1,205.4000244140625,115.79999389648438)"><path transform="matrix(0.0119,0,0,-0.0119,0,0)" d="M146 266C146 526 243 632 301 700L282 726C225 675 60 542 60 266C60 159 85 58 133 -32C168 -99 200 -138 282 -215L301 -194C255 -137 146 -15 146 266Z" stroke="rgb(74,144,226)" stroke-opacity="1" stroke-width="8" fill="rgb(74,144,226)" fill-opacity="1"></path></g></g><g><g transform="matrix(1,0,0,1,209.3499755859375,115.78333129882813)"><path transform="matrix(0.0119,0,0,-0.0119,0,0)" d="M166 420C187 420 203 421 229 424C118 304 76 221 76 121C76 44 122 -11 186 -11C324 -11 477 236 477 384C477 441 451 482 415 482C402 482 390 478 382 470L332 423L343 404C352 410 361 413 370 413C397 413 413 390 413 350C413 202 316 39 228 39C179 39 148 81 148 146C148 251 187 342 285 464L275 482C255 473 242 470 214 470C186 470 144 472 115 475L103 476C97 477 92 477 91 477C79 477 70 475 59 470C45 443 34 407 21 352L43 352L60 394C67 411 87 422 111 422C144 422 128 420 166 420ZM703 123C676 114 658 108 605 93C598 17 573 -48 515 -144L529 -155L570 -136C651 -31 689 32 717 109ZM1164 420C1185 420 1198 421 1223 424C1168 350 1069 266 1069 126C1069 44 1104 -11 1157 -11C1221 -11 1273 44 1347 187C1338 143 1335 118 1335 95C1335 32 1364 -11 1409 -11C1543 -11 1696 238 1696 384C1696 441 1670 482 1634 482C1621 482 1609 478 1601 470L1551 423L1562 404C1571 410 1580 413 1589 413C1616 413 1632 390 1632 350C1632 205 1535 39 1450 39C1421 39 1400 79 1400 134C1400 181 1409 247 1421 290L1473 474L1466 482L1392 460L1363 311C1351 249 1337 209 1308 155C1268 80 1230 39 1200 39C1165 39 1142 78 1142 136C1142 255 1183 352 1282 464L1272 482C1252 473 1239 470 1211 470C1183 470 1141 472 1112 475L1100 476C1094 477 1089 477 1088 477C1076 477 1067 475 1056 470C1042 443 1031 407 1018 352L1040 352L1057 394C1064 411 1084 422 1108 422C1142 422 1125 420 1164 420Z" stroke="rgb(74,144,226)" stroke-opacity="1" stroke-width="8" fill="rgb(74,144,226)" fill-opacity="1"></path></g></g><g><g transform="matrix(1,0,0,1,229.79998779296875,115.79999389648438)"><path transform="matrix(0.0119,0,0,-0.0119,0,0)" d="M51 726L32 700C87 636 187 526 187 266C187 -10 83 -131 32 -194L51 -215C104 -165 273 -23 273 265C273 542 108 675 51 726Z" stroke="rgb(74,144,226)" stroke-opacity="1" stroke-width="8" fill="rgb(74,144,226)" fill-opacity="1"></path></g></g></g></g></g></g></g><g><g><g><g transform="matrix(1,0,0,1,421.7166748046875,113.61666870117188)"><path transform="matrix(0.017,0,0,-0.017,0,0)" d="M34 388L41 368L73 389C110 412 113 414 120 414C130 414 138 404 138 391C138 384 134 361 130 347L64 107C56 76 51 49 51 30C51 6 62 -9 81 -9C107 -9 143 12 241 85L231 103L205 86C176 67 153 56 144 56C137 56 131 66 131 76C131 86 133 95 138 116L215 420C219 437 221 448 221 456C221 473 212 482 196 482C174 482 137 461 62 408ZM228 712C199 712 170 679 170 645C170 620 185 604 209 604C240 604 264 633 264 671C264 695 249 712 228 712ZM760 722L748 733C696 707 660 698 588 691L584 670L632 670C656 670 666 663 666 646C666 638 665 629 664 622L636 468C606 477 579 482 554 482C485 482 391 410 345 323C314 265 294 170 294 86C294 21 309 -11 338 -11C365 -11 402 6 436 33C490 77 523 116 590 217L567 126C556 82 551 50 551 24C551 3 560 -9 577 -9C594 -9 618 3 652 28L733 88L723 107L679 76C665 66 649 59 640 59C632 59 626 68 626 82C626 90 627 99 634 128ZM391 59C375 59 366 73 366 98C366 224 412 380 461 418C474 428 493 433 520 433C564 433 593 427 626 410L614 351C577 171 436 59 391 59Z" stroke="rgb(208,2,27)" stroke-opacity="1" stroke-width="8" fill="rgb(208,2,27)" fill-opacity="1"></path></g></g><g><g><g><g><g transform="matrix(1,0,0,1,435.433349609375,116.78333129882813)"><path transform="matrix(0.0119,0,0,-0.0119,0,0)" d="M406 377C497 409 588 440 588 546C588 637 526 681 399 681L316 680C292 679 223 678 207 678C193 678 164 678 118 679L39 681L39 644L76 641C121 637 124 631 124 543L124 95C124 61 119 46 104 38L72 20L72 -3C144 -1 170 0 198 0C237 0 340 -3 340 -3C500 -3 611 87 611 216C611 365 475 372 406 377ZM265 348L295 348C411 348 461 304 461 202C461 98 414 52 308 52C293 52 282 53 265 56ZM265 627C289 630 304 631 323 631C404 631 440 598 440 524C440 437 396 400 295 400L265 400Z" stroke="rgb(208,2,27)" stroke-opacity="1" stroke-width="8" fill="rgb(208,2,27)" fill-opacity="1"></path></g></g><g><g transform="matrix(1,0,0,1,443.36663818359375,116.79999389648438)"><path transform="matrix(0.0119,0,0,-0.0119,0,0)" d="M146 266C146 526 243 632 301 700L282 726C225 675 60 542 60 266C60 159 85 58 133 -32C168 -99 200 -138 282 -215L301 -194C255 -137 146 -15 146 266Z" stroke="rgb(208,2,27)" stroke-opacity="1" stroke-width="8" fill="rgb(208,2,27)" fill-opacity="1"></path></g></g><g><g transform="matrix(1,0,0,1,447.316650390625,116.78333129882813)"><path transform="matrix(0.0119,0,0,-0.0119,0,0)" d="M9 1C24 -7 40 -11 52 -11C85 -11 124 18 155 65L231 182L242 113C255 28 278 -11 314 -11C336 -11 368 6 400 35L449 79L440 98C404 68 379 53 363 53C348 53 335 63 325 83C316 102 305 139 300 168L282 269L317 318C364 383 391 406 422 406C438 406 450 398 455 383L469 387L484 472C472 479 463 482 454 482C414 482 374 446 312 354L275 299L269 347C257 446 230 482 171 482C145 482 123 474 114 461L56 378L73 368C103 402 123 416 142 416C175 416 197 375 214 277L225 215L185 153C142 86 108 54 80 54C65 54 54 58 52 63L41 91L21 88C21 53 13 27 9 1ZM703 123C676 114 658 108 605 93C598 17 573 -48 515 -144L529 -155L570 -136C651 -31 689 32 717 109ZM990 -180C989 -187 989 -193 989 -198C989 -241 1026 -276 1071 -276C1177 -276 1287 -152 1346 33L1487 473L1476 482C1447 471 1424 465 1402 463L1367 331C1355 284 1320 211 1287 162C1252 111 1203 67 1181 67C1169 67 1160 90 1161 115L1177 322C1179 353 1181 391 1181 419C1181 464 1174 482 1157 482C1144 482 1130 475 1082 442L1000 386L1011 368L1061 398C1066 401 1077 410 1086 410C1100 410 1108 391 1108 358C1108 357 1108 351 1107 343L1090 100L1089 60C1089 18 1107 -11 1132 -11C1169 -11 1253 74 1328 187L1279 16C1228 -161 1178 -234 1108 -234C1073 -234 1046 -207 1046 -172C1046 -167 1047 -159 1048 -150L1038 -146Z" stroke="rgb(208,2,27)" stroke-opacity="1" stroke-width="8" fill="rgb(208,2,27)" fill-opacity="1"></path></g></g><g><g transform="matrix(1,0,0,1,465.11663818359375,116.79999389648438)"><path transform="matrix(0.0119,0,0,-0.0119,0,0)" d="M51 726L32 700C87 636 187 526 187 266C187 -10 83 -131 32 -194L51 -215C104 -165 273 -23 273 265C273 542 108 675 51 726Z" stroke="rgb(208,2,27)" stroke-opacity="1" stroke-width="8" fill="rgb(208,2,27)" fill-opacity="1"></path></g></g></g></g></g><g><g transform="matrix(1,0,0,1,473.48333740234375,113.61666870117188)"><path transform="matrix(0.017,0,0,-0.017,0,0)" d="M611 37L376 271L611 505L568 547L335 313L101 547L59 505L293 271L59 37L101 -5L335 229L568 -5Z" stroke="rgb(155,155,155)" stroke-opacity="1" stroke-width="8" fill="rgb(155,155,155)" fill-opacity="1"></path></g></g><g><g transform="matrix(1,0,0,1,488.23333740234375,113.61666870117188)"><path transform="matrix(0.017,0,0,-0.017,0,0)" d="M342 330L365 330C373 395 380 432 389 458C365 473 330 482 293 482C248 483 175 463 118 400C64 352 25 241 25 136C25 40 67 -11 147 -11C201 -11 249 9 304 54L354 95L346 115L331 105C259 57 221 40 186 40C130 40 101 80 101 159C101 267 136 371 185 409C206 425 230 433 261 433C306 433 342 414 342 390Z" stroke="rgb(80,227,194)" stroke-opacity="1" stroke-width="8" fill="rgb(80,227,194)" fill-opacity="1"></path></g></g><g><g><g><g><g transform="matrix(1,0,0,1,495.6500244140625,116.78333129882813)"><path transform="matrix(0.0119,0,0,-0.0119,0,0)" d="M166 420C187 420 203 421 229 424C118 304 76 221 76 121C76 44 122 -11 186 -11C324 -11 477 236 477 384C477 441 451 482 415 482C402 482 390 478 382 470L332 423L343 404C352 410 361 413 370 413C397 413 413 390 413 350C413 202 316 39 228 39C179 39 148 81 148 146C148 251 187 342 285 464L275 482C255 473 242 470 214 470C186 470 144 472 115 475L103 476C97 477 92 477 91 477C79 477 70 475 59 470C45 443 34 407 21 352L43 352L60 394C67 411 87 422 111 422C144 422 128 420 166 420ZM666 420C687 420 700 421 725 424C670 350 571 266 571 126C571 44 606 -11 659 -11C723 -11 775 44 849 187C840 143 837 118 837 95C837 32 866 -11 911 -11C1045 -11 1198 238 1198 384C1198 441 1172 482 1136 482C1123 482 1111 478 1103 470L1053 423L1064 404C1073 410 1082 413 1091 413C1118 413 1134 390 1134 350C1134 205 1037 39 952 39C923 39 902 79 902 134C902 181 911 247 923 290L975 474L968 482L894 460L865 311C853 249 839 209 810 155C770 80 732 39 702 39C667 39 644 78 644 136C644 255 685 352 784 464L774 482C754 473 741 470 713 470C685 470 643 472 614 475L602 476C596 477 591 477 590 477C578 477 569 475 558 470C544 443 533 407 520 352L542 352L559 394C566 411 586 422 610 422C644 422 627 420 666 420ZM1229 1C1244 -7 1260 -11 1272 -11C1305 -11 1344 18 1375 65L1451 182L1462 113C1475 28 1498 -11 1534 -11C1556 -11 1588 6 1620 35L1669 79L1660 98C1624 68 1599 53 1583 53C1568 53 1555 63 1545 83C1536 102 1525 139 1520 168L1502 269L1537 318C1584 383 1611 406 1642 406C1658 406 1670 398 1675 383L1689 387L1704 472C1692 479 1683 482 1674 482C1634 482 1594 446 1532 354L1495 299L1489 347C1477 446 1450 482 1391 482C1365 482 1343 474 1334 461L1276 378L1293 368C1323 402 1343 416 1362 416C1395 416 1417 375 1434 277L1445 215L1405 153C1362 86 1328 54 1300 54C1285 54 1274 58 1272 63L1261 91L1241 88C1241 53 1233 27 1229 1Z" stroke="rgb(80,227,194)" stroke-opacity="1" stroke-width="8" fill="rgb(80,227,194)" fill-opacity="1"></path></g></g></g></g></g></g></g><g><g><g><g transform="matrix(1,0,0,1,211.7166748046875,243.61666870117188)"><path transform="matrix(0.017,0,0,-0.017,0,0)" d="M342 330L365 330C373 395 380 432 389 458C365 473 330 482 293 482C248 483 175 463 118 400C64 352 25 241 25 136C25 40 67 -11 147 -11C201 -11 249 9 304 54L354 95L346 115L331 105C259 57 221 40 186 40C130 40 101 80 101 159C101 267 136 371 185 409C206 425 230 433 261 433C306 433 342 414 342 390Z" stroke="rgb(189,16,224)" stroke-opacity="1" stroke-width="8" fill="rgb(189,16,224)" fill-opacity="1"></path></g></g><g><g><g><g><g transform="matrix(1,0,0,1,219.13330078125,246.78333129882813)"><path transform="matrix(0.0119,0,0,-0.0119,0,0)" d="M166 420C187 420 203 421 229 424C118 304 76 221 76 121C76 44 122 -11 186 -11C324 -11 477 236 477 384C477 441 451 482 415 482C402 482 390 478 382 470L332 423L343 404C352 410 361 413 370 413C397 413 413 390 413 350C413 202 316 39 228 39C179 39 148 81 148 146C148 251 187 342 285 464L275 482C255 473 242 470 214 470C186 470 144 472 115 475L103 476C97 477 92 477 91 477C79 477 70 475 59 470C45 443 34 407 21 352L43 352L60 394C67 411 87 422 111 422C144 422 128 420 166 420ZM666 420C687 420 700 421 725 424C670 350 571 266 571 126C571 44 606 -11 659 -11C723 -11 775 44 849 187C840 143 837 118 837 95C837 32 866 -11 911 -11C1045 -11 1198 238 1198 384C1198 441 1172 482 1136 482C1123 482 1111 478 1103 470L1053 423L1064 404C1073 410 1082 413 1091 413C1118 413 1134 390 1134 350C1134 205 1037 39 952 39C923 39 902 79 902 134C902 181 911 247 923 290L975 474L968 482L894 460L865 311C853 249 839 209 810 155C770 80 732 39 702 39C667 39 644 78 644 136C644 255 685 352 784 464L774 482C754 473 741 470 713 470C685 470 643 472 614 475L602 476C596 477 591 477 590 477C578 477 569 475 558 470C544 443 533 407 520 352L542 352L559 394C566 411 586 422 610 422C644 422 627 420 666 420ZM1213 -180C1212 -187 1212 -193 1212 -198C1212 -241 1249 -276 1294 -276C1400 -276 1510 -152 1569 33L1710 473L1699 482C1670 471 1647 465 1625 463L1590 331C1578 284 1543 211 1510 162C1475 111 1426 67 1404 67C1392 67 1383 90 1384 115L1400 322C1402 353 1404 391 1404 419C1404 464 1397 482 1380 482C1367 482 1353 475 1305 442L1223 386L1234 368L1284 398C1289 401 1300 410 1309 410C1323 410 1331 391 1331 358C1331 357 1331 351 1330 343L1313 100L1312 60C1312 18 1330 -11 1355 -11C1392 -11 1476 74 1551 187L1502 16C1451 -161 1401 -234 1331 -234C1296 -234 1269 -207 1269 -172C1269 -167 1270 -159 1271 -150L1261 -146Z" stroke="rgb(189,16,224)" stroke-opacity="1" stroke-width="8" fill="rgb(189,16,224)" fill-opacity="1"></path></g></g></g></g></g></g></g><g><g><g><g transform="matrix(1,0,0,1,420.7166748046875,243.61666870117188)"><path transform="matrix(0.017,0,0,-0.017,0,0)" d="M342 330L365 330C373 395 380 432 389 458C365 473 330 482 293 482C248 483 175 463 118 400C64 352 25 241 25 136C25 40 67 -11 147 -11C201 -11 249 9 304 54L354 95L346 115L331 105C259 57 221 40 186 40C130 40 101 80 101 159C101 267 136 371 185 409C206 425 230 433 261 433C306 433 342 414 342 390Z" stroke="rgb(189,16,224)" stroke-opacity="1" stroke-width="8" fill="rgb(189,16,224)" fill-opacity="1"></path></g></g><g><g><g><g><g transform="matrix(1,0,0,1,428.13330078125,246.78333129882813)"><path transform="matrix(0.0119,0,0,-0.0119,0,0)" d="M166 420C187 420 203 421 229 424C118 304 76 221 76 121C76 44 122 -11 186 -11C324 -11 477 236 477 384C477 441 451 482 415 482C402 482 390 478 382 470L332 423L343 404C352 410 361 413 370 413C397 413 413 390 413 350C413 202 316 39 228 39C179 39 148 81 148 146C148 251 187 342 285 464L275 482C255 473 242 470 214 470C186 470 144 472 115 475L103 476C97 477 92 477 91 477C79 477 70 475 59 470C45 443 34 407 21 352L43 352L60 394C67 411 87 422 111 422C144 422 128 420 166 420ZM508 1C523 -7 539 -11 551 -11C584 -11 623 18 654 65L730 182L741 113C754 28 777 -11 813 -11C835 -11 867 6 899 35L948 79L939 98C903 68 878 53 862 53C847 53 834 63 824 83C815 102 804 139 799 168L781 269L816 318C863 383 890 406 921 406C937 406 949 398 954 383L968 387L983 472C971 479 962 482 953 482C913 482 873 446 811 354L774 299L768 347C756 446 729 482 670 482C644 482 622 474 613 461L555 378L572 368C602 402 622 416 641 416C674 416 696 375 713 277L724 215L684 153C641 86 607 54 579 54C564 54 553 58 551 63L540 91L520 88C520 53 512 27 508 1ZM991 -180C990 -187 990 -193 990 -198C990 -241 1027 -276 1072 -276C1178 -276 1288 -152 1347 33L1488 473L1477 482C1448 471 1425 465 1403 463L1368 331C1356 284 1321 211 1288 162C1253 111 1204 67 1182 67C1170 67 1161 90 1162 115L1178 322C1180 353 1182 391 1182 419C1182 464 1175 482 1158 482C1145 482 1131 475 1083 442L1001 386L1012 368L1062 398C1067 401 1078 410 1087 410C1101 410 1109 391 1109 358C1109 357 1109 351 1108 343L1091 100L1090 60C1090 18 1108 -11 1133 -11C1170 -11 1254 74 1329 187L1280 16C1229 -161 1179 -234 1109 -234C1074 -234 1047 -207 1047 -172C1047 -167 1048 -159 1049 -150L1039 -146Z" stroke="rgb(189,16,224)" stroke-opacity="1" stroke-width="8" fill="rgb(189,16,224)" fill-opacity="1"></path></g></g></g></g></g></g></g><g><g><g><g transform="matrix(1,0,0,1,306.7166748046875,163.61666870117188)"><path transform="matrix(0.017,0,0,-0.017,0,0)" d="M271 204L242 77C238 60 236 42 236 26C236 4 245 -9 260 -9C283 -9 324 17 406 85L399 106C375 86 346 59 324 59C315 59 309 68 309 82C309 87 309 90 310 93L402 472L392 481L359 463C318 478 301 482 274 482C246 482 226 477 199 464C137 433 104 403 79 354C35 265 4 145 4 67C4 23 19 -11 38 -11C75 -11 155 41 271 204ZM319 414C297 305 278 253 244 201C187 117 126 59 94 59C82 59 76 72 76 99C76 163 104 280 139 360C163 415 186 433 234 433C257 433 275 429 319 414Z" stroke="rgb(189,16,224)" stroke-opacity="1" stroke-width="8" fill="rgb(189,16,224)" fill-opacity="1"></path></g></g><g><g><g><g><g transform="matrix(1,0,0,1,314.76666259765625,166.78333129882813)"><path transform="matrix(0.0119,0,0,-0.0119,0,0)" d="M166 420C187 420 203 421 229 424C118 304 76 221 76 121C76 44 122 -11 186 -11C324 -11 477 236 477 384C477 441 451 482 415 482C402 482 390 478 382 470L332 423L343 404C352 410 361 413 370 413C397 413 413 390 413 350C413 202 316 39 228 39C179 39 148 81 148 146C148 251 187 342 285 464L275 482C255 473 242 470 214 470C186 470 144 472 115 475L103 476C97 477 92 477 91 477C79 477 70 475 59 470C45 443 34 407 21 352L43 352L60 394C67 411 87 422 111 422C144 422 128 420 166 420ZM666 420C687 420 700 421 725 424C670 350 571 266 571 126C571 44 606 -11 659 -11C723 -11 775 44 849 187C840 143 837 118 837 95C837 32 866 -11 911 -11C1045 -11 1198 238 1198 384C1198 441 1172 482 1136 482C1123 482 1111 478 1103 470L1053 423L1064 404C1073 410 1082 413 1091 413C1118 413 1134 390 1134 350C1134 205 1037 39 952 39C923 39 902 79 902 134C902 181 911 247 923 290L975 474L968 482L894 460L865 311C853 249 839 209 810 155C770 80 732 39 702 39C667 39 644 78 644 136C644 255 685 352 784 464L774 482C754 473 741 470 713 470C685 470 643 472 614 475L602 476C596 477 591 477 590 477C578 477 569 475 558 470C544 443 533 407 520 352L542 352L559 394C566 411 586 422 610 422C644 422 627 420 666 420ZM1229 1C1244 -7 1260 -11 1272 -11C1305 -11 1344 18 1375 65L1451 182L1462 113C1475 28 1498 -11 1534 -11C1556 -11 1588 6 1620 35L1669 79L1660 98C1624 68 1599 53 1583 53C1568 53 1555 63 1545 83C1536 102 1525 139 1520 168L1502 269L1537 318C1584 383 1611 406 1642 406C1658 406 1670 398 1675 383L1689 387L1704 472C1692 479 1683 482 1674 482C1634 482 1594 446 1532 354L1495 299L1489 347C1477 446 1450 482 1391 482C1365 482 1343 474 1334 461L1276 378L1293 368C1323 402 1343 416 1362 416C1395 416 1417 375 1434 277L1445 215L1405 153C1362 86 1328 54 1300 54C1285 54 1274 58 1272 63L1261 91L1241 88C1241 53 1233 27 1229 1ZM1712 -180C1711 -187 1711 -193 1711 -198C1711 -241 1748 -276 1793 -276C1899 -276 2009 -152 2068 33L2209 473L2198 482C2169 471 2146 465 2124 463L2089 331C2077 284 2042 211 2009 162C1974 111 1925 67 1903 67C1891 67 1882 90 1883 115L1899 322C1901 353 1903 391 1903 419C1903 464 1896 482 1879 482C1866 482 1852 475 1804 442L1722 386L1733 368L1783 398C1788 401 1799 410 1808 410C1822 410 1830 391 1830 358C1830 357 1830 351 1829 343L1812 100L1811 60C1811 18 1829 -11 1854 -11C1891 -11 1975 74 2050 187L2001 16C1950 -161 1900 -234 1830 -234C1795 -234 1768 -207 1768 -172C1768 -167 1769 -159 1770 -150L1760 -146Z" stroke="rgb(189,16,224)" stroke-opacity="1" stroke-width="8" fill="rgb(189,16,224)" fill-opacity="1"></path></g></g></g></g></g></g></g><g><g><g><g transform="matrix(1,0,0,1,297.566650390625,57)"><path transform="matrix(0.017,0,0,-0.017,0,0)" d="M146 266C146 526 243 632 301 700L282 726C225 675 60 542 60 266C60 159 85 58 133 -32C168 -99 200 -138 282 -215L301 -194C255 -137 146 -15 146 266Z" stroke="rgb(155,155,155)" stroke-opacity="1" stroke-width="8" fill="rgb(155,155,155)" fill-opacity="1"></path></g></g><g><g transform="matrix(1,0,0,1,303.2166748046875,56.81666564941406)"><path transform="matrix(0.017,0,0,-0.017,0,0)" d="M236 722L224 733C179 711 138 697 64 691L60 670L108 670C126 670 142 667 142 647C142 641 142 632 140 622L98 388C78 272 36 80 10 2L17 -9L86 7C94 64 108 164 148 236C193 317 296 414 338 414C349 414 360 407 360 393C360 375 355 342 345 303L294 107C288 85 281 55 281 31C281 6 291 -9 312 -9C344 -9 412 41 471 85L461 103L435 86C412 71 386 56 374 56C367 56 361 65 361 76C361 88 364 101 368 116L432 372C438 398 443 423 443 447C443 464 437 482 411 482C376 482 299 437 231 374C198 343 172 308 144 273L140 275Z" stroke="rgb(208,2,27)" stroke-opacity="1" stroke-width="8" fill="rgb(208,2,27)" fill-opacity="1"></path></g></g><g><g transform="matrix(1,0,0,1,311.70001220703125,56.81666564941406)"><path transform="matrix(0.017,0,0,-0.017,0,0)" d="M204 123C177 114 159 108 106 93C99 17 74 -48 16 -144L30 -155L71 -136C152 -31 190 32 218 109Z" stroke="rgb(155,155,155)" stroke-opacity="1" stroke-width="8" fill="rgb(155,155,155)" fill-opacity="1"></path></g></g><g><g transform="matrix(1,0,0,1,319.33331298828125,56.81666564941406)"><path transform="matrix(0.017,0,0,-0.017,0,0)" d="" stroke="rgb(155,155,155)" stroke-opacity="1" stroke-width="8" fill="rgb(155,155,155)" fill-opacity="1"></path></g></g><g><g transform="matrix(1,0,0,1,323.566650390625,56.81666564941406)"><path transform="matrix(0.017,0,0,-0.017,0,0)" d="M275 482C208 482 55 419 55 259C55 182 100 136 177 136C185 136 196 136 207 137L166 99C150 84 139 66 139 52C139 42 146 31 160 19C91 -4 -37 -48 -37 -159C-37 -230 33 -276 142 -276C271 -276 384 -204 384 -121C384 -85 363 -49 320 -14L260 35C226 62 213 81 213 100C213 114 228 128 240 146C338 170 409 253 409 342C409 357 406 376 405 380C422 378 430 378 439 378C456 378 466 379 489 382L498 427L495 433C467 426 447 424 393 424C393 425 369 482 275 482ZM176 1L253 -58C299 -94 318 -121 318 -154C318 -206 249 -248 166 -248C84 -248 27 -206 27 -145C27 -43 137 -11 176 1ZM250 448C308 448 337 412 337 341C337 238 289 168 219 168C158 168 126 209 126 288C126 383 177 448 250 448Z" stroke="rgb(126,211,33)" stroke-opacity="1" stroke-width="8" fill="rgb(126,211,33)" fill-opacity="1"></path></g></g><g><g transform="matrix(1,0,0,1,332.04998779296875,56.81666564941406)"><path transform="matrix(0.017,0,0,-0.017,0,0)" d="M204 123C177 114 159 108 106 93C99 17 74 -48 16 -144L30 -155L71 -136C152 -31 190 32 218 109Z" stroke="rgb(155,155,155)" stroke-opacity="1" stroke-width="8" fill="rgb(155,155,155)" fill-opacity="1"></path></g></g><g><g transform="matrix(1,0,0,1,339.683349609375,56.81666564941406)"><path transform="matrix(0.017,0,0,-0.017,0,0)" d="" stroke="rgb(155,155,155)" stroke-opacity="1" stroke-width="8" fill="rgb(155,155,155)" fill-opacity="1"></path></g></g><g><g transform="matrix(1,0,0,1,343.9166259765625,56.81666564941406)"><path transform="matrix(0.017,0,0,-0.017,0,0)" d="M345 437L329 437L350 549C366 635 394 673 440 673C470 673 497 658 512 634L522 638C527 654 537 685 545 705L550 720C534 727 503 733 480 733C469 733 453 730 445 726C421 715 339 654 316 630C294 608 282 578 271 521L256 442C215 422 195 414 170 405L165 383L246 383L237 327C207 132 170 -54 148 -123C130 -182 100 -213 64 -213C41 -213 30 -206 12 -184L-2 -188C-6 -211 -20 -259 -25 -268C-16 -273 -1 -276 10 -276C51 -276 105 -245 144 -198C215 -114 235 -18 319 383L423 383C427 402 434 425 440 439L436 446C407 439 408 437 345 437Z" stroke="rgb(74,144,226)" stroke-opacity="1" stroke-width="8" fill="rgb(74,144,226)" fill-opacity="1"></path></g></g><g><g transform="matrix(1,0,0,1,353.26666259765625,57)"><path transform="matrix(0.017,0,0,-0.017,0,0)" d="M51 726L32 700C87 636 187 526 187 266C187 -10 83 -131 32 -194L51 -215C104 -165 273 -23 273 265C273 542 108 675 51 726Z" stroke="rgb(155,155,155)" stroke-opacity="1" stroke-width="8" fill="rgb(155,155,155)" fill-opacity="1"></path></g></g></g></g><g><g><g><g transform="matrix(1,0,0,1,241.0333251953125,326.6000061035156)"><path transform="matrix(0.017,0,0,-0.017,0,0)" d="M146 266C146 526 243 632 301 700L282 726C225 675 60 542 60 266C60 159 85 58 133 -32C168 -99 200 -138 282 -215L301 -194C255 -137 146 -15 146 266Z" stroke="rgb(155,155,155)" stroke-opacity="1" stroke-width="8" fill="rgb(155,155,155)" fill-opacity="1"></path></g></g><g><g transform="matrix(1,0,0,1,246.683349609375,326.41668701171875)"><path transform="matrix(0.017,0,0,-0.017,0,0)" d="M236 722L224 733C179 711 138 697 64 691L60 670L108 670C126 670 142 667 142 647C142 641 142 632 140 622L98 388C78 272 36 80 10 2L17 -9L86 7C94 64 108 164 148 236C193 317 296 414 338 414C349 414 360 407 360 393C360 375 355 342 345 303L294 107C288 85 281 55 281 31C281 6 291 -9 312 -9C344 -9 412 41 471 85L461 103L435 86C412 71 386 56 374 56C367 56 361 65 361 76C361 88 364 101 368 116L432 372C438 398 443 423 443 447C443 464 437 482 411 482C376 482 299 437 231 374C198 343 172 308 144 273L140 275Z" stroke="rgb(208,2,27)" stroke-opacity="1" stroke-width="8" fill="rgb(208,2,27)" fill-opacity="1"></path></g></g><g><g transform="matrix(1,0,0,1,258.566650390625,326.41668701171875)"><path transform="matrix(0.017,0,0,-0.017,0,0)" d="M342 271C342 352 277 417 195 417C112 417 47 352 47 271C47 188 112 124 195 124C277 124 342 188 342 271ZM304 271C304 209 254 161 195 161C133 161 85 209 85 271C85 331 133 380 195 380C254 380 304 331 304 271Z" stroke="rgb(248,231,28)" stroke-opacity="1" stroke-width="8" fill="rgb(248,231,28)" fill-opacity="1"></path></g></g><g><g transform="matrix(1,0,0,1,268.566650390625,326.41668701171875)"><path transform="matrix(0.017,0,0,-0.017,0,0)" d="M275 482C208 482 55 419 55 259C55 182 100 136 177 136C185 136 196 136 207 137L166 99C150 84 139 66 139 52C139 42 146 31 160 19C91 -4 -37 -48 -37 -159C-37 -230 33 -276 142 -276C271 -276 384 -204 384 -121C384 -85 363 -49 320 -14L260 35C226 62 213 81 213 100C213 114 228 128 240 146C338 170 409 253 409 342C409 357 406 376 405 380C422 378 430 378 439 378C456 378 466 379 489 382L498 427L495 433C467 426 447 424 393 424C393 425 369 482 275 482ZM176 1L253 -58C299 -94 318 -121 318 -154C318 -206 249 -248 166 -248C84 -248 27 -206 27 -145C27 -43 137 -11 176 1ZM250 448C308 448 337 412 337 341C337 238 289 168 219 168C158 168 126 209 126 288C126 383 177 448 250 448Z" stroke="rgb(126,211,33)" stroke-opacity="1" stroke-width="8" fill="rgb(126,211,33)" fill-opacity="1"></path></g></g><g><g transform="matrix(1,0,0,1,277.04998779296875,326.6000061035156)"><path transform="matrix(0.017,0,0,-0.017,0,0)" d="M51 726L32 700C87 636 187 526 187 266C187 -10 83 -131 32 -194L51 -215C104 -165 273 -23 273 265C273 542 108 675 51 726Z" stroke="rgb(155,155,155)" stroke-opacity="1" stroke-width="8" fill="rgb(155,155,155)" fill-opacity="1"></path></g></g><g><g transform="matrix(1,0,0,1,286.0999755859375,326.41668701171875)"><path transform="matrix(0.017,0,0,-0.017,0,0)" d="M342 271C342 352 277 417 195 417C112 417 47 352 47 271C47 188 112 124 195 124C277 124 342 188 342 271ZM304 271C304 209 254 161 195 161C133 161 85 209 85 271C85 331 133 380 195 380C254 380 304 331 304 271Z" stroke="rgb(189,16,224)" stroke-opacity="1" stroke-width="8" fill="rgb(189,16,224)" fill-opacity="1"></path></g></g><g><g transform="matrix(1,0,0,1,296.0999755859375,326.41668701171875)"><path transform="matrix(0.017,0,0,-0.017,0,0)" d="M345 437L329 437L350 549C366 635 394 673 440 673C470 673 497 658 512 634L522 638C527 654 537 685 545 705L550 720C534 727 503 733 480 733C469 733 453 730 445 726C421 715 339 654 316 630C294 608 282 578 271 521L256 442C215 422 195 414 170 405L165 383L246 383L237 327C207 132 170 -54 148 -123C130 -182 100 -213 64 -213C41 -213 30 -206 12 -184L-2 -188C-6 -211 -20 -259 -25 -268C-16 -273 -1 -276 10 -276C51 -276 105 -245 144 -198C215 -114 235 -18 319 383L423 383C427 402 434 425 440 439L436 446C407 439 408 437 345 437Z" stroke="rgb(74,144,226)" stroke-opacity="1" stroke-width="8" fill="rgb(74,144,226)" fill-opacity="1"></path></g></g></g></g><g><g><g><g transform="matrix(1,0,0,1,131.79998779296875,184)"><path transform="matrix(0.017,0,0,-0.017,0,0)" d="M146 266C146 526 243 632 301 700L282 726C225 675 60 542 60 266C60 159 85 58 133 -32C168 -99 200 -138 282 -215L301 -194C255 -137 146 -15 146 266Z" stroke="rgb(155,155,155)" stroke-opacity="1" stroke-width="8" fill="rgb(155,155,155)" fill-opacity="1"></path></g></g><g><g transform="matrix(1,0,0,1,137.45001220703125,183.81666564941406)"><path transform="matrix(0.017,0,0,-0.017,0,0)" d="M236 722L224 733C179 711 138 697 64 691L60 670L108 670C126 670 142 667 142 647C142 641 142 632 140 622L98 388C78 272 36 80 10 2L17 -9L86 7C94 64 108 164 148 236C193 317 296 414 338 414C349 414 360 407 360 393C360 375 355 342 345 303L294 107C288 85 281 55 281 31C281 6 291 -9 312 -9C344 -9 412 41 471 85L461 103L435 86C412 71 386 56 374 56C367 56 361 65 361 76C361 88 364 101 368 116L432 372C438 398 443 423 443 447C443 464 437 482 411 482C376 482 299 437 231 374C198 343 172 308 144 273L140 275Z" stroke="rgb(208,2,27)" stroke-opacity="1" stroke-width="8" fill="rgb(208,2,27)" fill-opacity="1"></path></g></g><g><g transform="matrix(1,0,0,1,149.33331298828125,183.81666564941406)"><path transform="matrix(0.017,0,0,-0.017,0,0)" d="M342 271C342 352 277 417 195 417C112 417 47 352 47 271C47 188 112 124 195 124C277 124 342 188 342 271ZM304 271C304 209 254 161 195 161C133 161 85 209 85 271C85 331 133 380 195 380C254 380 304 331 304 271Z" stroke="rgb(248,231,28)" stroke-opacity="1" stroke-width="8" fill="rgb(248,231,28)" fill-opacity="1"></path></g></g><g><g transform="matrix(1,0,0,1,159.33331298828125,183.81666564941406)"><path transform="matrix(0.017,0,0,-0.017,0,0)" d="M275 482C208 482 55 419 55 259C55 182 100 136 177 136C185 136 196 136 207 137L166 99C150 84 139 66 139 52C139 42 146 31 160 19C91 -4 -37 -48 -37 -159C-37 -230 33 -276 142 -276C271 -276 384 -204 384 -121C384 -85 363 -49 320 -14L260 35C226 62 213 81 213 100C213 114 228 128 240 146C338 170 409 253 409 342C409 357 406 376 405 380C422 378 430 378 439 378C456 378 466 379 489 382L498 427L495 433C467 426 447 424 393 424C393 425 369 482 275 482ZM176 1L253 -58C299 -94 318 -121 318 -154C318 -206 249 -248 166 -248C84 -248 27 -206 27 -145C27 -43 137 -11 176 1ZM250 448C308 448 337 412 337 341C337 238 289 168 219 168C158 168 126 209 126 288C126 383 177 448 250 448Z" stroke="rgb(126,211,33)" stroke-opacity="1" stroke-width="8" fill="rgb(126,211,33)" fill-opacity="1"></path></g></g><g><g transform="matrix(1,0,0,1,167.816650390625,183.81666564941406)"><path transform="matrix(0.017,0,0,-0.017,0,0)" d="M204 123C177 114 159 108 106 93C99 17 74 -48 16 -144L30 -155L71 -136C152 -31 190 32 218 109Z" stroke="rgb(155,155,155)" stroke-opacity="1" stroke-width="8" fill="rgb(155,155,155)" fill-opacity="1"></path></g></g><g><g transform="matrix(1,0,0,1,175.45001220703125,183.81666564941406)"><path transform="matrix(0.017,0,0,-0.017,0,0)" d="" stroke="rgb(155,155,155)" stroke-opacity="1" stroke-width="8" fill="rgb(155,155,155)" fill-opacity="1"></path></g></g><g><g transform="matrix(1,0,0,1,179.683349609375,183.81666564941406)"><path transform="matrix(0.017,0,0,-0.017,0,0)" d="M345 437L329 437L350 549C366 635 394 673 440 673C470 673 497 658 512 634L522 638C527 654 537 685 545 705L550 720C534 727 503 733 480 733C469 733 453 730 445 726C421 715 339 654 316 630C294 608 282 578 271 521L256 442C215 422 195 414 170 405L165 383L246 383L237 327C207 132 170 -54 148 -123C130 -182 100 -213 64 -213C41 -213 30 -206 12 -184L-2 -188C-6 -211 -20 -259 -25 -268C-16 -273 -1 -276 10 -276C51 -276 105 -245 144 -198C215 -114 235 -18 319 383L423 383C427 402 434 425 440 439L436 446C407 439 408 437 345 437Z" stroke="rgb(74,144,226)" stroke-opacity="1" stroke-width="8" fill="rgb(74,144,226)" fill-opacity="1"></path></g></g><g><g transform="matrix(1,0,0,1,189.0333251953125,184)"><path transform="matrix(0.017,0,0,-0.017,0,0)" d="M51 726L32 700C87 636 187 526 187 266C187 -10 83 -131 32 -194L51 -215C104 -165 273 -23 273 265C273 542 108 675 51 726Z" stroke="rgb(155,155,155)" stroke-opacity="1" stroke-width="8" fill="rgb(155,155,155)" fill-opacity="1"></path></g></g></g></g><g><g><g><g transform="matrix(1,0,0,1,459.79998779296875,184)"><path transform="matrix(0.017,0,0,-0.017,0,0)" d="M146 266C146 526 243 632 301 700L282 726C225 675 60 542 60 266C60 159 85 58 133 -32C168 -99 200 -138 282 -215L301 -194C255 -137 146 -15 146 266Z" stroke="rgb(155,155,155)" stroke-opacity="1" stroke-width="8" fill="rgb(155,155,155)" fill-opacity="1"></path></g></g><g><g transform="matrix(1,0,0,1,465.45001220703125,183.81666564941406)"><path transform="matrix(0.017,0,0,-0.017,0,0)" d="M236 722L224 733C179 711 138 697 64 691L60 670L108 670C126 670 142 667 142 647C142 641 142 632 140 622L98 388C78 272 36 80 10 2L17 -9L86 7C94 64 108 164 148 236C193 317 296 414 338 414C349 414 360 407 360 393C360 375 355 342 345 303L294 107C288 85 281 55 281 31C281 6 291 -9 312 -9C344 -9 412 41 471 85L461 103L435 86C412 71 386 56 374 56C367 56 361 65 361 76C361 88 364 101 368 116L432 372C438 398 443 423 443 447C443 464 437 482 411 482C376 482 299 437 231 374C198 343 172 308 144 273L140 275Z" stroke="rgb(208,2,27)" stroke-opacity="1" stroke-width="8" fill="rgb(208,2,27)" fill-opacity="1"></path></g></g><g><g transform="matrix(1,0,0,1,473.933349609375,183.81666564941406)"><path transform="matrix(0.017,0,0,-0.017,0,0)" d="M204 123C177 114 159 108 106 93C99 17 74 -48 16 -144L30 -155L71 -136C152 -31 190 32 218 109Z" stroke="rgb(155,155,155)" stroke-opacity="1" stroke-width="8" fill="rgb(155,155,155)" fill-opacity="1"></path></g></g><g><g transform="matrix(1,0,0,1,481.566650390625,183.81666564941406)"><path transform="matrix(0.017,0,0,-0.017,0,0)" d="" stroke="rgb(155,155,155)" stroke-opacity="1" stroke-width="8" fill="rgb(155,155,155)" fill-opacity="1"></path></g></g><g><g transform="matrix(1,0,0,1,485.79998779296875,183.81666564941406)"><path transform="matrix(0.017,0,0,-0.017,0,0)" d="M275 482C208 482 55 419 55 259C55 182 100 136 177 136C185 136 196 136 207 137L166 99C150 84 139 66 139 52C139 42 146 31 160 19C91 -4 -37 -48 -37 -159C-37 -230 33 -276 142 -276C271 -276 384 -204 384 -121C384 -85 363 -49 320 -14L260 35C226 62 213 81 213 100C213 114 228 128 240 146C338 170 409 253 409 342C409 357 406 376 405 380C422 378 430 378 439 378C456 378 466 379 489 382L498 427L495 433C467 426 447 424 393 424C393 425 369 482 275 482ZM176 1L253 -58C299 -94 318 -121 318 -154C318 -206 249 -248 166 -248C84 -248 27 -206 27 -145C27 -43 137 -11 176 1ZM250 448C308 448 337 412 337 341C337 238 289 168 219 168C158 168 126 209 126 288C126 383 177 448 250 448Z" stroke="rgb(126,211,33)" stroke-opacity="1" stroke-width="8" fill="rgb(126,211,33)" fill-opacity="1"></path></g></g><g><g transform="matrix(1,0,0,1,497.683349609375,183.81666564941406)"><path transform="matrix(0.017,0,0,-0.017,0,0)" d="M342 271C342 352 277 417 195 417C112 417 47 352 47 271C47 188 112 124 195 124C277 124 342 188 342 271ZM304 271C304 209 254 161 195 161C133 161 85 209 85 271C85 331 133 380 195 380C254 380 304 331 304 271Z" stroke="rgb(80,227,194)" stroke-opacity="1" stroke-width="8" fill="rgb(80,227,194)" fill-opacity="1"></path></g></g><g><g transform="matrix(1,0,0,1,507.683349609375,183.81666564941406)"><path transform="matrix(0.017,0,0,-0.017,0,0)" d="M345 437L329 437L350 549C366 635 394 673 440 673C470 673 497 658 512 634L522 638C527 654 537 685 545 705L550 720C534 727 503 733 480 733C469 733 453 730 445 726C421 715 339 654 316 630C294 608 282 578 271 521L256 442C215 422 195 414 170 405L165 383L246 383L237 327C207 132 170 -54 148 -123C130 -182 100 -213 64 -213C41 -213 30 -206 12 -184L-2 -188C-6 -211 -20 -259 -25 -268C-16 -273 -1 -276 10 -276C51 -276 105 -245 144 -198C215 -114 235 -18 319 383L423 383C427 402 434 425 440 439L436 446C407 439 408 437 345 437Z" stroke="rgb(74,144,226)" stroke-opacity="1" stroke-width="8" fill="rgb(74,144,226)" fill-opacity="1"></path></g></g><g><g transform="matrix(1,0,0,1,517.0333251953125,184)"><path transform="matrix(0.017,0,0,-0.017,0,0)" d="M51 726L32 700C87 636 187 526 187 266C187 -10 83 -131 32 -194L51 -215C104 -165 273 -23 273 265C273 542 108 675 51 726Z" stroke="rgb(155,155,155)" stroke-opacity="1" stroke-width="8" fill="rgb(155,155,155)" fill-opacity="1"></path></g></g></g></g><g><g><g><g transform="matrix(1,0,0,1,351.01666259765625,326.41668701171875)"><path transform="matrix(0.017,0,0,-0.017,0,0)" d="M236 722L224 733C179 711 138 697 64 691L60 670L108 670C126 670 142 667 142 647C142 641 142 632 140 622L98 388C78 272 36 80 10 2L17 -9L86 7C94 64 108 164 148 236C193 317 296 414 338 414C349 414 360 407 360 393C360 375 355 342 345 303L294 107C288 85 281 55 281 31C281 6 291 -9 312 -9C344 -9 412 41 471 85L461 103L435 86C412 71 386 56 374 56C367 56 361 65 361 76C361 88 364 101 368 116L432 372C438 398 443 423 443 447C443 464 437 482 411 482C376 482 299 437 231 374C198 343 172 308 144 273L140 275Z" stroke="rgb(208,2,27)" stroke-opacity="1" stroke-width="8" fill="rgb(208,2,27)" fill-opacity="1"></path></g></g><g><g transform="matrix(1,0,0,1,362.9166259765625,326.41668701171875)"><path transform="matrix(0.017,0,0,-0.017,0,0)" d="M342 271C342 352 277 417 195 417C112 417 47 352 47 271C47 188 112 124 195 124C277 124 342 188 342 271ZM304 271C304 209 254 161 195 161C133 161 85 209 85 271C85 331 133 380 195 380C254 380 304 331 304 271Z" stroke="rgb(189,16,224)" stroke-opacity="1" stroke-width="8" fill="rgb(189,16,224)" fill-opacity="1"></path></g></g><g><g transform="matrix(1,0,0,1,372.9166259765625,326.6000061035156)"><path transform="matrix(0.017,0,0,-0.017,0,0)" d="M146 266C146 526 243 632 301 700L282 726C225 675 60 542 60 266C60 159 85 58 133 -32C168 -99 200 -138 282 -215L301 -194C255 -137 146 -15 146 266Z" stroke="rgb(155,155,155)" stroke-opacity="1" stroke-width="8" fill="rgb(155,155,155)" fill-opacity="1"></path></g></g><g><g transform="matrix(1,0,0,1,378.566650390625,326.41668701171875)"><path transform="matrix(0.017,0,0,-0.017,0,0)" d="M275 482C208 482 55 419 55 259C55 182 100 136 177 136C185 136 196 136 207 137L166 99C150 84 139 66 139 52C139 42 146 31 160 19C91 -4 -37 -48 -37 -159C-37 -230 33 -276 142 -276C271 -276 384 -204 384 -121C384 -85 363 -49 320 -14L260 35C226 62 213 81 213 100C213 114 228 128 240 146C338 170 409 253 409 342C409 357 406 376 405 380C422 378 430 378 439 378C456 378 466 379 489 382L498 427L495 433C467 426 447 424 393 424C393 425 369 482 275 482ZM176 1L253 -58C299 -94 318 -121 318 -154C318 -206 249 -248 166 -248C84 -248 27 -206 27 -145C27 -43 137 -11 176 1ZM250 448C308 448 337 412 337 341C337 238 289 168 219 168C158 168 126 209 126 288C126 383 177 448 250 448Z" stroke="rgb(126,211,33)" stroke-opacity="1" stroke-width="8" fill="rgb(126,211,33)" fill-opacity="1"></path></g></g><g><g transform="matrix(1,0,0,1,390.433349609375,326.41668701171875)"><path transform="matrix(0.017,0,0,-0.017,0,0)" d="M342 271C342 352 277 417 195 417C112 417 47 352 47 271C47 188 112 124 195 124C277 124 342 188 342 271ZM304 271C304 209 254 161 195 161C133 161 85 209 85 271C85 331 133 380 195 380C254 380 304 331 304 271Z" stroke="rgb(80,227,194)" stroke-opacity="1" stroke-width="8" fill="rgb(80,227,194)" fill-opacity="1"></path></g></g><g><g transform="matrix(1,0,0,1,400.433349609375,326.41668701171875)"><path transform="matrix(0.017,0,0,-0.017,0,0)" d="M345 437L329 437L350 549C366 635 394 673 440 673C470 673 497 658 512 634L522 638C527 654 537 685 545 705L550 720C534 727 503 733 480 733C469 733 453 730 445 726C421 715 339 654 316 630C294 608 282 578 271 521L256 442C215 422 195 414 170 405L165 383L246 383L237 327C207 132 170 -54 148 -123C130 -182 100 -213 64 -213C41 -213 30 -206 12 -184L-2 -188C-6 -211 -20 -259 -25 -268C-16 -273 -1 -276 10 -276C51 -276 105 -245 144 -198C215 -114 235 -18 319 383L423 383C427 402 434 425 440 439L436 446C407 439 408 437 345 437Z" stroke="rgb(74,144,226)" stroke-opacity="1" stroke-width="8" fill="rgb(74,144,226)" fill-opacity="1"></path></g></g><g><g transform="matrix(1,0,0,1,409.7833251953125,326.6000061035156)"><path transform="matrix(0.017,0,0,-0.017,0,0)" d="M51 726L32 700C87 636 187 526 187 266C187 -10 83 -131 32 -194L51 -215C104 -165 273 -23 273 265C273 542 108 675 51 726Z" stroke="rgb(155,155,155)" stroke-opacity="1" stroke-width="8" fill="rgb(155,155,155)" fill-opacity="1"></path></g></g></g></g><g><g><g><g transform="matrix(1,0,0,1,310.7166748046875,309.6166687011719)"><path transform="matrix(0.017,0,0,-0.017,0,0)" d="M271 204L242 77C238 60 236 42 236 26C236 4 245 -9 260 -9C283 -9 324 17 406 85L399 106C375 86 346 59 324 59C315 59 309 68 309 82C309 87 309 90 310 93L402 472L392 481L359 463C318 478 301 482 274 482C246 482 226 477 199 464C137 433 104 403 79 354C35 265 4 145 4 67C4 23 19 -11 38 -11C75 -11 155 41 271 204ZM319 414C297 305 278 253 244 201C187 117 126 59 94 59C82 59 76 72 76 99C76 163 104 280 139 360C163 415 186 433 234 433C257 433 275 429 319 414Z" stroke="rgb(189,16,224)" stroke-opacity="1" stroke-width="8" fill="rgb(189,16,224)" fill-opacity="1"></path></g></g><g><g><g><g><g transform="matrix(1,0,0,1,318.76666259765625,312.7833312988281)"><path transform="matrix(0.0119,0,0,-0.0119,0,0)" d="M236 722L224 733C179 711 138 697 64 691L60 670L108 670C126 670 142 667 142 647C142 641 142 632 140 622L98 388C78 272 36 80 10 2L17 -9L86 7C94 64 108 164 148 236C193 317 296 414 338 414C349 414 360 407 360 393C360 375 355 342 345 303L294 107C288 85 281 55 281 31C281 6 291 -9 312 -9C344 -9 412 41 471 85L461 103L435 86C412 71 386 56 374 56C367 56 361 65 361 76C361 88 364 101 368 116L432 372C438 398 443 423 443 447C443 464 437 482 411 482C376 482 299 437 231 374C198 343 172 308 144 273L140 275ZM703 123C676 114 658 108 605 93C598 17 573 -48 515 -144L529 -155L570 -136C651 -31 689 32 717 109ZM1023 482C956 482 803 419 803 259C803 182 848 136 925 136C933 136 944 136 955 137L914 99C898 84 887 66 887 52C887 42 894 31 908 19C839 -4 711 -48 711 -159C711 -230 781 -276 890 -276C1019 -276 1132 -204 1132 -121C1132 -85 1111 -49 1068 -14L1008 35C974 62 961 81 961 100C961 114 976 128 988 146C1086 170 1157 253 1157 342C1157 357 1154 376 1153 380C1170 378 1178 378 1187 378C1204 378 1214 379 1237 382L1246 427L1243 433C1215 426 1195 424 1141 424C1141 425 1117 482 1023 482ZM924 1L1001 -58C1047 -94 1066 -121 1066 -154C1066 -206 997 -248 914 -248C832 -248 775 -206 775 -145C775 -43 885 -11 924 1ZM998 448C1056 448 1085 412 1085 341C1085 238 1037 168 967 168C906 168 874 209 874 288C874 383 925 448 998 448ZM1451 123C1424 114 1406 108 1353 93C1346 17 1321 -48 1263 -144L1277 -155L1318 -136C1399 -31 1437 32 1465 109ZM1841 437L1825 437L1846 549C1862 635 1890 673 1936 673C1966 673 1993 658 2008 634L2018 638C2023 654 2033 685 2041 705L2046 720C2030 727 1999 733 1976 733C1965 733 1949 730 1941 726C1917 715 1835 654 1812 630C1790 608 1778 578 1767 521L1752 442C1711 422 1691 414 1666 405L1661 383L1742 383L1733 327C1703 132 1666 -54 1644 -123C1626 -182 1596 -213 1560 -213C1537 -213 1526 -206 1508 -184L1494 -188C1490 -211 1476 -259 1471 -268C1480 -273 1495 -276 1506 -276C1547 -276 1601 -245 1640 -198C1711 -114 1731 -18 1815 383L1919 383C1923 402 1930 425 1936 439L1932 446C1903 439 1904 437 1841 437Z" stroke="rgb(189,16,224)" stroke-opacity="1" stroke-width="8" fill="rgb(189,16,224)" fill-opacity="1"></path></g></g></g></g></g></g></g></svg>
</svg>
