<svg xmlns="http://www.w3.org/2000/svg" xmlns:xlink="http://www.w3.org/1999/xlink" x="0" y="0" width="661.5333251953125" height="251.26666259765625" style="
        width:661.5333251953125px;
        height:251.26666259765625px;
        background: transparent;
        fill: none;
">
        
        
        <svg xmlns="http://www.w3.org/2000/svg" class="role-diagram-draw-area"><g class="shapes-region" style="stroke: black; fill: none;"><g/></g><g><g class="connection-group"><g class="arrow-line"><path class="connection real" stroke-dasharray="" d="  M331.23,95.7 L331.23,133.2" style="stroke: rgb(80, 227, 194); stroke-width: 1px; fill: none; fill-opacity: 1; stroke-opacity: 1;"/><g stroke="rgb(80,227,194)" transform="matrix(-1.8369701987210297e-16,-1,1,-1.8369701987210297e-16,331.225,135.2)" style="stroke: rgb(80, 227, 194); stroke-width: 1px;" stroke-opacity="1"><path d=" M10.93,-3.29 Q4.96,-0.45 0,0 Q4.96,0.45 10.93,3.29"/></g></g></g><g class="connection-group"><g class="arrow-line"><path class="connection real" stroke-dasharray="" d="  M224.23,88.48 L291.76,151.42" style="stroke: rgb(144, 19, 254); stroke-width: 1px; fill: none; fill-opacity: 1; stroke-opacity: 1;"/><g stroke="rgb(144,19,254)" transform="matrix(-0.7315917193952471,-0.6817430279161687,0.6817430279161687,-0.7315917193952471,293.225,152.7861111111111)" style="stroke: rgb(144, 19, 254); stroke-width: 1px;" stroke-opacity="1"><path d=" M10.93,-3.29 Q4.96,-0.45 0,0 Q4.96,0.45 10.93,3.29"/></g></g></g><g class="connection-group"><g class="arrow-line"><path class="connection real" stroke-dasharray="" d="  M449.73,84.59 L370.73,153.66" style="stroke: rgb(248, 231, 28); stroke-width: 1px; fill: none; fill-opacity: 1; stroke-opacity: 1;"/><g stroke="rgb(248,231,28)" transform="matrix(0.7527596947353765,-0.6582954063199157,0.6582954063199157,0.7527596947353765,369.225,154.97435971773587)" style="stroke: rgb(248, 231, 28); stroke-width: 1px;" stroke-opacity="1"><path d=" M10.93,-3.29 Q4.96,-0.45 0,0 Q4.96,0.45 10.93,3.29"/></g></g></g></g><g><g><rect rx="0" ry="0" x="293.225" y="10.700000000000003" width="76" height="85" style="stroke: rgb(80, 227, 194); stroke-opacity: 1; stroke-width: 1px; fill: none; fill-opacity: 1;"/></g><g><rect rx="0" ry="0" x="449.725" y="9.300003051757812" width="75" height="85" style="stroke: rgb(248, 231, 28); stroke-opacity: 1; stroke-width: 1px; fill: none; fill-opacity: 1;"/></g><g><rect rx="0" ry="0" x="150.22500000000002" y="11.5" width="74" height="85" style="stroke: rgb(144, 19, 254); stroke-opacity: 1; stroke-width: 1px; fill: none; fill-opacity: 1;"/></g><g><rect rx="0" ry="0" x="293.225" y="135.2" width="76" height="106" style="stroke: rgb(155, 155, 155); stroke-opacity: 1; stroke-width: 1px; fill: none; fill-opacity: 1;"/></g></g><g/></svg>
        <svg xmlns="http://www.w3.org/2000/svg" xmlns:xlink="http://www.w3.org/1999/xlink" width="660" height="249.73333740234375" style="width:660px;height:249.73333740234375px;font-family:Asana-Math, Asana;background:transparent;"><g><g><g><g transform="matrix(1,0,0,1,297.01666259765625,29.400009155273438)"><path transform="matrix(0.017,0,0,-0.017,0,0)" d="M88 -184C88 -184 182 -183 182 -183C182 -183 282 -184 282 -184L288 -178L288 -152L284 -147L246 -147C219 -147 197 -141 185 -131C176 -122 173 -108 173 -75L173 616C173 649 176 664 185 673C197 683 219 689 246 689L284 689L288 694L288 720L282 726L188 723L88 726C84 717 83 706 83 691C83 665 87 628 87 578L87 -44C87 -112 85 -140 79 -171Z" stroke="rgb(80,227,194)" stroke-opacity="1" stroke-width="8" fill="rgb(80,227,194)" fill-opacity="1"></path></g></g><g><g transform="matrix(1,0,0,1,306.066650390625,29.633331298828125)"><path transform="matrix(0.017,0,0,-0.017,0,0)" d="M358 245L358 307L352 311L213 287L282 412L279 427L217 446L208 442L182 299L87 397L77 397L33 345L36 335L167 271L36 217L31 208L67 157L77 157L183 245L201 103L211 99L279 125L279 135L211 257L349 237Z" stroke="rgb(80,227,194)" stroke-opacity="1" stroke-width="8" fill="rgb(80,227,194)" fill-opacity="1"></path></g></g><g><g transform="matrix(1,0,0,1,316.066650390625,29.400009155273438)"><path transform="matrix(0.017,0,0,-0.017,0,0)" d="M245 -184L254 -171C248 -140 246 -112 246 -44L246 578C246 628 250 665 250 691C250 706 249 717 245 726L51 726L45 720L45 694L49 689L87 689C114 689 136 683 148 673C157 664 160 649 160 616L160 -75C160 -108 157 -122 148 -131C136 -141 114 -147 87 -147L49 -147L45 -152L45 -178L51 -184Z" stroke="rgb(80,227,194)" stroke-opacity="1" stroke-width="8" fill="rgb(80,227,194)" fill-opacity="1"></path></g></g></g><g></g><g><g><g transform="matrix(1,0,0,1,297.01666259765625,70.43331909179688)"><path transform="matrix(0.017,0,0,-0.017,0,0)" d="" stroke="rgb(80,227,194)" stroke-opacity="1" stroke-width="8" fill="rgb(80,227,194)" fill-opacity="1"></path></g></g><g><g transform="matrix(1,0,0,1,325.816650390625,70.43331909179688)"><path transform="matrix(0.017,0,0,-0.017,0,0)" d="M358 245L358 307L352 311L213 287L282 412L279 427L217 446L208 442L182 299L87 397L77 397L33 345L36 335L167 271L36 217L31 208L67 157L77 157L183 245L201 103L211 99L279 125L279 135L211 257L349 237Z" stroke="rgb(80,227,194)" stroke-opacity="1" stroke-width="8" fill="rgb(80,227,194)" fill-opacity="1"></path></g></g><g><g transform="matrix(1,0,0,1,335.816650390625,70.43331909179688)"><path transform="matrix(0.017,0,0,-0.017,0,0)" d="" stroke="rgb(80,227,194)" stroke-opacity="1" stroke-width="8" fill="rgb(80,227,194)" fill-opacity="1"></path></g></g></g><g></g></g><g><g><g><g transform="matrix(1,0,0,1,453.35003662109375,28)"><path transform="matrix(0.017,0,0,-0.017,0,0)" d="M88 -184C88 -184 182 -183 182 -183C182 -183 282 -184 282 -184L288 -178L288 -152L284 -147L246 -147C219 -147 197 -141 185 -131C176 -122 173 -108 173 -75L173 616C173 649 176 664 185 673C197 683 219 689 246 689L284 689L288 694L288 720L282 726L188 723L88 726C84 717 83 706 83 691C83 665 87 628 87 578L87 -44C87 -112 85 -140 79 -171Z" stroke="rgb(248,231,28)" stroke-opacity="1" stroke-width="8" fill="rgb(248,231,28)" fill-opacity="1"></path></g></g><g><g transform="matrix(1,0,0,1,459,28.23333740234375)"><path transform="matrix(0.017,0,0,-0.017,0,0)" d="M418 -3L418 27L366 30C311 33 301 44 301 96L301 700L60 598L67 548L217 614L217 96C217 44 206 33 152 30L96 27L96 -3C250 0 250 0 261 0C292 0 402 -3 418 -3Z" stroke="rgb(248,231,28)" stroke-opacity="1" stroke-width="8" fill="rgb(248,231,28)" fill-opacity="1"></path></g></g><g><g transform="matrix(1,0,0,1,467.48333740234375,28)"><path transform="matrix(0.017,0,0,-0.017,0,0)" d="M245 -184L254 -171C248 -140 246 -112 246 -44L246 578C246 628 250 665 250 691C250 706 249 717 245 726L51 726L45 720L45 694L49 689L87 689C114 689 136 683 148 673C157 664 160 649 160 616L160 -75C160 -108 157 -122 148 -131C136 -141 114 -147 87 -147L49 -147L45 -152L45 -178L51 -184Z" stroke="rgb(248,231,28)" stroke-opacity="1" stroke-width="8" fill="rgb(248,231,28)" fill-opacity="1"></path></g></g></g><g></g><g><g><g transform="matrix(1,0,0,1,453.35003662109375,69.03335571289062)"><path transform="matrix(0.017,0,0,-0.017,0,0)" d="M916 -3L916 27L864 30C809 33 799 44 799 96L799 700L558 598L565 548L715 614L715 96C715 44 704 33 650 30L594 27L594 -3C748 0 748 0 759 0C790 0 900 -3 916 -3ZM1760 23L1760 -3C1947 -3 1947 0 1983 0C2019 0 2019 -3 2212 -3L2212 82C2097 77 2051 81 1866 77L2048 270C2145 373 2175 428 2175 503C2175 618 2097 689 1970 689C1898 689 1849 669 1800 619L1783 483L1812 483L1825 529C1841 587 1877 612 1944 612C2030 612 2085 558 2085 473C2085 398 2043 324 1930 204ZM3452 224C3452 345 3345 366 3298 374C3378 436 3408 482 3408 541C3408 630 3334 689 3223 689C3155 689 3110 670 3062 622L3033 498L3064 498L3082 554C3093 588 3156 622 3208 622C3273 622 3326 569 3326 506C3326 431 3267 368 3196 368C3188 368 3177 369 3164 370L3149 371L3137 318L3144 312C3182 329 3201 334 3228 334C3311 334 3359 281 3359 190C3359 88 3298 21 3205 21C3159 21 3118 36 3088 64C3064 86 3051 109 3032 163L3005 153C3026 92 3034 56 3040 6C3093 -12 3137 -20 3174 -20C3297 -20 3452 87 3452 224Z" stroke="rgb(248,231,28)" stroke-opacity="1" stroke-width="8" fill="rgb(248,231,28)" fill-opacity="1"></path></g></g></g><g></g></g><g><g><g><g transform="matrix(1,0,0,1,153.816650390625,30.199996948242188)"><path transform="matrix(0.017,0,0,-0.017,0,0)" d="M88 -184C88 -184 182 -183 182 -183C182 -183 282 -184 282 -184L288 -178L288 -152L284 -147L246 -147C219 -147 197 -141 185 -131C176 -122 173 -108 173 -75L173 616C173 649 176 664 185 673C197 683 219 689 246 689L284 689L288 694L288 720L282 726L188 723L88 726C84 717 83 706 83 691C83 665 87 628 87 578L87 -44C87 -112 85 -140 79 -171Z" stroke="rgb(144,19,254)" stroke-opacity="1" stroke-width="8" fill="rgb(144,19,254)" fill-opacity="1"></path></g></g><g><g transform="matrix(1,0,0,1,159.4666748046875,30.433334350585938)"><path transform="matrix(0.017,0,0,-0.017,0,0)" d="M9 1C24 -7 40 -11 52 -11C85 -11 124 18 155 65L231 182L242 113C255 28 278 -11 314 -11C336 -11 368 6 400 35L449 79L440 98C404 68 379 53 363 53C348 53 335 63 325 83C316 102 305 139 300 168L282 269L317 318C364 383 391 406 422 406C438 406 450 398 455 383L469 387L484 472C472 479 463 482 454 482C414 482 374 446 312 354L275 299L269 347C257 446 230 482 171 482C145 482 123 474 114 461L56 378L73 368C103 402 123 416 142 416C175 416 197 375 214 277L225 215L185 153C142 86 108 54 80 54C65 54 54 58 52 63L41 91L21 88C21 53 13 27 9 1Z" stroke="rgb(144,19,254)" stroke-opacity="1" stroke-width="8" fill="rgb(144,19,254)" fill-opacity="1"></path></g></g><g><g transform="matrix(1,0,0,1,167.95001220703125,30.199996948242188)"><path transform="matrix(0.017,0,0,-0.017,0,0)" d="M245 -184L254 -171C248 -140 246 -112 246 -44L246 578C246 628 250 665 250 691C250 706 249 717 245 726L51 726L45 720L45 694L49 689L87 689C114 689 136 683 148 673C157 664 160 649 160 616L160 -75C160 -108 157 -122 148 -131C136 -141 114 -147 87 -147L49 -147L45 -152L45 -178L51 -184Z" stroke="rgb(144,19,254)" stroke-opacity="1" stroke-width="8" fill="rgb(144,19,254)" fill-opacity="1"></path></g></g></g><g></g><g><g><g transform="matrix(1,0,0,1,153.816650390625,71.23333740234375)"><path transform="matrix(0.017,0,0,-0.017,0,0)" d="M507 1C522 -7 538 -11 550 -11C583 -11 622 18 653 65L729 182L740 113C753 28 776 -11 812 -11C834 -11 866 6 898 35L947 79L938 98C902 68 877 53 861 53C846 53 833 63 823 83C814 102 803 139 798 168L780 269L815 318C862 383 889 406 920 406C936 406 948 398 953 383L967 387L982 472C970 479 961 482 952 482C912 482 872 446 810 354L773 299L767 347C755 446 728 482 669 482C643 482 621 474 612 461L554 378L571 368C601 402 621 416 640 416C673 416 695 375 712 277L723 215L683 153C640 86 606 54 578 54C563 54 552 58 550 63L539 91L519 88C519 53 511 27 507 1ZM1737 -180C1736 -187 1736 -193 1736 -198C1736 -241 1773 -276 1818 -276C1924 -276 2034 -152 2093 33L2234 473L2223 482C2194 471 2171 465 2149 463L2114 331C2102 284 2067 211 2034 162C1999 111 1950 67 1928 67C1916 67 1907 90 1908 115L1924 322C1926 353 1928 391 1928 419C1928 464 1921 482 1904 482C1891 482 1877 475 1829 442L1747 386L1758 368L1808 398C1813 401 1824 410 1833 410C1847 410 1855 391 1855 358C1855 357 1855 351 1854 343L1837 100L1836 60C1836 18 1854 -11 1879 -11C1916 -11 2000 74 2075 187L2026 16C1975 -161 1925 -234 1855 -234C1820 -234 1793 -207 1793 -172C1793 -167 1794 -159 1795 -150L1785 -146ZM3312 -11C3324 -11 3333 -9 3362 -1C3373 61 3381 95 3392 142L3370 142L3348 82C3342 64 3330 57 3309 57C3297 57 3281 59 3260 64L3242 68C3209 75 3175 80 3156 80C3124 80 3097 74 3061 59L3400 441L3406 473L3397 482L3374 459C3364 449 3354 445 3340 445C3306 445 3254 453 3206 466L3188 471C3160 478 3140 482 3126 482C3109 482 3089 479 3065 472L3033 350L3054 350L3084 408C3101 412 3110 413 3123 413C3164 413 3196 398 3249 398C3285 398 3309 404 3342 421L2989 21L2998 -6C3027 17 3054 26 3089 26C3152 26 3243 -11 3312 -11Z" stroke="rgb(144,19,254)" stroke-opacity="1" stroke-width="8" fill="rgb(144,19,254)" fill-opacity="1"></path></g></g></g><g></g></g><g><g><g><g transform="matrix(1,0,0,1,297.01666259765625,154.43331909179688)"><path transform="matrix(0.017,0,0,-0.017,0,0)" d="M108 471C108 386 146 339 230 319L325 296C379 283 406 248 406 191C406 96 335 30 232 30C178 30 140 42 96 73L96 172L66 172C60 117 53 72 42 20C91 -5 144 -18 197 -18C352 -18 485 99 485 234C485 313 442 355 341 377L276 391C210 405 180 442 180 508C180 595 247 658 339 658C388 658 421 645 451 613L451 537L481 537C485 591 492 629 506 672C461 696 421 706 374 706C250 706 108 614 108 471Z" stroke="rgb(155,155,155)" stroke-opacity="1" stroke-width="8" fill="rgb(155,155,155)" fill-opacity="1"></path></g></g></g><g><g><g transform="matrix(1,0,0,1,297.01666259765625,174.83334350585938)"><path transform="matrix(0.017,0,0,-0.017,0,0)" d="M507 1C522 -7 538 -11 550 -11C583 -11 622 18 653 65L729 182L740 113C753 28 776 -11 812 -11C834 -11 866 6 898 35L947 79L938 98C902 68 877 53 861 53C846 53 833 63 823 83C814 102 803 139 798 168L780 269L815 318C862 383 889 406 920 406C936 406 948 398 953 383L967 387L982 472C970 479 961 482 952 482C912 482 872 446 810 354L773 299L767 347C755 446 728 482 669 482C643 482 621 474 612 461L554 378L571 368C601 402 621 416 640 416C673 416 695 375 712 277L723 215L683 153C640 86 606 54 578 54C563 54 552 58 550 63L539 91L519 88C519 53 511 27 507 1ZM1737 -180C1736 -187 1736 -193 1736 -198C1736 -241 1773 -276 1818 -276C1924 -276 2034 -152 2093 33L2234 473L2223 482C2194 471 2171 465 2149 463L2114 331C2102 284 2067 211 2034 162C1999 111 1950 67 1928 67C1916 67 1907 90 1908 115L1924 322C1926 353 1928 391 1928 419C1928 464 1921 482 1904 482C1891 482 1877 475 1829 442L1747 386L1758 368L1808 398C1813 401 1824 410 1833 410C1847 410 1855 391 1855 358C1855 357 1855 351 1854 343L1837 100L1836 60C1836 18 1854 -11 1879 -11C1916 -11 2000 74 2075 187L2026 16C1975 -161 1925 -234 1855 -234C1820 -234 1793 -207 1793 -172C1793 -167 1794 -159 1795 -150L1785 -146ZM3312 -11C3324 -11 3333 -9 3362 -1C3373 61 3381 95 3392 142L3370 142L3348 82C3342 64 3330 57 3309 57C3297 57 3281 59 3260 64L3242 68C3209 75 3175 80 3156 80C3124 80 3097 74 3061 59L3400 441L3406 473L3397 482L3374 459C3364 449 3354 445 3340 445C3306 445 3254 453 3206 466L3188 471C3160 478 3140 482 3126 482C3109 482 3089 479 3065 472L3033 350L3054 350L3084 408C3101 412 3110 413 3123 413C3164 413 3196 398 3249 398C3285 398 3309 404 3342 421L2989 21L2998 -6C3027 17 3054 26 3089 26C3152 26 3243 -11 3312 -11Z" stroke="rgb(144,19,254)" stroke-opacity="1" stroke-width="8" fill="rgb(144,19,254)" fill-opacity="1"></path></g></g></g><g><g><g transform="matrix(1,0,0,1,297.01666259765625,195.23333740234375)"><path transform="matrix(0.017,0,0,-0.017,0,0)" d="" stroke="rgb(80,227,194)" stroke-opacity="1" stroke-width="8" fill="rgb(80,227,194)" fill-opacity="1"></path></g></g><g><g transform="matrix(1,0,0,1,325.816650390625,195.23333740234375)"><path transform="matrix(0.017,0,0,-0.017,0,0)" d="M358 245L358 307L352 311L213 287L282 412L279 427L217 446L208 442L182 299L87 397L77 397L33 345L36 335L167 271L36 217L31 208L67 157L77 157L183 245L201 103L211 99L279 125L279 135L211 257L349 237Z" stroke="rgb(80,227,194)" stroke-opacity="1" stroke-width="8" fill="rgb(80,227,194)" fill-opacity="1"></path></g></g><g><g transform="matrix(1,0,0,1,335.816650390625,195.23333740234375)"><path transform="matrix(0.017,0,0,-0.017,0,0)" d="" stroke="rgb(80,227,194)" stroke-opacity="1" stroke-width="8" fill="rgb(80,227,194)" fill-opacity="1"></path></g></g><g><g transform="matrix(1,0,0,1,361.2166748046875,195.23333740234375)"><path transform="matrix(0.017,0,0,-0.017,0,0)" d="" stroke="rgb(155,155,155)" stroke-opacity="1" stroke-width="8" fill="rgb(155,155,155)" fill-opacity="1"></path></g></g></g><g><g><g transform="matrix(1,0,0,1,297.01666259765625,215.63333129882812)"><path transform="matrix(0.017,0,0,-0.017,0,0)" d="M916 -3L916 27L864 30C809 33 799 44 799 96L799 700L558 598L565 548L715 614L715 96C715 44 704 33 650 30L594 27L594 -3C748 0 748 0 759 0C790 0 900 -3 916 -3ZM1760 23L1760 -3C1947 -3 1947 0 1983 0C2019 0 2019 -3 2212 -3L2212 82C2097 77 2051 81 1866 77L2048 270C2145 373 2175 428 2175 503C2175 618 2097 689 1970 689C1898 689 1849 669 1800 619L1783 483L1812 483L1825 529C1841 587 1877 612 1944 612C2030 612 2085 558 2085 473C2085 398 2043 324 1930 204ZM3452 224C3452 345 3345 366 3298 374C3378 436 3408 482 3408 541C3408 630 3334 689 3223 689C3155 689 3110 670 3062 622L3033 498L3064 498L3082 554C3093 588 3156 622 3208 622C3273 622 3326 569 3326 506C3326 431 3267 368 3196 368C3188 368 3177 369 3164 370L3149 371L3137 318L3144 312C3182 329 3201 334 3228 334C3311 334 3359 281 3359 190C3359 88 3298 21 3205 21C3159 21 3118 36 3088 64C3064 86 3051 109 3032 163L3005 153C3026 92 3034 56 3040 6C3093 -12 3137 -20 3174 -20C3297 -20 3452 87 3452 224Z" stroke="rgb(248,231,28)" stroke-opacity="1" stroke-width="8" fill="rgb(248,231,28)" fill-opacity="1"></path></g></g></g><g></g></g><g><g><g><g transform="matrix(1,0,0,1,240.1500244140625,123.05001831054688)"><path transform="matrix(0.017,0,0,-0.017,0,0)" d="M34 388L41 368L73 389C110 412 113 414 120 414C130 414 138 404 138 391C138 384 134 361 130 347L64 107C56 76 51 49 51 30C51 6 62 -9 81 -9C107 -9 143 12 241 85L231 103L205 86C176 67 153 56 144 56C137 56 131 66 131 76C131 86 133 95 138 116L215 420C219 437 221 448 221 456C221 473 212 482 196 482C174 482 137 461 62 408ZM228 712C199 712 170 679 170 645C170 620 185 604 209 604C240 604 264 633 264 671C264 695 249 712 228 712Z" stroke="rgb(144,19,254)" stroke-opacity="1" stroke-width="8" fill="rgb(144,19,254)" fill-opacity="1"></path></g></g><g><g><g><g><g transform="matrix(1,0,0,1,245.38336181640625,125.81665649414063)"><path transform="matrix(0.0119,0,0,-0.0119,0,0)" d="M418 -3L418 27L366 30C311 33 301 44 301 96L301 700L60 598L67 548L217 614L217 96C217 44 206 33 152 30L96 27L96 -3C250 0 250 0 261 0C292 0 402 -3 418 -3Z" stroke="rgb(144,19,254)" stroke-opacity="1" stroke-width="8" fill="rgb(144,19,254)" fill-opacity="1"></path></g></g></g></g></g></g></g><g><g><g><g transform="matrix(1,0,0,1,334.1500244140625,123.05001831054688)"><path transform="matrix(0.017,0,0,-0.017,0,0)" d="M34 388L41 368L73 389C110 412 113 414 120 414C130 414 138 404 138 391C138 384 134 361 130 347L64 107C56 76 51 49 51 30C51 6 62 -9 81 -9C107 -9 143 12 241 85L231 103L205 86C176 67 153 56 144 56C137 56 131 66 131 76C131 86 133 95 138 116L215 420C219 437 221 448 221 456C221 473 212 482 196 482C174 482 137 461 62 408ZM228 712C199 712 170 679 170 645C170 620 185 604 209 604C240 604 264 633 264 671C264 695 249 712 228 712Z" stroke="rgb(80,227,194)" stroke-opacity="1" stroke-width="8" fill="rgb(80,227,194)" fill-opacity="1"></path></g></g><g><g><g><g><g transform="matrix(1,0,0,1,339.38336181640625,125.81665649414063)"><path transform="matrix(0.0119,0,0,-0.0119,0,0)" d="M16 23L16 -3C203 -3 203 0 239 0C275 0 275 -3 468 -3L468 82C353 77 307 81 122 77L304 270C401 373 431 428 431 503C431 618 353 689 226 689C154 689 105 669 56 619L39 483L68 483L81 529C97 587 133 612 200 612C286 612 341 558 341 473C341 398 299 324 186 204Z" stroke="rgb(80,227,194)" stroke-opacity="1" stroke-width="8" fill="rgb(80,227,194)" fill-opacity="1"></path></g></g></g></g></g></g></g><g><g><g><g transform="matrix(1,0,0,1,426.1500244140625,123.05001831054688)"><path transform="matrix(0.017,0,0,-0.017,0,0)" d="M34 388L41 368L73 389C110 412 113 414 120 414C130 414 138 404 138 391C138 384 134 361 130 347L64 107C56 76 51 49 51 30C51 6 62 -9 81 -9C107 -9 143 12 241 85L231 103L205 86C176 67 153 56 144 56C137 56 131 66 131 76C131 86 133 95 138 116L215 420C219 437 221 448 221 456C221 473 212 482 196 482C174 482 137 461 62 408ZM228 712C199 712 170 679 170 645C170 620 185 604 209 604C240 604 264 633 264 671C264 695 249 712 228 712Z" stroke="rgb(248,231,28)" stroke-opacity="1" stroke-width="8" fill="rgb(248,231,28)" fill-opacity="1"></path></g></g><g><g><g><g><g transform="matrix(1,0,0,1,431.38336181640625,125.81665649414063)"><path transform="matrix(0.0119,0,0,-0.0119,0,0)" d="M462 224C462 345 355 366 308 374C388 436 418 482 418 541C418 630 344 689 233 689C165 689 120 670 72 622L43 498L74 498L92 554C103 588 166 622 218 622C283 622 336 569 336 506C336 431 277 368 206 368C198 368 187 369 174 370L159 371L147 318L154 312C192 329 211 334 238 334C321 334 369 281 369 190C369 88 308 21 215 21C169 21 128 36 98 64C74 86 61 109 42 163L15 153C36 92 44 56 50 6C103 -12 147 -20 184 -20C307 -20 462 87 462 224Z" stroke="rgb(248,231,28)" stroke-opacity="1" stroke-width="8" fill="rgb(248,231,28)" fill-opacity="1"></path></g></g></g></g></g></g></g></svg>
</svg>
