<svg xmlns="http://www.w3.org/2000/svg" xmlns:xlink="http://www.w3.org/1999/xlink" x="0" y="0" width="661.5333251953125" height="115.06666564941406" style="
        width:661.5333251953125px;
        height:115.06666564941406px;
        background: transparent;
        fill: none;
">
        
        
        <svg xmlns="http://www.w3.org/2000/svg" class="role-diagram-draw-area"><g class="shapes-region" style="stroke: black; fill: none;"><g class="arrow-line"><path class="connection real" stroke-dasharray="" d="  M256.23,43.6 C287.75,26.86 240.69,3.32 246.91,41.8" style="stroke: rgb(144, 19, 254); stroke-opacity: 1; stroke-width: 1px; fill: none; fill-opacity: 1;"/><g stroke="rgb(144,19,254)" stroke-opacity="1" transform="matrix(-0.19149425387701363,-0.9814937344334328,0.9814937344334328,-0.19149425387701363,247.23333740234375,43.600006103515625)" style="stroke: rgb(144, 19, 254); stroke-width: 1px;"><path d=" M10.93,-3.29 Q4.96,-0.45 0,0 Q4.96,0.45 10.93,3.29"/></g></g><g class="arrow-line"><path class="connection real" stroke-dasharray="" d="  M399.23,66.6 C364.58,85.41 416.18,112.06 409.46,67.96" style="stroke: rgb(80, 227, 194); stroke-opacity: 1; stroke-width: 1px; fill: none; fill-opacity: 1;"/><g stroke="rgb(80,227,194)" stroke-opacity="1" transform="matrix(0.17141327469830317,0.9851992129804023,-0.9851992129804023,0.17141327469830317,409.23333740234375,66.60000610351562)" style="stroke: rgb(80, 227, 194); stroke-width: 1px;"><path d=" M10.93,-3.29 Q4.96,-0.45 0,0 Q4.96,0.45 10.93,3.29"/></g></g><g/></g><g><g class="connection-group"><g class="arrow-line"><path class="connection real" stroke-dasharray="" d="  M397.23,58.76 L269.22,58.24" style="stroke: rgb(126, 211, 33); stroke-opacity: 1; stroke-width: 1px; fill: none; fill-opacity: 1;"/><g stroke="rgb(126,211,33)" stroke-opacity="1" transform="matrix(0.9999919428800662,0.004014246498463223,-0.004014246498463223,0.9999919428800662,267.225,58.23652776070118)" style="stroke: rgb(126, 211, 33); stroke-width: 1px;"><path d=" M10.93,-3.29 Q4.96,-0.45 0,0 Q4.96,0.45 10.93,3.29"/></g></g></g><g class="connection-group"><g class="arrow-line"><path class="connection real" stroke-dasharray="" d="  M267.23,48.24 L395.23,48.76" style="stroke: rgb(74, 144, 226); stroke-opacity: 1; stroke-width: 1px; fill: none; fill-opacity: 1;"/><g stroke="rgb(74,144,226)" stroke-opacity="1" transform="matrix(-0.9999919428800662,-0.00401424649846379,0.00401424649846379,-0.9999919428800662,397.22499999999997,48.76347529105663)" style="stroke: rgb(74, 144, 226); stroke-width: 1px;"><path d=" M10.93,-3.29 Q4.96,-0.45 0,0 Q4.96,0.45 10.93,3.29"/></g></g></g></g><g/><g/></svg>
        <svg xmlns="http://www.w3.org/2000/svg" xmlns:xlink="http://www.w3.org/1999/xlink" width="660" height="113.53334045410156" style="width:660px;height:113.53334045410156px;font-family:Asana-Math, Asana;background:transparent;"><g><g><g><g transform="matrix(1,0,0,1,253.01666259765625,60.23333740234375)"><path transform="matrix(0.017,0,0,-0.017,0,0)" d="M271 204L242 77C238 60 236 42 236 26C236 4 245 -9 260 -9C283 -9 324 17 406 85L399 106C375 86 346 59 324 59C315 59 309 68 309 82C309 87 309 90 310 93L402 472L392 481L359 463C318 478 301 482 274 482C246 482 226 477 199 464C137 433 104 403 79 354C35 265 4 145 4 67C4 23 19 -11 38 -11C75 -11 155 41 271 204ZM319 414C297 305 278 253 244 201C187 117 126 59 94 59C82 59 76 72 76 99C76 163 104 280 139 360C163 415 186 433 234 433C257 433 275 429 319 414Z" stroke="rgb(144,19,254)" stroke-opacity="1" stroke-width="8" fill="rgb(144,19,254)" fill-opacity="1"></path></g></g></g></g><g><g><g><g transform="matrix(1,0,0,1,401.01666259765625,60.83332824707031)"><path transform="matrix(0.017,0,0,-0.017,0,0)" d="M235 722L223 733C171 707 135 698 63 691L59 670L107 670C131 670 141 663 141 646C141 639 140 628 139 622L38 71C37 68 37 64 37 61C37 22 85 -11 140 -11C177 -11 228 8 271 39C367 107 433 244 433 376C433 414 424 453 412 468C405 477 392 482 377 482C353 482 323 474 295 460C244 433 211 403 149 324ZM322 424C348 424 361 401 361 352C361 288 340 202 310 137C277 68 237 36 183 36C137 36 112 59 112 101C112 135 127 276 208 361C241 395 293 424 322 424Z" stroke="rgb(80,227,194)" stroke-opacity="1" stroke-width="8" fill="rgb(80,227,194)" fill-opacity="1"></path></g></g></g></g><g><g><g><g transform="matrix(1,0,0,1,326.01666259765625,42.83332824707031)"><path transform="matrix(0.017,0,0,-0.017,0,0)" d="M345 437L329 437L350 549C366 635 394 673 440 673C470 673 497 658 512 634L522 638C527 654 537 685 545 705L550 720C534 727 503 733 480 733C469 733 453 730 445 726C421 715 339 654 316 630C294 608 282 578 271 521L256 442C215 422 195 414 170 405L165 383L246 383L237 327C207 132 170 -54 148 -123C130 -182 100 -213 64 -213C41 -213 30 -206 12 -184L-2 -188C-6 -211 -20 -259 -25 -268C-16 -273 -1 -276 10 -276C51 -276 105 -245 144 -198C215 -114 235 -18 319 383L423 383C427 402 434 425 440 439L436 446C407 439 408 437 345 437Z" stroke="rgb(80,227,194)" stroke-opacity="1" stroke-width="8" fill="rgb(80,227,194)" fill-opacity="1"></path></g></g></g></g><g><g><g><g transform="matrix(1,0,0,1,326.01666259765625,75.83332824707031)"><path transform="matrix(0.017,0,0,-0.017,0,0)" d="M275 482C208 482 55 419 55 259C55 182 100 136 177 136C185 136 196 136 207 137L166 99C150 84 139 66 139 52C139 42 146 31 160 19C91 -4 -37 -48 -37 -159C-37 -230 33 -276 142 -276C271 -276 384 -204 384 -121C384 -85 363 -49 320 -14L260 35C226 62 213 81 213 100C213 114 228 128 240 146C338 170 409 253 409 342C409 357 406 376 405 380C422 378 430 378 439 378C456 378 466 379 489 382L498 427L495 433C467 426 447 424 393 424C393 425 369 482 275 482ZM176 1L253 -58C299 -94 318 -121 318 -154C318 -206 249 -248 166 -248C84 -248 27 -206 27 -145C27 -43 137 -11 176 1ZM250 448C308 448 337 412 337 341C337 238 289 168 219 168C158 168 126 209 126 288C126 383 177 448 250 448Z" stroke="rgb(126,211,33)" stroke-opacity="1" stroke-width="8" fill="rgb(126,211,33)" fill-opacity="1"></path></g></g></g></g><g><g><g><g transform="matrix(1,0,0,1,394.11663818359375,108.83332824707031)"><path transform="matrix(0.017,0,0,-0.017,0,0)" d="M34 388L41 368L73 389C110 412 113 414 120 414C130 414 138 404 138 391C138 384 134 361 130 347L64 107C56 76 51 49 51 30C51 6 62 -9 81 -9C107 -9 143 12 241 85L231 103L205 86C176 67 153 56 144 56C137 56 131 66 131 76C131 86 133 95 138 116L215 420C219 437 221 448 221 456C221 473 212 482 196 482C174 482 137 461 62 408ZM228 712C199 712 170 679 170 645C170 620 185 604 209 604C240 604 264 633 264 671C264 695 249 712 228 712ZM760 722L748 733C696 707 660 698 588 691L584 670L632 670C656 670 666 663 666 646C666 638 665 629 664 622L636 468C606 477 579 482 554 482C485 482 391 410 345 323C314 265 294 170 294 86C294 21 309 -11 338 -11C365 -11 402 6 436 33C490 77 523 116 590 217L567 126C556 82 551 50 551 24C551 3 560 -9 577 -9C594 -9 618 3 652 28L733 88L723 107L679 76C665 66 649 59 640 59C632 59 626 68 626 82C626 90 627 99 634 128ZM391 59C375 59 366 73 366 98C366 224 412 380 461 418C474 428 493 433 520 433C564 433 593 427 626 410L614 351C577 171 436 59 391 59Z" stroke="rgb(80,227,194)" stroke-opacity="1" stroke-width="8" fill="rgb(80,227,194)" fill-opacity="1"></path></g></g><g><g><g><g><g transform="matrix(1,0,0,1,407.83331298828125,111.5999969482422)"><path transform="matrix(0.0119,0,0,-0.0119,0,0)" d="M235 722L223 733C171 707 135 698 63 691L59 670L107 670C131 670 141 663 141 646C141 639 140 628 139 622L38 71C37 68 37 64 37 61C37 22 85 -11 140 -11C177 -11 228 8 271 39C367 107 433 244 433 376C433 414 424 453 412 468C405 477 392 482 377 482C353 482 323 474 295 460C244 433 211 403 149 324ZM322 424C348 424 361 401 361 352C361 288 340 202 310 137C277 68 237 36 183 36C137 36 112 59 112 101C112 135 127 276 208 361C241 395 293 424 322 424Z" stroke="rgb(80,227,194)" stroke-opacity="1" stroke-width="8" fill="rgb(80,227,194)" fill-opacity="1"></path></g></g></g></g></g></g></g><g><g><g><g transform="matrix(1,0,0,1,247.23333740234375,17.050003051757812)"><path transform="matrix(0.017,0,0,-0.017,0,0)" d="M34 388L41 368L73 389C110 412 113 414 120 414C130 414 138 404 138 391C138 384 134 361 130 347L64 107C56 76 51 49 51 30C51 6 62 -9 81 -9C107 -9 143 12 241 85L231 103L205 86C176 67 153 56 144 56C137 56 131 66 131 76C131 86 133 95 138 116L215 420C219 437 221 448 221 456C221 473 212 482 196 482C174 482 137 461 62 408ZM228 712C199 712 170 679 170 645C170 620 185 604 209 604C240 604 264 633 264 671C264 695 249 712 228 712ZM760 722L748 733C696 707 660 698 588 691L584 670L632 670C656 670 666 663 666 646C666 638 665 629 664 622L636 468C606 477 579 482 554 482C485 482 391 410 345 323C314 265 294 170 294 86C294 21 309 -11 338 -11C365 -11 402 6 436 33C490 77 523 116 590 217L567 126C556 82 551 50 551 24C551 3 560 -9 577 -9C594 -9 618 3 652 28L733 88L723 107L679 76C665 66 649 59 640 59C632 59 626 68 626 82C626 90 627 99 634 128ZM391 59C375 59 366 73 366 98C366 224 412 380 461 418C474 428 493 433 520 433C564 433 593 427 626 410L614 351C577 171 436 59 391 59Z" stroke="rgb(144,19,254)" stroke-opacity="1" stroke-width="8" fill="rgb(144,19,254)" fill-opacity="1"></path></g></g><g><g><g><g><g transform="matrix(1,0,0,1,260.95001220703125,19.816671752929686)"><path transform="matrix(0.0119,0,0,-0.0119,0,0)" d="M271 204L242 77C238 60 236 42 236 26C236 4 245 -9 260 -9C283 -9 324 17 406 85L399 106C375 86 346 59 324 59C315 59 309 68 309 82C309 87 309 90 310 93L402 472L392 481L359 463C318 478 301 482 274 482C246 482 226 477 199 464C137 433 104 403 79 354C35 265 4 145 4 67C4 23 19 -11 38 -11C75 -11 155 41 271 204ZM319 414C297 305 278 253 244 201C187 117 126 59 94 59C82 59 76 72 76 99C76 163 104 280 139 360C163 415 186 433 234 433C257 433 275 429 319 414Z" stroke="rgb(144,19,254)" stroke-opacity="1" stroke-width="8" fill="rgb(144,19,254)" fill-opacity="1"></path></g></g></g></g></g></g></g></svg>
</svg>
